<?xml version="1.0" standalone="no"?>
<!DOCTYPE svg PUBLIC "-//W3C//DTD SVG 1.1//EN" "http://www.w3.org/Graphics/SVG/1.1/DTD/svg11.dtd" >
<svg xmlns="http://www.w3.org/2000/svg" xmlns:xlink="http://www.w3.org/1999/xlink" version="1.1">
<metadata></metadata>
<defs>
<font id="pedigree_boldregular" horiz-adv-x="1155" >
<font-face units-per-em="2048" ascent="1616" descent="-432" />
<missing-glyph horiz-adv-x="512" />
<glyph horiz-adv-x="0" />
<glyph unicode="&#xd;" horiz-adv-x="512" />
<glyph unicode=" "  horiz-adv-x="512" />
<glyph unicode="&#x09;" horiz-adv-x="512" />
<glyph unicode="&#xa0;" horiz-adv-x="512" />
<glyph unicode="!" horiz-adv-x="498" d="M113 156q0 32 12 60.5t33 50t49.5 34t60.5 12.5t61 -12.5t50.5 -34t34 -50t12.5 -60.5t-12.5 -60.5t-34 -49.5t-50.5 -33.5t-61 -12.5t-60.5 12.5t-49.5 33.5t-33 49.5t-12 60.5zM123 1487q-1 27 10.5 50.5t32 41t47 27.5t55.5 10q31 0 57.5 -10t46 -27.5t31 -41 t11.5 -50.5l-37 -909q-1 -27 -8 -51t-20.5 -42t-33.5 -28.5t-47 -10.5t-46.5 10.5t-33 28.5t-20.5 42t-8 51z" />
<glyph unicode="&#x22;" horiz-adv-x="702" d="M53 1470q-4 29 6 54t28.5 43.5t44.5 29.5t54 11t53.5 -11t44.5 -29.5t29 -43.5t6 -54l-30 -276q-5 -43 -31.5 -73.5t-71.5 -30.5q-46 0 -71.5 30.5t-30.5 73.5zM381 1470q-4 29 6 54t29 43.5t44.5 29.5t53.5 11q29 0 54.5 -11t44.5 -29.5t29 -43.5t7 -54l-33 -276 q-6 -43 -31 -73.5t-71 -30.5q-45 0 -71 30.5t-31 73.5z" />
<glyph unicode="#" horiz-adv-x="1065" d="M2 786q5 47 38.5 78t80.5 31h90q2 20 4 36t4 31t4 32t4 38h-86q-24 0 -44 9t-33.5 24.5t-20 36.5t-4.5 45q2 22 12.5 41.5t26 33.5t36.5 22.5t44 8.5h90q5 47 10 93.5t10 91.5q3 21 13.5 40.5t26 34t36 23t43.5 8.5t43.5 -9t35 -25t22 -36.5t4.5 -43.5q-3 -25 -5.5 -47 t-4.5 -42.5t-4.5 -41.5t-4.5 -46h135q5 47 10.5 93.5t8.5 91.5q3 21 13.5 40.5t26 34t36.5 23t45 8.5t44.5 -9t35 -25t21 -36.5t3.5 -43.5q-2 -25 -4.5 -47t-5.5 -42.5t-5.5 -41.5t-5.5 -46h87q24 0 44.5 -8.5t34.5 -23.5t20.5 -35t4.5 -43q-2 -22 -12.5 -42.5t-27 -35.5 t-37.5 -24t-44 -9h-90q-2 -20 -4 -36t-4 -31t-4 -32t-4 -38h86q50 0 79.5 -32.5t24.5 -82.5q-3 -23 -14 -42.5t-27 -34t-36.5 -23t-43.5 -8.5h-92q-3 -47 -8 -92.5t-10 -90.5q-2 -21 -11 -40.5t-24 -34.5t-35 -24t-45 -9q-24 0 -45 9t-36 24.5t-22.5 36t-5.5 43.5l19 178 h-135q-5 -47 -10.5 -92.5t-10.5 -90.5q-2 -21 -11.5 -40.5t-24.5 -34.5t-35 -24t-43 -9t-44 9t-36 24.5t-23 36t-6 43.5l20 178h-88q-49 0 -77.5 32.5t-22.5 81.5zM434 895h137q3 20 4.5 36t3 31t3.5 32t4 38h-135z" />
<glyph unicode="$" horiz-adv-x="1276" d="M10 444q0 47 11 79.5t29.5 52.5t42 29t48.5 9q50 0 87.5 -31t45.5 -91q8 -45 32 -85.5t59 -73t78.5 -56.5t91.5 -37v462q-85 31 -167 67.5t-147 86.5t-105 116t-40 156q0 92 33 164t93.5 124.5t145 84t187.5 41.5v74q0 42 26.5 68t65.5 26q40 0 66 -26t26 -68v-76 q101 -12 183.5 -46t142 -82t92 -105.5t32.5 -116.5q0 -69 -36 -111.5t-93 -42.5q-38 0 -74.5 23.5t-58.5 73.5q-13 32 -33 56t-45 42t-53 30t-57 19v-369q59 -21 119.5 -45.5t117 -54t105.5 -65.5t85.5 -81t57.5 -100t21 -123q0 -105 -41 -187.5t-110 -141.5t-161 -94 t-194 -44v-94q0 -40 -26 -66t-66 -26q-39 0 -65.5 26t-26.5 66v96q-96 11 -172.5 39.5t-135 68t-99.5 87t-67.5 95.5t-38.5 94t-12 83zM358 1128q0 -47 49 -82t128 -67v305q-79 -17 -128 -58.5t-49 -97.5zM719 231q41 8 81 24t71 41.5t50 61.5t19 84q0 33 -16.5 60.5 t-46 50.5t-70 43.5t-88.5 38.5v-404z" />
<glyph unicode="%" horiz-adv-x="1559" d="M51 1135q0 100 23.5 176.5t66 128.5t101.5 79t131 27q71 0 130 -27t101.5 -79t66 -128.5t23.5 -176.5t-23.5 -177t-66 -129t-101.5 -79t-130 -27q-72 0 -131 27t-101.5 79t-66 129t-23.5 177zM238 1135q0 -56 9.5 -102t26.5 -78.5t42.5 -50t56.5 -17.5q32 0 57 17.5 t42 50t26.5 78.5t9.5 102t-9.5 101.5t-26.5 78t-42 50t-57 17.5q-31 0 -56.5 -17.5t-42.5 -50t-26.5 -78t-9.5 -101.5zM322 88q0 14 3 29.5t11 29.5l713 1315q15 32 40 44t50 12q11 0 25.5 -3.5t29 -12.5t26.5 -23.5t17 -36.5q3 -16 1 -35.5t-11 -36.5l-717 -1317 q-14 -25 -35.5 -39t-52.5 -14q-21 0 -39 7t-31.5 19t-21.5 28t-8 34zM864 383q0 100 23.5 176.5t66 129t101.5 79.5t131 27q71 0 130 -27t101.5 -79.5t66 -129t23.5 -176.5t-23.5 -176.5t-66 -129t-101.5 -79.5t-130 -27q-72 0 -131 27t-101.5 79.5t-66 129t-23.5 176.5z M1051 383q0 -56 9.5 -102t26.5 -78.5t42.5 -50t56.5 -17.5q32 0 57 17.5t42 50t26.5 78.5t9.5 102t-9.5 101.5t-26.5 78t-42 50.5t-57 18q-31 0 -56.5 -18t-42.5 -50.5t-26.5 -78t-9.5 -101.5z" />
<glyph unicode="&#x26;" horiz-adv-x="1380" d="M61 426q0 85 26 152.5t69.5 123t100.5 100.5t120 85q6 3 12 7q5 3 13 7.5t16 9.5q-24 32 -54 69t-57 81t-45 94t-18 107q0 84 32 154.5t87.5 121.5t131.5 79t164 28q97 0 177 -27.5t137 -78t88 -120.5t31 -155q0 -69 -19 -124.5t-54 -103.5t-86 -91t-116 -87q-1 -1 -3 -2 t-3.5 -2t-3.5 -2l207 -260q8 12 14 24.5t14 26.5q25 47 40.5 80.5t23.5 62.5q9 32 32 48t52 16q25 0 52 -11t49 -30.5t36 -47t14 -59.5q0 -10 -5 -33t-17.5 -57t-34.5 -78.5t-57 -97.5q-10 -15 -20 -30.5t-21 -30.5l131 -162q17 -20 30 -44.5t13 -49.5q0 -30 -12 -57 t-32 -47t-47 -32t-57 -12q-29 0 -55 12t-45 35l-111 144q-45 -41 -96.5 -76t-109 -60.5t-121.5 -40t-135 -14.5q-105 0 -192.5 32t-151 91t-99 143t-35.5 189zM356 426q0 -16 7 -47t28 -62t59 -54t99 -23q83 0 156.5 34t136.5 93l-256 335q-8 -5 -14.5 -9t-12.5 -9 q-37 -26 -73.5 -54t-65.5 -59.5t-46.5 -67t-17.5 -77.5zM535 1262q0 -42 24.5 -86.5t58.5 -88.5l27 -34q2 2 4 2t4 2q42 26 73 48.5t50.5 46t29 50t9.5 60.5q0 55 -38.5 87.5t-100.5 32.5q-25 0 -50.5 -9.5t-45.5 -25.5t-32.5 -38t-12.5 -47z" />
<glyph unicode="'" horiz-adv-x="373" d="M53 1470q-4 29 6 54t28.5 43.5t44.5 29.5t54 11t53.5 -11t44.5 -29.5t29 -43.5t6 -54t-8 -64.5t-8 -72.5t-7.5 -73t-6.5 -66q-6 -43 -32 -73.5t-71 -30.5q-46 0 -71 30.5t-31 73.5z" />
<glyph unicode="(" horiz-adv-x="666" d="M72 805q0 136 20.5 262t60 237t98.5 204.5t136 164.5q19 17 46.5 31t53.5 14q28 0 53 -11.5t44 -31t30 -44.5t11 -52q0 -37 -20.5 -63t-49.5 -54q-58 -52 -96 -122t-61 -154t-32.5 -180t-9.5 -201t9.5 -201.5t33 -181t63 -155.5t99.5 -126q25 -21 44.5 -47t19.5 -63 q0 -27 -11 -52.5t-30 -45t-44 -31t-53 -11.5q-26 0 -53.5 14.5t-46.5 31.5q-78 71 -136.5 164.5t-98 205t-59.5 237.5t-21 261z" />
<glyph unicode=")" horiz-adv-x="666" d="M41 31q0 37 19.5 63t43.5 47q60 55 99 126t62.5 155.5t32.5 181t9 201.5t-9 201t-31.5 180t-60.5 154t-95 122q-29 28 -49.5 54t-20.5 63q0 27 11 52t30 44.5t43.5 31t52.5 11.5q26 0 54 -14t47 -31q77 -71 135.5 -164.5t98.5 -204.5t60.5 -237t20.5 -262 q-1 -135 -21 -261t-60 -237.5t-98.5 -205t-135.5 -164.5q-19 -17 -47 -31.5t-54 -14.5q-28 0 -52.5 11.5t-43.5 31t-30 45t-11 52.5z" />
<glyph unicode="*" horiz-adv-x="811" d="M53.5 1067q-2.5 19 2.5 37.5t16.5 34.5t29.5 26l105 60l-101 59q-18 10 -30 26t-17 34.5t-2.5 38.5t13.5 38q10 18 25.5 29.5t34 16t38 2t37.5 -12.5l100 -57v117q0 42 28 71t70 29q21 0 39.5 -8t32 -21.5t21.5 -31.5t8 -39v-119l102 59q18 10 37.5 12.5t38 -2t34 -16 t25.5 -29.5q11 -18 13.5 -38t-2.5 -38.5t-17 -34.5t-30 -26l-101 -59l105 -60q18 -10 29.5 -26t16.5 -34.5t2.5 -37.5t-12.5 -37t-26 -29.5t-34.5 -17t-38.5 -3t-38 12.5l-104 60v-119q0 -21 -8 -38.5t-21.5 -31t-32 -21t-39.5 -7.5q-42 0 -70 28t-28 70v119l-102 -60 q-18 -10 -38 -12.5t-38.5 3t-34 17t-26.5 29.5q-10 18 -12.5 37z" />
<glyph unicode="+" horiz-adv-x="944" d="M41 809q0 22 8.5 41.5t23.5 33.5t35 22.5t42 8.5h215v218q0 22 8.5 41.5t23.5 33.5t34.5 22.5t41.5 8.5t41.5 -8.5t34 -22.5t23 -33.5t8.5 -41.5v-218h217q45 0 75.5 -30.5t30.5 -75.5q0 -22 -8.5 -42t-22.5 -35t-33.5 -23.5t-41.5 -8.5h-217v-215q0 -22 -8.5 -41.5 t-23 -34.5t-34 -23.5t-41.5 -8.5t-41.5 8.5t-34.5 23.5t-23.5 34.5t-8.5 41.5v215h-215q-22 0 -42 8.5t-35 23.5t-23.5 35t-8.5 42z" />
<glyph unicode="," horiz-adv-x="459" d="M72 156q0 32 12 60.5t33 50t49.5 34t60.5 12.5q40 0 70 -14.5t50 -39.5t30 -59t10 -73q0 -78 -30.5 -160.5t-98.5 -156.5q-12 -13 -26.5 -19t-28.5 -6q-15 0 -29.5 6t-25 15.5t-17 22.5t-6.5 28q0 17 11 30t24 25q34 39 49 88q-29 3 -54 16.5t-43.5 34.5t-29 48t-10.5 57 z" />
<glyph unicode="-" horiz-adv-x="825" d="M41 723q0 24 9.5 46.5t26 39.5t39.5 27t50 10h496q25 0 47.5 -10t39 -27t26 -39.5t9.5 -46.5q0 -25 -9.5 -47t-26 -39t-39 -27t-47.5 -10h-496q-27 0 -50 10t-39.5 27t-26 39t-9.5 47z" />
<glyph unicode="." horiz-adv-x="457" d="M72 156q0 32 12 60.5t33 50t49.5 34t60.5 12.5q33 0 62 -12.5t50 -34t33.5 -50t12.5 -60.5t-12.5 -60.5t-33.5 -49.5t-50 -33.5t-62 -12.5q-32 0 -60.5 12.5t-49.5 33.5t-33 49.5t-12 60.5z" />
<glyph unicode="/" horiz-adv-x="1036" d="M32.5 29q-3.5 32 10.5 63l727 1608q20 43 48.5 59.5t66.5 16.5q33 0 59 -15.5t41.5 -40t18.5 -55.5t-11 -63l-727 -1612q-17 -37 -49 -56.5t-67 -19.5q-31 0 -56.5 16t-41.5 41.5t-19.5 57.5z" />
<glyph unicode="0" horiz-adv-x="1389" d="M61 756q0 180 43.5 325.5t125 249t199 159.5t265.5 56q149 0 266 -56t199 -159.5t125 -249t43 -325.5t-43 -325t-125 -247.5t-199 -157.5t-266 -55q-148 0 -265.5 55t-199 157.5t-125 247.5t-43.5 325zM354 756q0 -134 23.5 -233.5t68 -165.5t107.5 -99t141 -33t141 33 t107.5 99t68 165.5t23.5 233.5q0 133 -23.5 233t-68 167t-107.5 100.5t-141 33.5t-141 -33.5t-107.5 -100.5t-68 -167t-23.5 -233z" />
<glyph unicode="1" horiz-adv-x="627" d="M-20 1120q0 39 19.5 61.5t52 42.5t74 45.5t85.5 71.5q30 32 53 64t46 57t49 40.5t63 15.5q29 0 55 -9.5t45.5 -28t31 -46t11.5 -62.5v-1227q0 -30 -11.5 -56t-32 -46t-47 -31.5t-56.5 -11.5q-31 0 -58 11.5t-47 31.5t-31.5 46t-11.5 56v863h-155q-39 0 -64.5 8.5 t-41.5 23.5t-22.5 35.5t-6.5 44.5z" />
<glyph unicode="2" horiz-adv-x="1186" d="M41 127q0 69 34 132.5t90 123t127.5 116t146 111t146 108t127.5 107t90 108t34 111.5q0 66 -21.5 113t-58.5 77t-84.5 44t-100.5 14q-43 0 -84 -9.5t-73 -32.5t-52 -61.5t-20 -96.5q0 -25 -11 -46t-29 -35t-41.5 -22t-49.5 -8q-28 0 -53.5 10t-45.5 31t-32 53.5t-12 77.5 q0 100 44.5 174t116.5 122.5t162.5 72.5t181.5 24q107 0 208 -27t180 -87t126.5 -155.5t47.5 -232.5q0 -84 -35 -156t-93.5 -137.5t-133.5 -125.5t-155.5 -120t-160.5 -122t-147 -131h608q26 0 48.5 -9.5t39.5 -26.5t27 -40t10 -49q0 -27 -10 -50t-27 -40.5t-39.5 -27 t-48.5 -9.5h-850q-27 0 -50 11.5t-40.5 29.5t-27 40.5t-9.5 45.5z" />
<glyph unicode="3" horiz-adv-x="1227" d="M31 377q0 32 11.5 58t30.5 44t43.5 27.5t49.5 9.5q35 0 64.5 -17t41.5 -55q11 -34 33.5 -73t59 -71t90 -53.5t125.5 -21.5q52 0 103.5 14t92 42t65.5 68.5t25 94.5q0 79 -31 128t-78 76t-102.5 36.5t-105.5 9.5q-18 0 -31.5 9.5t-23 24.5t-14.5 33t-5 36q0 37 18 64.5 t56 27.5q36 0 85.5 9.5t94 33t76 63.5t31.5 101q0 45 -17.5 81.5t-50 62t-78 39t-102.5 13.5q-58 0 -102.5 -18.5t-75.5 -48t-49 -65t-25 -70.5q-9 -50 -40.5 -71.5t-68.5 -21.5q-25 0 -50 9.5t-44.5 28t-32 47t-12.5 65.5q0 30 11 71t35 85.5t62.5 88t94 77.5t129.5 55.5 t168 21.5q128 0 228 -35.5t169 -95.5t105 -138.5t36 -164.5q0 -79 -29 -133.5t-67.5 -90t-76 -55t-54.5 -28.5q74 -27 133 -75q25 -21 49 -48t42.5 -62.5t30 -79t11.5 -96.5q0 -124 -51 -213.5t-133.5 -147t-187.5 -85t-213 -27.5q-105 0 -186.5 22.5t-142.5 59t-103 81.5 t-68 90t-37.5 85.5t-11.5 67.5z" />
<glyph unicode="4" horiz-adv-x="1255" d="M10 578q0 49 19.5 95.5t56.5 88.5l539 635q21 25 42.5 47t45 38.5t49.5 26t55 9.5q48 0 86.5 -16.5t65.5 -45.5t42 -69t15 -87v-698h102q26 0 49.5 -9.5t40.5 -27t27 -40.5t10 -50q0 -26 -10 -48.5t-27 -39.5t-40.5 -27t-49.5 -10h-102v-205q0 -30 -11.5 -56t-31.5 -46 t-47 -31.5t-59 -11.5q-30 0 -56.5 11.5t-46.5 31.5t-31.5 46t-11.5 56v205h-477q-55 0 -100.5 18.5t-77 49.5t-49 72.5t-17.5 87.5zM276 602h455v533z" />
<glyph unicode="5" horiz-adv-x="1243" d="M41 332q0 35 12.5 63.5t33 48.5t46.5 30.5t53 10.5q34 0 61.5 -19.5t43.5 -66.5q18 -54 46.5 -87.5t66 -53t84 -26.5t100.5 -7q59 0 114 17.5t97.5 52.5t68 86.5t25.5 120.5q0 57 -21 107.5t-59 88t-90.5 59t-114.5 21.5q-52 0 -92 -9t-72 -22t-59 -28.5t-52.5 -28.5 t-52 -22t-57.5 -9q-29 0 -57 11.5t-48.5 33t-31 52t-4.5 67.5l94 557q5 29 12.5 54.5t24 44t45.5 29t76 10.5h635q26 0 49 -10t40.5 -27.5t27.5 -40t10 -47.5q0 -27 -10 -50t-27.5 -40.5t-40.5 -27t-49 -9.5h-557l-56 -346q26 16 60.5 33.5t75.5 32.5t87.5 24.5t96.5 9.5 q119 0 214.5 -42.5t162.5 -114.5t103 -165.5t36 -195.5q0 -87 -24 -160t-66 -132t-99.5 -104t-125 -75t-141 -45t-148.5 -15q-101 0 -181 17t-140.5 45t-103.5 65t-70 77t-39.5 81t-12.5 76z" />
<glyph unicode="6" horiz-adv-x="1280" d="M61 731q0 185 40.5 335t117 257t187 165t251.5 58q101 0 178.5 -17.5t135 -45.5t97 -62.5t63.5 -70t35 -67.5t12 -54q2 -28 -9.5 -49t-30.5 -35t-42.5 -21.5t-46.5 -7.5q-28 0 -51.5 9.5t-34.5 29.5q-21 37 -45.5 62.5t-57 42t-75 24t-99.5 8.5q-73 1 -135 -32 t-107 -87.5t-70 -124t-24 -141.5q40 32 90 57q43 21 102 38.5t130 17.5q128 0 229 -39.5t172 -109t108.5 -165.5t37.5 -210q0 -121 -44.5 -218t-120.5 -165t-176.5 -105t-211.5 -37q-142 0 -254.5 47.5t-190.5 142.5t-119 237.5t-41 332.5zM367 510q0 -62 22.5 -114.5 t62 -90.5t92.5 -59t113 -21q56 0 105.5 21.5t86.5 58t59 86.5t22 107q0 58 -22.5 109t-61 89t-90.5 60t-111 22q-57 0 -107.5 -20.5t-88.5 -56.5t-60 -85t-22 -106z" />
<glyph unicode="7" horiz-adv-x="1102" d="M31 1393q0 25 10 47.5t27.5 40t40.5 27.5t49 10h733q38 0 70.5 -12.5t57 -33.5t38.5 -50t14 -62q0 -35 -14.5 -69t-42.5 -62q-47 -52 -105 -121.5t-117 -152.5t-115 -177t-99.5 -193.5t-70 -203t-26.5 -205.5q0 -37 -9 -69t-27.5 -56t-46 -37.5t-64.5 -13.5t-63 14.5 t-43 39t-25 56.5t-8 66q0 54 14.5 130t43.5 166.5t73 191.5t103.5 204t135 204.5t166.5 193.5h-573q-26 0 -49 9.5t-40.5 27t-27.5 40.5t-10 50z" />
<glyph unicode="8" horiz-adv-x="1294" d="M51 455q0 57 10.5 103t27.5 82.5t38.5 64.5t44.5 49q54 48 121 73q-50 22 -90 61q-17 17 -33 38.5t-29 48.5t-20.5 60t-7.5 73q0 103 41.5 184t113.5 137.5t169.5 86.5t209.5 30t209.5 -30t170 -86.5t114 -137.5t41.5 -184q0 -40 -7.5 -73t-20.5 -60t-29 -48.5t-33 -38.5 q-40 -39 -91 -61q67 -25 121 -73q23 -21 44.5 -49t38.5 -64.5t27.5 -82.5t10.5 -103q0 -105 -43.5 -194t-122.5 -153.5t-188.5 -100.5t-241.5 -36t-241.5 36t-188.5 100.5t-122.5 153.5t-43.5 194zM340 455q0 -65 26.5 -111t70 -75t98.5 -42.5t112 -13.5t112 13.5t98.5 42.5 t70 75t26.5 111t-26.5 112.5t-69.5 78t-98 45t-113 14.5q-57 0 -112.5 -14.5t-98.5 -45t-69.5 -78t-26.5 -112.5zM395 1108q0 -48 18.5 -85t51.5 -62.5t79.5 -38.5t102.5 -13t102.5 13t79.5 38.5t51.5 62.5t18.5 85q0 47 -18.5 85t-51.5 64.5t-79.5 41t-102.5 14.5 t-102.5 -14.5t-79.5 -41t-51.5 -64.5t-18.5 -85z" />
<glyph unicode="9" horiz-adv-x="1264" d="M61 1014q0 120 43 218.5t117 168t173 107.5t210 38q141 0 252 -49t188 -143t117.5 -229.5t40.5 -309.5q0 -187 -40 -342.5t-118 -267t-192 -173t-262 -61.5q-131 0 -223.5 30.5t-151 75.5t-85 97.5t-26.5 95.5q0 28 12 50.5t31 38t42.5 24t46.5 8.5q27 0 51 -12.5 t35 -34.5q20 -40 51 -63.5t67 -36t75 -16t75 -3.5q61 0 114.5 27.5t94 74t64 108t24.5 130.5q-38 -20 -85 -36q-40 -14 -93 -25.5t-115 -11.5q-123 0 -221.5 39.5t-168 109.5t-106.5 165.5t-37 207.5zM336 1014q0 -58 22.5 -110t60.5 -90t89.5 -60.5t109.5 -22.5 q56 0 106 21t87.5 57.5t60.5 85.5t25 106q2 62 -19 115.5t-60.5 92.5t-94 61t-119.5 22q-55 0 -104 -22t-85.5 -59.5t-57.5 -88.5t-21 -108z" />
<glyph unicode=":" horiz-adv-x="457" d="M72 156q0 32 12 60.5t33 50t49.5 34t60.5 12.5q33 0 62 -12.5t50 -34t33.5 -50t12.5 -60.5t-12.5 -60.5t-33.5 -49.5t-50 -33.5t-62 -12.5q-32 0 -60.5 12.5t-49.5 33.5t-33 49.5t-12 60.5zM72 748q0 32 12 60.5t33 50t49.5 34t60.5 12.5q33 0 62 -12.5t50 -34t33.5 -50 t12.5 -60.5t-12.5 -60.5t-33.5 -49.5t-50 -33.5t-62 -12.5q-32 0 -60.5 12.5t-49.5 33.5t-33 49.5t-12 60.5z" />
<glyph unicode=";" horiz-adv-x="459" d="M72 156q0 32 12 60.5t33 50t49.5 34t60.5 12.5q40 0 70 -14.5t50 -39.5t30 -59t10 -73q0 -78 -30.5 -160.5t-98.5 -156.5q-12 -13 -26.5 -19t-28.5 -6q-15 0 -29.5 6t-25 15.5t-17 22.5t-6.5 28q0 17 11 30t24 25q34 39 49 88q-29 3 -54 16.5t-43.5 34.5t-29 48t-10.5 57 zM72 748q0 32 12 60.5t33 50t49.5 34t60.5 12.5q33 0 62 -12.5t50 -34t33.5 -50t12.5 -60.5t-12.5 -60.5t-33.5 -49.5t-50 -33.5t-62 -12.5q-32 0 -60.5 12.5t-49.5 33.5t-33 49.5t-12 60.5z" />
<glyph unicode="=" horiz-adv-x="944" d="M41 645q0 23 8.5 42.5t23.5 33.5t35 22.5t42 8.5h647q22 0 41.5 -8.5t33.5 -22.5t22.5 -33.5t8.5 -42.5q0 -22 -8.5 -41.5t-22.5 -34.5t-33.5 -23.5t-41.5 -8.5h-647q-22 0 -42 8.5t-35 23.5t-23.5 34.5t-8.5 41.5zM41 973q0 22 8.5 41.5t23.5 33.5t35 22.5t42 8.5h647 q45 0 75.5 -30.5t30.5 -75.5q0 -22 -8.5 -42t-22.5 -35t-33.5 -23.5t-41.5 -8.5h-647q-22 0 -42 8.5t-35 23.5t-23.5 35t-8.5 42z" />
<glyph unicode="?" horiz-adv-x="1223" d="M92 1235q0 40 16 85.5t47 91t76.5 87.5t104 74.5t130.5 52t155 19.5q112 0 213.5 -32t179 -95t123 -157t45.5 -218q0 -66 -24 -122.5t-62.5 -105t-87.5 -91t-100 -81t-99 -75.5t-84 -74q-20 -21 -31.5 -46.5t-24 -48t-30 -38t-49.5 -15.5q-18 0 -39.5 7t-39.5 24 t-30 45.5t-12 71.5q0 62 30.5 111t76 90.5t98.5 79.5t98.5 78.5t76 86.5t30.5 103q0 47 -19 89t-53.5 73.5t-81.5 50t-104 18.5q-70 0 -116 -17t-77 -45.5t-51.5 -66.5t-38.5 -80q-19 -43 -50 -61.5t-63 -18.5q-27 0 -51 6.5t-42 23.5t-29 46t-11 74zM432 156 q0 32 12.5 60.5t34 50t50.5 34t61 12.5t60.5 -12.5t49.5 -34t33 -50t12 -60.5t-12 -60.5t-33 -49.5t-49.5 -33.5t-60.5 -12.5t-61 12.5t-50.5 33.5t-34 49.5t-12.5 60.5z" />
<glyph unicode="@" horiz-adv-x="1866" d="M72 817q0 119 30.5 229t86.5 205.5t134.5 174.5t174 135t205.5 87t229 31t229 -31t205.5 -87t174.5 -135t135 -174.5t87 -205.5t31 -229q0 -77 -8 -154.5t-26.5 -149t-48.5 -133.5t-74.5 -107.5t-104 -72t-137.5 -26.5t-140 19.5t-106 55t-69.5 86.5t-32.5 114 q-30 -22 -60 -35.5t-61.5 -21t-64.5 -10.5t-68 -3q-53 0 -106.5 16t-96 48.5t-69.5 81.5t-27 114q0 88 36 143t93.5 87.5t128.5 48t141 24.5q112 14 159.5 37t47.5 68q0 22 -12.5 35.5t-32 21t-43 10t-45.5 2.5q-52 0 -85.5 -7t-55.5 -17t-35.5 -22t-26 -22t-27.5 -17 t-39 -7q-18 0 -34.5 7.5t-29 20t-20.5 29.5t-8 35q0 36 23.5 69.5t70 60t115.5 42t160 15.5q78 0 143.5 -17.5t111.5 -51t69.5 -84t15.5 -116.5l-51 -485q-3 -27 -1.5 -58t15 -58t41.5 -44.5t76 -17.5q36 0 64 19.5t49 52.5t35.5 77.5t24 94t13.5 101.5t4 101q0 89 -23 172 t-65.5 154.5t-102 130.5t-131.5 101.5t-154.5 65.5t-172.5 23q-89 0 -171.5 -23t-154 -65.5t-130.5 -101.5t-101 -130.5t-65 -154.5t-23 -172t23 -172.5t65 -155.5t101 -131.5t130.5 -102t154 -66t171.5 -23.5q33 0 49.5 2t26 4t17.5 4t24 2q22 0 41 -8.5t32.5 -23t21 -34 t7.5 -40.5q0 -44 -21.5 -67.5t-53.5 -34t-67.5 -12t-64.5 -1.5q-123 0 -235.5 30.5t-210 86.5t-177 134.5t-135.5 174t-87 205.5t-31 229zM705 643q0 -23 12.5 -38t32 -24t43.5 -12.5t47 -3.5q35 0 73 9.5t70.5 28.5t55 48.5t26.5 69.5l8 70l-6 -3q-32 -8 -71 -13t-79.5 -10 t-78.5 -12.5t-67.5 -21t-47.5 -34.5t-18 -54z" />
<glyph unicode="A" horiz-adv-x="1305" d="M2 128q-2 13 -2 25q0 24 8 50l408 1278q14 44 37.5 75t54.5 50.5t68 29t77 9.5q82 0 146 -38.5t92 -125.5l405 -1278q8 -25 8 -50q0 -13 -2 -25q-6 -36 -26 -64.5t-52 -46t-71 -17.5q-46 0 -83 32.5t-54 86.5l-111 364h-504l-112 -364q-16 -53 -51.5 -85t-81.5 -34 q-40 0 -73 17t-54 46t-27 65zM479 735h348l-174 565z" />
<glyph unicode="B" horiz-adv-x="1409" d="M102 162v1294q0 19 6.5 46.5t24.5 52.5t49.5 43t81.5 18h574q117 0 208.5 -33t155.5 -89t97.5 -130t33.5 -156q0 -74 -19.5 -127.5t-50.5 -91.5t-69.5 -64t-75.5 -46q34 -19 78.5 -48.5t85 -74t68.5 -107t28 -149.5q0 -97 -32 -187.5t-97.5 -159.5t-165.5 -110.5 t-237 -42.5h-582q-28 0 -57 9t-52.5 28.5t-38 50.5t-14.5 74zM418 274h424q47 0 89 17.5t74 48t51 71.5t19 89t-19 88.5t-51 70.5t-74 47t-89 17h-424v-449zM418 975h420q39 0 73.5 14.5t60 39.5t40 59t14.5 73t-14.5 72t-40 57t-60 37.5t-73.5 13.5h-420v-366z" />
<glyph unicode="C" horiz-adv-x="1462" d="M61 809q0 109 20.5 213t61 197t102 171t143 134.5t184 88.5t225.5 32q127 0 227 -35t174 -87.5t122.5 -113t70.5 -111.5q20 -45 20 -86.5t-17 -73t-49.5 -50.5t-76.5 -19q-28 0 -48.5 6.5t-34.5 18t-24.5 27.5t-19.5 34q-18 36 -43.5 74.5t-65.5 71t-97 53t-138 20.5 q-68 0 -126 -23t-105 -63t-83 -94t-60.5 -117t-37 -131t-12.5 -137q0 -68 12.5 -137t37 -132t60.5 -117.5t83 -94.5t105 -63t126 -23q81 0 138 21t97 53.5t65.5 71.5t43.5 75q9 18 19.5 34t24.5 27.5t34.5 18t48.5 6.5q44 0 76.5 -19t49.5 -50.5t17 -73.5t-20 -87 q-22 -51 -70.5 -111.5t-122.5 -113t-174 -88t-227 -35.5q-123 0 -225.5 32t-184 89t-143 135.5t-102 171.5t-61 197.5t-20.5 212.5z" />
<glyph unicode="D" horiz-adv-x="1503" d="M102 162v1294q0 19 6.5 46.5t24.5 52.5t49.5 43t81.5 18h443q129 0 234 -32.5t186.5 -89t141 -134t98 -167t57 -187.5t18.5 -197t-18.5 -197t-57 -188t-98 -167.5t-141 -134.5t-186 -89.5t-234.5 -32.5h-443q-28 0 -57 9t-52.5 28.5t-38 50.5t-14.5 74zM418 274h289 q121 0 202 46t129.5 121.5t69 171.5t20.5 196t-20.5 195.5t-69 170.5t-129.5 120.5t-202 45.5h-289v-1067z" />
<glyph unicode="E" horiz-adv-x="1307" d="M102 162v1294q0 19 6.5 46.5t24.5 52.5t49.5 43t81.5 18h840q35 0 64.5 -9.5t51 -27t34 -43t12.5 -57.5t-12.5 -57.5t-34 -43.5t-51 -27.5t-64.5 -9.5h-686v-344h573q35 0 64.5 -9.5t51 -27t34 -43t12.5 -57.5t-12.5 -57.5t-34 -43t-51 -27t-64.5 -9.5h-573v-449h686 q35 0 64.5 -9.5t51 -27t34 -43t12.5 -57.5t-12.5 -57.5t-34 -43t-51 -27t-64.5 -9.5h-840q-28 0 -57 9t-52.5 28.5t-38 50.5t-14.5 74z" />
<glyph unicode="F" horiz-adv-x="1249" d="M102 162v1292q0 20 6.5 47.5t24.5 53t49.5 43.5t81.5 18h813q35 0 64.5 -9.5t51 -27t34 -43t12.5 -57.5t-12.5 -57.5t-34 -43.5t-51 -27.5t-64.5 -9.5h-659v-344h547q35 0 64 -9.5t51 -27t34 -43t12 -57.5t-12 -57.5t-34 -43t-51 -27t-64 -9.5h-547v-561q0 -34 -12.5 -64 t-34 -51.5t-50.5 -34t-61 -12.5t-61 12.5t-50.5 34t-34 51.5t-12.5 64z" />
<glyph unicode="G" horiz-adv-x="1536" d="M61 809q0 109 20.5 213t61 197t102 171t143 134.5t184 88.5t225.5 32q127 0 227 -35t174 -87.5t122.5 -113t70.5 -111.5q20 -45 20 -86.5t-17 -73t-49.5 -50.5t-76.5 -19q-28 0 -48.5 6.5t-34.5 18t-24.5 27.5t-19.5 34q-18 36 -43.5 74.5t-65.5 71t-97 53t-138 20.5 q-68 0 -126 -23t-105 -63t-83 -94t-60.5 -117t-37 -131.5t-12.5 -136.5t12.5 -137t37 -132t61 -117.5t83.5 -94.5t104.5 -63t125.5 -23q70 0 123.5 15.5t93.5 41t68 58.5t46 67q43 80 52 182h-265q-26 0 -49.5 10t-41 27.5t-28 41t-10.5 50.5t10.5 50.5t28 41t41 27.5 t49.5 10h433q35 0 61 -14t43 -39t25 -59.5t8 -75.5q0 -147 -45.5 -276t-133 -224t-215.5 -150t-294 -55q-123 0 -225.5 32t-184 89t-143 135.5t-102 171.5t-61 197.5t-20.5 212.5z" />
<glyph unicode="H" horiz-adv-x="1503" d="M102 162v1292q0 35 12.5 64.5t34 51t50.5 34t61 12.5t61 -12.5t50.5 -34t34 -51t12.5 -64.5v-457h667v457q0 35 12.5 64.5t34 51t50.5 34t61 12.5t61 -12.5t50.5 -34t34 -51t12.5 -64.5v-1292q0 -34 -12.5 -64t-34 -51.5t-50.5 -34t-61 -12.5t-61 12.5t-50.5 34t-34 51.5 t-12.5 64v561h-667v-561q0 -34 -12.5 -64t-34 -51.5t-50.5 -34t-61 -12.5t-61 12.5t-50.5 34t-34 51.5t-12.5 64z" />
<glyph unicode="I" horiz-adv-x="520" d="M102 162v1292q0 35 12.5 64.5t34 51t50.5 34t61 12.5t61 -12.5t50.5 -34t34 -51t12.5 -64.5v-1292q0 -34 -12.5 -64t-34 -51.5t-50.5 -34t-61 -12.5t-61 12.5t-50.5 34t-34 51.5t-12.5 64z" />
<glyph unicode="J" horiz-adv-x="1149" d="M31 426q0 35 10 64.5t28.5 51t44.5 34t58 12.5t57.5 -12.5t43 -34t27 -51t9.5 -64.5q0 -48 16.5 -83t46 -57.5t70 -33t88.5 -10.5q42 0 79 13.5t64 38t42.5 58.5t15.5 74v1028q0 35 12.5 64.5t34 51t50.5 34t61 12.5t61 -12.5t50.5 -34t34 -51t12.5 -64.5v-1028 q0 -89 -35 -171.5t-102 -145.5t-162.5 -100.5t-217.5 -37.5q-125 0 -218.5 37.5t-156 100.5t-93.5 145.5t-31 171.5z" />
<glyph unicode="K" horiz-adv-x="1317" d="M102 162v1292q0 35 12.5 64.5t34 51t50.5 34t61 12.5t61 -12.5t50.5 -34t34 -51t12.5 -64.5v-467l561 569q28 29 60 44.5t63 15.5q24 0 47.5 -11.5t41.5 -29.5t29 -41t11 -47q0 -66 -55 -123l-383 -385l489 -731q35 -53 35 -107q0 -25 -10 -50t-28 -45.5t-42 -33 t-53 -12.5q-41 0 -78.5 23t-65.5 63l-456 680l-166 -170v-434q0 -34 -12.5 -64t-34 -51.5t-50.5 -34t-61 -12.5t-61 12.5t-50.5 34t-34 51.5t-12.5 64z" />
<glyph unicode="L" horiz-adv-x="1204" d="M102 162v1292q0 35 12.5 64.5t34 51t50.5 34t61 12.5t61 -12.5t50.5 -34t34 -51t12.5 -64.5v-1180h614q35 0 64.5 -9.5t51 -27t34 -43t12.5 -57.5t-12.5 -57.5t-34 -43t-51 -27t-64.5 -9.5h-772q-32 0 -61 12.5t-50.5 34t-34 51.5t-12.5 64z" />
<glyph unicode="M" horiz-adv-x="1776" d="M102 162v1229q0 55 17.5 97t47 70t68.5 42.5t82 15.5h8q36 0 71 -8q39 -9 73 -32t62 -63t47 -102l309 -997l311 997q19 62 47 102t62 63q35 23 73 32q35 8 70 8h8q43 -1 82 -15.5t68.5 -42.5t47 -70t17.5 -97v-1229q0 -34 -11 -64t-30.5 -51.5t-46.5 -34t-59 -12.5 t-59.5 12.5t-47 34t-30.5 51.5t-11 64v991l-299 -987q-14 -50 -33.5 -82t-43.5 -51t-53 -26t-62 -7t-62 7t-53.5 26t-44 51t-33.5 82l-297 981v-985q0 -34 -11 -64t-30.5 -51.5t-46.5 -34t-59 -12.5t-59.5 12.5t-47 34t-30.5 51.5t-11 64z" />
<glyph unicode="N" horiz-adv-x="1499" d="M102 162v1284q0 40 13 71.5t36 53.5t54 33.5t67 11.5q37 0 69.5 -8t62.5 -27t58 -50.5t56 -78.5l584 -979v981q0 35 11 64.5t30.5 51t46.5 34t59 12.5t59.5 -12.5t47 -34t30.5 -51t11 -64.5v-1284q0 -40 -13 -71.5t-36 -53.5t-54 -33.5t-67 -11.5t-69 8t-63 27t-58 50.5 t-56 78.5l-584 973v-975q0 -34 -11 -64t-30.5 -51.5t-46.5 -34t-59 -12.5t-59.5 12.5t-47 34t-30.5 51.5t-11 64z" />
<glyph unicode="O" horiz-adv-x="1589" d="M61 809q0 108 20.5 212t61.5 197t102.5 171t143 135t183.5 89t223 32t222.5 -32t183 -89t143 -135t102.5 -171t61.5 -197t20.5 -212t-20.5 -212t-61.5 -197t-102.5 -172t-143 -136t-183 -89t-222.5 -32t-223 32t-183.5 89t-143 136t-102.5 172t-61.5 197t-20.5 212z M356 809q0 -70 11 -139t33.5 -132t58 -117t84 -94t111.5 -62.5t141 -22.5q117 0 200 49.5t136 129.5t77.5 181.5t24.5 206.5q0 104 -24.5 205.5t-77.5 181.5t-136 129t-200 49t-200 -49t-136.5 -129t-78 -181.5t-24.5 -205.5z" />
<glyph unicode="P" horiz-adv-x="1352" d="M102 162v1294q0 19 6.5 46.5t24.5 52.5t49.5 43t81.5 18h490q125 0 226 -40.5t172 -111t109.5 -165t38.5 -201.5q0 -108 -38.5 -202t-109.5 -164.5t-172 -111t-226 -40.5h-336v-418q0 -34 -12.5 -64t-34 -51.5t-50.5 -34t-61 -12.5t-61 12.5t-50.5 34t-34 51.5t-12.5 64z M418 854h336q54 0 100 18t79.5 50t53 77t19.5 99t-19.5 98.5t-53 76.5t-79.5 50t-100 18h-336v-487z" />
<glyph unicode="Q" horiz-adv-x="1589" d="M61 809q0 108 20.5 212t61.5 197t102.5 171t143 135t183.5 89t223 32t222.5 -32t183 -89t143 -135t102.5 -171t61.5 -197t20.5 -212q0 -155 -42.5 -299t-125.5 -258l65 -62q31 -29 48.5 -59t17.5 -61q0 -22 -10 -42t-26.5 -35.5t-37 -24.5t-41.5 -9q-31 0 -62 15t-59 42 l-69 66q-81 -53 -178.5 -82t-212.5 -29q-121 0 -223 32t-183.5 89t-143 136t-102.5 172t-61.5 197t-20.5 212zM356 809q0 -70 11 -139t33.5 -132t58 -117t84 -94t111.5 -62.5t141 -22.5q52 0 97 10t83 29l-31 30q-29 28 -47 57t-18 58q0 22 10 43t26 37.5t36.5 26.5t41.5 10 q31 0 62 -15t59 -43l35 -34q43 77 63.5 169.5t20.5 188.5q0 104 -24.5 205.5t-77.5 181.5t-136 129t-200 49t-200 -49t-136.5 -129t-78 -181.5t-24.5 -205.5z" />
<glyph unicode="R" horiz-adv-x="1397" d="M102 162v1294q0 19 6.5 46.5t24.5 52.5t49.5 43t81.5 18h555q118 0 214.5 -32.5t165.5 -89.5t106.5 -134t37.5 -166q0 -150 -71 -254t-211 -152q41 -15 80.5 -33t72 -43t55 -59t27.5 -82l47 -428q4 -34 -9 -60.5t-36 -45t-53 -28t-59 -9.5t-55.5 9t-47 26t-33.5 40.5 t-16 51.5l-45 377q-3 24 -19 51t-49 49t-84 36.5t-124 14.5h-295v-493q0 -34 -12.5 -64t-34 -51.5t-50.5 -34t-61 -12.5t-61 12.5t-50.5 34t-34 51.5t-12.5 64zM418 907h401q46 0 86.5 16t71 45.5t48 70.5t17.5 91t-17.5 89.5t-48 66.5t-71 41t-86.5 14h-401v-434z" />
<glyph unicode="S" horiz-adv-x="1321" d="M0 397q0 33 9 62t26.5 51t41.5 34.5t54 12.5q21 0 43 -4.5t40 -15t31 -29t17 -47.5q8 -55 39.5 -96.5t82.5 -68.5t118.5 -40.5t146.5 -13.5q76 0 138 13.5t105.5 40t67 65t23.5 88.5q0 49 -25.5 85t-69 64t-102 50t-124 43t-135 42.5t-135 49t-124 62t-102 81.5 t-69 108.5t-25.5 141.5q0 116 44.5 203.5t122.5 146.5t185 89t233 30q102 0 184.5 -19.5t146.5 -51.5t110 -72.5t75.5 -82.5t43.5 -82t14 -71q0 -32 -12.5 -57.5t-33 -43.5t-46.5 -27.5t-52 -9.5q-34 0 -65 19.5t-45 56.5q-19 51 -53 85.5t-77 55.5t-92.5 30t-99.5 9 q-146 0 -219.5 -51.5t-73.5 -136.5q0 -57 39.5 -95t104 -66.5t147 -52.5t168.5 -52t168.5 -65.5t147 -93t104 -134t39.5 -188.5q0 -124 -54 -214t-143 -148.5t-202 -87t-232 -28.5q-111 0 -202.5 19t-164 51.5t-125.5 75.5t-88 90.5t-52 96.5t-17 93z" />
<glyph unicode="T" horiz-adv-x="1315" d="M10 1479q0 32 12.5 57.5t34 43t51.5 27t64 9.5h971q35 0 64.5 -9.5t51 -27t34 -43t12.5 -57.5t-12.5 -57.5t-34 -43.5t-51 -27.5t-64.5 -9.5h-328v-1179q0 -34 -12.5 -64t-34 -51.5t-50.5 -34t-61 -12.5t-60.5 12.5t-50 34t-34 51.5t-12.5 64v1179h-328q-34 0 -64 9.5 t-51.5 27.5t-34 43.5t-12.5 57.5z" />
<glyph unicode="U" horiz-adv-x="1438" d="M102 483v971q0 35 12.5 64.5t34 51t50.5 34t61 12.5t61 -12.5t50.5 -34t34 -51t12.5 -64.5v-969q0 -64 25.5 -110.5t68 -75.5t96.5 -43t111 -14t111 14t96 43t68 75.5t26 110.5v969q0 35 12.5 64.5t34 51t50.5 34t61 12.5t60.5 -12.5t50 -34t34 -51t12.5 -64.5v-971 q0 -96 -24 -171.5t-66.5 -132.5t-101 -96.5t-127 -64.5t-144 -36t-153.5 -11t-154 11t-144.5 36t-127 64.5t-101 96.5t-66.5 132.5t-24 171.5z" />
<glyph unicode="V" horiz-adv-x="1260" d="M2 1476q2 31 15 57.5t35.5 47t53.5 29.5q13 5 25 5.5t23 0.5q46 0 83.5 -32.5t53.5 -86.5l338 -1022l340 1022q15 53 51.5 85t83.5 34q12 0 24.5 -0.5t24.5 -5.5q32 -9 54.5 -29.5t35 -47t14.5 -57.5t-8 -63l-432 -1290q-9 -31 -28 -54t-44.5 -38.5t-55.5 -23t-60 -7.5 t-59 7.5t-54 23t-44.5 38.5t-29.5 54l-432 1290q-10 32 -8 63z" />
<glyph unicode="W" horiz-adv-x="1880" d="M2 1495q4 35 21 62t45.5 43t66.5 16h5q48 0 84 -33q38 -35 50 -92l261 -1016l260 1016q15 59 53.5 92t91.5 33q54 0 93 -33t54 -92l259 -1012l260 1012q14 56 49.5 90.5t85.5 34.5q39 0 68 -15.5t47 -42.5q18 -26 22 -62q1 -11 1 -22q0 -25 -7 -53l-338 -1294 q-11 -44 -39.5 -73t-66.5 -43.5t-80.5 -14.5t-80.5 14.5t-67.5 44t-40.5 72.5l-219 942l-217 -942q-11 -43 -40.5 -72.5t-67.5 -44t-80.5 -14.5t-80.5 14.5t-67.5 43.5t-40.5 73l-338 1294q-7 27 -7 52q0 11 1 22z" />
<glyph unicode="X" horiz-adv-x="1235" d="M33 115.5q-3 27.5 5.5 57t27.5 58.5l387 600l-357 553q-19 29 -27.5 58.5t-5.5 57.5t18 52.5t42 42.5q17 11 35 16t37 5q37 0 72 -21t61 -61l288 -451l291 451q26 38 60 60t71 22q19 0 37 -5t37 -16q27 -18 42 -42.5t18 -52.5t-5.5 -57.5t-27.5 -58.5l-359 -553l389 -600 q20 -29 28 -58.5t5 -57t-17.5 -51t-41.5 -41.5q-35 -23 -70 -23q-38 0 -73 22t-60 62l-324 496l-321 -496q-25 -40 -59.5 -62t-71.5 -22t-72 23q-27 18 -41.5 41.5t-17.5 51z" />
<glyph unicode="Y" horiz-adv-x="1233" d="M2.5 1506.5q4.5 27.5 20 50.5t43.5 38q17 11 33.5 16t33.5 5q38 0 73 -25t60 -67l350 -609l351 611q24 42 58.5 65t72.5 25q17 0 34 -4t35 -15q28 -15 43.5 -38t20 -50.5t-2 -57.5t-22.5 -60l-432 -754v-475q0 -34 -12.5 -64t-34 -51.5t-50.5 -34t-61 -12.5t-60.5 12.5 t-50 34t-34 51.5t-12.5 64v475l-432 752q-16 30 -22.5 60t-2 57.5z" />
<glyph unicode="Z" horiz-adv-x="1260" d="M0 156q0 28 8 54.5t27 49.5l790 1081h-630q-35 0 -64.5 9.5t-51.5 27.5t-34 43.5t-12 57.5t12 57.5t34 43t51.5 27t64.5 9.5h872q32 0 60 -12t49.5 -33t34 -49t12.5 -60q0 -28 -9.5 -54t-27.5 -52l-778 -1082h659q35 0 64.5 -9.5t51 -27t34 -43t12.5 -57.5t-12.5 -57.5 t-34 -43t-51 -27t-64.5 -9.5h-934q-29 0 -53.5 15t-42 37.5t-27.5 50.5t-10 53z" />
<glyph unicode="[" horiz-adv-x="575" d="M92 -16v1597q0 52 17.5 98.5t52.5 81t87.5 54.5t123.5 20h86q62 0 99.5 -34t37.5 -91t-37.5 -91t-99.5 -34h-78q-5 0 -8.5 -2.5t-3.5 -13.5v-1573q0 -11 3.5 -13.5t8.5 -2.5h78q62 0 99.5 -33t37.5 -90t-37.5 -91t-99.5 -34h-86q-71 0 -123.5 20t-87.5 54.5t-52.5 80 t-17.5 97.5z" />
<glyph unicode="\" horiz-adv-x="1036" d="M32 1665q3 31 18.5 55.5t42 40t59.5 15.5q38 0 66 -16.5t48 -59.5l727 -1608q14 -31 10.5 -63t-19 -57.5t-41 -41.5t-56.5 -16q-35 0 -67.5 19.5t-49.5 56.5l-727 1612q-14 32 -11 63z" />
<glyph unicode="]" horiz-adv-x="616" d="M20 -143q0 57 38 90t98 33h80q5 0 8.5 2.5t3.5 13.5v1573q0 11 -3.5 13.5t-8.5 2.5h-80q-60 0 -98 34t-38 91t38 91t98 34h88q70 0 122.5 -20t87.5 -54.5t52.5 -81t17.5 -98.5v-1597q0 -52 -17.5 -97.5t-52.5 -80t-87.5 -54.5t-122.5 -20h-88q-60 0 -98 34t-38 91z" />
<glyph unicode="_" horiz-adv-x="1071" d="M0 -236q0 22 8.5 42.5t24 35.5t36.5 24t46 9h846q24 0 44 -9t34.5 -24t23 -35.5t8.5 -42.5q0 -21 -8.5 -41t-23 -35.5t-34.5 -24.5t-44 -9h-846q-25 0 -46 9t-36.5 24.5t-24 35.5t-8.5 41z" />
<glyph unicode="`" horiz-adv-x="584" d="M82 1604q0 24 10 44t25.5 33.5t33.5 21t33 7.5q25 0 50 -12.5t57 -44.5l182 -183q29 -27 29 -75q0 -26 -10 -44t-25 -29.5t-33 -16.5t-33 -5q-23 0 -41.5 6t-33.5 21l-197 178q-15 14 -31 37.5t-16 61.5z" />
<glyph unicode="a" d="M41 332q0 91 32 151.5t84 99.5t119 62t136.5 38t136.5 27t119 30.5t84 47.5t32 78q0 32 -18 55t-48.5 39t-71 23.5t-85.5 7.5q-53 0 -90 -9t-62.5 -23.5t-41.5 -33t-25 -36.5q-26 -53 -55.5 -71.5t-71.5 -18.5q-17 0 -36.5 5t-36 16t-27.5 28.5t-11 42.5q0 65 35.5 119 t99 94t151 62t192.5 22q104 0 192.5 -18.5t152.5 -57t100 -97.5t36 -141v-733q0 -29 -11 -55t-30.5 -45t-45 -30t-54.5 -11q-28 0 -52.5 9.5t-43.5 26.5t-31 40t-15 51q-38 -37 -78.5 -61.5t-85 -39t-92.5 -20.5t-102 -6q-70 0 -138 21.5t-122 63.5t-87.5 104t-33.5 143z M319 352q0 -28 9.5 -55t32 -47t60 -32.5t93.5 -12.5q48 0 95.5 11t85.5 33t61.5 53.5t23.5 72.5v198q-45 -15 -96 -29q-44 -12 -99.5 -25t-115.5 -23q-75 -13 -112.5 -50.5t-37.5 -93.5z" />
<glyph unicode="b" horiz-adv-x="1233" d="M92 152v1312q0 32 12 60t32.5 48.5t47.5 32t58 11.5t58 -11.5t47.5 -32t32 -48.5t11.5 -60v-422q27 40 74 73q40 28 104.5 50.5t159.5 22.5q101 0 184.5 -41t143 -117.5t92.5 -186t33 -247.5q0 -132 -36 -241.5t-99.5 -188.5t-150 -122.5t-187.5 -43.5q-45 0 -82 6.5 t-68 16.5t-55 23.5t-43 26.5q-44 32 -70 72q0 -31 -11.5 -57.5t-32 -46t-47.5 -30.5t-58 -11t-58 11.5t-47.5 32t-32.5 48.5t-12 60zM365 596q0 -81 18.5 -146.5t53 -111t85.5 -70t115 -24.5q65 0 115.5 24.5t85 70t53 111t18.5 146.5t-18.5 145.5t-53 110t-85 70 t-115.5 24.5q-64 0 -115 -24.5t-85.5 -70t-53 -110t-18.5 -145.5z" />
<glyph unicode="c" d="M51 580q0 140 42 252.5t117 191.5t178 121.5t224 42.5q88 0 159.5 -17.5t126.5 -46t95 -65.5t66 -75t38.5 -74t12.5 -64q0 -65 -34 -96t-87 -31q-45 0 -75.5 19.5t-43.5 49.5q-11 29 -27.5 59.5t-45 56.5t-73 42.5t-112.5 16.5q-61 0 -114 -25t-92 -73.5t-61.5 -120 t-22.5 -164.5q0 -94 22.5 -165.5t61.5 -120.5t92 -74t114 -25q68 0 114.5 16t78 41.5t49.5 56.5t29 62q11 32 40 51.5t74 19.5q53 0 85 -33.5t32 -93.5q0 -29 -13.5 -66t-40.5 -75t-68.5 -74.5t-97.5 -65t-126 -46t-156 -17.5q-121 0 -224 42t-178 121t-117 192t-42 254z " />
<glyph unicode="d" horiz-adv-x="1233" d="M51 594q0 132 32 241.5t91 187.5t141.5 121.5t184.5 43.5q100 0 166 -23t105 -52q46 -33 71 -75v426q0 32 12 60t32 48.5t47 32t58 11.5t58 -11.5t47.5 -32t32.5 -48.5t12 -60v-1312q0 -32 -12 -60t-32.5 -48.5t-47.5 -32t-58 -11.5t-58 11t-47 31t-32 47.5t-12 60.5 q-25 -42 -71 -75q-39 -29 -105 -52t-166 -23q-102 0 -184.5 43.5t-141.5 121.5t-91 187.5t-32 241.5zM324 596q0 -81 18.5 -146.5t53 -111t85.5 -70t115 -24.5q65 0 115.5 24.5t85 70t53 111t18.5 146.5t-18.5 145.5t-53 110t-85 70t-115.5 24.5q-64 0 -115 -24.5t-85.5 -70 t-53 -110t-18.5 -145.5z" />
<glyph unicode="e" horiz-adv-x="1169" d="M51 565q0 138 39 252.5t112.5 197t180.5 128t242 45.5q75 0 140 -15.5t119.5 -44t98 -67.5t74.5 -86q25 -37 43 -85t18 -91q0 -47 -24.5 -89.5t-79.5 -68.5l-639 -287q23 -45 59 -80q31 -30 80.5 -55.5t120.5 -25.5q101 0 164.5 44.5t95.5 116.5q15 34 44.5 47t64.5 13 q48 0 80 -31t32 -88q0 -22 -14 -55t-42 -69t-69 -71.5t-94 -64.5t-119 -46.5t-143 -17.5q-125 0 -232 43.5t-185 122t-122.5 188t-44.5 240.5zM309 559l537 240q-13 43 -36.5 74.5t-53.5 52.5t-65 31t-70 10q-74 0 -134.5 -35.5t-102.5 -93.5q-42 -56 -62 -130 q-15 -54 -15 -110q0 -20 2 -39z" />
<glyph unicode="f" horiz-adv-x="700" d="M-51 1071q0 19 6.5 39.5t19.5 38t32.5 28.5t45.5 11h109v135q0 54 12.5 107t45.5 95t90.5 68.5t148.5 26.5h209q26 0 45.5 -11t32.5 -28.5t19.5 -38t6.5 -39.5q0 -20 -6.5 -40.5t-19.5 -37.5t-32.5 -28t-45.5 -11h-68q-32 0 -58 -3.5t-44 -19t-27.5 -48t-9.5 -90.5v-37 h149q26 0 46 -11t33 -28.5t19.5 -38t6.5 -39.5q0 -20 -6.5 -40.5t-19.5 -37.5t-33 -28t-46 -11h-149v-802q0 -32 -12 -60t-32.5 -48.5t-47.5 -32t-58 -11.5t-58 11.5t-47 32t-32 48.5t-12 60v802h-109q-26 0 -45.5 11t-32.5 28t-19.5 37.5t-6.5 40.5z" />
<glyph unicode="g" horiz-adv-x="1233" d="M51 594q0 132 33.5 241.5t94 187.5t144.5 121.5t185 43.5q100 0 164.5 -23t102.5 -52q44 -33 67 -75q0 32 12 59.5t32 47.5t47 31.5t58 11.5t58 -11.5t47.5 -32t32.5 -48.5t12 -60v-1077q0 -71 -23.5 -128.5t-64.5 -101.5t-96 -76t-118.5 -52.5t-132 -30.5t-135.5 -10 q-89 0 -174.5 17.5t-153 50.5t-108.5 79t-41 103q0 30 9 52.5t24 38t34 23.5t38 8q37 0 59.5 -15t48.5 -46q17 -20 43.5 -38.5t61 -33t75 -23.5t84.5 -9q93 0 147 19.5t81.5 48.5t35 62.5t7.5 61.5v191q-25 -42 -71 -75q-39 -29 -105 -52t-166 -23q-102 0 -184.5 43.5 t-141.5 121.5t-91 187.5t-32 241.5zM324 592q0 -81 18.5 -145.5t53 -110t85.5 -70t115 -24.5q65 0 115.5 24.5t85 70t53 110t18.5 145.5t-18.5 146.5t-53 111t-85 70t-115.5 24.5q-64 0 -115 -24.5t-85.5 -70t-53 -111t-18.5 -146.5z" />
<glyph unicode="h" horiz-adv-x="1212" d="M92 152v1312q0 32 12 60t32.5 48.5t47.5 32t58 11.5t58 -11.5t47.5 -32t32 -48.5t11.5 -60v-422q3 5 24.5 28.5t63.5 49.5t106 47t152 21q78 0 148 -26t122 -74t82.5 -115t30.5 -148v-673q0 -32 -11.5 -60t-32 -48.5t-47.5 -32t-58 -11.5t-58 11.5t-47.5 32t-32.5 48.5 t-12 60v575q0 45 -17 84t-46 68t-68 46t-84 17q-40 0 -78.5 -14t-69 -38t-49 -57.5t-18.5 -72.5v-608q0 -32 -11.5 -60t-32 -48.5t-47.5 -32t-58 -11.5t-58 11.5t-47.5 32t-32.5 48.5t-12 60z" />
<glyph unicode="i" horiz-adv-x="483" d="M74 1495q0 35 13.5 65.5t36 53t53.5 36t65 13.5q35 0 65.5 -13.5t53 -36t36 -53t13.5 -65.5q0 -34 -13.5 -65t-36 -53.5t-53 -36t-65.5 -13.5q-34 0 -65 13.5t-53.5 36t-36 53.5t-13.5 65zM92 152v884q0 32 12 60t32.5 48.5t47.5 32t58 11.5t58 -11.5t47.5 -32t32 -48.5 t11.5 -60v-884q0 -32 -11.5 -60t-32 -48.5t-47.5 -32t-58 -11.5t-58 11.5t-47.5 32t-32.5 48.5t-12 60z" />
<glyph unicode="j" horiz-adv-x="483" d="M-219 -315q0 20 6.5 40.5t19.5 37.5t32.5 27.5t45.5 10.5h68q32 0 58 3.5t44 19t27.5 48t9.5 91.5v1073q0 32 12 60t32.5 48.5t47.5 32t58 11.5t58 -11.5t47.5 -32t32 -48.5t11.5 -60v-1171q0 -54 -12.5 -107t-45.5 -95.5t-90.5 -68.5t-148.5 -26h-209q-26 0 -45.5 11 t-32.5 28t-19.5 37.5t-6.5 40.5zM74 1495q0 35 13.5 65.5t36 53t53.5 36t65 13.5q35 0 65.5 -13.5t53 -36t36 -53t13.5 -65.5q0 -34 -13.5 -65t-36 -53.5t-53 -36t-65.5 -13.5q-34 0 -65 13.5t-53.5 36t-36 53.5t-13.5 65z" />
<glyph unicode="k" horiz-adv-x="1077" d="M92 152v1312q0 32 12 60t32.5 48.5t47.5 32t58 11.5t58 -11.5t47.5 -32t32 -48.5t11.5 -60v-753l387 417q26 29 57 44.5t62 15.5q25 0 46.5 -11t37.5 -28.5t25.5 -40t9.5 -45.5q0 -28 -13 -56t-34 -51l-228 -245l328 -488q14 -20 21.5 -41t7.5 -43q0 -34 -15.5 -64.5 t-46.5 -51.5q-25 -17 -52.5 -22t-54 1.5t-51 23.5t-44.5 44l-287 430l-156 -168v-180q0 -32 -11.5 -60t-32 -48.5t-47.5 -32t-58 -11.5t-58 11.5t-47.5 32t-32.5 48.5t-12 60z" />
<glyph unicode="l" horiz-adv-x="483" d="M92 152v1312q0 32 12 60t32.5 48.5t47.5 32t58 11.5t58 -11.5t47.5 -32t32 -48.5t11.5 -60v-1312q0 -32 -11.5 -60t-32 -48.5t-47.5 -32t-58 -11.5t-58 11.5t-47.5 32t-32.5 48.5t-12 60z" />
<glyph unicode="m" horiz-adv-x="1901" d="M92 152v884q0 32 12 60t32.5 48.5t47.5 32t58 11.5q30 0 57 -11.5t47 -31t32 -46.5t13 -59q32 41 81 74q42 28 107.5 51t157.5 23q109 0 192 -47.5t128 -132.5q16 22 46 53t77 59t112.5 48t153.5 20q78 0 144.5 -26t115 -74t75.5 -115t27 -148v-673q0 -32 -11.5 -60 t-32 -48.5t-47.5 -32t-58 -11.5t-58 11.5t-47.5 32t-32.5 48.5t-12 60v575q0 45 -13.5 84t-39 68t-61 46t-80.5 17q-42 0 -79.5 -15.5t-66.5 -42.5t-47.5 -63t-21.5 -78v-591q0 -32 -12 -60t-32.5 -48.5t-47.5 -32t-58 -11.5t-58 11.5t-47 32t-32 48.5t-12 60v575 q0 45 -13.5 84t-39 68t-61.5 46t-81 17q-43 0 -81 -16t-67.5 -44t-47 -66t-19.5 -81v-583q0 -32 -11.5 -60t-32 -48.5t-47.5 -32t-58 -11.5t-58 11.5t-47.5 32t-32.5 48.5t-12 60z" />
<glyph unicode="n" horiz-adv-x="1212" d="M92 152v884q0 32 12 60t32.5 48.5t47.5 32t58 11.5q30 0 57 -11.5t47 -31t32 -46.5t13 -59q32 41 81 74q42 28 107.5 51t157.5 23q78 0 148 -26t122 -74t82.5 -115t30.5 -148v-673q0 -32 -11.5 -60t-32 -48.5t-47.5 -32t-58 -11.5t-58 11.5t-47.5 32t-32.5 48.5t-12 60 v575q0 45 -17 84t-46 68t-68 46t-84 17q-43 0 -81 -16t-67.5 -44t-47 -66t-19.5 -81v-583q0 -32 -11.5 -60t-32 -48.5t-47.5 -32t-58 -11.5t-58 11.5t-47.5 32t-32.5 48.5t-12 60z" />
<glyph unicode="o" horiz-adv-x="1290" d="M51 580q0 135 46 247t126.5 192t189 124.5t232.5 44.5q125 0 233 -44.5t188.5 -124.5t126.5 -192t46 -247t-46 -247.5t-126.5 -192.5t-188.5 -124.5t-233 -44.5q-124 0 -232.5 44.5t-189 124.5t-126.5 192.5t-46 247.5zM326 580q0 -78 21.5 -148t62.5 -123t100.5 -84.5 t134.5 -31.5t134.5 31.5t101 84.5t63 123t21.5 148q0 77 -21.5 147.5t-63 123.5t-101 84.5t-134.5 31.5t-134.5 -31.5t-100.5 -84.5t-62.5 -123.5t-21.5 -147.5z" />
<glyph unicode="p" horiz-adv-x="1233" d="M92 -281v1317q0 32 12 60t32.5 48.5t47.5 32t58 11.5t58 -11.5t47.5 -31.5t32 -47.5t11.5 -59.5q25 42 71 75q39 29 105 52t166 23q102 0 184.5 -43.5t141.5 -121.5t91 -187.5t32 -241.5t-32 -241.5t-91 -187.5t-141.5 -121.5t-184.5 -43.5q-100 0 -166 23t-105 52 q-46 33 -71 75v-431q0 -32 -11.5 -60t-32 -48t-47.5 -31.5t-58 -11.5t-58 11.5t-47.5 31.5t-32.5 48t-12 60zM365 592q0 -81 18.5 -145.5t53 -110t85.5 -70t115 -24.5q65 0 115.5 24.5t85 70t53 110t18.5 145.5t-18.5 146.5t-53 111t-85 70t-115.5 24.5q-64 0 -115 -24.5 t-85.5 -70t-53 -111t-18.5 -146.5z" />
<glyph unicode="q" horiz-adv-x="1233" d="M51 594q0 132 32 241.5t91 187.5t141.5 121.5t184.5 43.5q100 0 166 -23t105 -52q46 -33 71 -75q0 32 12 59.5t32 47.5t47 31.5t58 11.5t58 -11.5t47.5 -32t32.5 -48.5t12 -60v-1317q0 -32 -12 -60t-32.5 -48t-47.5 -31.5t-58 -11.5t-58 11.5t-47 31.5t-32 48t-12 60v431 q-25 -42 -71 -75q-39 -29 -105 -52t-166 -23q-102 0 -184.5 43.5t-141.5 121.5t-91 187.5t-32 241.5zM324 592q0 -81 18.5 -145.5t53 -110t85.5 -70t115 -24.5q65 0 115.5 24.5t85 70t53 110t18.5 145.5t-18.5 146.5t-53 111t-85 70t-115.5 24.5q-64 0 -115 -24.5t-85.5 -70 t-53 -111t-18.5 -146.5z" />
<glyph unicode="r" horiz-adv-x="770" d="M92 152v884q0 32 12 60t32.5 48.5t47.5 32t58 11.5q30 0 57 -11.5t47 -32t32 -47.5t13 -59q17 23 44.5 49.5t61.5 49t71.5 37t74.5 14.5q42 0 70 -11t45.5 -29.5t25 -43.5t7.5 -53q0 -54 -34.5 -88.5t-88.5 -42.5q-70 -10 -122 -34.5t-86.5 -60.5t-51.5 -82t-17 -100 v-491q0 -32 -11.5 -60t-32 -48.5t-47.5 -32t-58 -11.5t-58 11.5t-47.5 32t-32.5 48.5t-12 60z" />
<glyph unicode="s" horiz-adv-x="1044" d="M20 297q0 54 35 86.5t90 32.5q31 0 55.5 -19.5t37.5 -56.5q15 -48 42.5 -78.5t65 -47t83.5 -22.5t99 -6q35 0 71 9.5t65.5 27.5t48 44.5t18.5 60.5q0 25 -14 43t-39 32.5t-58.5 26.5t-72.5 25q-50 16 -106 34t-111 40.5t-104.5 52t-87.5 68.5t-60.5 90t-22.5 116 q0 78 35.5 139.5t97.5 104t147 65.5t185 23q116 0 204 -26.5t147.5 -68.5t89.5 -93.5t30 -102.5q0 -27 -11.5 -49.5t-30 -38t-41.5 -24.5t-46 -9q-25 0 -47 12t-33 39q-14 39 -39.5 66.5t-60 45t-76 26t-86.5 8.5q-40 0 -75 -7.5t-61.5 -22t-42 -36.5t-15.5 -51 q0 -43 41 -71t105 -50t142 -43.5t152 -52.5q51 -21 96 -48.5t78.5 -64.5t53.5 -85.5t20 -112.5q0 -91 -44.5 -158t-114.5 -111t-156.5 -66t-170.5 -22q-147 0 -244.5 33t-156 82.5t-83 106t-24.5 104.5z" />
<glyph unicode="t" horiz-adv-x="684" d="M-31 1071q0 19 6.5 39.5t19.5 38t33 28.5t46 11h108v227q0 32 12 60t32.5 48.5t47.5 32t58 11.5t58 -11.5t47.5 -32t32 -48.5t11.5 -60v-227h129q26 0 46 -11t33 -28.5t19.5 -38t6.5 -39.5q0 -20 -6.5 -40.5t-19.5 -37.5t-33 -28t-46 -11h-129v-802q0 -32 -11.5 -60 t-32 -48.5t-47.5 -32t-58 -11.5t-58 11.5t-47.5 32t-32.5 48.5t-12 60v802h-108q-26 0 -46 11t-33 28t-19.5 37.5t-6.5 40.5z" />
<glyph unicode="u" horiz-adv-x="1212" d="M92 362v674q0 32 12 60t32.5 48.5t47.5 32t58 11.5t58 -11.5t47.5 -32t32 -48.5t11.5 -60v-575q0 -45 17 -84t46 -68t68 -46t84 -17q43 0 81.5 16t67.5 44t47 66t19 81v583q0 32 12 60t32.5 48.5t47.5 32t58 11.5t58 -11.5t47.5 -32t32 -48.5t11.5 -60v-884 q0 -32 -11.5 -60t-32 -48.5t-47.5 -32t-58 -11.5q-30 0 -57 11t-47.5 31t-32.5 47t-13 58q-32 -40 -81 -73q-42 -28 -107.5 -51t-157.5 -23q-78 0 -148 26t-122 73.5t-82.5 114.5t-30.5 148z" />
<glyph unicode="v" horiz-adv-x="1028" d="M-20 1057q1 29 11 54t30 43.5t49 27.5q9 3 19.5 4.5t16.5 1.5q47 0 81.5 -32t48.5 -85l278 -741l279 741q14 51 46 84t79 33q8 0 18.5 -1.5t21.5 -4.5q29 -9 49 -27.5t30 -43.5t11 -54t-8 -60l-317 -847q-12 -42 -35.5 -70.5t-52.5 -46t-60.5 -25.5t-60.5 -8q-28 0 -60 8 t-61 25.5t-52.5 46t-35.5 70.5l-317 847q-9 31 -8 60z" />
<glyph unicode="w" horiz-adv-x="1608" d="M-20 1044q0 37 12.5 64t32.5 45t44 26.5t46 8.5q23 0 44.5 -8t39.5 -22t31.5 -34t19.5 -43l192 -706l191 682q17 59 63.5 95t108.5 36t106.5 -36t61.5 -95l190 -682l195 706q12 47 49.5 77t83.5 30q33 0 58.5 -12.5t43 -33.5t26.5 -47t9 -53q0 -18 -6 -41l-262 -854 q-20 -65 -69.5 -106t-127.5 -41q-28 0 -55.5 11.5t-50.5 31.5t-41 47t-27 57l-188 646l-191 -646q-9 -30 -24 -57t-36 -47t-48 -31.5t-60 -11.5q-77 0 -126.5 41t-69.5 106l-260 854q-6 23 -6 43z" />
<glyph unicode="x" horiz-adv-x="944" d="M-9.5 115q-1.5 26 8 53t28.5 53l286 402l-245 344q-19 25 -28.5 52t-8 53.5t14.5 49.5t38 41q37 25 74 25q34 0 65 -20t56 -54l192 -270l195 270q24 34 55 54t65 20q39 0 74 -25q25 -18 38 -41t14.5 -49.5t-7.5 -53.5t-28 -52l-246 -344l287 -402q18 -26 27.5 -53t8 -53 t-14 -49t-38.5 -41q-32 -25 -72 -25q-34 0 -66 19t-56 53l-236 327l-233 -327q-25 -34 -56 -53t-65 -19q-37 0 -74 25q-25 18 -38 41t-14.5 49z" />
<glyph unicode="y" horiz-adv-x="1040" d="M-18 1062q4 34 20.5 62t45 46t65.5 18q49 0 81.5 -33t51.5 -84l278 -741l279 741q18 50 48 83.5t77 33.5q37 0 65 -16t44.5 -43t20.5 -61q1 -10 1 -19q0 -26 -8 -52l-416 -1151q-18 -51 -39 -100.5t-54 -89t-84 -64t-130 -24.5h-209q-26 0 -46 11t-33 28t-19.5 37.5 t-6.5 40.5t6.5 40.5t19.5 37.5t33 27.5t46 10.5h88q57 0 91 7.5t46 41.5l39 101l-393 1046q-9 24 -9 49q0 8 1 16z" />
<glyph unicode="z" horiz-adv-x="995" d="M-10 145q0 28 9.5 55t29.5 50l592 704h-484q-26 0 -45.5 11t-32.5 28t-19.5 37.5t-6.5 40.5q0 19 6.5 39.5t19.5 38t32.5 28.5t45.5 11h672q36 0 65.5 -10.5t51 -29.5t34 -45t13.5 -56q2 -28 -7.5 -56t-29.5 -53l-582 -705h514q26 0 46 -11t33 -28t19.5 -37.5t6.5 -39.5 q0 -20 -6.5 -41t-19.5 -38t-33 -27.5t-46 -10.5h-702q-34 0 -65.5 9t-55.5 27.5t-39 45.5t-16 63z" />
<glyph unicode="{" horiz-adv-x="696" d="M61 780q0 34 17.5 55t40.5 39q14 11 28.5 26t14.5 40v629q0 54 17.5 101t53.5 82.5t90 56t126 20.5h83q65 0 104.5 -36t39.5 -95q0 -62 -39.5 -98.5t-104.5 -36.5h-77v-623q-1 -32 -10.5 -55.5t-24.5 -42t-32.5 -33t-33.5 -29.5q18 -13 35.5 -27.5t32 -33.5t23.5 -42.5 t10 -55.5v-621h77q65 0 104.5 -34.5t39.5 -96.5t-39.5 -98.5t-104.5 -36.5h-83q-72 0 -126 21t-90 56.5t-53.5 82.5t-17.5 100v627q0 23 -15 38t-30 29q-22 19 -39 40t-17 52z" />
<glyph unicode="|" horiz-adv-x="461" d="M82 31v1558q0 31 12 58t32 47t46.5 31.5t56.5 11.5q31 0 58 -11.5t47.5 -31.5t32.5 -47t12 -58v-1558q0 -31 -12 -58t-32.5 -47t-47.5 -31.5t-58 -11.5t-57.5 12t-46.5 32t-31.5 47t-11.5 57z" />
<glyph unicode="}" horiz-adv-x="696" d="M20 -131q0 62 39.5 96.5t104.5 34.5h78v621q1 32 10 55.5t23 42.5t31.5 33.5t35.5 27.5q-16 15 -33.5 29.5t-32 33t-24 42t-10.5 55.5v623h-78q-65 0 -104.5 36.5t-39.5 98.5q0 59 39.5 95t104.5 36h84q72 0 126 -20.5t89.5 -56t53.5 -82.5t18 -101v-629q0 -25 14.5 -40 t28.5 -26q23 -18 40 -39t17 -55q0 -31 -17 -52t-38 -40q-16 -14 -30.5 -29t-14.5 -38v-627q0 -53 -18 -100t-53.5 -82.5t-89.5 -56.5t-126 -21h-84q-65 0 -104.5 36.5t-39.5 98.5z" />
<glyph unicode="&#xa1;" horiz-adv-x="498" d="M92 1030q0 32 12.5 60.5t33.5 49.5t49.5 33.5t60.5 12.5t61 -12.5t50.5 -33.5t34 -49.5t12.5 -60.5t-12.5 -61t-34 -50.5t-50.5 -34t-61 -12.5t-60.5 12.5t-49.5 34t-33.5 50.5t-12.5 61zM102 -301l37 909q1 27 8 51t20.5 41.5t33.5 28t47 10.5t46.5 -10.5t33 -28 t20.5 -41.5t8 -51l37 -909q0 -27 -11 -50.5t-30.5 -41t-46 -27.5t-57.5 -10q-29 0 -56 10t-47 27.5t-32 41t-11 50.5z" />
<glyph unicode="&#xa2;" horiz-adv-x="1059" d="M51 999q0 113 30.5 206t86 162.5t132.5 113.5t169 59v76q0 41 27 67.5t65 26.5q40 0 66 -26t26 -68v-78q92 -14 158.5 -50t109.5 -80.5t63 -90t20 -78.5q0 -59 -30.5 -87t-78.5 -28q-40 0 -68 18t-39 46q-8 19 -18.5 40t-26 40t-37 35t-53.5 26v-663q34 10 58 25.5 t41.5 35t28.5 41.5t18 43q11 29 37.5 46t66.5 17q47 0 76 -29t29 -83q0 -35 -21.5 -81.5t-65.5 -91t-110.5 -80.5t-157.5 -50v-127q0 -40 -26 -66t-66 -26q-19 0 -36 7t-29.5 19t-19.5 29t-7 37v125q-92 14 -169 57.5t-132.5 113t-86 163.5t-30.5 208zM295 999 q0 -136 48 -219t126 -112v659q-78 -29 -126 -111t-48 -217z" />
<glyph unicode="&#xa3;" horiz-adv-x="1221" d="M0 584q0 42 29 71t71 29h111q-5 19 -9.5 37.5t-11.5 38.5h-90q-45 0 -72.5 29t-27.5 71q0 44 27.5 73.5t72.5 29.5h31q-18 74 -18 149q0 108 40.5 189.5t110.5 136t164.5 81.5t202.5 27q123 0 220.5 -37t166 -94.5t105 -126t36.5 -131.5q0 -33 -13.5 -62t-36 -50 t-51.5 -33.5t-59 -12.5q-34 0 -60.5 18t-37.5 58q-8 34 -22 72t-43.5 70.5t-78 53.5t-126.5 21q-9 0 -30 -1.5t-46.5 -7t-52.5 -17t-49.5 -31t-37 -49t-14.5 -72.5q0 -38 4.5 -76t12.5 -75h332q45 0 73.5 -29.5t28.5 -73.5q0 -42 -28.5 -71t-73.5 -29h-285q5 -19 9 -38 t7 -38h269q45 0 73.5 -29t28.5 -71q0 -45 -28.5 -74t-73.5 -29h-256q-5 -69 -21.5 -128t-44.5 -101h463q29 0 44 7t26.5 15.5t24.5 15.5t38 7q27 0 51 -8.5t41.5 -25.5t28 -42t10.5 -59q0 -22 -14.5 -50.5t-44.5 -53t-75.5 -41.5t-107.5 -17h-634q-39 0 -68.5 12.5 t-49.5 33.5t-30 49.5t-10 60.5q0 37 16 65.5t39 57.5q35 48 50.5 98t17.5 104h-144q-21 0 -39 7.5t-31.5 21.5t-21.5 33t-8 41z" />
<glyph unicode="&#xa5;" horiz-adv-x="1157" d="M0 1393q0 24 10 46.5t27 40t40 28t48 10.5q35 0 68.5 -24t56.5 -64l330 -572l327 574q23 40 55.5 62t67.5 24q26 0 49.5 -10.5t40.5 -27.5t27 -40t10 -47q0 -46 -24 -88l-209 -363h118q45 0 74 -29.5t29 -72.5q0 -42 -29 -71.5t-74 -29.5h-233l-43 -75h276q23 0 41.5 -8 t32.5 -22t21.5 -32t7.5 -39q0 -45 -29 -73.5t-74 -28.5h-315v-309q0 -32 -12 -60t-32 -48.5t-46.5 -32t-56.5 -11.5q-31 0 -58 11.5t-47.5 32t-32.5 48.5t-12 60v309h-305q-42 0 -71 28.5t-29 73.5q0 21 8 39t21.5 32t31.5 22t39 8h266l-43 75h-223q-45 0 -72.5 29.5 t-27.5 71.5q0 43 27.5 72.5t72.5 29.5h106l-206 361q-25 44 -25 90z" />
<glyph unicode="&#xa6;" horiz-adv-x="461" d="M82 31v458q0 31 12 58t32 47t46.5 31.5t56.5 11.5q31 0 58 -11.5t47.5 -31.5t32.5 -47t12 -58v-458q0 -31 -12 -58t-32.5 -47t-47.5 -31.5t-58 -11.5t-57.5 12t-46.5 32t-31.5 47t-11.5 57zM82 1128v461q0 31 12 58t32 47t46.5 31.5t56.5 11.5q31 0 58 -11.5t47.5 -31.5 t32.5 -47t12 -58v-461q0 -30 -12 -57t-32.5 -47t-47.5 -31.5t-58 -11.5t-57.5 12t-46.5 32t-31.5 46.5t-11.5 56.5z" />
<glyph unicode="&#xa7;" horiz-adv-x="1102" d="M51 207q0 29 12 53.5t31 41.5t42.5 26.5t47.5 9.5q34 0 62.5 -18t42.5 -56q15 -38 36.5 -71.5t54.5 -58t78.5 -38.5t106.5 -14q56 0 97.5 12.5t69.5 32.5t42 45.5t14 52.5q0 35 -21.5 58t-57.5 39t-83.5 27t-99.5 22q-50 11 -103 24.5t-102.5 33t-93.5 46.5t-76.5 65 t-51.5 89t-19 119q9 177 149 260q-33 21 -60.5 46.5t-47 59t-30.5 75.5t-11 95q5 78 37 139.5t89.5 104t138.5 64.5t183 22q48 0 102 -7t107.5 -22.5t102.5 -39t86 -56.5t59.5 -76t22.5 -96q0 -29 -12.5 -53t-32.5 -41t-45.5 -26t-51.5 -9q-34 0 -62.5 17t-43.5 55 q-14 32 -31.5 56t-43.5 39.5t-64 23t-93 7.5q-52 0 -89 -8t-61 -22t-35 -33t-11 -41q0 -30 21 -51.5t57 -38t83.5 -29.5t100.5 -26t107.5 -27t105.5 -33t95.5 -45.5t77.5 -64t52 -87.5t19 -118q0 -93 -38.5 -160.5t-103.5 -114.5q30 -21 56 -46.5t45 -57.5t30 -71t11 -87 q0 -65 -19.5 -117.5t-54.5 -94t-81.5 -71t-100.5 -49t-112.5 -29t-117.5 -9.5q-102 0 -179.5 20t-134.5 52t-95.5 71.5t-61.5 79t-33 74t-10 55.5zM332 748q0 -26 13.5 -46t37.5 -35.5t56.5 -26.5t70.5 -19q48 -11 97.5 -3.5t89.5 28t65.5 51t25.5 65.5q0 32 -26 55.5 t-67 41t-91.5 30t-99.5 22.5q-45 -3 -77.5 -20.5t-53.5 -42t-31 -51.5t-10 -49z" />
<glyph unicode="&#xa8;" horiz-adv-x="760" d="M82 1479q0 27 10 50t27 40t40 27t48 10q26 0 48.5 -10t39 -27t26 -40t9.5 -50q0 -25 -9.5 -47.5t-26 -39.5t-39 -26.5t-48.5 -9.5q-25 0 -48 9.5t-40 26.5t-27 39.5t-10 47.5zM430 1479q0 27 9.5 50t26 40t39.5 27t50 10q25 0 47 -10t39 -27t27 -40t10 -50 q0 -25 -10 -47.5t-27 -39.5t-39 -26.5t-47 -9.5q-27 0 -50 9.5t-39.5 26.5t-26 39.5t-9.5 47.5z" />
<glyph unicode="&#xa9;" horiz-adv-x="1817" d="M102 807q0 111 29 214t81 192t126 163t163 126t192 81t214 29q112 0 215 -29t193 -81t163.5 -126t126 -163t81 -192t28.5 -214q0 -112 -28.5 -215t-81 -193t-126 -163.5t-163.5 -126t-193 -81t-215 -28.5q-111 0 -214 28.5t-192 81t-163 126t-126 163.5t-81 193t-29 215z M238 807q0 -92 24 -177.5t67.5 -160t104.5 -136t135.5 -105t159.5 -67.5t176 -24q92 0 177.5 24t159.5 67.5t135 105t104.5 136t67.5 160t24 177.5q0 138 -52.5 259t-143 211.5t-212.5 143t-260 52.5q-91 0 -176 -24t-159.5 -67.5t-135.5 -104t-104.5 -134.5t-67.5 -159 t-24 -177zM457 805q0 99 27.5 191t83.5 162.5t140 112.5t197 42q58 0 110.5 -15.5t97 -41t80 -58t60.5 -66t38.5 -66t13.5 -58.5q0 -21 -8.5 -38.5t-22.5 -30t-31 -19.5t-35 -7q-29 0 -52.5 17t-33.5 45q-10 29 -27.5 58.5t-44.5 53t-63 38t-82 14.5q-54 0 -101 -23.5 t-82.5 -67t-56 -105.5t-20.5 -138q0 -75 20.5 -137t56 -105.5t82.5 -67.5t101 -24q46 0 82 14t62.5 37t44 52.5t26.5 60.5v-2q10 35 34.5 49t53.5 14q18 0 35 -6t31 -17.5t22.5 -28t8.5 -38.5q0 -19 -9.5 -49.5t-30 -64.5t-52.5 -68.5t-76.5 -62t-102 -45t-129.5 -17.5 q-113 0 -197 42t-140 112.5t-83.5 162t-27.5 189.5z" />
<glyph unicode="&#xaa;" horiz-adv-x="840" d="M31 1016q0 76 29.5 123t76 75t104 42t113.5 24q38 8 72 15t60 18.5t41.5 28t15.5 42.5q0 20 -11.5 34t-31 23.5t-46 14t-55.5 4.5q-33 0 -56.5 -6t-40.5 -16t-27.5 -21t-18.5 -22q-22 -34 -42.5 -51t-51.5 -17q-14 0 -29 4t-28 13t-21 23.5t-8 35.5q0 47 25 86t70 67.5 t107 44t136 15.5t137 -13.5t109 -41t72 -70t26 -100.5v-506q0 -22 -8.5 -41.5t-23.5 -34t-34.5 -23t-42.5 -8.5q-37 0 -65 22t-39 54q-50 -38 -112 -57t-130 -19q-49 0 -97.5 15.5t-87.5 45.5t-63 74.5t-24 102.5zM242 1030q0 -17 6 -33t20.5 -29t38.5 -20.5t60 -7.5 q32 0 63 7t55.5 21t40 34t15.5 45v120q-12 -4 -33 -10t-47.5 -12.5t-57.5 -13t-63 -11.5q-50 -5 -74 -29t-24 -61z" />
<glyph unicode="&#xab;" horiz-adv-x="928" d="M41 655q0 22 10 43t27 41l223 222q17 17 37.5 24.5t40.5 7.5q22 0 42 -8.5t35 -23.5t24 -34.5t9 -41.5q0 -28 -19.5 -58t-48 -59.5t-60 -57.5t-56.5 -53l152 -151q17 -17 24.5 -37.5t7.5 -42.5t-8.5 -42t-23.5 -35t-34.5 -23.5t-41.5 -8.5q-22 2 -41.5 9t-38.5 24 l-223 223q-17 17 -27 39.5t-10 42.5zM438 655q0 22 10.5 43t28.5 41l223 222q17 17 37 24.5t41 7.5t40.5 -8.5t35 -23t24.5 -34t9 -42.5t-9 -43t-24 -35l-149 -150q25 -25 56.5 -54t59.5 -59.5t47 -60.5t19 -57q0 -22 -9 -42t-24 -35t-34.5 -23.5t-41.5 -8.5q-43 0 -78 33 l-223 223q-18 19 -28.5 40t-10.5 42z" />
<glyph unicode="&#xad;" horiz-adv-x="825" d="M41 723q0 24 9.5 46.5t26 39.5t39.5 27t50 10h496q25 0 47.5 -10t39 -27t26 -39.5t9.5 -46.5q0 -25 -9.5 -47t-26 -39t-39 -27t-47.5 -10h-496q-27 0 -50 10t-39.5 27t-26 39t-9.5 47z" />
<glyph unicode="&#xae;" horiz-adv-x="1290" d="M61 1063q0 121 46 227t125.5 185t186 124.5t226.5 45.5q122 0 228 -45.5t185.5 -124.5t125 -185t45.5 -227t-45.5 -227t-125 -185.5t-185.5 -125.5t-228 -46q-120 0 -226.5 46t-186 125.5t-125.5 185.5t-46 227zM195 1063q0 -93 35.5 -175t96.5 -143.5t143 -97t175 -35.5 t175 35.5t143.5 97t97 143.5t35.5 175t-35.5 175t-97 143t-143.5 96.5t-175 35.5t-175 -35.5t-143 -96.5t-96.5 -143t-35.5 -175zM399 803v512q0 19 7 35t19.5 28t29 18.5t34.5 6.5h234q49 0 89 -15t68 -42.5t43 -65.5t15 -84q0 -38 -15 -65.5t-34 -44.5q-22 -20 -49 -33 q16 -8 29 -19q11 -9 21.5 -21.5t12.5 -29.5q6 -37 10 -70q4 -29 6.5 -58.5t2.5 -49.5q0 -31 -20 -54.5t-54 -23.5q-36 0 -52 21.5t-22 54t-8 70.5t-10 71q-8 26 -27 43t-53 17h-127v-201q0 -15 -6.5 -29t-17 -24.5t-23.5 -16.5t-27 -6q-15 0 -28.5 6t-24 16.5t-17 24.5 t-6.5 29zM549 1130h172q29 0 48 20t19 46q0 29 -19 49.5t-48 20.5h-172v-136z" />
<glyph unicode="&#xaf;" horiz-adv-x="815" d="M72 1499q0 21 8 40.5t21.5 33.5t32.5 22.5t40 8.5h467q21 0 39.5 -8.5t32.5 -22.5t22 -33.5t8 -40.5t-8 -40t-22 -32.5t-32.5 -21.5t-39.5 -8h-467q-43 0 -72.5 29.5t-29.5 72.5z" />
<glyph unicode="&#xb0;" horiz-adv-x="805" d="M72 1214q0 69 26 129.5t70.5 105.5t104.5 71t128 26q69 0 129.5 -26t105.5 -71t71 -105.5t26 -129.5q0 -68 -26 -128t-71 -104.5t-105.5 -70.5t-129.5 -26q-68 0 -128 26t-104.5 70.5t-70.5 104.5t-26 128zM258 1214q0 -30 11 -56t30.5 -45.5t45.5 -30.5t56 -11t56.5 11 t46 30.5t30.5 45.5t11 56t-11 56.5t-30.5 46t-46 30.5t-56.5 11t-56 -11t-45.5 -30.5t-30.5 -46t-11 -56.5z" />
<glyph unicode="&#xb1;" horiz-adv-x="944" d="M41 324q0 22 8.5 41.5t23.5 33.5t35 22.5t42 8.5h647q45 0 75.5 -30.5t30.5 -75.5q0 -22 -8.5 -42t-22.5 -35t-33.5 -23.5t-41.5 -8.5h-647q-22 0 -42 8.5t-35 23.5t-23.5 35t-8.5 42zM41 971q0 22 8.5 41.5t23.5 33.5t35 22.5t42 8.5h215v217q0 23 8.5 42.5t23.5 33.5 t34.5 22.5t41.5 8.5t41.5 -8.5t34 -22.5t23 -33.5t8.5 -42.5v-217h217q45 0 75.5 -30.5t30.5 -75.5q0 -22 -8.5 -42t-22.5 -35t-33.5 -23.5t-41.5 -8.5h-217v-215q0 -22 -8.5 -41.5t-23 -34.5t-34 -23.5t-41.5 -8.5t-41.5 8.5t-34.5 23.5t-23.5 34.5t-8.5 41.5v215h-215 q-22 0 -42 8.5t-35 23.5t-23.5 35t-8.5 42z" />
<glyph unicode="&#xb2;" horiz-adv-x="678" d="M41 844q0 47 22.5 86.5t58 73t80 63.5t89.5 57q32 21 61 41t51.5 39.5t36 38.5t13.5 37q0 23 -9 41.5t-24 32t-34 21t-40 7.5q-20 0 -40 -6.5t-36.5 -18.5t-26.5 -28.5t-10 -36.5q0 -25 -7.5 -44t-20 -31.5t-28.5 -18.5t-32 -6q-37 0 -65.5 25t-28.5 75q0 58 26 105 t68 80t94.5 51t106.5 18q65 0 118.5 -19t91.5 -53.5t59.5 -83.5t21.5 -110q0 -54 -25.5 -98t-64.5 -80.5t-86 -67.5t-90 -59l-99 -64h275q37 0 62.5 -23.5t25.5 -62.5q0 -17 -7 -33t-19 -28t-28 -19.5t-34 -7.5h-404q-23 0 -41.5 8.5t-32 23t-21 34t-7.5 41.5z" />
<glyph unicode="&#xb3;" horiz-adv-x="690" d="M41 963q0 23 8 40t20.5 28t28.5 16.5t31 5.5q34 0 59.5 -20t30.5 -58q5 -45 41.5 -66.5t91.5 -21.5q22 0 42.5 6.5t36.5 18.5t26 29t10 38q0 57 -37 78.5t-108 21.5q-40 0 -59 25.5t-19 56.5q0 15 4.5 30t14 27t24.5 19.5t35 7.5q71 0 99 17t28 51q0 14 -8.5 26.5 t-22.5 22t-32 15t-38 5.5q-43 0 -73.5 -19t-43.5 -69q-9 -29 -33.5 -47t-50.5 -18q-40 0 -66 23.5t-26 72.5q0 23 14.5 60.5t48.5 73t90 61.5t140 26q65 0 116.5 -17t87.5 -47.5t55.5 -73.5t19.5 -95q0 -18 -6 -38.5t-16.5 -40.5t-24.5 -37.5t-31 -29.5q17 -9 34.5 -26.5 t32 -41.5t24 -54.5t9.5 -65.5q0 -64 -25 -112.5t-66.5 -80t-95 -47.5t-110.5 -16q-78 0 -136.5 20t-97.5 53.5t-58 77t-19 89.5z" />
<glyph unicode="&#xb4;" horiz-adv-x="584" d="M82 1395q0 48 29 75l182 183q32 32 57 44.5t49 12.5q15 0 33 -7.5t33.5 -21t26 -33.5t10.5 -44q0 -38 -16 -61.5t-31 -37.5l-197 -178q-15 -15 -34 -21t-42 -6q-15 0 -32.5 5t-32.5 16.5t-25 29.5t-10 44z" />
<glyph unicode="&#xb6;" horiz-adv-x="1190" d="M20 1233q0 82 31 152t85 121t127 79.5t157 28.5h563q23 0 44 -9t36.5 -25t25 -37.5t9.5 -47.5v-1802q0 -25 -9.5 -46t-25 -36.5t-36.5 -24t-44 -8.5t-44 8.5t-36.5 24t-25 36.5t-9.5 46v1710h-143v-1710q0 -25 -9 -46t-25 -36.5t-37 -24t-44 -8.5q-22 0 -42.5 8.5 t-36.5 24t-25.5 36.5t-9.5 46v1159h-76q-84 0 -157 28.5t-127 79.5t-85 121t-31 152zM242 1233q0 -37 13 -69t36 -54.5t56 -35.5t73 -13h76v342h-76q-40 0 -73 -13t-56 -35.5t-36 -53.5t-13 -68z" />
<glyph unicode="&#xb7;" horiz-adv-x="436" d="M61 807q0 32 12.5 61t33.5 50.5t49.5 34t60.5 12.5q33 0 62 -12.5t50 -34t33.5 -50.5t12.5 -61t-12.5 -60.5t-33.5 -49.5t-50 -33.5t-62 -12.5q-32 0 -60.5 12.5t-49.5 33.5t-33.5 49.5t-12.5 60.5z" />
<glyph unicode="&#xb8;" horiz-adv-x="664" d="M72 -463q0 11 4.5 22.5t12.5 20.5t19.5 15t26.5 6q20 0 34.5 -4t27.5 -9q17 -6 33.5 -10t31.5 -4q45 0 78 18t33 58q0 61 -90 61q-16 0 -34 -2t-44 -10q-14 -4 -26 -2t-19.5 9.5t-8 20.5t8.5 31l121 240h147l-57 -141q41 -3 81 -16.5t71 -38.5t50 -62.5t19 -89.5 q0 -49 -18 -90t-53 -70.5t-86.5 -46t-119.5 -16.5q-25 0 -66 4.5t-80.5 16.5t-68 33.5t-28.5 55.5z" />
<glyph unicode="&#xb9;" horiz-adv-x="406" d="M0 1331q0 23 6.5 37t16.5 23t22.5 14.5t24.5 11.5q31 16 45.5 35.5t23.5 36.5q16 25 32 41t50 16q23 0 40.5 -8.5t29 -22t17 -30.5t5.5 -35v-612q0 -41 -28 -68t-68 -27q-18 0 -34.5 7.5t-29 20t-20.5 30t-8 37.5v417h-43q-35 0 -58.5 21t-23.5 55z" />
<glyph unicode="&#xba;" horiz-adv-x="922" d="M41 1186q0 95 32.5 174t89.5 136t133.5 88.5t164.5 31.5q87 0 163.5 -31.5t133.5 -88.5t90 -136t33 -174t-33 -174t-90 -136t-133.5 -88.5t-163.5 -31.5q-88 0 -164.5 31.5t-133.5 88.5t-89.5 136t-32.5 174zM250 1186q0 -51 14.5 -97.5t41.5 -82t66 -56t89 -20.5 t89 20.5t65.5 56t40.5 82t14 97.5t-14 97.5t-40.5 82t-65.5 56t-89 20.5t-89 -20.5t-66 -56t-41.5 -82t-14.5 -97.5z" />
<glyph unicode="&#xbb;" horiz-adv-x="926" d="M41 426q0 22 7.5 41t23.5 39l149 151l-149 150q-31 30 -31 78q0 23 9 42.5t23.5 34t33.5 23t40 8.5q46 0 78 -32l224 -222q20 -18 29 -40t9 -44q0 -21 -10 -42t-28 -40l-224 -223q-33 -33 -78 -33q-21 0 -40 8.5t-33.5 23t-23.5 34.5t-9 43zM436 426q0 41 33 80l152 151 q-25 26 -57 54t-60.5 57t-48 59t-19.5 58q0 22 9 41.5t24 34.5t35.5 23.5t42.5 8.5q20 0 40.5 -7.5t37.5 -24.5l223 -222q17 -20 27 -41t10 -43q0 -20 -10 -42.5t-27 -39.5l-223 -223q-17 -17 -37 -24t-43 -9q-22 0 -42 8.5t-35 23.5t-23.5 35t-8.5 42z" />
<glyph unicode="&#xbc;" horiz-adv-x="1073" d="M20 1331q0 23 6.5 37t16.5 23t22.5 14.5t24.5 11.5q31 16 45.5 35.5t24.5 36.5q15 25 31.5 41t50.5 16q23 0 40 -8.5t28.5 -22t17.5 -30.5t6 -35v-612q0 -41 -28 -68t-68 -27q-18 0 -35 7.5t-29.5 20t-20.5 30t-8 37.5v417h-43q-35 0 -58.5 21t-23.5 55zM39 88 q0 14 3 29.5t11 29.5l713 1315q15 32 40 44t50 12q11 0 25.5 -3.5t29 -12.5t26.5 -23.5t17 -36.5q3 -16 1 -35.5t-11 -36.5l-717 -1317q-14 -25 -35.5 -39t-52.5 -14q-21 0 -39 7t-31.5 19t-21.5 28t-8 34zM455 283q0 21 5.5 36.5t16.5 30.5l326 404q20 24 42 35.5t44 11.5 q38 0 64 -27t26 -72v-360h6q37 0 62.5 -23t25.5 -61q0 -34 -25.5 -57t-62.5 -23h-6v-82q0 -42 -24 -69t-66 -27q-18 0 -34 7.5t-28 20t-19 30t-7 38.5v82h-234q-49 0 -80.5 28.5t-31.5 76.5zM657 342h144v174z" />
<glyph unicode="&#xbd;" horiz-adv-x="1257" d="M20 1331q0 23 6.5 37t16.5 23t22.5 14.5t24.5 11.5q31 16 45.5 35.5t24.5 36.5q15 25 31.5 41t50.5 16q23 0 40 -8.5t28.5 -22t17.5 -30.5t6 -35v-612q0 -41 -28 -68t-68 -27q-18 0 -35 7.5t-29.5 20t-20.5 30t-8 37.5v417h-43q-35 0 -58.5 21t-23.5 55zM39 88 q0 14 3 29.5t11 29.5l713 1315q15 32 40 44t50 12q11 0 25.5 -3.5t29 -12.5t26.5 -23.5t17 -36.5q3 -16 1 -35.5t-11 -36.5l-717 -1317q-14 -25 -35.5 -39t-52.5 -14q-21 0 -39 7t-31.5 19t-21.5 28t-8 34zM610 106q0 47 22.5 86.5t58 73.5t80 63.5t89.5 57.5q32 21 61 41 t51.5 39.5t36 38.5t13.5 37q0 23 -9 41.5t-23.5 32t-34 21t-40.5 7.5q-20 0 -40 -6.5t-36 -18.5t-26 -28.5t-10 -36.5q0 -25 -7.5 -44t-20 -31.5t-28.5 -18.5t-32 -6q-37 0 -65.5 24.5t-28.5 75.5q0 58 26 105t67.5 80t94 51t106.5 18q65 0 118.5 -19t91.5 -53.5t59.5 -83.5 t21.5 -110q0 -54 -25.5 -98t-64.5 -81t-86 -68t-90 -58l-98 -64h274q37 0 62.5 -24t25.5 -62q0 -17 -7 -33t-19 -28t-28 -19.5t-34 -7.5h-403q-47 0 -75 31.5t-28 74.5z" />
<glyph unicode="&#xbe;" horiz-adv-x="1331" d="M41 963q0 23 8 40t20.5 28t28.5 16.5t31 5.5q34 0 59.5 -20t30.5 -58q5 -45 41.5 -66.5t91.5 -21.5q22 0 42.5 6.5t36.5 18.5t26 29t10 38q0 57 -37 78.5t-108 21.5q-40 0 -59 25.5t-19 56.5q0 15 4.5 30t14 27t24.5 19.5t35 7.5q71 0 99 17t28 51q0 14 -8.5 26.5 t-22.5 22t-32 15t-38 5.5q-43 0 -73.5 -19t-43.5 -69q-9 -29 -33.5 -47t-50.5 -18q-40 0 -66 23.5t-26 72.5q0 23 14.5 60.5t48.5 73t90 61.5t140 26q65 0 116.5 -17t87.5 -47.5t55.5 -73.5t19.5 -95q0 -18 -6 -38.5t-16.5 -40.5t-24.5 -37.5t-31 -29.5q17 -9 34.5 -26.5 t32 -41.5t24 -54.5t9.5 -65.5q0 -64 -25 -112.5t-66.5 -80t-95 -47.5t-110.5 -16q-78 0 -136.5 20t-97.5 53.5t-58 77t-19 89.5zM301 88q0 14 3 29.5t11 29.5l713 1315q16 32 40.5 44t49.5 12q11 0 25.5 -3.5t29 -12.5t26.5 -23.5t18 -36.5q3 -16 1 -35.5t-12 -36.5 l-717 -1317q-14 -25 -35.5 -39t-52.5 -14q-21 0 -39 7t-31.5 19t-21.5 28t-8 34zM713 283q0 21 5.5 36.5t16.5 30.5l326 404q20 24 42 35.5t44 11.5q38 0 64 -27t26 -72v-360h6q37 0 62.5 -23t25.5 -61q0 -34 -25.5 -57t-62.5 -23h-6v-82q0 -42 -24 -69t-66 -27 q-18 0 -34 7.5t-28 20t-19 30t-7 38.5v82h-234q-49 0 -80.5 28.5t-31.5 76.5zM915 342h144v174z" />
<glyph unicode="&#xbf;" horiz-adv-x="1212" d="M61 43q0 66 24 122.5t62.5 105t87.5 90.5t100 81t99 76t84 74q20 21 31.5 46.5t24 48t30.5 37.5t49 15q18 0 39.5 -7t39.5 -23.5t30 -45t12 -71.5q0 -46 -17.5 -85t-46.5 -73t-65.5 -64.5t-75 -59.5t-75 -58t-65.5 -61.5t-46.5 -68.5t-17.5 -79q0 -47 19 -89t53 -73.5 t81.5 -50t104.5 -18.5q70 0 116 16.5t76.5 45t51 66.5t38.5 80q19 44 50 62t63 18q27 0 51 -6.5t42.5 -23.5t29 -45.5t10.5 -73.5q0 -39 -16 -85t-47 -91.5t-76 -87.5t-104 -74.5t-130.5 -52t-154.5 -19.5q-112 0 -214 32t-179 95t-123 157t-46 218zM498 1030q0 32 12 60.5 t33 49.5t49.5 33.5t60.5 12.5t61 -12.5t50.5 -33.5t34 -49.5t12.5 -60.5t-12.5 -61t-34 -50.5t-50.5 -34t-61 -12.5t-60.5 12.5t-49.5 34t-33 50.5t-12 61z" />
<glyph unicode="&#xc0;" horiz-adv-x="1305" d="M-7.5 127.5q6.5 -36.5 27 -65t53 -45.5t72.5 -17q47 2 82.5 34t51.5 85l112 364h504l111 -364q17 -54 53.5 -86.5t83.5 -32.5q39 0 71 17.5t52 46t26 65t-6 74.5l-405 1278q-28 87 -92 125.5t-146 38.5q-40 0 -77.5 -9.5t-68 -29t-54 -50.5t-37.5 -75l-408 -1278 q-12 -39 -5.5 -75.5zM350 2054q0 25 10.5 44.5t26 33.5t33.5 21.5t33 7.5q24 0 49 -13t57 -45l182 -182q29 -27 29 -76q0 -26 -10 -44t-25 -29t-32.5 -16t-32.5 -5q-23 0 -42 5.5t-34 21.5l-197 178q-15 14 -31 37.5t-16 60.5zM469 735l174 565l174 -565h-348z" />
<glyph unicode="&#xc1;" horiz-adv-x="1284" d="M-7.5 127.5q-6.5 36.5 5.5 75.5l408 1278q14 44 37.5 75t54 50.5t68 29t77.5 9.5q82 0 146 -38.5t92 -125.5l405 -1278q12 -38 6 -74.5t-26 -65t-52 -46t-71 -17.5q-47 0 -83.5 32.5t-53.5 86.5l-111 364h-504l-112 -364q-16 -53 -51.5 -85t-82.5 -34q-40 0 -72.5 17 t-53 45.5t-27 65zM469 735h348l-174 565zM526 1845q0 25 7.5 43.5t21.5 32.5l182 182q32 32 57 45t50 13q15 0 33 -7.5t33.5 -21.5t25.5 -33.5t10 -44.5q0 -37 -15.5 -60.5t-31.5 -37.5l-197 -178q-15 -16 -33.5 -21.5t-41.5 -5.5q-15 0 -33 5t-33 16t-25 29t-10 44z" />
<glyph unicode="&#xc2;" horiz-adv-x="1284" d="M-7.5 127.5q-6.5 36.5 5.5 75.5l408 1278q14 44 37.5 75t54 50.5t68 29t77.5 9.5q82 0 146 -38.5t92 -125.5l405 -1278q12 -38 6 -74.5t-26 -65t-52 -46t-71 -17.5q-47 0 -83.5 32.5t-53.5 86.5l-111 364h-504l-112 -364q-16 -53 -51.5 -85t-82.5 -34q-40 0 -72.5 17 t-53 45.5t-27 65zM322 1845q0 23 6 42.5t20 33.5l221 219q16 17 32 27t42 10q28 0 44 -10t32 -27l219 -219q11 -14 20 -31.5t9 -36.5q0 -13 -5.5 -31t-17 -33.5t-30.5 -26.5t-46 -11q-23 0 -41.5 6t-35.5 23l-148 149q-37 -38 -73.5 -75t-73.5 -74q-14 -14 -34 -21.5 t-42 -7.5q-15 0 -32.5 5t-32 16t-24 29t-9.5 44zM469 735h348l-174 565z" />
<glyph unicode="&#xc3;" horiz-adv-x="1305" d="M2.5 127.5q-6.5 36.5 5.5 75.5l408 1278q14 44 37.5 75t54.5 50.5t68 29t77 9.5q82 0 146 -38.5t92 -125.5l405 -1278q12 -38 6 -74.5t-26 -65t-52 -46t-71 -17.5q-46 0 -83 32.5t-54 86.5l-111 364h-504l-112 -364q-16 -53 -51.5 -85t-81.5 -34q-40 0 -73 17t-53.5 45.5 t-27 65zM322 1933q0 32 15.5 58.5t41 46t57 30.5t62.5 11q44 0 73.5 -9.5t55.5 -21.5t53.5 -21.5t67.5 -9.5q20 0 32 9t23.5 19.5t26 19t38.5 8.5t45.5 -9t37 -24.5t25 -36.5t9.5 -45q0 -32 -15.5 -58.5t-41 -45t-57.5 -29t-66 -10.5q-28 0 -60 9t-64.5 20.5t-64 20.5 t-57.5 9q-17 0 -28.5 -8.5t-23.5 -19t-27 -19t-40 -8.5q-24 0 -45.5 9t-37.5 25t-25.5 36.5t-9.5 43.5zM479 735h348l-174 565z" />
<glyph unicode="&#xc4;" horiz-adv-x="1305" d="M2.5 127.5q-6.5 36.5 5.5 75.5l408 1278q14 44 37.5 75t54.5 50.5t68 29t77 9.5q82 0 146 -38.5t92 -125.5l405 -1278q12 -38 6 -74.5t-26 -65t-52 -46t-71 -17.5q-46 0 -83 32.5t-54 86.5l-111 364h-504l-112 -364q-16 -53 -51.5 -85t-81.5 -34q-40 0 -73 17t-53.5 45.5 t-27 65zM354 1929q0 27 10 50t27.5 40.5t40 27t47.5 9.5q26 0 48.5 -9.5t39 -27t26 -40.5t9.5 -50q0 -25 -9.5 -47.5t-26 -39t-39 -26.5t-48.5 -10q-25 0 -47.5 10t-40 26.5t-27.5 39t-10 47.5zM479 735h348l-174 565zM702 1929q0 27 9.5 50t26.5 40.5t39.5 27t49.5 9.5 q25 0 47 -9.5t39 -27t27 -40.5t10 -50q0 -25 -10 -47.5t-27 -39t-39 -26.5t-47 -10q-27 0 -49.5 10t-39.5 26.5t-26.5 39t-9.5 47.5z" />
<glyph unicode="&#xc5;" horiz-adv-x="1305" d="M2.5 127.5q-6.5 36.5 5.5 75.5l408 1278q14 44 37.5 75t54.5 50.5t68 29t77 9.5q82 0 146 -38.5t92 -125.5l405 -1278q12 -38 6 -74.5t-26 -65t-52 -46t-71 -17.5q-46 0 -83 32.5t-54 86.5l-111 364h-504l-112 -364q-16 -53 -51.5 -85t-81.5 -34q-40 0 -73 17t-53.5 45.5 t-27 65zM408 1970q0 51 19 96t52 78.5t77 52.5t95 19q53 0 98 -19t78 -52.5t51.5 -78.5t18.5 -96t-18.5 -96t-51.5 -78.5t-78 -52.5t-98 -19q-51 0 -95 19t-77 52.5t-52 78.5t-19 96zM479 735h348l-174 565zM567 1970q0 -17 6.5 -32t18 -26.5t26.5 -18.5t33 -7t33 7 t26.5 18.5t18 26.5t6.5 32q0 35 -24.5 60.5t-59.5 25.5t-59.5 -25.5t-24.5 -60.5z" />
<glyph unicode="&#xc6;" horiz-adv-x="2177" d="M0 150q0 17 3.5 35t12.5 38l646 1282q27 53 74.5 82t109.5 29h1128q35 0 64.5 -9.5t51 -27t34 -43t12.5 -57.5t-12.5 -57.5t-34 -43.5t-51 -27.5t-64.5 -9.5h-686v-344h574q35 0 64 -9.5t51 -27t34 -43t12 -57.5t-12 -57.5t-34 -43t-51 -27t-64 -9.5h-574v-449h686 q35 0 64.5 -9.5t51 -27t34 -43t12.5 -57.5t-12.5 -57.5t-34 -43t-51 -27t-64.5 -9.5h-839q-28 0 -57.5 9t-53 28.5t-38.5 50.5t-15 74v297h-506l-180 -367q-23 -46 -59 -69t-74 -23q-30 0 -57.5 11t-48.5 30.5t-33.5 47.5t-12.5 61zM602 741h369v600h-74z" />
<glyph unicode="&#xc7;" horiz-adv-x="1462" d="M61 809q0 109 20.5 213t61 197t102 171t143 134.5t184 88.5t225.5 32q127 0 227 -35t174 -87.5t122.5 -113t70.5 -111.5q20 -45 20 -86.5t-17 -73t-49.5 -50.5t-76.5 -19q-28 0 -48.5 6.5t-34.5 18t-24.5 27.5t-19.5 34q-18 36 -43.5 74.5t-65.5 71t-97 53t-138 20.5 q-68 0 -126 -23t-105 -63t-83 -94t-60.5 -117t-37 -131t-12.5 -137q0 -68 12.5 -137t37 -132t60.5 -117.5t83 -94.5t105 -63t126 -23q81 0 138 21t97 53.5t65.5 71.5t43.5 75q9 18 19.5 34t24.5 27.5t34.5 18t48.5 6.5q44 0 76.5 -19t49.5 -50.5t17 -73.5t-20 -87 q-22 -47 -66 -104t-110.5 -108t-156.5 -88t-204 -46l-47 -116q42 -3 81.5 -16.5t70.5 -38.5t50 -62.5t19 -89.5q0 -49 -18 -90t-52.5 -70.5t-86 -46t-119.5 -16.5q-17 0 -41.5 2t-52 6.5t-54 12.5t-48 20.5t-35 29t-13.5 39.5q0 11 4.5 22.5t12.5 20.5t19.5 15t26.5 6 q20 0 34.5 -4t27.5 -9q17 -6 33.5 -10t31.5 -4q45 0 78 18t33 58q0 61 -90 61q-16 0 -34 -2t-44 -10q-14 -4 -26 -2t-19.5 9.5t-8 20.5t8.5 31l109 219q-162 17 -282.5 92t-201 188.5t-120.5 256t-40 295.5z" />
<glyph unicode="&#xc8;" horiz-adv-x="1286" d="M92 162v1294q0 19 6.5 46.5t24.5 52.5t49.5 43t81.5 18h840q35 0 64 -9.5t51 -27t34 -43t12 -57.5t-12 -57.5t-34 -43.5t-51 -27.5t-64 -9.5h-686v-344h573q35 0 64.5 -9.5t51 -27t34 -43t12.5 -57.5t-12.5 -57.5t-34 -43t-51 -27t-64.5 -9.5h-573v-449h686q35 0 64 -9.5 t51 -27t34 -43t12 -57.5t-12 -57.5t-34 -43t-51 -27t-64 -9.5h-840q-28 0 -57 9t-52.5 28.5t-38 50.5t-14.5 74zM410 2054q0 25 10 44.5t25.5 33.5t33.5 21.5t33 7.5q25 0 49.5 -13t56.5 -45l183 -182q28 -28 28 -76q0 -26 -10 -44t-25 -29t-32.5 -16t-32.5 -5 q-23 0 -41.5 5.5t-34.5 21.5l-196 178q-16 14 -31.5 37.5t-15.5 60.5z" />
<glyph unicode="&#xc9;" horiz-adv-x="1307" d="M102 162v1294q0 19 6.5 46.5t24.5 52.5t49.5 43t81.5 18h840q35 0 64.5 -9.5t51 -27t34 -43t12.5 -57.5t-12.5 -57.5t-34 -43.5t-51 -27.5t-64.5 -9.5h-686v-344h573q35 0 64.5 -9.5t51 -27t34 -43t12.5 -57.5t-12.5 -57.5t-34 -43t-51 -27t-64.5 -9.5h-573v-449h686 q35 0 64.5 -9.5t51 -27t34 -43t12.5 -57.5t-12.5 -57.5t-34 -43t-51 -27t-64.5 -9.5h-840q-28 0 -57 9t-52.5 28.5t-38 50.5t-14.5 74zM553 1845q0 49 29 76l182 182q32 32 57 45t49 13q15 0 33 -7.5t33.5 -21.5t26 -33.5t10.5 -44.5q0 -37 -16 -60.5t-31 -37.5l-197 -178 q-15 -16 -34 -21.5t-42 -5.5q-15 0 -32.5 5t-32.5 16t-25 29t-10 44z" />
<glyph unicode="&#xca;" horiz-adv-x="1286" d="M92 162v1294q0 19 6.5 46.5t24.5 52.5t49.5 43t81.5 18h840q35 0 64 -9.5t51 -27t34 -43t12 -57.5t-12 -57.5t-34 -43.5t-51 -27.5t-64 -9.5h-686v-344h573q35 0 64.5 -9.5t51 -27t34 -43t12.5 -57.5t-12.5 -57.5t-34 -43t-51 -27t-64.5 -9.5h-573v-449h686q35 0 64 -9.5 t51 -27t34 -43t12 -57.5t-12 -57.5t-34 -43t-51 -27t-64 -9.5h-840q-28 0 -57 9t-52.5 28.5t-38 50.5t-14.5 74zM367 1845q0 23 6 42.5t20 33.5l221 219q16 17 32 27t42 10q28 0 44 -10t32 -27l219 -219q11 -14 20 -31.5t9 -36.5q0 -13 -5.5 -31t-17 -33.5t-30.5 -26.5 t-46 -11q-23 0 -41.5 6t-35.5 23l-148 149q-37 -38 -73.5 -75t-73.5 -74q-14 -14 -34 -21.5t-42 -7.5q-15 0 -32.5 5t-32 16t-24 29t-9.5 44z" />
<glyph unicode="&#xcb;" horiz-adv-x="1286" d="M92 162v1294q0 19 6.5 46.5t24.5 52.5t49.5 43t81.5 18h840q35 0 64 -9.5t51 -27t34 -43t12 -57.5t-12 -57.5t-34 -43.5t-51 -27.5t-64 -9.5h-686v-344h573q35 0 64.5 -9.5t51 -27t34 -43t12.5 -57.5t-12.5 -57.5t-34 -43t-51 -27t-64.5 -9.5h-573v-449h686q35 0 64 -9.5 t51 -27t34 -43t12 -57.5t-12 -57.5t-34 -43t-51 -27t-64 -9.5h-840q-28 0 -57 9t-52.5 28.5t-38 50.5t-14.5 74zM377 1929q0 27 10 50t27 40.5t40 27t48 9.5q26 0 48.5 -9.5t39 -27t26 -40.5t9.5 -50q0 -25 -9.5 -47.5t-26 -39t-39 -26.5t-48.5 -10q-25 0 -48 10t-40 26.5 t-27 39t-10 47.5zM725 1929q0 27 9.5 50t26 40.5t39.5 27t50 9.5q24 0 46.5 -9.5t39.5 -27t27 -40.5t10 -50q0 -25 -10 -47.5t-27 -39t-39.5 -26.5t-46.5 -10q-27 0 -50 10t-39.5 26.5t-26 39t-9.5 47.5z" />
<glyph unicode="&#xcc;" horiz-adv-x="500" d="M-53 2054q0 25 10 44.5t25.5 33.5t33.5 21.5t33 7.5q25 0 50 -13t57 -45l182 -182q14 -14 21.5 -32.5t7.5 -43.5q0 -26 -10 -44t-25 -29t-33 -16t-33 -5q-23 0 -41.5 5.5t-34.5 21.5l-196 178q-16 14 -31.5 37.5t-15.5 60.5zM92 162v1292q0 35 12.5 64.5t34 51t50.5 34 t61 12.5t61 -12.5t50.5 -34t34 -51t12.5 -64.5v-1292q0 -34 -12.5 -64t-34 -51.5t-50.5 -34t-61 -12.5t-61 12.5t-50.5 34t-34 51.5t-12.5 64z" />
<glyph unicode="&#xcd;" horiz-adv-x="500" d="M92 162v1292q0 35 12.5 64.5t34 51t50.5 34t61 12.5t61 -12.5t50.5 -34t34 -51t12.5 -64.5v-1292q0 -34 -12.5 -64t-34 -51.5t-50.5 -34t-61 -12.5t-61 12.5t-50.5 34t-34 51.5t-12.5 64zM121 1845q0 49 29 76l182 182q32 32 57 45t49 13q15 0 33 -7.5t33.5 -21.5 t26 -33.5t10.5 -44.5q0 -37 -16 -60.5t-31 -37.5l-197 -178q-16 -16 -34.5 -21.5t-41.5 -5.5q-15 0 -32.5 5t-32.5 16t-25 29t-10 44z" />
<glyph unicode="&#xce;" horiz-adv-x="500" d="M-74 1845q0 23 6.5 42.5t20.5 33.5l221 219q16 17 32 27t42 10q28 0 44 -10t32 -27l219 -219q11 -14 19.5 -31.5t8.5 -36.5q0 -13 -5 -31t-17 -33.5t-30.5 -26.5t-45.5 -11q-23 0 -42 6t-36 23l-147 149q-37 -38 -73.5 -75t-74.5 -74q-14 -14 -34 -21.5t-41 -7.5 q-15 0 -32.5 5t-32.5 16t-24.5 29t-9.5 44zM92 162v1292q0 35 12.5 64.5t34 51t50.5 34t61 12.5t61 -12.5t50.5 -34t34 -51t12.5 -64.5v-1292q0 -34 -12.5 -64t-34 -51.5t-50.5 -34t-61 -12.5t-61 12.5t-50.5 34t-34 51.5t-12.5 64z" />
<glyph unicode="&#xcf;" horiz-adv-x="500" d="M-49 1929q0 27 10 50t27 40.5t40 27t48 9.5q26 0 48.5 -9.5t39 -27t26 -40.5t9.5 -50q0 -25 -9.5 -47.5t-26 -39t-39 -26.5t-48.5 -10q-25 0 -48 10t-40 26.5t-27 39t-10 47.5zM92 162v1292q0 35 12.5 64.5t34 51t50.5 34t61 12.5t61 -12.5t50.5 -34t34 -51t12.5 -64.5 v-1292q0 -34 -12.5 -64t-34 -51.5t-50.5 -34t-61 -12.5t-61 12.5t-50.5 34t-34 51.5t-12.5 64zM299 1929q0 27 9.5 50t26 40.5t39.5 27t50 9.5q24 0 46.5 -9.5t39.5 -27t27 -40.5t10 -50q0 -25 -10 -47.5t-27 -39t-39.5 -26.5t-46.5 -10q-27 0 -50 10t-39.5 26.5t-26 39 t-9.5 47.5z" />
<glyph unicode="&#xd0;" horiz-adv-x="1503" d="M-113 807q0 26 10 48.5t27.5 39t40 26t47.5 9.5h90v526q0 19 6.5 46.5t24.5 52.5t49.5 43t81.5 18h443q129 0 234 -32.5t186.5 -89t141 -134t98 -167t57 -187.5t18.5 -197t-18.5 -197t-57 -188t-98 -167.5t-141 -134.5t-186 -89.5t-234.5 -32.5h-443q-28 0 -57 9 t-52.5 28.5t-38 50.5t-14.5 74v520h-90q-25 0 -47.5 10t-40 27t-27.5 40t-10 48zM418 274h289q121 0 202 46t129.5 121.5t69 171.5t20.5 196t-20.5 195.5t-69 170.5t-129.5 120.5t-202 45.5h-289v-411h223q26 0 48.5 -9.5t39 -26t26 -39t9.5 -48.5q0 -25 -9.5 -48t-26 -40 t-39 -27t-48.5 -10h-223v-408z" />
<glyph unicode="&#xd1;" horiz-adv-x="1499" d="M102 162v1284q0 40 13 71.5t36 53.5t54 33.5t67 11.5q37 0 69.5 -8t62.5 -27t58 -50.5t56 -78.5l584 -979v981q0 35 11 64.5t30.5 51t46.5 34t59 12.5t59.5 -12.5t47 -34t30.5 -51t11 -64.5v-1284q0 -40 -13 -71.5t-36 -53.5t-54 -33.5t-67 -11.5t-69 8t-63 27t-58 50.5 t-56 78.5l-584 973v-975q0 -34 -11 -64t-30.5 -51.5t-46.5 -34t-59 -12.5t-59.5 12.5t-47 34t-30.5 51.5t-11 64zM403 1933q0 32 16 58.5t41 46t57 30.5t63 11q44 0 73.5 -9.5t55.5 -21.5t53 -21.5t67 -9.5q20 0 32.5 9t24 19.5t26 19t38.5 8.5t45.5 -9t37 -24.5t25 -36.5 t9.5 -45q0 -32 -15.5 -58.5t-41 -45t-57.5 -29t-66 -10.5q-28 0 -60 9t-64.5 20.5t-64 20.5t-57.5 9q-17 0 -28.5 -8.5t-23.5 -19t-27 -19t-40 -8.5q-24 0 -46 9t-38 25t-25.5 36.5t-9.5 43.5z" />
<glyph unicode="&#xd2;" horiz-adv-x="1569" d="M51 809q0 -108 20.5 -212t61.5 -197t102.5 -172t143 -136t183 -89t222.5 -32q122 0 223.5 32t183 89t143 136t102.5 172t61.5 197t20.5 212t-20.5 212t-61.5 197t-102.5 171t-143 135t-183.5 89t-223 32t-222.5 -32t-183 -89t-143 -135t-102.5 -171t-61.5 -197 t-20.5 -212zM346 809q0 104 24.5 205.5t77.5 181.5t136 129t200 49t200 -49t136.5 -129t78 -181.5t24.5 -205.5q0 -70 -11 -139t-33.5 -132t-58 -117t-84 -94t-111.5 -62.5t-141 -22.5q-117 0 -200 49.5t-136 129.5t-77.5 181.5t-24.5 206.5zM440 2054q0 25 10.5 44.5 t26 33.5t33.5 21.5t33 7.5q24 0 49 -13t57 -45l182 -182q29 -27 29 -76q0 -26 -10 -44t-25 -29t-32.5 -16t-32.5 -5q-23 0 -41.5 5.5t-34.5 21.5l-197 178q-15 14 -31 37.5t-16 60.5z" />
<glyph unicode="&#xd3;" horiz-adv-x="1569" d="M51 809q0 108 20.5 212t61.5 197t102.5 171t143 135t183 89t222.5 32t223 -32t183.5 -89t143 -135t102.5 -171t61.5 -197t20.5 -212t-20.5 -212t-61.5 -197t-102.5 -172t-143 -136t-183 -89t-223.5 -32q-121 0 -222.5 32t-183 89t-143 136t-102.5 172t-61.5 197 t-20.5 212zM346 809q0 -105 24.5 -206.5t77.5 -181.5t136 -129.5t200 -49.5q78 0 141 22.5t111.5 62.5t84 94t58 117t33.5 132t11 139q0 104 -24.5 205.5t-78 181.5t-136.5 129t-200 49t-200 -49t-136 -129t-77.5 -181.5t-24.5 -205.5zM623 1845q0 48 28 76l183 182 q32 32 56.5 45t49.5 13q15 0 33 -7.5t33.5 -21.5t25.5 -33.5t10 -44.5q0 -37 -15.5 -60.5t-31.5 -37.5l-196 -178q-16 -16 -34.5 -21.5t-41.5 -5.5q-15 0 -32.5 5t-32.5 16t-25 29t-10 44z" />
<glyph unicode="&#xd4;" horiz-adv-x="1569" d="M51 809q0 108 20.5 212t61.5 197t102.5 171t143 135t183 89t222.5 32t223 -32t183.5 -89t143 -135t102.5 -171t61.5 -197t20.5 -212t-20.5 -212t-61.5 -197t-102.5 -172t-143 -136t-183 -89t-223.5 -32q-121 0 -222.5 32t-183 89t-143 136t-102.5 172t-61.5 197 t-20.5 212zM346 809q0 -105 24.5 -206.5t77.5 -181.5t136 -129.5t200 -49.5q78 0 141 22.5t111.5 62.5t84 94t58 117t33.5 132t11 139q0 104 -24.5 205.5t-78 181.5t-136.5 129t-200 49t-200 -49t-136 -129t-77.5 -181.5t-24.5 -205.5zM449 1845q0 23 6 42.5t20 33.5 l221 219q16 17 32 27t42 10q28 0 44 -10t32 -27l219 -219q11 -14 20 -31.5t9 -36.5q0 -13 -5.5 -31t-17 -33.5t-30.5 -26.5t-46 -11q-23 0 -41.5 6t-35.5 23l-148 149q-37 -38 -73.5 -75t-73.5 -74q-14 -14 -34.5 -21.5t-41.5 -7.5q-15 0 -32.5 5t-32 16t-24 29t-9.5 44z " />
<glyph unicode="&#xd5;" horiz-adv-x="1589" d="M61 809q0 108 20.5 212t61.5 197t102.5 171t143 135t183.5 89t223 32t222.5 -32t183 -89t143 -135t102.5 -171t61.5 -197t20.5 -212t-20.5 -212t-61.5 -197t-102.5 -172t-143 -136t-183 -89t-222.5 -32t-223 32t-183.5 89t-143 136t-102.5 172t-61.5 197t-20.5 212z M356 809q0 -70 11 -139t33.5 -132t58 -117t84 -94t111.5 -62.5t141 -22.5q117 0 200 49.5t136 129.5t77.5 181.5t24.5 206.5q0 104 -24.5 205.5t-77.5 181.5t-136 129t-200 49t-200 -49t-136.5 -129t-78 -181.5t-24.5 -205.5zM455 1933q0 32 15.5 58.5t41 46t57 30.5 t62.5 11q45 0 74.5 -9.5t55 -21.5t53 -21.5t67.5 -9.5q20 0 32 9t23.5 19.5t26 19t38.5 8.5t45.5 -9t37 -24.5t25 -36.5t9.5 -45q0 -32 -15.5 -58.5t-41 -45t-57.5 -29t-66 -10.5q-28 0 -60 9t-64.5 20.5t-64 20.5t-57.5 9q-17 0 -28.5 -8.5t-23.5 -19t-27 -19t-40 -8.5 q-24 0 -45.5 9t-37.5 25t-25.5 36.5t-9.5 43.5z" />
<glyph unicode="&#xd6;" horiz-adv-x="1589" d="M61 809q0 108 20.5 212t61.5 197t102.5 171t143 135t183.5 89t223 32t222.5 -32t183 -89t143 -135t102.5 -171t61.5 -197t20.5 -212t-20.5 -212t-61.5 -197t-102.5 -172t-143 -136t-183 -89t-222.5 -32t-223 32t-183.5 89t-143 136t-102.5 172t-61.5 197t-20.5 212z M356 809q0 -70 11 -139t33.5 -132t58 -117t84 -94t111.5 -62.5t141 -22.5q117 0 200 49.5t136 129.5t77.5 181.5t24.5 206.5q0 104 -24.5 205.5t-77.5 181.5t-136 129t-200 49t-200 -49t-136.5 -129t-78 -181.5t-24.5 -205.5zM487 1929q0 27 10 50t27.5 40.5t40 27t47.5 9.5 q26 0 48.5 -9.5t39 -27t26 -40.5t9.5 -50q0 -25 -9.5 -47.5t-26 -39t-39 -26.5t-48.5 -10q-25 0 -47.5 10t-40 26.5t-27.5 39t-10 47.5zM836 1929q0 27 9.5 50t26 40.5t39.5 27t50 9.5q24 0 46.5 -9.5t39 -27t26.5 -40.5t10 -50q0 -25 -10 -47.5t-26.5 -39t-39 -26.5 t-46.5 -10q-27 0 -50 10t-39.5 26.5t-26 39t-9.5 47.5z" />
<glyph unicode="&#xd7;" horiz-adv-x="754" d="M41 578q0 21 7 40.5t24 36.5l153 154l-153 154q-16 15 -23.5 34t-7.5 39q0 15 5.5 33.5t18.5 35.5t33.5 28.5t51.5 11.5q20 0 39 -7.5t34 -23.5l154 -153l153 153q16 16 35 23.5t39 7.5q24 0 44 -9t34.5 -24t22.5 -34.5t8 -41.5q0 -20 -8 -39t-23 -34l-154 -154l154 -154 q17 -17 24 -36.5t7 -40.5q0 -16 -6.5 -34.5t-19.5 -34t-33 -26t-48 -10.5q-21 0 -41 7t-37 24l-151 151l-152 -151q-17 -17 -36.5 -24t-41.5 -7q-13 0 -31 5t-34.5 17t-28.5 32t-12 51z" />
<glyph unicode="&#xd8;" horiz-adv-x="1589" d="M61 809q0 108 20.5 212t61.5 197t102.5 171t143 135t183.5 89t223 32q83 0 156.5 -15.5t138.5 -44.5l67 123q13 22 32.5 36.5t41.5 21t45.5 5t44.5 -11.5q22 -13 36.5 -32t20.5 -41.5t3 -46t-15 -46.5l-80 -141q60 -60 105.5 -133.5t75.5 -156t45.5 -172t15.5 -181.5 q0 -108 -20.5 -212t-61.5 -197t-102.5 -172t-143 -136t-183 -89t-222.5 -32q-87 0 -162 16.5t-141 45.5l-56 -101q-13 -23 -32.5 -38t-41.5 -21.5t-45.5 -3.5t-44.5 16h2q-21 10 -36 28.5t-21.5 40.5t-4.5 46.5t15 46.5l70 123q-59 60 -103.5 133t-74 155t-44 171t-14.5 180 zM356 809q0 -99 22 -195.5t68 -175.5l508 905q-69 31 -159 31q-117 0 -200 -49t-136.5 -129t-78 -181.5t-24.5 -205.5zM627 274q37 -15 78.5 -23.5t89.5 -8.5q117 0 200 49.5t136 129.5t77.5 181.5t24.5 206.5q0 100 -23.5 198t-72.5 177z" />
<glyph unicode="&#xd9;" horiz-adv-x="1417" d="M92 483q0 -96 24 -171.5t66.5 -132.5t101 -96.5t127 -64.5t144.5 -36t154 -11t153.5 11t144 36t127 64.5t101 96.5t66.5 132.5t24 171.5v971q0 35 -12.5 64.5t-34 51t-50.5 34t-61 12.5t-60.5 -12.5t-50 -34t-34 -51t-12.5 -64.5v-969q0 -64 -26 -110.5t-68 -75.5 t-96 -43t-111 -14t-111 14t-96.5 43t-68 75.5t-25.5 110.5v969q0 35 -12.5 64.5t-34 51t-50.5 34t-61 12.5t-61 -12.5t-50.5 -34t-34 -51t-12.5 -64.5v-971zM379 2054q0 25 10 44.5t25.5 33.5t33.5 21.5t33 7.5q25 0 50 -13t57 -45l182 -182q14 -14 21.5 -32.5t7.5 -43.5 q0 -26 -10 -44t-25 -29t-33 -16t-33 -5q-23 0 -41.5 5.5t-33.5 21.5l-197 178q-15 14 -31 37.5t-16 60.5z" />
<glyph unicode="&#xda;" horiz-adv-x="1417" d="M92 483v971q0 35 12.5 64.5t34 51t50.5 34t61 12.5t61 -12.5t50.5 -34t34 -51t12.5 -64.5v-969q0 -64 25.5 -110.5t68 -75.5t96.5 -43t111 -14t111 14t96 43t68 75.5t26 110.5v969q0 35 12.5 64.5t34 51t50 34t60.5 12.5t61 -12.5t50.5 -34t34 -51t12.5 -64.5v-971 q0 -96 -24 -171.5t-66.5 -132.5t-101 -96.5t-127 -64.5t-144 -36t-153.5 -11t-154 11t-144.5 36t-127 64.5t-101 96.5t-66.5 132.5t-24 171.5zM586 1845q0 48 28 76l183 182q32 32 56.5 45t49.5 13q15 0 33 -7.5t33.5 -21.5t26 -33.5t10.5 -44.5q0 -37 -16 -60.5t-32 -37.5 l-196 -178q-16 -16 -34.5 -21.5t-41.5 -5.5q-15 0 -32.5 5t-32.5 16t-25 29t-10 44z" />
<glyph unicode="&#xdb;" horiz-adv-x="1417" d="M92 483v971q0 35 12.5 64.5t34 51t50.5 34t61 12.5t61 -12.5t50.5 -34t34 -51t12.5 -64.5v-969q0 -64 25.5 -110.5t68 -75.5t96.5 -43t111 -14t111 14t96 43t68 75.5t26 110.5v969q0 35 12.5 64.5t34 51t50 34t60.5 12.5t61 -12.5t50.5 -34t34 -51t12.5 -64.5v-971 q0 -96 -24 -171.5t-66.5 -132.5t-101 -96.5t-127 -64.5t-144 -36t-153.5 -11t-154 11t-144.5 36t-127 64.5t-101 96.5t-66.5 132.5t-24 171.5zM381 1845q0 23 6.5 42.5t20.5 33.5l221 219q15 17 31 27t42 10q28 0 44.5 -10t31.5 -27l219 -219q11 -14 20 -31.5t9 -36.5 q0 -13 -5.5 -31t-17 -33.5t-30 -26.5t-45.5 -11q-23 0 -42 6t-36 23l-148 149q-37 -38 -73.5 -75t-73.5 -74q-14 -14 -34 -21.5t-42 -7.5q-15 0 -32.5 5t-32 16t-24 29t-9.5 44z" />
<glyph unicode="&#xdc;" horiz-adv-x="1438" d="M102 483v971q0 35 12.5 64.5t34 51t50.5 34t61 12.5t61 -12.5t50.5 -34t34 -51t12.5 -64.5v-969q0 -64 25.5 -110.5t68 -75.5t96.5 -43t111 -14t111 14t96 43t68 75.5t26 110.5v969q0 35 12.5 64.5t34 51t50.5 34t61 12.5t60.5 -12.5t50 -34t34 -51t12.5 -64.5v-971 q0 -96 -24 -171.5t-66.5 -132.5t-101 -96.5t-127 -64.5t-144 -36t-153.5 -11t-154 11t-144.5 36t-127 64.5t-101 96.5t-66.5 132.5t-24 171.5zM416 1929q0 27 10 50t27 40.5t40 27t48 9.5q26 0 48.5 -9.5t39 -27t26 -40.5t9.5 -50q0 -25 -9.5 -47.5t-26 -39t-39 -26.5 t-48.5 -10q-25 0 -48 10t-40 26.5t-27 39t-10 47.5zM764 1929q0 27 9.5 50t26 40.5t39.5 27t50 9.5q24 0 46.5 -9.5t39.5 -27t27 -40.5t10 -50q0 -25 -10 -47.5t-27 -39t-39.5 -26.5t-46.5 -10q-27 0 -50 10t-39.5 26.5t-26 39t-9.5 47.5z" />
<glyph unicode="&#xdd;" horiz-adv-x="1233" d="M2.5 1506.5q4.5 27.5 20 50.5t43.5 38q17 11 33.5 16t33.5 5q38 0 73 -25t60 -67l350 -609l351 611q24 42 58.5 65t72.5 25q17 0 34 -4t35 -15q28 -15 43.5 -38t20 -50.5t-2 -57.5t-22.5 -60l-432 -754v-475q0 -34 -12.5 -64t-34 -51.5t-50.5 -34t-61 -12.5t-60.5 12.5 t-50 34t-34 51.5t-12.5 64v475l-432 752q-16 30 -22.5 60t-2 57.5zM506 1845q0 49 29 76l182 182q32 32 57 45t49 13q15 0 33 -7.5t33.5 -21.5t26 -33.5t10.5 -44.5q0 -37 -16 -60.5t-31 -37.5l-197 -178q-15 -16 -34 -21.5t-42 -5.5q-15 0 -32.5 5t-32.5 16t-25 29t-10 44z " />
<glyph unicode="&#xde;" horiz-adv-x="1362" d="M102 162v1292q0 35 12.5 64.5t34 51t50.5 34t61 12.5t61 -12.5t50.5 -34t34 -51t12.5 -64.5v-117h336q133 0 235 -37.5t171 -104t104.5 -157.5t35.5 -198q0 -108 -38.5 -199t-109.5 -157.5t-172 -104t-226 -37.5h-336v-180q0 -34 -12.5 -64t-34 -51.5t-50.5 -34 t-61 -12.5t-61 12.5t-50.5 34t-34 51.5t-12.5 64zM418 616h336q54 0 100 15t79.5 43.5t53 70t19.5 95.5t-19.5 95.5t-53 70t-79.5 43t-100 14.5h-336v-447z" />
<glyph unicode="&#xdf;" horiz-adv-x="1247" d="M92 152v985q0 84 24 168t78 151t142 108.5t215 41.5q92 0 161.5 -18.5t120.5 -48.5t84 -68.5t53 -78.5t28 -78.5t8 -68.5q0 -57 -18.5 -99.5t-46 -76t-60 -60.5t-60 -52t-45.5 -50t-18 -55q0 -18 20 -34t52.5 -32.5t73.5 -35.5t84 -43.5t84 -56t73.5 -73t52 -94.5 t19.5 -121q0 -92 -34 -162t-89 -117.5t-125.5 -72t-143.5 -24.5q-86 0 -148 20.5t-104.5 53t-69 73t-40.5 80.5t-18.5 76t-4.5 59q0 30 10 55t27 42.5t39.5 27.5t46.5 10q23 0 43.5 -3.5t37.5 -13t29 -25.5t17 -42q7 -32 10 -65t14 -59t36.5 -41t76.5 -11q26 2 44 15 t29 32.5t16.5 43.5t5.5 48q0 45 -18.5 76t-49.5 54t-70 40.5t-79.5 36t-79.5 40.5t-70 54.5t-49.5 77.5t-18.5 109q0 47 16.5 83.5t42 66t54.5 56t54.5 54.5t42 60.5t16.5 74.5q0 26 -12.5 47.5t-34 37t-51 24t-64.5 8.5q-52 0 -83.5 -26t-48.5 -62.5t-22.5 -75t-5.5 -63.5 v-994q-2 -31 -15 -56.5t-33 -44.5t-46 -29.5t-55 -10.5q-31 0 -58 11.5t-47.5 32t-32.5 48.5t-12 60z" />
<glyph unicode="&#xe0;" d="M41 332q0 -81 33.5 -143t87.5 -104t122 -63.5t138 -21.5q54 0 102 6t92.5 20.5t85 39t78.5 61.5q3 -28 15 -51t31 -40t43.5 -26.5t52.5 -9.5q29 0 54.5 11t45 30t30.5 45t11 55v733q0 82 -36 141t-100 97.5t-152.5 57t-192.5 18.5q-105 0 -192.5 -22t-151 -62t-99 -94 t-35.5 -119q0 -25 11 -42.5t27.5 -28.5t36 -16t36.5 -5q42 0 71.5 18.5t55.5 71.5q9 18 25 36.5t41.5 33t62.5 23.5t90 9q45 0 85.5 -7.5t71 -23.5t48.5 -39t18 -55q0 -49 -32 -78t-84 -47.5t-119 -30.5t-136.5 -27t-136.5 -38t-119 -62t-84 -99.5t-32 -151.5zM287 1604 q0 24 10 44t25.5 33.5t33.5 21t33 7.5q25 0 50 -12.5t57 -44.5l182 -183q14 -14 21.5 -32.5t7.5 -42.5q0 -26 -10 -44t-25 -29.5t-33 -16.5t-33 -5q-23 0 -41.5 6t-34.5 21l-196 178q-16 14 -31.5 37.5t-15.5 61.5zM319 352q0 56 37.5 93.5t112.5 50.5q60 10 115.5 23 t99.5 25q51 14 96 29v-198q0 -41 -23.5 -72.5t-61.5 -53.5t-85.5 -33t-95.5 -11q-56 0 -93.5 12.5t-60 32.5t-32 47t-9.5 55z" />
<glyph unicode="&#xe1;" d="M41 332q0 91 32 151.5t84 99.5t119 62t136.5 38t136.5 27t119 30.5t84 47.5t32 78q0 32 -18 55t-48.5 39t-71 23.5t-85.5 7.5q-53 0 -90 -9t-62.5 -23.5t-41.5 -33t-25 -36.5q-26 -53 -55.5 -71.5t-71.5 -18.5q-17 0 -36.5 5t-36 16t-27.5 28.5t-11 42.5q0 65 35.5 119 t99 94t151 62t192.5 22q104 0 192.5 -18.5t152.5 -57t100 -97.5t36 -141v-733q0 -29 -11 -55t-30.5 -45t-45 -30t-54.5 -11q-28 0 -52.5 9.5t-43.5 26.5t-31 40t-15 51q-38 -37 -78.5 -61.5t-85 -39t-92.5 -20.5t-102 -6q-70 0 -138 21.5t-122 63.5t-87.5 104t-33.5 143z M319 352q0 -28 9.5 -55t32 -47t60 -32.5t93.5 -12.5q48 0 95.5 11t85.5 33t61.5 53.5t23.5 72.5v198q-45 -15 -96 -29q-44 -12 -99.5 -25t-115.5 -23q-75 -13 -112.5 -50.5t-37.5 -93.5zM481 1395q0 24 7.5 42.5t21.5 32.5l182 183q32 32 57 44.5t50 12.5q15 0 33 -7.5 t33.5 -21t25.5 -33.5t10 -44q0 -38 -16 -61.5t-31 -37.5l-197 -178q-15 -15 -33.5 -21t-41.5 -6q-15 0 -33 5t-33 16.5t-25 29.5t-10 44z" />
<glyph unicode="&#xe2;" d="M41 332q0 91 32 151.5t84 99.5t119 62t136.5 38t136.5 27t119 30.5t84 47.5t32 78q0 32 -18 55t-48.5 39t-71 23.5t-85.5 7.5q-53 0 -90 -9t-62.5 -23.5t-41.5 -33t-25 -36.5q-26 -53 -55.5 -71.5t-71.5 -18.5q-17 0 -36.5 5t-36 16t-27.5 28.5t-11 42.5q0 65 35.5 119 t99 94t151 62t192.5 22q104 0 192.5 -18.5t152.5 -57t100 -97.5t36 -141v-733q0 -29 -11 -55t-30.5 -45t-45 -30t-54.5 -11q-28 0 -52.5 9.5t-43.5 26.5t-31 40t-15 51q-38 -37 -78.5 -61.5t-85 -39t-92.5 -20.5t-102 -6q-70 0 -138 21.5t-122 63.5t-87.5 104t-33.5 143z M268 1395q0 23 6.5 42t20.5 33l221 220q16 17 32 26.5t42 9.5q28 0 44 -9.5t32 -26.5l219 -220q11 -14 19.5 -31.5t8.5 -35.5q0 -14 -5 -32t-17 -33.5t-30.5 -26.5t-45.5 -11q-23 0 -42 6t-36 23l-147 150q-37 -39 -73.5 -76t-74.5 -74q-14 -14 -34 -21.5t-41 -7.5 q-15 0 -32.5 5t-32.5 16.5t-24.5 29.5t-9.5 44zM319 352q0 -28 9.5 -55t32 -47t60 -32.5t93.5 -12.5q48 0 95.5 11t85.5 33t61.5 53.5t23.5 72.5v198q-45 -15 -96 -29q-44 -12 -99.5 -25t-115.5 -23q-75 -13 -112.5 -50.5t-37.5 -93.5z" />
<glyph unicode="&#xe3;" d="M41 332q0 91 32 151.5t84 99.5t119 62t136.5 38t136.5 27t119 30.5t84 47.5t32 78q0 32 -18 55t-48.5 39t-71 23.5t-85.5 7.5q-53 0 -90 -9t-62.5 -23.5t-41.5 -33t-25 -36.5q-26 -53 -55.5 -71.5t-71.5 -18.5q-17 0 -36.5 5t-36 16t-27.5 28.5t-11 42.5q0 65 35.5 119 t99 94t151 62t192.5 22q104 0 192.5 -18.5t152.5 -57t100 -97.5t36 -141v-733q0 -29 -11 -55t-30.5 -45t-45 -30t-54.5 -11q-28 0 -52.5 9.5t-43.5 26.5t-31 40t-15 51q-38 -37 -78.5 -61.5t-85 -39t-92.5 -20.5t-102 -6q-70 0 -138 21.5t-122 63.5t-87.5 104t-33.5 143z M248 1483q0 32 15.5 58.5t41 45.5t57 30t62.5 11q45 0 74.5 -9.5t55 -21t53 -21t67.5 -9.5q20 0 32 8.5t23.5 19t26 19t39.5 8.5q24 0 45 -8.5t36.5 -24t25 -36.5t9.5 -46q0 -32 -15.5 -58.5t-41 -45t-57.5 -29t-66 -10.5q-28 0 -60 9t-64.5 20.5t-64 20.5t-57.5 9 q-17 0 -28.5 -8.5t-23 -19t-27 -19t-39.5 -8.5q-25 0 -46.5 9.5t-37.5 25t-25.5 36.5t-9.5 44zM319 352q0 -28 9.5 -55t32 -47t60 -32.5t93.5 -12.5q48 0 95.5 11t85.5 33t61.5 53.5t23.5 72.5v198q-45 -15 -96 -29q-44 -12 -99.5 -25t-115.5 -23q-75 -13 -112.5 -50.5 t-37.5 -93.5z" />
<glyph unicode="&#xe4;" d="M41 332q0 91 32 151.5t84 99.5t119 62t136.5 38t136.5 27t119 30.5t84 47.5t32 78q0 32 -18 55t-48.5 39t-71 23.5t-85.5 7.5q-53 0 -90 -9t-62.5 -23.5t-41.5 -33t-25 -36.5q-26 -53 -55.5 -71.5t-71.5 -18.5q-17 0 -36.5 5t-36 16t-27.5 28.5t-11 42.5q0 65 35.5 119 t99 94t151 62t192.5 22q104 0 192.5 -18.5t152.5 -57t100 -97.5t36 -141v-733q0 -29 -11 -55t-30.5 -45t-45 -30t-54.5 -11q-28 0 -52.5 9.5t-43.5 26.5t-31 40t-15 51q-38 -37 -78.5 -61.5t-85 -39t-92.5 -20.5t-102 -6q-70 0 -138 21.5t-122 63.5t-87.5 104t-33.5 143z M293 1479q0 27 10 50t27 40t40 27t48 10q26 0 48.5 -10t39 -27t26 -40t9.5 -50q0 -25 -9.5 -47.5t-26 -39.5t-39 -26.5t-48.5 -9.5q-25 0 -48 9.5t-40 26.5t-27 39.5t-10 47.5zM319 352q0 -28 9.5 -55t32 -47t60 -32.5t93.5 -12.5q48 0 95.5 11t85.5 33t61.5 53.5t23.5 72.5 v198q-45 -15 -96 -29q-44 -12 -99.5 -25t-115.5 -23q-75 -13 -112.5 -50.5t-37.5 -93.5zM641 1479q0 27 9.5 50t26 40t39.5 27t50 10q24 0 46.5 -10t39.5 -27t27 -40t10 -50q0 -25 -10 -47.5t-27 -39.5t-39.5 -26.5t-46.5 -9.5q-27 0 -50 9.5t-39.5 26.5t-26 39.5t-9.5 47.5 z" />
<glyph unicode="&#xe5;" d="M41 332q0 91 32 151.5t84 99.5t119 62t136.5 38t136.5 27t119 30.5t84 47.5t32 78q0 32 -18 55t-48.5 39t-71 23.5t-85.5 7.5q-53 0 -90 -9t-62.5 -23.5t-41.5 -33t-25 -36.5q-26 -53 -55.5 -71.5t-71.5 -18.5q-17 0 -36.5 5t-36 16t-27.5 28.5t-11 42.5q0 65 35.5 119 t99 94t151 62t192.5 22q104 0 192.5 -18.5t152.5 -57t100 -97.5t36 -141v-733q0 -29 -11 -55t-30.5 -45t-45 -30t-54.5 -11q-28 0 -52.5 9.5t-43.5 26.5t-31 40t-15 51q-38 -37 -78.5 -61.5t-85 -39t-92.5 -20.5t-102 -6q-70 0 -138 21.5t-122 63.5t-87.5 104t-33.5 143z M319 352q0 -28 9.5 -55t32 -47t60 -32.5t93.5 -12.5q48 0 95.5 11t85.5 33t61.5 53.5t23.5 72.5v198q-45 -15 -96 -29q-44 -12 -99.5 -25t-115.5 -23q-75 -13 -112.5 -50.5t-37.5 -93.5zM340 1520q0 51 19 96t52 78t77.5 52t95.5 19q52 0 97 -19t78 -52t51.5 -78t18.5 -96 q0 -52 -18.5 -97t-51.5 -78t-78 -52t-97 -19q-51 0 -95.5 19t-77.5 52t-52 78t-19 97zM500 1520q0 -17 6.5 -32t18 -26.5t26.5 -18.5t33 -7t33 7t26.5 18.5t18 26.5t6.5 32q0 35 -24.5 60.5t-59.5 25.5t-59.5 -25.5t-24.5 -60.5z" />
<glyph unicode="&#xe6;" horiz-adv-x="1927" d="M41 332q0 91 32 151.5t84 99.5t119 62t136.5 38t136.5 27t119 30.5t84 47.5t32 78q0 32 -18 55t-48.5 39t-71 23.5t-85.5 7.5q-53 0 -90 -9t-62.5 -23.5t-41.5 -33t-25 -36.5q-26 -53 -55.5 -71.5t-71.5 -18.5q-17 0 -36.5 5t-36 16t-27.5 28.5t-11 42.5q0 65 35.5 119 t99 94t151 62t192.5 22q139 0 247.5 -33t169.5 -102q73 65 169 100t214 35q75 0 140.5 -15.5t120 -44t98 -67.5t74.5 -86q24 -37 42.5 -85t18.5 -91q0 -47 -24.5 -89.5t-79.5 -68.5l-639 -287q23 -45 59 -80q31 -30 80.5 -55.5t120.5 -25.5q101 0 164.5 44.5t95.5 116.5 q15 34 44.5 47t63.5 13q48 0 80.5 -31t32.5 -88q0 -22 -14 -55t-42 -69t-69 -71.5t-94 -64.5t-119 -46.5t-143 -17.5q-135 0 -247.5 49.5t-191.5 137.5q-35 -33 -83.5 -66.5t-111.5 -60t-141.5 -43.5t-173.5 -17q-88 0 -162 26t-127.5 73t-83.5 114t-30 148zM319 352 q0 -28 9.5 -59.5t32 -57t60 -42.5t93.5 -17q48 0 95.5 16t85.5 43t61.5 63t23.5 77v198q-45 -15 -96 -29q-44 -12 -99.5 -25t-115.5 -23q-75 -13 -112.5 -50.5t-37.5 -93.5zM1067 559l537 240q-13 43 -36.5 74.5t-54 52.5t-65 31t-70.5 10q-73 0 -134 -35.5t-102.5 -93 t-61.5 -131t-13 -148.5z" />
<glyph unicode="&#xe7;" d="M51 580q0 140 42 252.5t117 191.5t178 121.5t224 42.5q88 0 159.5 -17.5t126.5 -46t95 -65.5t66 -75t38.5 -74t12.5 -64q0 -65 -34 -96t-87 -31q-45 0 -75.5 19.5t-43.5 49.5q-11 29 -27.5 59.5t-45 56.5t-73 42.5t-112.5 16.5q-61 0 -114 -25t-92 -73.5t-61.5 -120 t-22.5 -164.5q0 -94 22.5 -165.5t61.5 -120.5t92 -74t114 -25q68 0 114.5 16t78 41.5t49.5 56.5t29 62q11 32 40 51.5t74 19.5q53 0 85 -33.5t32 -93.5q0 -40 -25 -93t-76.5 -103.5t-129.5 -90t-183 -51.5l-49 -120q42 -3 81.5 -16.5t70.5 -38.5t50 -62.5t19 -89.5 q0 -49 -18 -90t-52.5 -70.5t-86 -46t-119.5 -16.5q-17 0 -41.5 2t-52 6.5t-54 12.5t-48 20.5t-35 29t-13.5 39.5q0 11 4.5 22.5t13 20.5t20 15t26.5 6q20 0 34.5 -4t26.5 -9q17 -6 33.5 -10t32.5 -4q22 0 42 4.5t35 13.5t24 23.5t9 34.5q0 29 -21.5 45t-68.5 16 q-15 0 -33.5 -2t-44.5 -10q-13 -4 -25.5 -2t-19.5 9.5t-8 20.5t8 31l109 217q-109 10 -200.5 56t-157.5 124t-103 185.5t-37 239.5z" />
<glyph unicode="&#xe8;" horiz-adv-x="1169" d="M51 565q0 -131 44.5 -240.5t122.5 -188t185 -122t232 -43.5q77 0 143 17.5t119 46.5t94 64.5t69 71.5t42 69t14 55q0 57 -32 88t-80 31q-35 0 -64.5 -13t-44.5 -47q-32 -72 -95.5 -116.5t-164.5 -44.5q-71 0 -120.5 25.5t-80.5 55.5q-36 35 -59 80l639 287 q55 26 79.5 68.5t24.5 89.5q0 43 -18 91t-43 85q-31 47 -74.5 86t-98 67.5t-119.5 44t-140 15.5q-135 0 -242 -45.5t-180.5 -128t-112.5 -197t-39 -252.5zM268 1604q0 24 10.5 44t26 33.5t33.5 21t33 7.5q24 0 49 -12.5t57 -44.5l182 -183q29 -27 29 -75q0 -26 -10 -44 t-25 -29.5t-32.5 -16.5t-32.5 -5q-23 0 -42 6t-34 21l-197 178q-15 14 -31 37.5t-16 61.5zM309 559q-7 75 13 148.5t62 131t102.5 93t134.5 35.5q35 0 70 -10t65 -31t53.5 -52.5t36.5 -74.5z" />
<glyph unicode="&#xe9;" horiz-adv-x="1169" d="M51 565q0 138 39 252.5t112.5 197t180.5 128t242 45.5q75 0 140 -15.5t119.5 -44t98 -67.5t74.5 -86q25 -37 43 -85t18 -91q0 -47 -24.5 -89.5t-79.5 -68.5l-639 -287q23 -45 59 -80q31 -30 80.5 -55.5t120.5 -25.5q101 0 164.5 44.5t95.5 116.5q15 34 44.5 47t64.5 13 q48 0 80 -31t32 -88q0 -22 -14 -55t-42 -69t-69 -71.5t-94 -64.5t-119 -46.5t-143 -17.5q-125 0 -232 43.5t-185 122t-122.5 188t-44.5 240.5zM309 559l537 240q-13 43 -36.5 74.5t-53.5 52.5t-65 31t-70 10q-74 0 -134.5 -35.5t-102.5 -93t-62 -131t-13 -148.5zM494 1395 q0 47 28 75l183 183q32 32 56.5 44.5t49.5 12.5q15 0 33 -7.5t33.5 -21t25.5 -33.5t10 -44q0 -38 -15.5 -61.5t-31.5 -37.5l-196 -178q-16 -15 -34.5 -21t-41.5 -6q-15 0 -32.5 5t-32.5 16.5t-25 29.5t-10 44z" />
<glyph unicode="&#xea;" horiz-adv-x="1169" d="M51 565q0 138 39 252.5t112.5 197t180.5 128t242 45.5q75 0 140 -15.5t119.5 -44t98 -67.5t74.5 -86q25 -37 43 -85t18 -91q0 -47 -24.5 -89.5t-79.5 -68.5l-639 -287q23 -45 59 -80q31 -30 80.5 -55.5t120.5 -25.5q101 0 164.5 44.5t95.5 116.5q15 34 44.5 47t64.5 13 q48 0 80 -31t32 -88q0 -22 -14 -55t-42 -69t-69 -71.5t-94 -64.5t-119 -46.5t-143 -17.5q-125 0 -232 43.5t-185 122t-122.5 188t-44.5 240.5zM268 1395q0 23 6.5 42t20.5 33l221 220q16 17 32 26.5t42 9.5q28 0 44 -9.5t32 -26.5l219 -220q11 -14 19.5 -31.5t8.5 -35.5 q0 -14 -5 -32t-17 -33.5t-30.5 -26.5t-45.5 -11q-23 0 -42 6t-36 23l-147 150q-37 -39 -73.5 -76t-74.5 -74q-14 -14 -34 -21.5t-41 -7.5q-15 0 -32.5 5t-32.5 16.5t-24.5 29.5t-9.5 44zM309 559l537 240q-13 43 -36.5 74.5t-53.5 52.5t-65 31t-70 10q-74 0 -134.5 -35.5 t-102.5 -93t-62 -131t-13 -148.5z" />
<glyph unicode="&#xeb;" horiz-adv-x="1169" d="M51 565q0 138 39 252.5t112.5 197t180.5 128t242 45.5q75 0 140 -15.5t119.5 -44t98 -67.5t74.5 -86q25 -37 43 -85t18 -91q0 -47 -24.5 -89.5t-79.5 -68.5l-639 -287q23 -45 59 -80q31 -30 80.5 -55.5t120.5 -25.5q101 0 164.5 44.5t95.5 116.5q15 34 44.5 47t64.5 13 q48 0 80 -31t32 -88q0 -22 -14 -55t-42 -69t-69 -71.5t-94 -64.5t-119 -46.5t-143 -17.5q-125 0 -232 43.5t-185 122t-122.5 188t-44.5 240.5zM295 1479q0 27 10 50t27 40t40 27t48 10q26 0 48.5 -10t39 -27t26 -40t9.5 -50q0 -25 -9.5 -47.5t-26 -39.5t-39 -26.5 t-48.5 -9.5q-25 0 -48 9.5t-40 26.5t-27 39.5t-10 47.5zM309 559l537 240q-13 43 -36.5 74.5t-53.5 52.5t-65 31t-70 10q-74 0 -134.5 -35.5t-102.5 -93t-62 -131t-13 -148.5zM643 1479q0 27 9.5 50t26 40t39.5 27t50 10q25 0 47 -10t39 -27t27 -40t10 -50q0 -25 -10 -47.5 t-27 -39.5t-39 -26.5t-47 -9.5q-27 0 -50 9.5t-39.5 26.5t-26 39.5t-9.5 47.5z" />
<glyph unicode="&#xec;" horiz-adv-x="483" d="M-55 1604q0 24 10 44t25.5 33.5t33.5 21t33 7.5q25 0 50 -12.5t57 -44.5l182 -183q14 -14 21.5 -32.5t7.5 -42.5q0 -26 -10 -44t-25 -29.5t-33 -16.5t-33 -5q-23 0 -41.5 6t-34.5 21l-196 178q-16 14 -31.5 37.5t-15.5 61.5zM92 152q0 -32 12 -60t32.5 -48.5t47.5 -32 t58 -11.5t58 11.5t47.5 32t32 48.5t11.5 60v884q0 32 -11.5 60t-32 48.5t-47.5 32t-58 11.5t-58 -11.5t-47.5 -32t-32.5 -48.5t-12 -60v-884z" />
<glyph unicode="&#xed;" horiz-adv-x="483" d="M92 152v884q0 32 12 60t32.5 48.5t47.5 32t58 11.5t58 -11.5t47.5 -32t32 -48.5t11.5 -60v-884q0 -32 -11.5 -60t-32 -48.5t-47.5 -32t-58 -11.5t-58 11.5t-47.5 32t-32.5 48.5t-12 60zM117 1395q0 47 28 75l183 183q32 32 56.5 44.5t49.5 12.5q15 0 33 -7.5t33.5 -21 t26 -33.5t10.5 -44q0 -38 -16 -61.5t-32 -37.5l-196 -178q-16 -15 -34.5 -21t-41.5 -6q-15 0 -32.5 5t-32.5 16.5t-25 29.5t-10 44z" />
<glyph unicode="&#xee;" horiz-adv-x="483" d="M-82 1395q0 23 6.5 42t20.5 33l221 220q15 17 31.5 26.5t42.5 9.5q27 0 43.5 -9.5t31.5 -26.5l220 -220q11 -14 19.5 -31.5t8.5 -35.5q0 -14 -5 -32t-17 -33.5t-30.5 -26.5t-45.5 -11q-23 0 -42 6t-36 23l-147 150q-38 -39 -74.5 -76t-73.5 -74q-14 -14 -34 -21.5 t-42 -7.5q-15 0 -32.5 5t-32 16.5t-24 29.5t-9.5 44zM92 152v884q0 32 12 60t32.5 48.5t47.5 32t58 11.5t58 -11.5t47.5 -32t32 -48.5t11.5 -60v-884q0 -32 -11.5 -60t-32 -48.5t-47.5 -32t-58 -11.5t-58 11.5t-47.5 32t-32.5 48.5t-12 60z" />
<glyph unicode="&#xef;" horiz-adv-x="483" d="M-57 1479q0 27 10 50t27 40t40 27t48 10q26 0 48 -10t38.5 -27t26 -40t9.5 -50q0 -25 -9.5 -47.5t-26 -39.5t-38.5 -26.5t-48 -9.5q-25 0 -48 9.5t-40 26.5t-27 39.5t-10 47.5zM92 152v884q0 32 12 60t32.5 48.5t47.5 32t58 11.5t58 -11.5t47.5 -32t32 -48.5t11.5 -60 v-884q0 -32 -11.5 -60t-32 -48.5t-47.5 -32t-58 -11.5t-58 11.5t-47.5 32t-32.5 48.5t-12 60zM291 1479q0 27 9.5 50t26 40t39.5 27t50 10q24 0 46.5 -10t39.5 -27t27 -40t10 -50q0 -25 -10 -47.5t-27 -39.5t-39.5 -26.5t-46.5 -9.5q-27 0 -50 9.5t-39.5 26.5t-26 39.5 t-9.5 47.5z" />
<glyph unicode="&#xf0;" horiz-adv-x="1174" d="M51 553q0 134 40.5 238t111 175t167 107.5t208.5 36.5q96 0 178 -25q-17 41 -38 81t-46 75l-66 -47q-22 -15 -46 -16t-44 8t-34.5 27.5t-18.5 43.5q-3 25 8 48.5t31 37.5l47 33q-18 10 -34.5 23t-29 29t-20.5 34t-8 39q0 26 11 48.5t29 38.5t41 25t46 9q15 0 32 -4.5 t31 -15.5q28 -20 54 -41.5t49 -42.5l106 73q11 8 25 12.5t28 4.5q21 0 37.5 -7.5t28.5 -20t18 -28.5t6 -34q0 -22 -9 -42t-29 -34l-89 -62q62 -84 107 -180.5t74.5 -201.5t44 -217t14.5 -228q0 -132 -41.5 -235t-113.5 -173.5t-169.5 -107.5t-209.5 -37t-208.5 37 t-167 107.5t-111 173.5t-40.5 235zM311 553q0 -84 20.5 -145t56 -101.5t84.5 -60t106 -19.5q56 0 104.5 19.5t84.5 60t56.5 101.5t20.5 145q0 87 -20.5 150t-56.5 103.5t-84.5 59.5t-104.5 19q-57 0 -106 -19t-84.5 -59.5t-56 -103.5t-20.5 -150z" />
<glyph unicode="&#xf1;" horiz-adv-x="1212" d="M92 152v884q0 32 12 60t32.5 48.5t47.5 32t58 11.5q30 0 57 -11.5t47 -31t32 -46.5t13 -59q32 41 81 74q42 28 107.5 51t157.5 23q78 0 148 -26t122 -74t82.5 -115t30.5 -148v-673q0 -32 -11.5 -60t-32 -48.5t-47.5 -32t-58 -11.5t-58 11.5t-47.5 32t-32.5 48.5t-12 60 v575q0 45 -17 84t-46 68t-68 46t-84 17q-43 0 -81 -16t-67.5 -44t-47 -66t-19.5 -81v-583q0 -32 -11.5 -60t-32 -48.5t-47.5 -32t-58 -11.5t-58 11.5t-47.5 32t-32.5 48.5t-12 60zM272 1483q0 32 16 58.5t41 45.5t57 30t63 11q44 0 73.5 -9.5t55.5 -21t53 -21t67 -9.5 q20 0 32.5 8.5t24 19t26 19t38.5 8.5t45.5 -8.5t37 -24t25 -36.5t9.5 -46q0 -32 -15.5 -58.5t-41 -45t-57.5 -29t-66 -10.5q-28 0 -60 9t-64.5 20.5t-64 20.5t-57.5 9q-17 0 -28.5 -8.5t-23.5 -19t-27 -19t-40 -8.5q-24 0 -46 9.5t-38 25t-25.5 36.5t-9.5 44z" />
<glyph unicode="&#xf2;" horiz-adv-x="1290" d="M51 580q0 -135 46 -247.5t126.5 -192.5t189 -124.5t232.5 -44.5q125 0 233 44.5t188.5 124.5t126.5 192.5t46 247.5t-46 247t-126.5 192t-188.5 124.5t-233 44.5q-124 0 -232.5 -44.5t-189 -124.5t-126.5 -192t-46 -247zM315 1604q0 24 10.5 44t26 33.5t33.5 21t33 7.5 q25 0 49.5 -12.5t56.5 -44.5l183 -183q28 -28 28 -75q0 -26 -10 -44t-25 -29.5t-32.5 -16.5t-32.5 -5q-23 0 -41.5 6t-34.5 21l-197 178q-15 14 -31 37.5t-16 61.5zM326 580q0 77 21.5 147.5t62.5 123.5t100.5 84.5t134.5 31.5t134.5 -31.5t101 -84.5t63 -123.5t21.5 -147.5 q0 -78 -21.5 -148t-63 -123t-101 -84.5t-134.5 -31.5t-134.5 31.5t-100.5 84.5t-62.5 123t-21.5 148z" />
<glyph unicode="&#xf3;" horiz-adv-x="1290" d="M51 580q0 135 46 247t126.5 192t189 124.5t232.5 44.5q125 0 233 -44.5t188.5 -124.5t126.5 -192t46 -247t-46 -247.5t-126.5 -192.5t-188.5 -124.5t-233 -44.5q-124 0 -232.5 44.5t-189 124.5t-126.5 192.5t-46 247.5zM326 580q0 -78 21.5 -148t62.5 -123t100.5 -84.5 t134.5 -31.5t134.5 31.5t101 84.5t63 123t21.5 148q0 77 -21.5 147.5t-63 123.5t-101 84.5t-134.5 31.5t-134.5 -31.5t-100.5 -84.5t-62.5 -123.5t-21.5 -147.5zM559 1395q0 48 29 75l182 183q32 32 57 44.5t50 12.5q15 0 33 -7.5t33.5 -21t25.5 -33.5t10 -44 q0 -38 -16 -61.5t-31 -37.5l-197 -178q-15 -15 -34 -21t-42 -6q-15 0 -32.5 5t-32.5 16.5t-25 29.5t-10 44z" />
<glyph unicode="&#xf4;" horiz-adv-x="1290" d="M51 580q0 135 46 247t126.5 192t189 124.5t232.5 44.5q125 0 233 -44.5t188.5 -124.5t126.5 -192t46 -247t-46 -247.5t-126.5 -192.5t-188.5 -124.5t-233 -44.5q-124 0 -232.5 44.5t-189 124.5t-126.5 192.5t-46 247.5zM317 1395q0 23 6.5 42t20.5 33l221 220 q16 17 32 26.5t42 9.5q28 0 44 -9.5t32 -26.5l219 -220q11 -14 20 -31.5t9 -35.5q0 -14 -5.5 -32t-17 -33.5t-30.5 -26.5t-46 -11q-23 0 -42 6t-36 23l-147 150q-37 -39 -73.5 -76t-73.5 -74q-14 -14 -34.5 -21.5t-41.5 -7.5q-15 0 -32.5 5t-32.5 16.5t-24.5 29.5t-9.5 44z M326 580q0 -78 21.5 -148t62.5 -123t100.5 -84.5t134.5 -31.5t134.5 31.5t101 84.5t63 123t21.5 148q0 77 -21.5 147.5t-63 123.5t-101 84.5t-134.5 31.5t-134.5 -31.5t-100.5 -84.5t-62.5 -123.5t-21.5 -147.5z" />
<glyph unicode="&#xf5;" horiz-adv-x="1290" d="M51 580q0 135 46 247t126.5 192t189 124.5t232.5 44.5q125 0 233 -44.5t188.5 -124.5t126.5 -192t46 -247t-46 -247.5t-126.5 -192.5t-188.5 -124.5t-233 -44.5q-124 0 -232.5 44.5t-189 124.5t-126.5 192.5t-46 247.5zM305 1483q0 32 15.5 58.5t41 45.5t57 30t62.5 11 q45 0 74.5 -9.5t55.5 -21t53 -21t67 -9.5q20 0 32 8.5t23.5 19t26 19t39.5 8.5q24 0 45 -8.5t37 -24t25.5 -36.5t9.5 -46q0 -32 -15.5 -58.5t-41 -45t-58 -29t-66.5 -10.5q-27 0 -59 9t-65 20.5t-64 20.5t-57 9q-17 0 -28.5 -8.5t-23.5 -19t-27.5 -19t-39.5 -8.5 q-25 0 -46.5 9.5t-37.5 25t-25.5 36.5t-9.5 44zM326 580q0 -78 21.5 -148t62.5 -123t100.5 -84.5t134.5 -31.5t134.5 31.5t101 84.5t63 123t21.5 148q0 77 -21.5 147.5t-63 123.5t-101 84.5t-134.5 31.5t-134.5 -31.5t-100.5 -84.5t-62.5 -123.5t-21.5 -147.5z" />
<glyph unicode="&#xf6;" horiz-adv-x="1290" d="M51 580q0 135 46 247t126.5 192t189 124.5t232.5 44.5q125 0 233 -44.5t188.5 -124.5t126.5 -192t46 -247t-46 -247.5t-126.5 -192.5t-188.5 -124.5t-233 -44.5q-124 0 -232.5 44.5t-189 124.5t-126.5 192.5t-46 247.5zM326 580q0 -78 21.5 -148t62.5 -123t100.5 -84.5 t134.5 -31.5t134.5 31.5t101 84.5t63 123t21.5 148q0 77 -21.5 147.5t-63 123.5t-101 84.5t-134.5 31.5t-134.5 -31.5t-100.5 -84.5t-62.5 -123.5t-21.5 -147.5zM348 1479q0 27 10 50t27.5 40t40 27t47.5 10q26 0 48.5 -10t39 -27t26 -40t9.5 -50q0 -25 -9.5 -47.5 t-26 -39.5t-39 -26.5t-48.5 -9.5q-25 0 -47.5 9.5t-40 26.5t-27.5 39.5t-10 47.5zM696 1479q0 27 9.5 50t26.5 40t39.5 27t49.5 10q25 0 47 -10t39 -27t27 -40t10 -50q0 -25 -10 -47.5t-27 -39.5t-39 -26.5t-47 -9.5q-27 0 -49.5 9.5t-39.5 26.5t-26.5 39.5t-9.5 47.5z" />
<glyph unicode="&#xf8;" horiz-adv-x="1290" d="M51 580q0 135 46 247t126.5 192t189 124.5t232.5 44.5q110 0 207 -35l51 90q12 18 28.5 30.5t35 17.5t37.5 3t36 -12q18 -10 29 -26t16 -35t3.5 -38.5t-9.5 -37.5l-51 -92q97 -81 154 -201.5t57 -271.5q0 -135 -46 -247.5t-126.5 -192.5t-188.5 -124.5t-233 -44.5 q-56 0 -107.5 9t-99.5 24l-37 -65q-10 -18 -26 -30t-35 -17t-38.5 -4t-35.5 10q-15 9 -26 24.5t-16 34.5t-4 38.5t9 37.5l37 67q-99 82 -157 203.5t-58 276.5zM326 580q0 -72 16.5 -135.5t50.5 -114.5l346 622q-21 8 -45 11.5t-49 3.5q-75 0 -134.5 -31.5t-100.5 -84.5 t-62.5 -123.5t-21.5 -147.5zM551 207q41 -14 94 -14q75 0 134.5 31.5t101 84.5t63 123t21.5 148q0 68 -17 130t-49 113z" />
<glyph unicode="&#xf9;" horiz-adv-x="1212" d="M92 362v674q0 32 12 60t32.5 48.5t47.5 32t58 11.5t58 -11.5t47.5 -32t32 -48.5t11.5 -60v-575q0 -45 17 -84t46 -68t68 -46t84 -17q43 0 81.5 16t67.5 44t47 66t19 81v583q0 32 12 60t32.5 48.5t47.5 32t58 11.5t58 -11.5t47.5 -32t32 -48.5t11.5 -60v-884 q0 -32 -11.5 -60t-32 -48.5t-47.5 -32t-58 -11.5q-30 0 -57 11t-47.5 31t-32.5 47t-13 58q-32 -40 -81 -73q-42 -28 -107.5 -51t-157.5 -23q-78 0 -148 26t-122 73.5t-82.5 114.5t-30.5 148zM264 1604q0 24 10.5 44t26 33.5t33.5 21t33 7.5q24 0 49 -12.5t57 -44.5l182 -183 q29 -27 29 -75q0 -26 -10 -44t-25 -29.5t-32.5 -16.5t-32.5 -5q-23 0 -42 6t-34 21l-197 178q-15 14 -31 37.5t-16 61.5z" />
<glyph unicode="&#xfa;" horiz-adv-x="1212" d="M92 362v674q0 32 12 60t32.5 48.5t47.5 32t58 11.5t58 -11.5t47.5 -32t32 -48.5t11.5 -60v-575q0 -45 17 -84t46 -68t68 -46t84 -17q43 0 81.5 16t67.5 44t47 66t19 81v583q0 32 12 60t32.5 48.5t47.5 32t58 11.5t58 -11.5t47.5 -32t32 -48.5t11.5 -60v-884 q0 -32 -11.5 -60t-32 -48.5t-47.5 -32t-58 -11.5q-30 0 -57 11t-47.5 31t-32.5 47t-13 58q-32 -40 -81 -73q-42 -28 -107.5 -51t-157.5 -23q-78 0 -148 26t-122 73.5t-82.5 114.5t-30.5 148zM516 1395q0 48 29 75l182 183q32 32 57 44.5t50 12.5q15 0 33 -7.5t33 -21 t25.5 -33.5t10.5 -44q0 -38 -16 -61.5t-31 -37.5l-197 -178q-15 -15 -34 -21t-42 -6q-15 0 -32.5 5t-32.5 16.5t-25 29.5t-10 44z" />
<glyph unicode="&#xfb;" horiz-adv-x="1212" d="M92 362v674q0 32 12 60t32.5 48.5t47.5 32t58 11.5t58 -11.5t47.5 -32t32 -48.5t11.5 -60v-575q0 -45 17 -84t46 -68t68 -46t84 -17q43 0 81.5 16t67.5 44t47 66t19 81v583q0 32 12 60t32.5 48.5t47.5 32t58 11.5t58 -11.5t47.5 -32t32 -48.5t11.5 -60v-884 q0 -32 -11.5 -60t-32 -48.5t-47.5 -32t-58 -11.5q-30 0 -57 11t-47.5 31t-32.5 47t-13 58q-32 -40 -81 -73q-42 -28 -107.5 -51t-157.5 -23q-78 0 -148 26t-122 73.5t-82.5 114.5t-30.5 148zM281 1395q0 23 6 42t20 33l221 220q16 17 32 26.5t42 9.5q28 0 44 -9.5t32 -26.5 l219 -220q11 -14 20 -31.5t9 -35.5q0 -14 -5.5 -32t-17 -33.5t-30.5 -26.5t-46 -11q-23 0 -41.5 6t-35.5 23l-148 150q-37 -39 -73.5 -76t-73.5 -74q-14 -14 -34 -21.5t-42 -7.5q-15 0 -32.5 5t-32 16.5t-24 29.5t-9.5 44z" />
<glyph unicode="&#xfc;" horiz-adv-x="1212" d="M92 362v674q0 32 12 60t32.5 48.5t47.5 32t58 11.5t58 -11.5t47.5 -32t32 -48.5t11.5 -60v-575q0 -45 17 -84t46 -68t68 -46t84 -17q43 0 81.5 16t67.5 44t47 66t19 81v583q0 32 12 60t32.5 48.5t47.5 32t58 11.5t58 -11.5t47.5 -32t32 -48.5t11.5 -60v-884 q0 -32 -11.5 -60t-32 -48.5t-47.5 -32t-58 -11.5q-30 0 -57 11t-47.5 31t-32.5 47t-13 58q-32 -40 -81 -73q-42 -28 -107.5 -51t-157.5 -23q-78 0 -148 26t-122 73.5t-82.5 114.5t-30.5 148zM305 1479q0 27 10 50t27 40t40 27t48 10q26 0 48.5 -10t39 -27t26 -40t9.5 -50 q0 -25 -9.5 -47.5t-26 -39.5t-39 -26.5t-48.5 -9.5q-25 0 -48 9.5t-40 26.5t-27 39.5t-10 47.5zM653 1479q0 27 9.5 50t26.5 40t39.5 27t49.5 10q25 0 47 -10t39 -27t27 -40t10 -50q0 -25 -10 -47.5t-27 -39.5t-39 -26.5t-47 -9.5q-27 0 -49.5 9.5t-39.5 26.5t-26.5 39.5 t-9.5 47.5z" />
<glyph unicode="&#xfd;" horiz-adv-x="1040" d="M-18 1062.5q4 33.5 20.5 61.5t45 46t65.5 18q49 0 81.5 -33t51.5 -84l278 -741l279 741q18 50 48 83.5t77 33.5q37 0 65 -16t44.5 -43t20.5 -61.5t-7 -70.5l-416 -1151q-18 -51 -39 -100.5t-54 -89t-84 -64t-130 -24.5h-209q-26 0 -46 11t-33 28t-19.5 37.5t-6.5 40.5 t6.5 40.5t19.5 37.5t33 27.5t46 10.5h88q57 0 91 7.5t46 41.5l39 101l-393 1046q-12 32 -8 65.5zM459 1395q0 47 28 75l183 183q32 32 56.5 44.5t49.5 12.5q15 0 33 -7.5t33.5 -21t26 -33.5t10.5 -44q0 -38 -16 -61.5t-32 -37.5l-196 -178q-16 -15 -34.5 -21t-41.5 -6 q-15 0 -32.5 5t-32.5 16.5t-25 29.5t-10 44z" />
<glyph unicode="&#xfe;" horiz-adv-x="1233" d="M92 -281v1745q0 32 12 60t32.5 48.5t47.5 32t58 11.5t58 -11.5t47.5 -32t32 -48.5t11.5 -60v-426q25 42 71 75q39 29 105 52t166 23q102 0 184.5 -43.5t141.5 -121.5t91 -187.5t32 -241.5t-32 -241.5t-91 -187.5t-141.5 -121.5t-184.5 -43.5q-100 0 -166 23t-105 52 q-46 33 -71 75v-431q0 -32 -11.5 -60t-32 -48t-47.5 -31.5t-58 -11.5t-58 11.5t-47.5 31.5t-32.5 48t-12 60zM365 592q0 -81 18.5 -145.5t53 -110t85.5 -70t115 -24.5q65 0 115.5 24.5t85 70t53 110t18.5 145.5t-18.5 146.5t-53 111t-85 70t-115.5 24.5q-64 0 -115 -24.5 t-85.5 -70t-53 -111t-18.5 -146.5z" />
<glyph unicode="&#xff;" horiz-adv-x="1040" d="M-18 1062.5q4 33.5 20.5 61.5t45 46t65.5 18q49 0 81.5 -33t51.5 -84l278 -741l279 741q18 50 48 83.5t77 33.5q37 0 65 -16t44.5 -43t20.5 -61.5t-7 -70.5l-416 -1151q-18 -51 -39 -100.5t-54 -89t-84 -64t-130 -24.5h-209q-26 0 -46 11t-33 28t-19.5 37.5t-6.5 40.5 t6.5 40.5t19.5 37.5t33 27.5t46 10.5h88q57 0 91 7.5t46 41.5l39 101l-393 1046q-12 32 -8 65.5zM227 1479q0 27 10 50t27.5 40t40 27t47.5 10q26 0 48.5 -10t39 -27t26 -40t9.5 -50q0 -25 -9.5 -47.5t-26 -39.5t-39 -26.5t-48.5 -9.5q-25 0 -47.5 9.5t-40 26.5t-27.5 39.5 t-10 47.5zM575 1479q0 27 9.5 50t26.5 40t39.5 27t49.5 10q25 0 47 -10t39 -27t27 -40t10 -50q0 -25 -10 -47.5t-27 -39.5t-39 -26.5t-47 -9.5q-27 0 -49.5 9.5t-39.5 26.5t-26.5 39.5t-9.5 47.5z" />
<glyph unicode="&#x152;" horiz-adv-x="2417" d="M61 809q0 108 20.5 212t61.5 197t102.5 171t143 135t183.5 89t223 32q128 0 233 -35.5t189 -98.5q6 20 18 38.5t31 33.5t46 24t62 9h840q35 0 64.5 -9.5t51 -27t34 -43t12.5 -57.5t-12.5 -57.5t-34 -43.5t-51 -27.5t-64.5 -9.5h-686v-344h573q35 0 64.5 -9.5t51 -27 t34 -43t12.5 -57.5t-12.5 -57.5t-34 -43t-51 -27t-64.5 -9.5h-573v-449h686q35 0 64.5 -9.5t51 -27t34 -43t12.5 -57.5t-12.5 -57.5t-34 -43t-51 -27t-64.5 -9.5h-840q-24 0 -48 6t-45 19t-37.5 33t-24.5 48q-84 -63 -190 -99t-234 -36q-121 0 -223 32t-183.5 89t-143 136 t-102.5 172t-61.5 197t-20.5 212zM356 809q0 -70 11 -139t33.5 -132t58 -117t84 -94t111.5 -62.5t141 -22.5q117 0 200 49.5t136 129.5t77.5 181.5t24.5 206.5q0 104 -24.5 205.5t-77.5 181.5t-136 129t-200 49t-200 -49t-136.5 -129t-78 -181.5t-24.5 -205.5z" />
<glyph unicode="&#x153;" horiz-adv-x="2103" d="M51 580q0 135 46 247t126.5 192t189 124.5t232.5 44.5q140 0 259.5 -56.5t201.5 -156.5q74 100 187.5 156.5t265.5 56.5q75 0 140 -15.5t119.5 -44t98 -67.5t74.5 -86q24 -37 42.5 -85t18.5 -91q0 -47 -24.5 -89.5t-79.5 -68.5l-639 -287q23 -45 59 -80 q31 -30 80.5 -55.5t120.5 -25.5q101 0 164.5 44.5t95.5 116.5q15 34 44.5 47t63.5 13q48 0 80.5 -31t32.5 -88q0 -22 -14 -55t-42 -69t-69 -71.5t-94 -64.5t-119 -46.5t-143 -17.5q-146 0 -264.5 56.5t-196.5 158.5q-82 -102 -201 -158.5t-262 -56.5q-124 0 -232.5 44.5 t-189 124.5t-126.5 192.5t-46 247.5zM326 580q0 -78 21.5 -148t62.5 -123t100.5 -84.5t134.5 -31.5t134.5 31.5t101 84.5t63 123t21.5 148q0 77 -21.5 147.5t-63 123.5t-101 84.5t-134.5 31.5t-134.5 -31.5t-100.5 -84.5t-62.5 -123.5t-21.5 -147.5zM1243 559l537 240 q-13 43 -36.5 74.5t-54 52.5t-65 31t-70.5 10q-73 0 -134 -35.5t-102.5 -93t-61.5 -131t-13 -148.5z" />
<glyph unicode="&#x178;" horiz-adv-x="1233" d="M2.5 1506.5q4.5 27.5 20 50.5t43.5 38q17 11 33.5 16t33.5 5q38 0 73 -25t60 -67l350 -609l351 611q24 42 58.5 65t72.5 25q17 0 34 -4t35 -15q28 -15 43.5 -38t20 -50.5t-2 -57.5t-22.5 -60l-432 -754v-475q0 -34 -12.5 -64t-34 -51.5t-50.5 -34t-61 -12.5t-60.5 12.5 t-50 34t-34 51.5t-12.5 64v475l-432 752q-16 30 -22.5 60t-2 57.5zM317 1929q0 27 10 50t27.5 40.5t40 27t47.5 9.5q26 0 48.5 -9.5t39 -27t26 -40.5t9.5 -50q0 -25 -9.5 -47.5t-26 -39t-39 -26.5t-48.5 -10q-25 0 -47.5 10t-40 26.5t-27.5 39t-10 47.5zM666 1929 q0 27 9.5 50t26 40.5t39.5 27t50 9.5q24 0 46.5 -9.5t39 -27t26.5 -40.5t10 -50q0 -25 -10 -47.5t-26.5 -39t-39 -26.5t-46.5 -10q-27 0 -50 10t-39.5 26.5t-26 39t-9.5 47.5z" />
<glyph unicode="&#x2c6;" horiz-adv-x="788" d="M72 1395q0 23 6 42t20 33l221 220q16 17 32 26.5t42 9.5q28 0 44.5 -9.5t31.5 -26.5l219 -220q11 -14 20 -31.5t9 -35.5q0 -14 -5.5 -32t-17 -33.5t-30.5 -26.5t-46 -11q-23 0 -41.5 6t-35.5 23l-148 150q-37 -39 -73.5 -76t-73.5 -74q-14 -14 -34 -21.5t-42 -7.5 q-15 0 -32.5 5t-32 16.5t-24 29.5t-9.5 44z" />
<glyph unicode="&#x2dc;" horiz-adv-x="807" d="M72 1483q0 32 15.5 58.5t41 45.5t57 30t62.5 11q45 0 74.5 -9.5t55 -21t53 -21t67.5 -9.5q20 0 32 8.5t23.5 19t26 19t38.5 8.5t45.5 -8.5t37 -24t25 -36.5t9.5 -46q0 -32 -15.5 -58.5t-41 -45t-57.5 -29t-66 -10.5q-28 0 -60 9t-64.5 20.5t-64 20.5t-57.5 9 q-17 0 -28.5 -8.5t-23.5 -19t-27 -19t-40 -8.5q-24 0 -45.5 9.5t-37.5 25t-25.5 36.5t-9.5 44z" />
<glyph unicode="&#x2000;" horiz-adv-x="1108" />
<glyph unicode="&#x2001;" horiz-adv-x="2216" />
<glyph unicode="&#x2002;" horiz-adv-x="1108" />
<glyph unicode="&#x2003;" horiz-adv-x="2216" />
<glyph unicode="&#x2004;" horiz-adv-x="738" />
<glyph unicode="&#x2005;" horiz-adv-x="554" />
<glyph unicode="&#x2006;" horiz-adv-x="369" />
<glyph unicode="&#x2007;" horiz-adv-x="369" />
<glyph unicode="&#x2008;" horiz-adv-x="277" />
<glyph unicode="&#x2009;" horiz-adv-x="443" />
<glyph unicode="&#x200a;" horiz-adv-x="123" />
<glyph unicode="&#x2010;" horiz-adv-x="825" d="M41 723q0 24 9.5 46.5t26 39.5t39.5 27t50 10h496q25 0 47.5 -10t39 -27t26 -39.5t9.5 -46.5q0 -25 -9.5 -47t-26 -39t-39 -27t-47.5 -10h-496q-27 0 -50 10t-39.5 27t-26 39t-9.5 47z" />
<glyph unicode="&#x2011;" horiz-adv-x="825" d="M41 723q0 24 9.5 46.5t26 39.5t39.5 27t50 10h496q25 0 47.5 -10t39 -27t26 -39.5t9.5 -46.5q0 -25 -9.5 -47t-26 -39t-39 -27t-47.5 -10h-496q-27 0 -50 10t-39.5 27t-26 39t-9.5 47z" />
<glyph unicode="&#x2012;" horiz-adv-x="825" d="M41 723q0 24 9.5 46.5t26 39.5t39.5 27t50 10h496q25 0 47.5 -10t39 -27t26 -39.5t9.5 -46.5q0 -25 -9.5 -47t-26 -39t-39 -27t-47.5 -10h-496q-27 0 -50 10t-39.5 27t-26 39t-9.5 47z" />
<glyph unicode="&#x2013;" horiz-adv-x="1221" d="M51 723q0 24 9 46t25 38t38 25.5t47 9.5h883q24 0 45 -9.5t36.5 -25.5t25 -38t9.5 -46q0 -23 -9.5 -44t-25 -37.5t-36.5 -26t-45 -9.5h-883q-25 0 -47 9.5t-38 26t-25 37.5t-9 44z" />
<glyph unicode="&#x2014;" horiz-adv-x="1954" d="M51 723q0 24 9 46t25 38t38 25.5t47 9.5h1614q24 0 46 -9.5t38 -25.5t25.5 -38t9.5 -46q0 -23 -9.5 -44t-25.5 -37.5t-38 -26t-46 -9.5h-1614q-25 0 -47 9.5t-38 26t-25 37.5t-9 44z" />
<glyph unicode="&#x201a;" horiz-adv-x="465" d="M20 -18q0 15 8.5 33.5t16.5 29.5l152 205q21 29 46.5 46t67.5 17q26 0 49.5 -10t42.5 -27.5t30 -41t11 -50.5q0 -32 -13 -62t-38 -50l-198 -164q-33 -27 -78 -27q-30 0 -49 10.5t-29.5 25.5t-14.5 32.5t-4 32.5z" />
<glyph unicode="&#x201c;" horiz-adv-x="903" d="M31 1305q0 32 13 62t38 50l199 164q15 12 34.5 19.5t42.5 7.5q30 0 49 -10.5t29.5 -25.5t14.5 -32.5t4 -32.5t-8.5 -33.5t-16.5 -29.5l-151 -205q-22 -29 -47.5 -46t-67.5 -17q-25 0 -49 10t-43 27.5t-30 41t-11 50.5zM449 1305q0 32 13 62t38 50l198 164 q16 12 35.5 19.5t42.5 7.5q30 0 49 -10.5t29.5 -25.5t14 -32.5t3.5 -32.5t-8 -33.5t-16 -29.5l-152 -205q-21 -29 -46.5 -46t-67.5 -17q-25 0 -49 10t-43 27.5t-30 41t-11 50.5z" />
<glyph unicode="&#x201d;" horiz-adv-x="903" d="M31 1278q0 15 8 33.5t16 29.5l152 205q22 29 47.5 46.5t67.5 17.5q25 0 49 -10t42.5 -27.5t30 -41t11.5 -50.5q0 -32 -13.5 -62.5t-38.5 -50.5l-198 -164q-16 -12 -35.5 -19t-42.5 -7q-30 0 -48.5 10t-29 25t-14.5 32.5t-4 32.5zM449 1278q0 15 8 33.5t16 29.5l152 205 q21 29 46.5 46.5t67.5 17.5q26 0 49.5 -10t42.5 -27.5t30 -41t11 -50.5q0 -32 -13 -62.5t-38 -50.5l-198 -164q-16 -12 -35.5 -19t-42.5 -7q-30 0 -48.5 10t-29 25t-14.5 32.5t-4 32.5z" />
<glyph unicode="&#x201e;" horiz-adv-x="883" d="M20 -18q0 15 8.5 33.5t16.5 29.5l152 205q21 29 46.5 46t67.5 17q26 0 49.5 -10t42.5 -27.5t30 -41t11 -50.5q0 -32 -13 -62t-38 -50l-198 -164q-33 -27 -78 -27q-30 0 -49 10.5t-29.5 25.5t-14.5 32.5t-4 32.5zM438 -18q0 15 8.5 33.5t16.5 29.5l151 205q22 29 47.5 46 t67.5 17q26 0 49.5 -10t42.5 -27.5t30 -41t11 -50.5q0 -32 -13 -62t-38 -50l-199 -164q-32 -27 -77 -27q-30 0 -49 10.5t-29.5 25.5t-14.5 32.5t-4 32.5z" />
<glyph unicode="&#x2022;" horiz-adv-x="709" d="M82 809q0 56 21.5 105.5t58.5 86.5t86.5 58.5t105.5 21.5t106 -21.5t87 -58.5t58.5 -86.5t21.5 -105.5t-21.5 -105.5t-58.5 -86.5t-87 -58.5t-106 -21.5t-105.5 21.5t-86.5 58.5t-58.5 86.5t-21.5 105.5z" />
<glyph unicode="&#x2026;" horiz-adv-x="1296" d="M61 156q0 32 12.5 60.5t33.5 50t49.5 34t60.5 12.5q33 0 62 -12.5t50 -34t33.5 -50t12.5 -60.5t-12.5 -60.5t-33.5 -49.5t-50 -33.5t-62 -12.5q-32 0 -60.5 12.5t-49.5 33.5t-33.5 49.5t-12.5 60.5zM492 156q0 32 12 60.5t33 50t49.5 34t60.5 12.5q33 0 62 -12.5t50 -34 t33.5 -50t12.5 -60.5t-12.5 -60.5t-33.5 -49.5t-50 -33.5t-62 -12.5q-32 0 -60.5 12.5t-49.5 33.5t-33 49.5t-12 60.5zM922 156q0 32 12 60.5t33 50t49.5 34t60.5 12.5q33 0 62 -12.5t50 -34t33.5 -50t12.5 -60.5t-12.5 -60.5t-33.5 -49.5t-50 -33.5t-62 -12.5 q-32 0 -60.5 12.5t-49.5 33.5t-33 49.5t-12 60.5z" />
<glyph unicode="&#x202f;" horiz-adv-x="443" />
<glyph unicode="&#x2039;" horiz-adv-x="532" d="M41 655q2 22 11 44t28 40l223 222q17 17 37 24.5t39 7.5q23 0 43.5 -9t36 -24t24.5 -34.5t9 -40.5q0 -27 -19.5 -56.5t-48 -59.5t-61 -58.5t-58.5 -53.5l152 -151q17 -17 26 -37.5t9 -42.5q0 -21 -9 -40.5t-24 -34.5t-35 -24.5t-43 -9.5q-43 0 -78 33l-223 223 q-39 39 -39 82z" />
<glyph unicode="&#x203a;" horiz-adv-x="528" d="M41 426q0 41 33 80l149 151l-149 150q-16 17 -24.5 36t-8.5 42q0 21 8.5 40.5t23.5 34.5t35 24t42 9q20 0 40 -7.5t37 -24.5l222 -222q20 -18 29 -40t9 -44q0 -21 -10 -42t-28 -40l-222 -223q-33 -33 -77 -33q-23 0 -43 9t-34.5 24t-23 35t-8.5 41z" />
<glyph unicode="&#x205f;" horiz-adv-x="554" />
<glyph unicode="&#x20ac;" horiz-adv-x="1325" d="M0 590q0 42 29 71t71 29h64q-2 17 -2 35v37v4h-62q-45 0 -72.5 29t-27.5 71q0 45 27.5 74t72.5 29h76q21 138 71.5 245.5t126.5 181t174.5 112t215.5 38.5q84 0 153.5 -17t125.5 -46.5t97 -68t69 -80.5t41.5 -85.5t13.5 -83.5q0 -37 -11.5 -63t-31 -42.5t-45 -24 t-52.5 -7.5q-49 0 -84.5 25.5t-48.5 79.5q-7 26 -23 54t-43 51.5t-67 38.5t-94 15q-62 0 -111.5 -23t-86.5 -65t-62 -101.5t-39 -133.5h373q45 0 73.5 -29t28.5 -74q0 -42 -28.5 -71t-73.5 -29h-389v-4v-37t2 -35h290q23 0 41.5 -8t32.5 -21.5t21.5 -31.5t7.5 -39 q0 -44 -29 -72.5t-74 -28.5h-260q18 -60 44.5 -109t62 -83.5t79.5 -53t97 -18.5q54 0 94 13t67.5 34t44 47.5t23.5 53.5q14 52 49.5 77t83.5 25q27 0 52 -7.5t44 -24t30.5 -42.5t11.5 -63q0 -60 -31 -125t-93 -118.5t-156 -88.5t-220 -35q-109 0 -202.5 35t-167 101.5 t-126 162.5t-80.5 219h-88q-42 0 -71 28.5t-29 72.5z" />
<glyph unicode="&#x2122;" horiz-adv-x="1346" d="M31 1546q0 -31 20.5 -50t48.5 -19h119v-463q0 -15 6 -28t16.5 -23.5t24.5 -16.5t29 -6t28.5 6t23.5 16.5t16 23.5t6 28v463h118q31 0 50.5 19t19.5 50q0 26 -19.5 48t-50.5 22h-387q-14 0 -26.5 -6t-22 -16t-15 -22.5t-5.5 -25.5zM627 1008v522q0 17 7.5 32.5t19.5 27.5 t28 19t33 7q38 0 61 -23.5t35 -54.5l139 -364l140 364q12 31 35 54.5t61 23.5q17 0 33 -7t28 -19t19.5 -27.5t7.5 -32.5v-522q0 -28 -19.5 -48t-50.5 -20q-13 0 -25.5 5.5t-22 14.5t-15.5 21.5t-6 26.5v258l-99 -265q-11 -29 -34.5 -45t-51.5 -16q-29 0 -50 17t-34 44 l-98 263v-256q0 -28 -21 -48t-49 -20q-27 0 -49 20t-22 48z" />
<glyph unicode="&#x25fc;" horiz-adv-x="1190" d="M0 0v1190h1190v-1190h-1190z" />
<glyph unicode="&#xfb01;" horiz-adv-x="1182" d="M-51 1071q0 19 6.5 39.5t19.5 38t32.5 28.5t45.5 11h109v135q0 54 12.5 107t45.5 95t90.5 68.5t148.5 26.5h147q26 0 46 -11t33 -28.5t19.5 -38t6.5 -39.5q0 -20 -6.5 -40.5t-19.5 -37.5t-33 -28t-46 -11h-6q-32 0 -58 -3.5t-44 -19t-27.5 -48t-9.5 -90.5v-37h149 q26 0 46 -11t33 -28.5t19.5 -38t6.5 -39.5q0 -20 -6.5 -40.5t-19.5 -37.5t-33 -28t-46 -11h-149v-802q0 -32 -12 -60t-32.5 -48.5t-47.5 -32t-58 -11.5t-58 11.5t-47 32t-32 48.5t-12 60v802h-109q-26 0 -45.5 11t-32.5 28t-19.5 37.5t-6.5 40.5zM772 1495q0 35 13.5 65.5 t36 53t53.5 36t65 13.5q35 0 65.5 -13.5t53 -36t36 -53t13.5 -65.5q0 -34 -13.5 -65t-36 -53.5t-53 -36t-65.5 -13.5q-34 0 -65 13.5t-53.5 36t-36 53.5t-13.5 65zM791 152v884q0 32 12 60t32 48.5t47 32t58 11.5t58 -11.5t47.5 -32t32.5 -48.5t12 -60v-884q0 -32 -12 -60 t-32.5 -48.5t-47.5 -32t-58 -11.5t-58 11.5t-47 32t-32 48.5t-12 60z" />
<glyph unicode="&#xfb02;" horiz-adv-x="1161" d="M-61 1071q0 19 6.5 39.5t19.5 38t32.5 28.5t45.5 11h109v135q0 54 12.5 107t45.5 95t90.5 68.5t148.5 26.5h147q26 0 45.5 -11t32.5 -28.5t19.5 -38t6.5 -39.5q0 -20 -6.5 -40.5t-19.5 -37.5t-32.5 -28t-45.5 -11h-6q-32 0 -58 -3.5t-44 -19t-27.5 -48t-9.5 -90.5v-37 h149q26 0 46 -11t33 -28.5t19.5 -38t6.5 -39.5q0 -20 -6.5 -40.5t-19.5 -37.5t-33 -28t-46 -11h-149v-802q0 -32 -12 -60t-32.5 -48.5t-47.5 -32t-58 -11.5t-58 11.5t-47 32t-32 48.5t-12 60v802h-109q-26 0 -45.5 11t-32.5 28t-19.5 37.5t-6.5 40.5zM780 152v1312 q0 32 12 60t32.5 48.5t47.5 32t58 11.5t58 -11.5t47.5 -32t32 -48.5t11.5 -60v-1312q0 -32 -11.5 -60t-32 -48.5t-47.5 -32t-58 -11.5t-58 11.5t-47.5 32t-32.5 48.5t-12 60z" />
</font>
</defs>
</svg>
