<?xml version="1.0" standalone="no"?>
<!DOCTYPE svg PUBLIC "-//W3C//DTD SVG 1.1//EN" "http://www.w3.org/Graphics/SVG/1.1/DTD/svg11.dtd" >
<svg xmlns="http://www.w3.org/2000/svg" xmlns:xlink="http://www.w3.org/1999/xlink" version="1.1">
<metadata></metadata>
<defs>
<font id="pedigree_lightregular" horiz-adv-x="1165" >
<font-face units-per-em="2048" ascent="1638" descent="-410" />
<missing-glyph horiz-adv-x="512" />
<glyph horiz-adv-x="0" />
<glyph unicode="&#xd;" horiz-adv-x="512" />
<glyph unicode=" "  horiz-adv-x="512" />
<glyph unicode="&#x09;" horiz-adv-x="512" />
<glyph unicode="&#xa0;" horiz-adv-x="512" />
<glyph unicode="!" horiz-adv-x="500" d="M102 147q0 -30 11.5 -57t31.5 -47t47 -31.5t58 -11.5t57.5 11.5t46.5 31.5t31.5 47t11.5 57q0 31 -11.5 58t-31.5 47t-46.5 31.5t-57.5 11.5t-58 -11.5t-47 -31.5t-31.5 -47t-11.5 -58zM129 1493q-1 26 8.5 48.5t26.5 39t39 26t47 9.5q24 0 46.5 -9.5t39 -26t26.5 -39 t9 -48.5l-27 -973q-2 -52 -25.5 -87.5t-68.5 -35.5t-68.5 35.5t-25.5 87.5z" />
<glyph unicode="&#x22;" horiz-adv-x="625" d="M63 1507q-3 23 5.5 42.5t24 34.5t36.5 23.5t43 8.5t43 -8.5t36.5 -23.5t24 -34.5t5.5 -42.5l-33 -245q-5 -34 -23.5 -58t-52.5 -24t-52.5 24t-23.5 58zM344 1507q-3 23 5 42.5t24 34.5t37 23.5t43 8.5t43 -8.5t36.5 -23.5t23.5 -34.5t5 -42.5l-33 -245q-5 -34 -23 -58 t-52 -24t-52.5 24t-23.5 58z" />
<glyph unicode="#" horiz-adv-x="1069" d="M12 780q3 38 30 63t64 25h123l21 203h-123q-37 0 -58 26.5t-18 61.5q3 34 30 58t64 24h123l23 219q2 17 10 32t20.5 26.5t28 18.5t33.5 7t33.5 -7t26.5 -18.5t16.5 -26.5t3.5 -32l-23 -219h203l23 219q5 34 31 59t63 25q18 0 33.5 -7t26 -18.5t15.5 -26.5t3 -32l-23 -219 h123q37 0 59 -24t19 -58q-1 -18 -9.5 -34t-21.5 -28t-30 -19t-35 -7h-123l-21 -203h123q37 0 59 -25t19 -63q-5 -35 -32 -59.5t-64 -24.5h-123l-23 -219q-3 -34 -27 -59t-61 -25t-62 25t-22 59l23 219h-203l-23 -219q-1 -17 -9 -32t-20 -26.5t-27.5 -18.5t-33.5 -7t-33.5 7 t-26.5 18.5t-17 26.5t-5 32l23 219h-123q-37 0 -58.5 24.5t-17.5 59.5zM401 868h203l21 203h-203z" />
<glyph unicode="$" horiz-adv-x="1249" d="M20 438q0 35 10 59.5t26 40t35.5 22.5t37.5 7q35 0 62.5 -21.5t33.5 -66.5q9 -58 37.5 -105.5t71 -83.5t96 -59.5t111.5 -33.5v514q-56 16 -112 34.5t-106.5 42.5t-94 55t-75 72t-49.5 94t-18 121q0 85 33.5 152t94 115.5t144 77.5t183.5 36v131q0 33 21 54.5t52 21.5 q32 0 54 -21.5t22 -54.5v-133q96 -10 175.5 -41t136.5 -75.5t88.5 -97t31.5 -105.5q0 -25 -9 -46t-23.5 -36t-33.5 -23t-40 -8q-29 0 -56 17.5t-42 54.5q-17 41 -42 69.5t-55 48t-63 30.5t-68 16v-432q59 -17 119.5 -35.5t115.5 -43.5t103 -57.5t83.5 -76.5t56 -101 t20.5 -131q0 -101 -41 -178.5t-110 -131.5t-159 -85t-188 -39v-145q0 -31 -22 -52.5t-54 -21.5q-31 0 -52 21.5t-21 52.5v147q-95 8 -170.5 33.5t-133 62t-99 81t-67.5 90t-38.5 89t-12.5 78.5zM305 1130q0 -41 18 -72.5t49.5 -55.5t74.5 -43t94 -35v391q-52 -6 -95.5 -21.5 t-75 -39.5t-48.5 -55t-17 -69zM690 195q51 6 100 23t87.5 46t62 72t23.5 100q0 49 -21.5 85t-58 63.5t-86.5 47.5t-107 38v-475z" />
<glyph unicode="%" horiz-adv-x="1499" d="M61 1149q0 197 82 300t230 103t229.5 -102.5t81.5 -300.5q0 -98 -21.5 -173.5t-62 -126.5t-98 -77.5t-129.5 -26.5t-130 26.5t-98.5 77.5t-62 126.5t-21.5 173.5zM213 1149q0 -125 39.5 -194.5t120.5 -69.5q80 0 119.5 69.5t39.5 194.5t-39.5 194.5t-119.5 69.5 q-81 0 -120.5 -69.5t-39.5 -194.5zM295 59q-6 25 10 62l746 1378q12 26 32.5 35.5t40.5 9.5q9 0 20 -2.5t22.5 -8.5t21 -16.5t14.5 -25.5q3 -16 2.5 -35t-8.5 -35l-750 -1376q-12 -22 -29 -33.5t-42 -11.5q-32 0 -53.5 16.5t-26.5 42.5zM815 395q0 198 81.5 301t229.5 103 q149 0 230.5 -103t81.5 -301q0 -98 -21.5 -173.5t-62 -126.5t-98.5 -77t-130 -26t-129.5 26t-98 77t-62 126.5t-21.5 173.5zM967 395q0 -125 39.5 -194.5t119.5 -69.5q81 0 120.5 69.5t39.5 194.5t-39.5 194.5t-120.5 69.5q-80 0 -119.5 -69.5t-39.5 -194.5z" />
<glyph unicode="&#x26;" horiz-adv-x="1305" d="M72 412q0 94 32 162t84 121.5t118.5 98t135.5 89.5l-34 49q-24 34 -52.5 73t-52.5 84t-40.5 96t-16.5 109q0 84 34 149.5t90.5 110t128.5 68t148 23.5q79 0 147.5 -24.5t119 -70t79.5 -110.5t29 -146q0 -68 -24.5 -127.5t-66 -113t-96 -101t-114.5 -92.5l246 -328 q14 53 18 95t12 71.5t26.5 45.5t61.5 16q20 0 39 -6.5t35 -20.5t25.5 -35.5t9.5 -50.5v-16q-4 -42 -15 -90q-9 -41 -25 -92.5t-42 -108.5l150 -197q22 -28 22 -63q0 -21 -8 -40.5t-22 -34.5t-33.5 -23.5t-42.5 -8.5q-25 0 -47 11.5t-37 31.5l-105 138q-36 -39 -80.5 -72 t-98.5 -57t-119 -38t-142 -14q-105 0 -192.5 29.5t-150.5 85.5t-98.5 137.5t-35.5 186.5zM285 412q0 -56 21 -103t57 -81t84 -53t102 -19q55 0 102 12t86.5 33t72 50.5t58.5 63.5l-317 424q-55 -39 -103.5 -75t-84.5 -74t-57 -81t-21 -97zM459 1294q0 -28 9.5 -57.5t26 -60 t38.5 -62t47 -63.5l36 -50q42 31 78 63.5t62.5 68.5t41.5 76t15 85q0 42 -16.5 73t-41.5 51.5t-55 31t-57 10.5q-34 0 -67 -11t-59 -32t-42 -52t-16 -71z" />
<glyph unicode="'" horiz-adv-x="344" d="M63 1507q-3 23 5.5 42.5t24 34.5t36.5 23.5t43 8.5t43 -8.5t36.5 -23.5t24 -34.5t5.5 -42.5l-33 -245q-5 -34 -23.5 -58t-52.5 -24t-52.5 24t-23.5 58z" />
<glyph unicode="(" horiz-adv-x="649" d="M82 809q0 140 20 268.5t59.5 241t99.5 207t140 166.5q17 15 39 27t45 12t43 -9.5t36 -25.5t25 -37t9 -43q0 -16 -6 -29.5t-15.5 -25t-21 -22t-23.5 -21.5q-62 -56 -104 -131.5t-68 -166t-37.5 -194t-11.5 -217.5t11.5 -217.5t37.5 -194t68 -166t104 -131.5 q12 -10 23.5 -21t21 -22.5t15.5 -25t6 -29.5q0 -22 -9 -43t-25 -37t-36 -25.5t-43 -9.5t-45 12t-39 27q-80 72 -140 167t-99.5 207.5t-59.5 240.5t-20 268z" />
<glyph unicode=")" horiz-adv-x="649" d="M51 2q0 16 6 29.5t15.5 25t21 22.5t23.5 21q62 56 104.5 131.5t68.5 166t37 194t11 217.5t-11 217.5t-37 194t-68.5 166t-104.5 131.5q-12 11 -23.5 21.5t-21 22t-15.5 25t-6 29.5q0 22 9 43t25 37t36.5 25.5t42.5 9.5q23 0 45 -12t39 -27q80 -72 140 -166.5t99.5 -207 t59.5 -241t20 -268.5t-20 -268t-59.5 -240.5t-99.5 -207.5t-140 -167q-17 -15 -39 -27t-45 -12q-22 0 -42.5 9.5t-36.5 25.5t-25 37t-9 43z" />
<glyph unicode="*" horiz-adv-x="799" d="M65 1105q7 28 35 44l156 90l-154 88q-27 17 -34.5 46.5t6.5 53.5q15 25 43.5 33t56.5 -8l154 -88v178q0 31 21 52.5t50 21.5t50.5 -21.5t21.5 -52.5v-178l156 88q26 16 54.5 8t43.5 -33q14 -24 6.5 -53.5t-33.5 -46.5l-155 -88l155 -90q28 -16 35.5 -44t-6.5 -54 q-15 -25 -43.5 -33.5t-56.5 8.5l-156 88v-178q0 -32 -21.5 -53t-50.5 -21t-50 21t-21 53v178l-156 -88q-28 -17 -56 -8.5t-42 33.5q-16 26 -9 54z" />
<glyph unicode="+" horiz-adv-x="958" d="M51 686q0 19 7.5 36t20 30t30 20.5t38.5 7.5h238v236q0 21 7.5 38.5t20 30t29.5 20t35 7.5q19 0 36 -7.5t30 -20t20.5 -30t7.5 -38.5v-236h242q20 0 37 -7.5t30 -20.5t20 -30t7 -36q0 -18 -7 -35t-20 -29.5t-30 -20t-37 -7.5h-242v-244q0 -20 -7.5 -37t-20.5 -30t-30 -20 t-36 -7q-18 0 -35 7t-29.5 20t-20 30t-7.5 37v244h-238q-21 0 -38.5 7.5t-30 20t-20 29.5t-7.5 35z" />
<glyph unicode="," horiz-adv-x="457" d="M82 147q0 31 11.5 58t31.5 47t46.5 31.5t57.5 11.5q34 0 61 -13t46 -36t29 -55.5t10 -71.5q0 -78 -30.5 -158.5t-98.5 -155.5q-11 -11 -22.5 -15.5t-22.5 -4.5q-26 0 -46 18.5t-20 42.5q0 22 12.5 31.5t22.5 20.5q23 21 36.5 46t22.5 56q-33 0 -60 12.5t-46.5 33t-30 47 t-10.5 54.5z" />
<glyph unicode="-" horiz-adv-x="817" d="M51 723q0 40 28.5 69t72.5 29h516q21 0 38.5 -8t31 -21.5t21 -31t7.5 -37.5q0 -19 -7.5 -36.5t-21 -30.5t-31 -21t-38.5 -8h-516q-22 0 -40.5 8t-32 21t-21 30.5t-7.5 36.5z" />
<glyph unicode="." horiz-adv-x="459" d="M82 147q0 31 11.5 58t31.5 47t46.5 31.5t57.5 11.5t58 -11.5t47 -31.5t31.5 -47t11.5 -58q0 -30 -11.5 -57t-31.5 -47t-47 -31.5t-58 -11.5t-57.5 11.5t-46.5 31.5t-31.5 47t-11.5 57z" />
<glyph unicode="/" horiz-adv-x="1047" d="M42.5 13q-2.5 27 10.5 53l748 1654q15 34 45.5 50t64.5 16q27 -1 47.5 -16t32.5 -37.5t13.5 -48.5t-9.5 -50l-749 -1657q-13 -30 -41.5 -48.5t-59.5 -16.5q-27 1 -49.5 15t-36.5 36.5t-16.5 49.5z" />
<glyph unicode="0" horiz-adv-x="1331" d="M72 758q0 191 39 338t114.5 246.5t186 150.5t254.5 51t254.5 -51t186 -150.5t114.5 -246.5t39 -338t-40 -337.5t-116 -246t-186.5 -150.5t-251.5 -51t-251.5 51t-186.5 150.5t-116 246t-40 337.5zM287 758q0 -141 24 -252t71.5 -187.5t118.5 -116.5t165 -40q93 0 164 40 t118.5 116.5t71.5 187.5t24 252t-24 252t-71.5 187.5t-118.5 116.5t-164 40q-94 0 -165 -40t-118.5 -116.5t-71.5 -187.5t-24 -252z" />
<glyph unicode="1" horiz-adv-x="584" d="M-10 1163q0 35 19 53.5t47.5 32t60.5 27.5t57 39q32 32 55.5 67.5t44.5 65.5t43 50t52 20q27 0 46 -9t31.5 -24.5t18.5 -35.5t6 -42v-1296q0 -24 -8.5 -44.5t-23.5 -35t-34.5 -23t-42.5 -8.5q-22 0 -41.5 8.5t-34.5 23t-23.5 35t-8.5 44.5v979h-182q-34 0 -58 19.5 t-24 53.5z" />
<glyph unicode="2" horiz-adv-x="1206" d="M51 135q0 78 37.5 146t99 129t140 116t161 107t161 102.5t140 102.5t99 106.5t37.5 114.5q0 76 -26.5 131.5t-71 92t-101.5 54t-119 17.5q-61 0 -119.5 -17.5t-104.5 -50.5t-74.5 -81.5t-28.5 -110.5q0 -32 -8.5 -55.5t-23 -38.5t-33 -22t-38.5 -7t-39 7t-34 21.5 t-24 37.5t-9 55q0 101 47.5 184.5t124 143t172 92t192.5 32.5q115 0 212 -34.5t167 -97.5t109 -152.5t39 -200.5q0 -79 -35.5 -148t-94 -131t-133 -116.5t-152.5 -104.5t-152.5 -95.5t-133 -89t-94 -85.5t-35.5 -84q0 -17 17 -17h714q42 0 69.5 -28t27.5 -68q0 -18 -7.5 -35 t-20 -29.5t-30.5 -20t-39 -7.5h-864q-28 0 -50.5 10.5t-38.5 29t-24 43t-8 52.5z" />
<glyph unicode="3" horiz-adv-x="1233" d="M51 387q0 26 8 46t21.5 33t30 19.5t34.5 6.5q17 0 34.5 -5.5t32 -16t24.5 -26t12 -36.5q8 -69 38 -118.5t78 -81t113 -46.5t141 -15q64 0 124 17t106.5 51.5t75 86.5t28.5 122q0 84 -25 141.5t-75 93.5t-124.5 52t-172.5 16q-19 0 -33.5 7.5t-24 19.5t-14 27t-4.5 30 t4.5 30t14 27t24 19.5t33.5 7.5q98 0 166.5 15t111 45t61.5 74.5t19 103.5q0 48 -24.5 90.5t-66 74t-96.5 50t-116 18.5q-63 0 -117.5 -12.5t-98 -41.5t-74.5 -76.5t-48 -117.5q-9 -38 -35 -57t-55 -19q-45 0 -73.5 29t-28.5 88q0 26 11.5 64.5t37 81t66 85.5t99.5 77 t137.5 55.5t178.5 21.5q116 0 209 -30t158.5 -84t101 -129.5t35.5 -165.5q0 -45 -10 -93t-36 -91t-70.5 -78t-112.5 -56q44 -11 92.5 -36.5t89 -71t67.5 -115t27 -168.5q0 -116 -46 -201t-121.5 -141t-173.5 -83.5t-202 -27.5q-144 0 -251 34.5t-177 92t-104.5 132 t-34.5 155.5z" />
<glyph unicode="4" horiz-adv-x="1130" d="M20 512q0 28 7 47t22 41l656 854q26 34 53 49t55 15q21 0 41 -8t35 -22.5t24 -35.5t9 -47v-852h102q42 0 69 -28t27 -68q0 -18 -7.5 -35t-20 -29.5t-30 -20t-38.5 -7.5h-102v-254q0 -24 -8.5 -44.5t-23.5 -35t-35 -23t-42 -8.5t-41.5 8.5t-34.5 23t-23.5 35t-8.5 44.5 v254h-535q-31 0 -58 11.5t-47.5 31.5t-32.5 46.5t-12 57.5zM248 553h457v606z" />
<glyph unicode="5" horiz-adv-x="1200" d="M51 346q0 23 9 41t24 31.5t34 20.5t38 7q26 0 54.5 -17.5t39.5 -51.5q18 -55 44 -95.5t65 -66.5t93 -38.5t128 -12.5q71 0 135.5 24.5t114 69t79 107.5t29.5 141q0 81 -29.5 144t-79 105.5t-114 64.5t-135.5 22q-73 0 -126.5 -17t-92.5 -40.5t-66 -47.5t-47 -39 q-19 -14 -36.5 -19t-33.5 -5q-21 0 -39 9t-30.5 25t-19.5 36.5t-7 43.5q0 8 1 15.5t3 15.5l121 549q7 31 14.5 58t24.5 47t47.5 32t81.5 13h575q20 -1 38 -9.5t31 -22.5t20.5 -32t7.5 -37q0 -20 -8 -38t-22 -32t-32 -22t-39 -8h-551l-84 -367q14 8 40 20.5t64 24.5t89 20.5 t114 8.5q122 0 219 -41.5t164 -112t102.5 -164.5t35.5 -200q0 -124 -44 -223t-119 -168t-175 -105.5t-213 -36.5q-101 0 -180 20.5t-138.5 54t-101.5 74.5t-68 82.5t-37.5 79t-11.5 62.5z" />
<glyph unicode="6" horiz-adv-x="1268" d="M72 750q0 164 37.5 308.5t112.5 252.5t187 170.5t261 62.5q92 0 163.5 -19t125 -48.5t91 -66.5t61 -73t34 -67t10.5 -49q0 -22 -9.5 -39t-24 -28.5t-32 -17.5t-32.5 -6q-31 0 -60.5 11t-40.5 43q-14 46 -42.5 78.5t-67.5 52.5t-87 29.5t-102 9.5q-81 0 -140.5 -28 t-101.5 -73.5t-68.5 -103t-41.5 -116t-20.5 -112t-5.5 -92.5q17 26 52 56t85.5 55.5t114 42t137.5 16.5q67 0 132 -13t124 -40t108.5 -68t86 -96.5t57 -126t20.5 -157.5q0 -128 -43 -226t-117 -164.5t-172 -100.5t-209 -34q-127 0 -234.5 47.5t-184.5 144t-120.5 242.5 t-43.5 343zM309 496q0 -73 27.5 -136t74.5 -109t110 -72.5t134 -26.5q70 0 132.5 25.5t109.5 70t74.5 105t27.5 130.5q0 81 -24.5 144t-68.5 106t-106 65.5t-136 22.5q-69 0 -133.5 -24.5t-113.5 -67.5t-78.5 -102.5t-29.5 -130.5z" />
<glyph unicode="7" horiz-adv-x="1044" d="M20 1417q0 20 7.5 38t21.5 32t33 22.5t41 8.5h792q23 0 42.5 -8.5t34.5 -23t23.5 -34t8.5 -41.5q0 -40 -15 -69.5t-38 -55t-50 -50t-51 -54.5q-47 -58 -97.5 -132t-98.5 -158.5t-92 -178.5t-78 -193.5t-55 -202.5t-25 -206q-1 -24 -9.5 -44.5t-23 -35t-34 -23t-42.5 -8.5 q-22 0 -41.5 8.5t-34.5 23t-23.5 35t-8.5 44.5q0 86 24.5 190.5t66.5 217t98 227t119.5 220t131 196t131.5 155.5h-655q-22 0 -41 8t-33 22t-21.5 32t-7.5 38z" />
<glyph unicode="8" horiz-adv-x="1311" d="M61 444q0 92 31 161.5t76.5 118t96.5 76t91 36.5q-44 18 -84 47t-70 67.5t-47.5 86.5t-17.5 106q0 97 39 171.5t108 125.5t164 77.5t207 26.5t207 -26.5t164.5 -77.5t108.5 -125.5t39 -171.5q0 -58 -17.5 -106t-47.5 -86.5t-70 -67.5t-85 -47q40 -9 91 -36.5t96.5 -76 t76.5 -118t31 -161.5q0 -103 -40 -190t-116 -149t-186.5 -97t-251.5 -35t-251.5 35t-186.5 97t-116 149t-40 190zM270 444q0 -81 33.5 -137.5t88.5 -92t124 -51.5t139 -16q71 0 140 16t123.5 51.5t88 92t33.5 137.5q0 80 -33.5 135.5t-88 90.5t-123.5 51t-140 16 q-70 0 -139 -16t-124 -51t-88.5 -90.5t-33.5 -135.5zM342 1143q-1 -57 26.5 -100.5t72.5 -73.5t101.5 -45t112.5 -15t113 15t102 45t73 73.5t26 100.5q-1 55 -29.5 97t-73 70t-100 42t-111.5 14t-111.5 -14t-99.5 -42t-72 -70t-30 -97z" />
<glyph unicode="9" horiz-adv-x="1257" d="M72 1016q0 128 42 226.5t115 165.5t170 101.5t207 34.5q123 0 229 -44.5t184 -139t122.5 -241.5t44.5 -353q0 -187 -36.5 -334t-110.5 -249t-185 -156t-260 -54q-93 0 -164 18t-123 47t-87 65.5t-56 72.5t-30 68t-9 53q0 23 9 41.5t23 32t32.5 21t37.5 7.5q25 0 49.5 -12 t32.5 -41q12 -45 34.5 -80.5t57.5 -60t85.5 -37t119.5 -12.5q36 0 78.5 8t84.5 29.5t81 58.5t69 95t48 139.5t18 191.5q-17 -20 -50.5 -48t-82.5 -54t-113.5 -44t-142.5 -18q-100 0 -194 35t-167.5 100t-118 158t-44.5 209zM264 1032q0 -68 26 -130t71 -108.5t106 -74 t131 -27.5q78 0 143 24.5t112.5 68t74 103.5t26.5 130q0 73 -27 136t-74.5 109.5t-111 73.5t-135.5 27q-69 0 -131 -26t-109 -71t-74.5 -105.5t-27.5 -129.5z" />
<glyph unicode=":" horiz-adv-x="459" d="M82 147q0 31 11.5 58t31.5 47t46.5 31.5t57.5 11.5t58 -11.5t47 -31.5t31.5 -47t11.5 -58q0 -30 -11.5 -57t-31.5 -47t-47 -31.5t-58 -11.5t-57.5 11.5t-46.5 31.5t-31.5 47t-11.5 57zM82 971q0 31 11.5 57.5t31.5 46.5t46.5 31.5t57.5 11.5t58 -11.5t47 -31.5 t31.5 -46.5t11.5 -57.5t-11.5 -58t-31.5 -47t-47 -31.5t-58 -11.5t-57.5 11.5t-46.5 31.5t-31.5 47t-11.5 58z" />
<glyph unicode=";" horiz-adv-x="459" d="M82 147q0 31 11.5 58t31.5 47t46.5 31.5t57.5 11.5q34 0 61 -13t46 -36t29 -55.5t10 -71.5q0 -78 -30.5 -158.5t-98.5 -155.5q-11 -11 -22.5 -15.5t-22.5 -4.5q-26 0 -46 18.5t-20 42.5q0 22 12.5 31.5t22.5 20.5q23 21 36.5 46t22.5 56q-33 0 -60 12.5t-46.5 33t-30 47 t-10.5 54.5zM82 971q0 31 11.5 57.5t31.5 46.5t46.5 31.5t57.5 11.5t58 -11.5t47 -31.5t31.5 -46.5t11.5 -57.5t-11.5 -58t-31.5 -47t-47 -31.5t-58 -11.5t-57.5 11.5t-46.5 31.5t-31.5 47t-11.5 58z" />
<glyph unicode="=" horiz-adv-x="958" d="M51 520q0 19 7.5 36t20 30t30 20.5t38.5 7.5h666q20 0 37 -7.5t30 -20.5t20 -30t7 -36q0 -37 -27 -63.5t-67 -26.5h-666q-42 0 -69 26.5t-27 63.5zM51 850q0 38 27.5 65t68.5 27h666q20 0 37 -7t30 -19.5t20 -29.5t7 -36q0 -18 -7 -35t-20 -29.5t-30 -20t-37 -7.5h-666 q-21 0 -38.5 7.5t-30 20t-20 29.5t-7.5 35z" />
<glyph unicode="?" horiz-adv-x="1137" d="M82 1210q0 31 11 75.5t35.5 93t63.5 96t95 85.5t129.5 61.5t167.5 23.5q95 0 182 -28.5t153.5 -82.5t106 -133t39.5 -180q0 -99 -31.5 -171t-79 -127.5t-102.5 -100.5t-102.5 -90t-79 -97t-31.5 -121q0 -21 -6.5 -42t-18.5 -37.5t-29.5 -27t-39.5 -10.5t-39.5 10.5 t-29.5 27t-18.5 37.5t-6.5 42q0 94 30 162t75 120.5t97.5 96t97.5 89.5t75 100t30 128q0 54 -21.5 99.5t-58.5 78.5t-86.5 51.5t-105.5 18.5q-70 0 -125.5 -19t-94 -55t-59 -87.5t-20.5 -116.5q0 -24 -10 -40.5t-25.5 -26.5t-34.5 -14.5t-37 -4.5q-40 0 -68 31t-28 85z M397 147q0 31 11.5 58t31.5 47t47 31.5t58 11.5t57.5 -11.5t46.5 -31.5t31.5 -47t11.5 -58q0 -30 -11.5 -57t-31.5 -47t-46.5 -31.5t-57.5 -11.5t-58 11.5t-47 31.5t-31.5 47t-11.5 57z" />
<glyph unicode="@" horiz-adv-x="1898" d="M82 821q0 120 31 231t87 207.5t135 176t175.5 136t207 87.5t230.5 31t231 -31t207.5 -87.5t176 -136t136 -176t87.5 -207.5t31 -231q0 -76 -8 -153t-25.5 -148t-47 -133t-72.5 -107.5t-101 -71.5t-133 -26q-85 0 -148.5 22t-105.5 63t-62 100t-18 133q-64 -61 -138 -83 t-155 -22q-51 0 -101.5 15.5t-91 46.5t-65 77.5t-23.5 108.5q1 55 17.5 95t44 69.5t64.5 48.5t80 32t89.5 20.5t93.5 13.5q70 8 115.5 18t72.5 24.5t39 35t15 49.5q4 36 -10.5 58.5t-39.5 34.5t-56.5 16.5t-61.5 4.5q-81 0 -130 -27t-77 -73q-12 -26 -32 -37.5t-41 -11.5 q-15 0 -28.5 5.5t-23 15.5t-13 24t0.5 31q11 34 36 70.5t68 66.5t104 49.5t144 19.5q73 0 135.5 -15.5t106.5 -46.5t66.5 -77t15.5 -106l-53 -506q-3 -34 -1.5 -72.5t17.5 -71t51 -54t99 -21.5q44 0 78 21.5t59.5 58t43 85.5t28.5 104t15.5 113t4.5 113q0 97 -25.5 187.5 t-71.5 169t-110.5 143t-143 110.5t-169 71.5t-187.5 25.5t-187 -25.5t-168.5 -71.5t-142.5 -110.5t-110 -143t-71 -169t-25 -187.5t25 -187t71 -168.5t110 -142.5t142.5 -110t168.5 -71t187 -25q38 0 57.5 1.5t30 3t16.5 2.5t17 1q34 0 55 -24t21 -58q0 -37 -22.5 -55 t-54 -25.5t-66 -7.5h-58.5q-120 0 -230.5 31t-207 87t-175.5 135t-135 175.5t-87 207t-31 230.5zM680 643q-3 -34 12 -56t40.5 -35t57 -18.5t62.5 -5.5q42 0 87 11.5t83 34.5t65 59t31 84l12 119l-49 -15q-31 -9 -71.5 -14t-83.5 -10.5t-85 -14.5t-76.5 -26t-57 -44 t-27.5 -69z" />
<glyph unicode="A" horiz-adv-x="1319" d="M13 96q-2 9 -2 20q0 22 9 46l484 1366q18 52 58 83t97 31t97.5 -31t58.5 -83l483 -1366q9 -25 9 -46q0 -10 -2 -20q-6 -30 -24 -51t-44.5 -33t-54.5 -12q-34 0 -64.5 19t-44.5 61l-135 401h-557l-135 -401q-14 -42 -44.5 -61t-64.5 -19q-28 0 -55 12t-45 33t-24 51z M455 698h407l-203 602z" />
<glyph unicode="B" horiz-adv-x="1427" d="M113 162v1292q0 38 14 68t37 51t51.5 32t58.5 11h568q116 0 207 -35.5t154 -93t96.5 -130t33.5 -145.5q0 -55 -15.5 -107t-45.5 -98t-74.5 -83.5t-101.5 -63.5q85 -28 141 -73t89 -99.5t46 -115.5q12 -57 12 -114v-9q-1 -102 -42 -184.5t-112.5 -141.5t-168 -91 t-207.5 -32h-580q-30 0 -58.5 11t-51.5 32t-37 51t-14 68zM354 217h500q81 0 137 20t91 55.5t51 83t16 101.5q0 55 -19 102.5t-58 83t-98 56t-140 20.5h-480v-522zM354 956h467q54 0 103.5 15.5t88 44t61 69.5t22.5 93q0 51 -19.5 92t-54 69.5t-80.5 44t-100 15.5h-488v-443 z" />
<glyph unicode="C" horiz-adv-x="1511" d="M72 809q0 109 20.5 213t61 197t101.5 171t142.5 134.5t184 88.5t225.5 32q90 0 169 -21t146 -55.5t121 -80t95 -94.5t67.5 -98t38.5 -92q6 -22 6 -42q0 -13 -2 -25q-6 -30 -23.5 -51t-43 -32.5t-54.5 -11.5q-34 0 -65 19t-43 61q-16 52 -50 106t-86 98.5t-121 72.5 t-155 28q-105 0 -195.5 -42.5t-157 -122t-104 -194.5t-37.5 -259t37.5 -259.5t104 -195.5t157 -123t195.5 -43q86 0 155 28.5t121 73t86 98.5t50 106q12 42 43 60.5t65 18.5q29 0 54.5 -11.5t42.5 -32.5q18 -21 24 -51q3 -12 2 -24q0 -20 -6 -42q-12 -42 -38.5 -91.5 t-67.5 -98.5t-95 -94.5t-121 -80t-146 -55.5t-169 -21q-123 0 -225.5 32t-184 89t-142.5 135.5t-101.5 171.5t-61 197.5t-20.5 212.5z" />
<glyph unicode="D" horiz-adv-x="1505" d="M113 162v1292q0 38 14 68t37 51t51.5 32t58.5 11h445q82 0 167.5 -17.5t164.5 -56.5t149 -101.5t122 -152t82 -208.5t30 -271t-30 -271t-82 -209t-122 -152.5t-149 -102t-164 -57t-168 -17.5h-445q-30 0 -58.5 11t-51.5 32t-37 51t-14 68zM354 217h365q120 0 209 41.5 t148 118.5t88.5 186.5t29.5 245.5t-29.5 245t-88.5 185.5t-148 118t-209 41.5h-365v-1182z" />
<glyph unicode="E" horiz-adv-x="1374" d="M113 162v1292q0 38 14 68t37 51t51.5 32t58.5 11h940q23 0 42.5 -8t34.5 -22.5t23.5 -34.5t8.5 -44t-8.5 -43.5t-23.5 -34t-34.5 -22.5t-42.5 -8h-860v-443h754q22 0 42 -8t35 -22.5t23.5 -34t8.5 -43.5t-8.5 -44t-23.5 -34.5t-35 -22.5t-42 -8h-754v-522h860 q23 0 42.5 -8t34.5 -22.5t23.5 -34t8.5 -43.5t-8.5 -44t-23.5 -34.5t-34.5 -22.5t-42.5 -8h-940q-30 0 -58.5 11t-51.5 32t-37 51t-14 68z" />
<glyph unicode="F" horiz-adv-x="1190" d="M113 123v1331q0 38 14 68t37 51t51.5 32t58.5 11h787q22 0 41.5 -8t34.5 -22.5t23.5 -34.5t8.5 -44t-8.5 -43.5t-23.5 -34t-34.5 -22.5t-41.5 -8h-707v-443h600q23 0 42.5 -8t34.5 -22.5t23.5 -34t8.5 -43.5t-8.5 -44t-23.5 -34.5t-34.5 -22.5t-42.5 -8h-600v-616 q0 -26 -9.5 -48.5t-26 -39t-38.5 -26t-47 -9.5q-24 0 -46 9.5t-38.5 26t-26 39t-9.5 48.5z" />
<glyph unicode="G" horiz-adv-x="1571" d="M72 809q0 109 20.5 213t61 197t101.5 171t142.5 134.5t184 88.5t225.5 32q118 0 208.5 -23.5t158 -60t114 -80.5t76 -84.5t44 -73t17.5 -45.5q7 -25 7 -46q0 -11 -2 -21q-5 -30 -20.5 -51t-39.5 -32.5t-53 -11.5q-34 0 -63 20t-46 60q-18 42 -49 84t-79 75t-116 53 q-64 19 -148 19h-9q-105 0 -195.5 -42.5t-157 -122t-104 -194.5t-37.5 -259t37.5 -259.5t104 -195.5t157 -123t195.5 -43q98 0 183 40.5t147.5 108t98.5 156t36 183.5h-285q-52 0 -85.5 31t-33.5 77q0 47 33.5 78t85.5 31h383q52 0 80.5 -22t41.5 -53.5t15 -66t2 -59.5 q0 -90 -23 -178.5t-66.5 -168.5t-105.5 -148.5t-140 -118.5t-170.5 -78.5t-196.5 -28.5q-123 0 -225.5 32t-184 89t-142.5 135.5t-101.5 171.5t-61 197.5t-20.5 212.5z" />
<glyph unicode="H" horiz-adv-x="1518" d="M113 123v1370q0 26 9.5 48.5t26 39t38.5 26t46 9.5q25 0 47 -9.5t38.5 -26t26 -39t9.5 -48.5v-537h809v537q0 26 10 48.5t26.5 39t38.5 26t46 9.5q25 0 47 -9.5t38.5 -26t26 -39t9.5 -48.5v-1370q0 -26 -9.5 -48.5t-26 -39t-38.5 -26t-47 -9.5q-24 0 -46 9.5t-38.5 26 t-26.5 39t-10 48.5v616h-809v-616q0 -26 -9.5 -48.5t-26 -39t-38.5 -26t-47 -9.5q-24 0 -46 9.5t-38.5 26t-26 39t-9.5 48.5z" />
<glyph unicode="I" horiz-adv-x="467" d="M113 123v1370q0 26 9.5 48.5t26 39t38.5 26t46 9.5q25 0 47 -9.5t38.5 -26t26 -39t9.5 -48.5v-1370q0 -26 -9.5 -48.5t-26 -39t-38.5 -26t-47 -9.5q-24 0 -46 9.5t-38.5 26t-26 39t-9.5 48.5z" />
<glyph unicode="J" horiz-adv-x="1122" d="M41 428q0 26 9.5 48.5t26 39t38.5 26t47 9.5q24 0 46 -9.5t38.5 -26t26.5 -39t10 -48.5q0 -60 21 -105t55.5 -75t78 -45t88.5 -15q50 0 94 15t77 45t52 75t19 105v1065q0 26 9.5 48.5t26 39t38.5 26t47 9.5q24 0 46 -9.5t38.5 -26t26.5 -39t10 -48.5v-1065 q0 -107 -30 -191.5t-90.5 -143.5t-151 -90.5t-212.5 -31.5q-106 0 -195 31.5t-153.5 90.5t-100.5 143.5t-36 191.5z" />
<glyph unicode="K" horiz-adv-x="1382" d="M113 123v1370q0 26 9.5 48.5t26 39t38.5 26t46 9.5q25 0 47 -9.5t38.5 -26t26 -39t9.5 -48.5v-633l742 717q41 39 90 39q20 0 40 -8t36 -25q17 -18 24 -39t5.5 -43t-12.5 -44t-30 -40l-491 -475l583 -754q30 -38 30 -80v-10q-4 -46 -42 -75q-15 -13 -31.5 -18t-33.5 -5 q-26 0 -52 13t-45 38l-569 737l-244 -235v-430q0 -26 -9.5 -48.5t-26 -39t-38.5 -26t-47 -9.5q-24 0 -46 9.5t-38.5 26t-26 39t-9.5 48.5z" />
<glyph unicode="L" horiz-adv-x="1198" d="M113 162v1333q0 26 9.5 48t26 38t38.5 25.5t46 9.5q26 0 48 -9.5t38 -25.5t25.5 -38t9.5 -48v-1278h715q22 0 42 -8t35 -22.5t23.5 -34t8.5 -43.5t-8.5 -44t-23.5 -34.5t-35 -22.5t-42 -8h-795q-30 0 -58.5 11t-51.5 32t-37 51t-14 68z" />
<glyph unicode="M" horiz-adv-x="1761" d="M113 117v1349q0 35 12 62.5t32 47t48 30t59 10.5q35 0 63 -13t50.5 -35.5t39 -52t29.5 -63.5l435 -1122l434 1122q13 34 30 63.5t39 52t50 35.5t63 13q32 0 59.5 -10.5t48 -30t32.5 -47t12 -62.5v-1349q0 -26 -8.5 -47.5t-23.5 -37t-35 -24t-42 -8.5t-41.5 8.5t-34.5 24 t-23.5 37t-8.5 47.5v1034l-398 -1032q-21 -57 -57 -88t-96 -31t-96 31t-58 88l-397 1032v-1034q0 -26 -8.5 -47.5t-23.5 -37t-34.5 -24t-42.5 -8.5q-22 0 -41.5 8.5t-34.5 24t-23.5 37t-8.5 47.5z" />
<glyph unicode="N" horiz-adv-x="1489" d="M113 123v1378q0 25 9.5 46t25.5 36.5t38 24t47 8.5q29 0 52 -6t44 -19.5t41 -35.5t42 -54l723 -1073v1065q0 26 9.5 48.5t26 39t38.5 26t46 9.5q25 0 47 -9.5t38.5 -26t26 -39t9.5 -48.5v-1378q0 -25 -9.5 -46t-25.5 -36.5t-38 -24t-48 -8.5q-28 0 -51 6t-44 19.5 t-41 35.5t-42 54l-723 1075v-1067q0 -26 -9.5 -48.5t-26 -39t-38.5 -26t-47 -9.5q-24 0 -46 9.5t-38.5 26t-26 39t-9.5 48.5z" />
<glyph unicode="O" horiz-adv-x="1733" d="M72 809q0 112 25 217.5t73 198.5t117 170t157.5 132.5t194.5 86.5t227 31t227.5 -31t194.5 -86.5t157.5 -132.5t117.5 -170t73 -198.5t25 -217.5q0 -113 -25 -219t-73 -199t-117.5 -170t-157.5 -132.5t-194 -86.5t-228 -31q-121 0 -227 31t-194.5 86.5t-157.5 132.5 t-117 170t-73 199t-25 219zM313 809q0 -141 43 -256t117.5 -196t175.5 -125t217 -44t217 44t175.5 125t117.5 196t43 256t-43 255.5t-117.5 195t-175.5 124t-217 43.5t-217 -43.5t-175.5 -124t-117.5 -195t-43 -255.5z" />
<glyph unicode="P" horiz-adv-x="1386" d="M113 123v1331q0 38 14 68t37 51t51.5 32t58.5 11h562q104 0 193 -35t155 -97t103.5 -146.5t37.5 -184.5t-37.5 -184.5t-103.5 -146.5t-155 -97t-193 -35h-482v-567q0 -26 -9.5 -48.5t-26 -39t-38.5 -26t-47 -9.5q-24 0 -46 9.5t-38.5 26t-26 39t-9.5 48.5zM354 907h482 q57 0 104.5 18.5t81 51t52 77.5t18.5 99t-18 99t-51.5 77.5t-81 51t-105.5 18.5h-482v-492z" />
<glyph unicode="Q" horiz-adv-x="1733" d="M72 809q0 112 25 217.5t73 198.5t117 170t157.5 132.5t194.5 86.5t227 31t227.5 -31t194.5 -86.5t157.5 -132.5t117.5 -170t73 -198.5t25 -217.5q0 -100 -20 -194.5t-58 -180t-93 -159t-126 -132.5l102 -137q22 -29 25.5 -62t-7.5 -60.5t-36.5 -45.5t-61.5 -18 q-26 0 -51.5 14.5t-44.5 40.5l-114 156q-70 -28 -147.5 -44t-162.5 -16q-121 0 -227 31t-194.5 86.5t-157.5 132.5t-117 170t-73 199t-25 219zM313 809q0 -141 43 -256t117.5 -196t175.5 -125t217 -44q45 0 87.5 7.5t84.5 19.5l-28 39q-22 29 -26 61t6.5 59.5t35 45.5 t59.5 18q28 0 54.5 -13.5t46.5 -39.5l43 -57q88 81 139 203t51 278q0 141 -43 255.5t-117.5 195t-175.5 124t-217 43.5t-217 -43.5t-175.5 -124t-117.5 -195t-43 -255.5z" />
<glyph unicode="R" horiz-adv-x="1475" d="M113 123v1331q0 38 14 68t37 51t51.5 32t58.5 11h658q108 0 195.5 -33t148.5 -93.5t94 -146t33 -190.5q0 -46 -16.5 -100.5t-51.5 -105.5t-91 -92t-134 -60q51 -12 90 -36.5t66.5 -56t43 -68t19.5 -73.5l45 -438q2 -25 -5.5 -47t-23 -39t-38.5 -27t-52 -10 q-51 0 -85.5 30.5t-39.5 80.5l-30 350q-6 64 -32 107.5t-65.5 70.5t-89 39t-102.5 12h-457v-567q0 -26 -9.5 -48.5t-26 -39t-38.5 -26t-47 -9.5q-24 0 -46 9.5t-38.5 26t-26 39t-9.5 48.5zM354 907h539q51 0 101 17.5t89.5 49.5t63.5 77.5t24 101.5q0 53 -16.5 98t-47.5 78 t-75.5 51.5t-99.5 18.5h-578v-492z" />
<glyph unicode="S" horiz-adv-x="1370" d="M31 455q0 37 10.5 62.5t27 41.5t37 23.5t41.5 7.5q36 0 64.5 -22t34.5 -68q11 -78 53 -139t104 -103t138 -64t155 -22q65 0 133 15t124 48.5t92 86.5t36 129q0 60 -27.5 103.5t-74.5 75t-109.5 55t-133 44t-145 41t-145 46.5t-133 60t-109.5 82.5t-74.5 113.5t-27.5 153 q0 101 44 179.5t122 132t185 81t233 27.5q81 0 154.5 -14.5t136 -39.5t112.5 -59t85 -73.5t54 -82.5t19 -86q0 -26 -10 -47.5t-26 -36.5t-36.5 -23.5t-41.5 -8.5q-31 0 -58 17.5t-43 55.5q-24 62 -64 100t-88.5 59t-101.5 28.5t-102 7.5q-74 0 -136.5 -15t-108.5 -43 t-71.5 -68t-25.5 -91q0 -56 27.5 -96t75 -69.5t110.5 -52t134 -42.5t145.5 -41t145.5 -48t134 -63t110.5 -86.5t75 -118t27.5 -157.5q0 -120 -52.5 -210t-139.5 -150t-199.5 -90t-231.5 -30q-122 0 -218.5 24.5t-170.5 64.5t-126.5 91t-85.5 105t-48.5 106t-15.5 93z" />
<glyph unicode="T" horiz-adv-x="1266" d="M20 1509q0 24 8.5 44t23.5 34.5t35 22.5t42 8h1008q22 0 41.5 -8t34.5 -22.5t23.5 -34.5t8.5 -44t-8.5 -44t-23.5 -34.5t-34.5 -23t-41.5 -8.5h-383v-1276q0 -26 -10 -48.5t-26.5 -39t-38.5 -26t-46 -9.5q-25 0 -47 9.5t-38.5 26t-26 39t-9.5 48.5v1276h-383 q-22 0 -42 8.5t-35 23t-23.5 34.5t-8.5 44z" />
<glyph unicode="U" horiz-adv-x="1520" d="M113 539v954q0 26 9.5 48.5t26 39t38.5 26t46 9.5q25 0 47 -9.5t38.5 -26t26 -39t9.5 -48.5v-946q0 -97 34 -163t90.5 -106.5t130 -58.5t151.5 -18t151.5 18t129.5 58.5t90 106.5t34 163v946q0 26 10 48.5t26.5 39t38.5 26t46 9.5q25 0 47 -9.5t38.5 -26t26 -39 t9.5 -48.5v-954q0 -105 -24.5 -188t-68.5 -146t-104.5 -107t-132.5 -72t-152.5 -40.5t-164.5 -12.5t-164.5 12.5t-152.5 40.5t-132.5 72t-104.5 107t-68.5 146t-24.5 188z" />
<glyph unicode="V" horiz-adv-x="1319" d="M13 1520q6 30 24 51t45 33t55 12q34 0 64.5 -19t44.5 -61l413 -1194l414 1194q14 42 44.5 61t64.5 19q28 0 54.5 -12t44.5 -33t24 -51q2 -9 2 -20q0 -22 -9 -46l-483 -1339q-18 -53 -58.5 -84t-97.5 -31t-97 31t-58 84l-484 1339q-9 25 -9 46q0 11 2 20z" />
<glyph unicode="W" horiz-adv-x="1999" d="M14 1519q6 30 23.5 51t43.5 32.5t54 11.5q17 0 34 -4.5t32 -14t26 -25t17 -36.5l299 -1153l284 1100q17 63 63 99t109 36t109 -36t63 -99l285 -1100l299 1153q11 43 43 61.5t66 18.5q28 0 54 -11.5t43 -32.5t23 -51q2 -11 3 -23q0 -20 -7 -44l-385 -1352 q-14 -48 -51.5 -74t-87.5 -26q-22 0 -44.5 6.5t-41.5 19t-33 30.5t-20 42l-318 1258l-317 -1258q-6 -24 -20 -42t-33 -30.5t-41.5 -19t-44.5 -6.5q-50 0 -88 26t-52 74l-385 1352q-6 23 -6 44q0 12 2 23z" />
<glyph unicode="X" horiz-adv-x="1270" d="M42.5 120q1.5 32 20.5 60l433 627l-433 627q-19 27 -20 59t12.5 59.5t39.5 45.5t61 18q28 0 54.5 -13.5t43.5 -39.5l381 -553l381 553q18 26 45.5 40.5t56.5 12.5q32 0 57 -18.5t38 -46t12 -59t-19 -58.5l-432 -627l432 -627q19 -28 20.5 -60t-11.5 -58.5t-38 -44 t-59 -17.5q-28 0 -55 12.5t-45 38.5l-383 555l-383 -555q-19 -26 -46 -38.5t-54 -12.5q-34 0 -59.5 17.5t-38.5 44t-11.5 58.5z" />
<glyph unicode="Y" horiz-adv-x="1278" d="M11.5 1505q0.5 30 14.5 54.5t39 40.5t56 16q28 0 54.5 -14t43.5 -41l418 -678l422 678q17 27 44 41t56 14q32 0 56.5 -16t38 -41t13.5 -55t-18 -58l-495 -789v-534q0 -26 -10 -48.5t-26.5 -39t-38.5 -26t-46 -9.5q-25 0 -47 9.5t-38.5 26t-26 39t-9.5 48.5v551l-483 772 q-18 29 -17.5 59z" />
<glyph unicode="Z" horiz-adv-x="1296" d="M10 147q0 29 9.5 53.5t29.5 49.5l891 1149h-784q-22 0 -42 8t-35 22.5t-23.5 34t-8.5 43.5t8.5 44t23.5 34.5t35 22.5t42 8h950q31 0 56.5 -12t44 -32t28.5 -47t10 -57q0 -29 -9.5 -53t-29.5 -49l-897 -1149h828q22 0 41.5 -8t34.5 -22.5t23.5 -34t8.5 -43.5t-8.5 -44 t-23.5 -34.5t-34.5 -22.5t-41.5 -8h-987q-31 0 -56.5 12t-44 32t-29 46.5t-10.5 56.5z" />
<glyph unicode="[" horiz-adv-x="596" d="M102 -47v1665q0 48 16 90.5t49 74t82.5 50t115.5 18.5h88q51 0 81.5 -26.5t30.5 -71.5q0 -46 -30.5 -73t-81.5 -27h-80q-14 0 -28.5 -9t-14.5 -38v-1641q0 -29 14.5 -38t28.5 -9h80q51 0 81.5 -26t30.5 -72q0 -47 -30.5 -74t-81.5 -27h-88q-66 0 -115.5 18.5t-82.5 50.5 t-49 74.5t-16 90.5z" />
<glyph unicode="\" horiz-adv-x="1047" d="M42.5 1684q1.5 26 13 48.5t32 37.5t47.5 16q34 0 64.5 -16t46.5 -50l747 -1654q13 -26 10.5 -53t-16.5 -49.5t-36.5 -36.5t-49.5 -15q-31 -2 -59.5 16.5t-40.5 48.5l-750 1657q-10 24 -8.5 50z" />
<glyph unicode="]" horiz-adv-x="596" d="M31 -180q0 46 30.5 72t79.5 26h82q14 0 28.5 9t14.5 38v1641q0 29 -14.5 38t-28.5 9h-82q-49 0 -79.5 27t-30.5 73q0 45 30.5 71.5t79.5 26.5h90q66 0 115 -18.5t82 -50t49.5 -74t16.5 -90.5v-1665q0 -48 -16.5 -90.5t-49.5 -74.5t-82 -50.5t-115 -18.5h-90 q-49 0 -79.5 27t-30.5 74z" />
<glyph unicode="_" horiz-adv-x="1081" d="M10 -236q0 19 7.5 36.5t20 30.5t30 20.5t38.5 7.5h871q20 0 37 -7.5t30 -20.5t20 -30.5t7 -36.5q0 -18 -7 -35t-20 -29.5t-30 -20t-37 -7.5h-871q-21 0 -38.5 7.5t-30 20t-20 29.5t-7.5 35z" />
<glyph unicode="`" horiz-adv-x="571" d="M92 1567q0 21 8 37t20.5 27.5t27 17.5t26.5 6q11 0 20.5 -1.5t20.5 -6.5t23.5 -15t29.5 -28l187 -191q24 -24 24 -61q0 -21 -8 -36t-20 -24t-26 -13.5t-26 -4.5q-17 0 -34 6t-29 18l-205 185q-12 11 -25.5 32t-13.5 52z" />
<glyph unicode="a" horiz-adv-x="1149" d="M51 330q0 97 39 163t104 108.5t150.5 66t179.5 34.5q92 11 151.5 24t93.5 32.5t47 46.5t13 65q0 48 -22.5 78.5t-58 47t-77.5 22.5t-81 6q-55 0 -97 -9.5t-74 -26.5t-55 -42t-38 -57q-11 -34 -36 -49t-52 -15q-20 0 -39.5 7t-33.5 20t-21 32t-3 42q9 45 39 93.5t84 88.5 t134.5 66t191.5 26q97 0 180.5 -20.5t145 -61.5t96.5 -102.5t35 -143.5v-761q0 -24 -8.5 -44.5t-23.5 -35t-35 -23t-42 -8.5t-42 8.5t-35 23t-23.5 35t-8.5 44.5v28q-39 -40 -84 -67t-93.5 -43t-101 -22.5t-106.5 -6.5q-67 0 -137 20.5t-127 61.5t-93 103t-36 145zM256 330 q0 -45 22.5 -74.5t57.5 -47t78 -24t84 -6.5q56 0 114.5 15t106.5 45.5t79 78t31 111.5v158l-65 -19q-39 -11 -92 -17.5t-109.5 -14.5t-111.5 -20t-98.5 -34.5t-70 -58.5t-26.5 -92z" />
<glyph unicode="b" horiz-adv-x="1214" d="M102 111v1394q0 24 8.5 44.5t23.5 35t35 23t42 8.5t41.5 -8.5t34.5 -23t23.5 -35t8.5 -44.5v-471q63 72 150.5 112t194.5 40q110 0 200.5 -43.5t154.5 -121.5t99 -187.5t35 -241.5q0 -131 -38.5 -240t-105.5 -187t-155.5 -121.5t-189.5 -43.5q-106 0 -194 29.5t-151 97.5 v-16q0 -24 -8.5 -44.5t-23.5 -35t-34.5 -23t-41.5 -8.5t-42 8.5t-35 23t-23.5 35t-8.5 44.5zM305 592q0 -81 21.5 -156t63 -132.5t101.5 -92.5t138 -35t138 35t101 92.5t62.5 132.5t21.5 156t-21.5 156.5t-62.5 133.5t-101 93t-138 35t-138 -35t-101.5 -93t-63 -133.5 t-21.5 -156.5z" />
<glyph unicode="c" horiz-adv-x="1141" d="M61 592q0 137 41.5 249t115 191.5t175.5 123.5t223 44q83 0 150 -16.5t119.5 -43.5t91 -60.5t64 -68.5t37.5 -67.5t12 -56.5q0 -23 -8.5 -41.5t-23 -31t-33 -19.5t-38.5 -7q-28 0 -52.5 15t-35.5 49q-10 32 -33.5 63t-59.5 55t-83.5 39t-106.5 15q-60 0 -124 -23.5 t-116.5 -75t-86 -134t-33.5 -199.5t33.5 -199t86 -133.5t116.5 -74.5t124 -23q59 0 106.5 15t83.5 39t59.5 55t33.5 63q11 34 35.5 48.5t52.5 14.5q20 0 38.5 -6.5t33 -19.5t23 -31t8.5 -41q0 -24 -12 -56.5t-37.5 -67.5t-64 -68.5t-91 -60.5t-119.5 -43.5t-150 -16.5 q-121 0 -223 43.5t-175.5 123t-115 191t-41.5 248.5z" />
<glyph unicode="d" horiz-adv-x="1214" d="M61 592q0 132 35 241.5t99.5 187.5t154.5 121.5t201 43.5q106 0 193.5 -40t150.5 -112v471q0 24 8.5 44.5t23.5 35t35 23t42 8.5t41.5 -8.5t34.5 -23t23.5 -35t8.5 -44.5v-1394q0 -24 -8.5 -44.5t-23.5 -35t-34.5 -23t-41.5 -8.5t-42 8.5t-35 23t-23.5 35t-8.5 44.5v16 q-63 -68 -151 -97.5t-193 -29.5q-100 0 -189.5 43.5t-156 121.5t-105.5 187t-39 240zM262 592q0 -81 21.5 -156t63 -132.5t101.5 -92.5t138 -35t138 35t101 92.5t62.5 132.5t21.5 156t-21.5 156.5t-62.5 133.5t-101 93t-138 35t-138 -35t-101.5 -93t-63 -133.5t-21.5 -156.5 z" />
<glyph unicode="e" horiz-adv-x="1182" d="M61 578q0 136 38.5 250t111.5 196.5t178 129t238 46.5q76 0 141.5 -15.5t120.5 -44t99 -67.5t75 -86q22 -32 37.5 -71.5t17.5 -81.5v-11q0 -35 -16 -65q-20 -35 -68 -58l-715 -331q15 -34 43.5 -70.5t69.5 -67.5t93.5 -51t115.5 -20q61 0 106.5 11.5t80 34t60 54.5 t46.5 74q14 26 38.5 35.5t47.5 9.5q19 0 36.5 -6.5t30.5 -19t21 -30t8 -38.5q0 -16 -10.5 -44.5t-34 -61.5t-61 -67.5t-90 -62.5t-122 -45.5t-157.5 -17.5q-124 0 -230 43.5t-184 122t-122 187.5t-44 239zM262 608q0 -17 1.5 -36.5t4.5 -36.5l641 305q-35 92 -111.5 140 t-174.5 48q-85 0 -152 -36t-113.5 -95t-71 -134.5t-24.5 -154.5z" />
<glyph unicode="f" horiz-adv-x="543" d="M-20 1065q0 43 29 68.5t77 25.5h64v227q0 47 16 88.5t48.5 73t81 50t112.5 18.5h49q48 0 77 -25.5t29 -68.5q0 -44 -29 -69.5t-77 -25.5h-41q-8 0 -16.5 -2t-16 -7.5t-12 -16t-4.5 -27.5v-215h88q48 0 77 -25.5t29 -68.5t-29 -68.5t-77 -25.5h-88v-860q0 -24 -8.5 -44.5 t-23.5 -35t-35 -23t-42 -8.5t-41.5 8.5t-34.5 23t-23.5 35t-8.5 44.5v860h-64q-48 0 -77 25.5t-29 68.5z" />
<glyph unicode="g" horiz-adv-x="1243" d="M61 592q0 130 37 239t105.5 188t164 123t212.5 44q105 0 193 -29.5t151 -97.5v16q0 24 8.5 44.5t23.5 35t34.5 23t41.5 8.5q23 0 42.5 -8.5t34.5 -23t23.5 -35t8.5 -44.5v-1048q0 -102 -42 -186.5t-114.5 -145t-169.5 -94t-207 -33.5q-127 0 -217 27t-146 65t-82 79 t-26 68q0 51 25 80t67 29q28 0 51 -12.5t48 -53.5q16 -26 45 -45t66 -31t80.5 -18t88.5 -6q66 0 123.5 20.5t100.5 57t67.5 87.5t24.5 112v125q-63 -73 -150.5 -112.5t-193.5 -39.5q-117 0 -212.5 44t-164 122.5t-105.5 187t-37 238.5zM262 592q0 -81 20.5 -156.5t63 -133 t109 -92t159.5 -34.5q78 0 138 35t101.5 93t63 133.5t21.5 156.5t-24 156t-66.5 132.5t-102 92.5t-131.5 35q-93 0 -159.5 -35t-109 -93t-63 -133.5t-20.5 -156.5z" />
<glyph unicode="h" d="M102 111v1394q0 24 8.5 44.5t23.5 35t35 23t42 8.5t41.5 -8.5t34.5 -23t23.5 -35t8.5 -44.5v-465q29 35 67 62t80.5 46t88 28.5t90.5 9.5q100 0 177.5 -25t131 -70.5t81.5 -109t28 -141.5v-729q0 -24 -8.5 -44.5t-23.5 -35t-34.5 -23t-42.5 -8.5q-22 0 -41.5 8.5 t-34.5 23t-23.5 35t-8.5 44.5v720q0 33 -12 65t-40 57.5t-73 41t-111 15.5q-53 0 -104 -18.5t-91.5 -54.5t-66.5 -89t-29 -123v-614q0 -24 -8.5 -44.5t-23.5 -35t-34.5 -23t-41.5 -8.5t-42 8.5t-35 23t-23.5 35t-8.5 44.5z" />
<glyph unicode="i" horiz-adv-x="422" d="M88 1495q0 26 9.5 48t26.5 39t39.5 26.5t47.5 9.5q26 0 48 -9.5t39 -26.5t26.5 -39t9.5 -48q0 -25 -9.5 -47.5t-26.5 -39.5t-39 -26.5t-48 -9.5q-25 0 -47.5 9.5t-39.5 26.5t-26.5 39.5t-9.5 47.5zM102 111v964q0 24 8.5 44.5t23.5 35t35 23t42 8.5t41.5 -8.5t34.5 -23 t23.5 -35t8.5 -44.5v-964q0 -24 -8.5 -44.5t-23.5 -35t-34.5 -23t-41.5 -8.5t-42 8.5t-35 23t-23.5 35t-8.5 44.5z" />
<glyph unicode="j" horiz-adv-x="422" d="M-131 -309q0 43 29 68.5t77 25.5h19q54 0 81 25.5t27 80.5v1184q0 24 8.5 44.5t23.5 35t35 23t42 8.5t41.5 -8.5t34.5 -23t23.5 -35t8.5 -44.5v-1208q0 -56 -21.5 -105.5t-58 -86t-85.5 -57.5t-105 -21h-74q-48 0 -77 25t-29 69zM88 1495q0 26 9.5 48t26.5 39t39.5 26.5 t47.5 9.5q26 0 48 -9.5t39 -26.5t26.5 -39t9.5 -48q0 -25 -9.5 -47.5t-26.5 -39.5t-39 -26.5t-48 -9.5q-25 0 -47.5 9.5t-39.5 26.5t-26.5 39.5t-9.5 47.5z" />
<glyph unicode="k" horiz-adv-x="1038" d="M102 111v1394q0 24 8.5 44.5t23.5 35t35 23t42 8.5t41.5 -8.5t34.5 -23t23.5 -35t8.5 -44.5v-778l488 428q17 16 36.5 23.5t39.5 7.5t38.5 -7.5t32.5 -23.5q24 -28 24 -62v-11q-4 -42 -42 -74l-303 -267l403 -573q13 -19 18 -40t2.5 -41t-13.5 -38t-29 -31 q-28 -18 -58 -18q-24 0 -48.5 13t-41.5 38l-389 553l-158 -139v-354q0 -24 -8.5 -44.5t-23.5 -35t-34.5 -23t-41.5 -8.5t-42 8.5t-35 23t-23.5 35t-8.5 44.5z" />
<glyph unicode="l" horiz-adv-x="422" d="M102 111v1394q0 24 8.5 44.5t23.5 35t35 23t42 8.5t41.5 -8.5t34.5 -23t23.5 -35t8.5 -44.5v-1394q0 -24 -8.5 -44.5t-23.5 -35t-34.5 -23t-41.5 -8.5t-42 8.5t-35 23t-23.5 35t-8.5 44.5z" />
<glyph unicode="m" horiz-adv-x="1716" d="M102 111v964q0 24 8.5 44.5t23.5 35t35 23t42 8.5t41.5 -8.5t34.5 -23t23.5 -35t8.5 -44.5v-41q12 16 35.5 42t62 50.5t93 42t127.5 17.5q49 0 93.5 -14.5t82 -40t67 -60t48.5 -74.5q63 93 145 141t195 48q73 0 136 -23t109.5 -67t73.5 -107t27 -143v-735 q0 -24 -8.5 -44.5t-23.5 -35t-34.5 -23t-42.5 -8.5q-22 0 -41.5 8.5t-34.5 23t-23.5 35t-8.5 44.5v720q0 36 -12 68.5t-34.5 57t-54 39t-71.5 14.5q-61 0 -109 -24.5t-81 -64t-50.5 -90t-17.5 -102.5v-618q0 -24 -8.5 -44.5t-23.5 -35t-34.5 -23t-42.5 -8.5q-22 0 -41.5 8.5 t-34.5 23t-23.5 35t-8.5 44.5v720q0 36 -12 68.5t-34.5 57t-54 39t-71.5 14.5q-61 0 -109.5 -24.5t-81.5 -64t-50.5 -90t-17.5 -102.5v-618q0 -24 -8.5 -44.5t-23.5 -35t-34.5 -23t-41.5 -8.5t-42 8.5t-35 23t-23.5 35t-8.5 44.5z" />
<glyph unicode="n" d="M102 111v964q0 24 8.5 44.5t23.5 35t35 23t42 8.5t41.5 -8.5t34.5 -23t23.5 -35t8.5 -44.5v-35q29 35 67 62t80.5 46t88 28.5t90.5 9.5q100 0 177.5 -25t131 -70.5t81.5 -109t28 -141.5v-729q0 -24 -8.5 -44.5t-23.5 -35t-34.5 -23t-42.5 -8.5q-22 0 -41.5 8.5t-34.5 23 t-23.5 35t-8.5 44.5v720q0 33 -12 65t-40 57.5t-73 41t-111 15.5q-54 0 -106 -19t-93 -57t-66.5 -93.5t-25.5 -129.5v-600q0 -24 -8.5 -44.5t-23.5 -35t-34.5 -23t-41.5 -8.5t-42 8.5t-35 23t-23.5 35t-8.5 44.5z" />
<glyph unicode="o" horiz-adv-x="1253" d="M61 592q0 145 43 258t118.5 191t179.5 118.5t225 40.5t224.5 -40.5t179 -118.5t118.5 -191t43 -258q0 -144 -43 -257t-118.5 -190.5t-179 -118t-224.5 -40.5t-225 40.5t-179.5 118t-118.5 190.5t-43 257zM268 592q0 -112 27.5 -193.5t76 -134t114 -77.5t141.5 -25 t141.5 25t113.5 77.5t75.5 134t27.5 193.5q0 113 -27.5 194.5t-75.5 134.5t-113.5 78t-141.5 25t-141.5 -25t-114 -78t-76 -134.5t-27.5 -194.5z" />
<glyph unicode="p" horiz-adv-x="1214" d="M102 -319v1394q0 24 8.5 44.5t23.5 35t35 23t42 8.5t41.5 -8.5t34.5 -23t23.5 -35t8.5 -44.5v-16q63 68 151 97.5t194 29.5q101 0 189.5 -43.5t155.5 -121.5t105.5 -187t38.5 -240q0 -132 -35 -241.5t-99 -187.5t-154.5 -121.5t-200.5 -43.5q-107 0 -194.5 39.5 t-150.5 112.5v-471q0 -24 -8.5 -44.5t-23.5 -35t-34.5 -23t-41.5 -8.5t-42 8.5t-35 23t-23.5 35t-8.5 44.5zM305 594q0 -81 21.5 -156.5t63 -133.5t101.5 -93t138 -35t138 35t101 93t62.5 133.5t21.5 156.5t-21.5 156t-62.5 132.5t-101 92.5t-138 35t-138 -35t-101.5 -92.5 t-63 -132.5t-21.5 -156z" />
<glyph unicode="q" horiz-adv-x="1214" d="M61 594q0 131 39 240t105.5 187t156 121.5t189.5 43.5q105 0 193 -29.5t151 -97.5v16q0 24 8.5 44.5t23.5 35t35 23t42 8.5t41.5 -8.5t34.5 -23t23.5 -35t8.5 -44.5v-1394q0 -24 -8.5 -44.5t-23.5 -35t-34.5 -23t-41.5 -8.5t-42 8.5t-35 23t-23.5 35t-8.5 44.5v471 q-63 -73 -150.5 -112.5t-193.5 -39.5q-111 0 -201 43.5t-154.5 121.5t-99.5 187.5t-35 241.5zM262 594q0 -81 21.5 -156.5t63 -133.5t101.5 -93t138 -35t138 35t101 93t62.5 133.5t21.5 156.5t-21.5 156t-62.5 132.5t-101 92.5t-138 35t-138 -35t-101.5 -92.5t-63 -132.5 t-21.5 -156z" />
<glyph unicode="r" horiz-adv-x="659" d="M102 111v964q0 24 8.5 44.5t23.5 35t35 23t42 8.5t41.5 -8.5t34.5 -23t23.5 -35t8.5 -44.5v-35q7 15 29 39.5t55.5 48t75.5 41t90 17.5q24 0 44.5 -8.5t35 -23.5t23 -34.5t8.5 -42.5q0 -22 -8.5 -41.5t-23 -34.5t-35 -23.5t-44.5 -8.5q-69 0 -116.5 -25t-77.5 -63.5 t-43 -85t-13 -90.5v-594q0 -24 -8.5 -44.5t-23.5 -35t-34.5 -23t-41.5 -8.5t-42 8.5t-35 23t-23.5 35t-8.5 44.5z" />
<glyph unicode="s" horiz-adv-x="1061" d="M41 322q0 24 9.5 43.5t24.5 33.5t34 21.5t38 7.5q25 0 47.5 -14t34.5 -45q17 -44 41.5 -82t61.5 -65.5t89 -43.5t124 -16q65 0 114.5 15.5t82.5 41t50 57.5t17 66q0 51 -32 82.5t-83.5 52t-118 34.5t-136 30t-136 39t-118 61.5t-83.5 97t-32 146.5q4 74 36.5 132.5 t89.5 99t136 62t176 21.5q47 0 99.5 -7t104.5 -21.5t100 -36.5t84.5 -53.5t58.5 -71.5t22 -90q0 -23 -10 -42t-26.5 -32.5t-37.5 -21t-43 -7.5q-26 0 -48.5 13t-35.5 42q-16 39 -36.5 67.5t-51 47t-74 28t-106.5 9.5q-62 0 -107 -10.5t-74 -29.5t-43 -44.5t-14 -54.5 q0 -48 32 -79t85 -52t120.5 -36.5t137.5 -33.5t137.5 -42.5t120.5 -63t85 -95.5t32 -141q0 -94 -42 -161t-109.5 -110.5t-152.5 -64t-171 -20.5q-100 0 -176 19t-132 49.5t-94 68.5t-60.5 75.5t-32 70.5t-9.5 53z" />
<glyph unicode="t" horiz-adv-x="553" d="M-20 1065q0 43 29 68.5t77 25.5h82v256q0 24 8.5 44.5t23.5 35t34.5 23t41.5 8.5q23 0 42.5 -8.5t34.5 -23t23.5 -35t8.5 -44.5v-256h82q48 0 77 -25.5t29 -68.5t-29 -68.5t-77 -25.5h-82v-860q0 -24 -8.5 -44.5t-23.5 -35t-34.5 -23t-42.5 -8.5q-22 0 -41.5 8.5 t-34.5 23t-23.5 35t-8.5 44.5v860h-82q-48 0 -77 25.5t-29 68.5z" />
<glyph unicode="u" d="M102 346v729q0 24 8.5 44.5t23.5 35t35 23t42 8.5t41.5 -8.5t34.5 -23t23.5 -35t8.5 -44.5v-721q0 -32 12 -64t40 -57.5t73 -41t111 -15.5q54 0 106 19t93 57t66.5 94t25.5 129v600q0 24 8.5 44.5t23.5 35t34.5 23t41.5 8.5q23 0 42.5 -8.5t34.5 -23t23.5 -35t8.5 -44.5 v-964q0 -24 -8.5 -44.5t-23.5 -35t-34.5 -23t-42.5 -8.5q-22 0 -41.5 8.5t-34.5 23t-23.5 35t-8.5 44.5v34q-29 -34 -67 -61t-80.5 -46t-88 -28.5t-90.5 -9.5q-100 0 -177.5 25t-131 70.5t-81.5 109t-28 141.5z" />
<glyph unicode="v" horiz-adv-x="975" d="M-2 1038q-8 22 -8 42q0 24 11 44q20 40 62 56q20 6 37 6q34 0 62 -19.5t41 -56.5l284 -864l285 864q12 37 40 56.5t62 19.5q19 0 37 -6q21 -8 37 -22.5t25 -33t10.5 -41t-6.5 -45.5l-330 -919q-20 -54 -61.5 -86.5t-98.5 -32.5t-98 32.5t-61 86.5z" />
<glyph unicode="w" horiz-adv-x="1585" d="M-8.5 1083.5q1.5 22.5 10.5 41t24.5 33t36.5 22.5q20 6 37 6q34 0 63 -19.5t40 -56.5l248 -831l204 786q14 53 46 87t92 34q59 0 91 -34t46 -87l205 -786l247 831q11 37 40 56.5t63 19.5q18 0 37 -6q21 -8 36.5 -22.5t24.5 -33t10.5 -41t-6.5 -45.5l-299 -919 q-17 -54 -53 -86.5t-98 -32.5q-54 0 -93 32.5t-53 86.5l-196 741l-201 -741q-16 -54 -53.5 -86.5t-91.5 -32.5q-62 0 -98.5 32.5t-53.5 86.5l-299 919q-8 23 -6.5 45.5z" />
<glyph unicode="x" horiz-adv-x="979" d="M11.5 85q-1.5 20 4.5 41t21 40l330 440l-310 416q-14 18 -19.5 38.5t-3.5 40t11.5 37t26.5 29.5q23 19 55 19q25 0 48 -12t40 -35l274 -367l275 367q17 23 39 35t45 12q15 0 31 -4.5t28 -14.5q17 -12 26.5 -29.5t11.5 -37t-3.5 -40t-19.5 -38.5l-310 -416l330 -440 q15 -19 21 -40t4.5 -41t-11 -37.5t-26.5 -29.5q-25 -18 -58 -18q-23 0 -47 12t-41 35l-295 395l-294 -395q-19 -25 -43.5 -36t-49.5 -11q-27 0 -53 18q-17 12 -26.5 29.5t-11 37.5z" />
<glyph unicode="y" horiz-adv-x="983" d="M-10 1084q-1 25 9 46.5t32 37t57 18.5q34 3 61.5 -13t47.5 -61l295 -809l290 799q14 37 38 60.5t73 23.5q29 0 50.5 -11.5t34 -31.5t14.5 -47.5t-9 -59.5l-301 -803l-162 -415q-16 -42 -37 -85t-55.5 -78.5t-86 -58t-128.5 -22.5h-78q-20 0 -36.5 8t-28.5 22t-18.5 32 t-6.5 38q0 42 28 68.5t68 26.5h43q20 0 41 1.5t41 11.5t38.5 31.5t33.5 61.5l57 150l-395 1011q-9 23 -10 48z" />
<glyph unicode="z" horiz-adv-x="948" d="M12 113q-2 17 3 46t30 60l602 778h-500q-43 0 -73.5 25t-30.5 70t30.5 69.5t73.5 24.5h637q54 0 90 -28.5t41 -84.5q2 -17 -3 -46t-29 -60l-602 -779h530q43 0 73.5 -24.5t30.5 -69.5t-30.5 -69.5t-73.5 -24.5h-668q-54 0 -90 28.5t-41 84.5z" />
<glyph unicode="{" horiz-adv-x="672" d="M72 784q0 25 16.5 40.5t36.5 31.5t36.5 37.5t16.5 58.5v666q0 48 16 90.5t49 74t82 50t115 18.5h88q51 0 82 -26.5t31 -71.5q0 -46 -31 -73t-82 -27h-79q-14 0 -28.5 -9t-14.5 -38v-654q0 -38 -16.5 -63.5t-37 -43.5t-37 -32t-16.5 -29t16.5 -29t37 -32.5t37 -44.5 t16.5 -64v-649q0 -29 14.5 -38t28.5 -9h79q51 0 82 -26t31 -72q0 -47 -31 -74t-82 -27h-88q-66 0 -115 18.5t-82 50.5t-49 74.5t-16 90.5v661q0 36 -16.5 58t-36.5 39t-36.5 33t-16.5 40z" />
<glyph unicode="|" horiz-adv-x="399" d="M92 0v1616q0 22 8.5 41.5t22.5 34.5t34 23.5t42 8.5t41.5 -8.5t34.5 -23.5t23.5 -34.5t8.5 -41.5v-1616q0 -22 -8.5 -42t-23.5 -35t-34.5 -23.5t-41.5 -8.5t-42 8.5t-34 23.5t-22.5 35t-8.5 42z" />
<glyph unicode="}" horiz-adv-x="672" d="M31 -180q0 46 30.5 72t81.5 26h80q14 0 28.5 9t14.5 38v649q0 38 16.5 64t37 44.5t37 32.5t16.5 29t-16.5 29t-37 32t-37 43.5t-16.5 63.5v654q0 29 -14.5 38t-28.5 9h-80q-51 0 -81.5 27t-30.5 73q0 45 30.5 71.5t81.5 26.5h88q66 0 115.5 -18.5t82.5 -50t49 -74 t16 -90.5v-666q0 -37 16.5 -58.5t36.5 -37.5t36.5 -31.5t16.5 -40.5q0 -24 -16.5 -40t-36.5 -33t-36.5 -39t-16.5 -58v-661q0 -48 -16 -90.5t-49 -74.5t-82.5 -50.5t-115.5 -18.5h-88q-51 0 -81.5 27t-30.5 74z" />
<glyph unicode="&#xa1;" horiz-adv-x="500" d="M102 1053q0 31 11.5 57.5t31.5 46.5t47 31.5t58 11.5t57.5 -11.5t46.5 -31.5t31.5 -46.5t11.5 -57.5t-11.5 -58t-31.5 -47t-46.5 -31.5t-57.5 -11.5t-58 11.5t-47 31.5t-31.5 47t-11.5 58zM129 -293q-1 -26 8.5 -48.5t26.5 -39t39 -26t47 -9.5q24 0 46.5 9.5t39 26 t26.5 39t9 48.5l-27 973q-2 53 -25.5 88t-68.5 35t-68.5 -35t-25.5 -88z" />
<glyph unicode="&#xa2;" horiz-adv-x="1057" d="M61 961q0 114 31.5 209t88 166t136 115t175.5 56v135q0 33 21 54.5t52 21.5q32 0 54 -21.5t22 -54.5v-135q92 -10 159 -44t110.5 -76.5t64 -86.5t20.5 -75q0 -22 -8 -40t-21.5 -30t-31.5 -18.5t-37 -6.5q-25 0 -49 15.5t-35 46.5q-17 43 -60.5 83.5t-111.5 57.5v-743 q34 8 62 22.5t49.5 33.5t37 41t23.5 44q11 31 35 46.5t49 15.5q19 0 37 -6.5t31.5 -18.5t21.5 -29.5t8 -40.5q0 -31 -20.5 -75t-64 -86.5t-110.5 -77t-159 -45.5v-142q0 -31 -22 -52t-54 -21q-31 0 -52 21t-21 52v142q-96 13 -175.5 57.5t-136 115t-88 165.5t-31.5 209z M248 961q0 -87 21 -151.5t55 -109.5t78 -71.5t90 -38.5v741q-46 -12 -90 -39t-78 -72t-55 -109t-21 -150z" />
<glyph unicode="&#xa3;" horiz-adv-x="1133" d="M10 567q0 31 21.5 52.5t52.5 21.5h133q-8 29 -17.5 58.5t-19.5 60.5h-96q-32 0 -53 21.5t-21 52.5q0 32 21 53.5t53 21.5h47q-14 48 -22.5 95t-8.5 94q0 103 36 180.5t100.5 129.5t153.5 78.5t194 26.5q122 0 211 -37.5t147.5 -93t86.5 -119.5t28 -118q0 -24 -8.5 -41 t-22.5 -28t-31.5 -16t-36.5 -5q-91 0 -106 67q-5 22 -8.5 44.5t-14.5 45.5q-11 25 -35 47t-57.5 38.5t-75 26t-88.5 9.5q-65 0 -114 -18t-82 -49.5t-49.5 -74t-16.5 -91.5q0 -51 9.5 -97.5t23.5 -93.5h397q32 0 54 -21.5t22 -53.5q0 -31 -22 -52.5t-54 -21.5h-346 q10 -29 18.5 -58.5t14.5 -60.5h313q32 0 54 -21.5t22 -52.5q0 -32 -22 -53.5t-54 -21.5h-292v-27q0 -55 -15.5 -102.5t-35.5 -82.5q-23 -41 -52 -75h494q36 0 54 6t29.5 13.5t23 13.5t34.5 6q37 0 63.5 -25t26.5 -67q0 -18 -12.5 -44t-38 -50t-64.5 -41t-92 -17h-637 q-58 0 -88 33.5t-30 81.5q0 23 10.5 43.5t25.5 41.5t33.5 45t33.5 55t25.5 71t10.5 94v12.5t-2 14.5h-162q-31 0 -52.5 21.5t-21.5 53.5z" />
<glyph unicode="&#xa5;" horiz-adv-x="1196" d="M11.5 1409q0.5 28 13 51t36 38t52.5 15q26 0 51 -13.5t41 -39.5l391 -633l395 633q16 26 41.5 39.5t52.5 13.5q29 0 52 -15t35.5 -38.5t12.5 -51.5t-16 -54l-262 -416h142q32 0 53.5 -22t21.5 -54q0 -31 -21.5 -52.5t-53.5 -21.5h-236l-76 -118h312q32 0 53.5 -21.5 t21.5 -52.5q0 -32 -21.5 -54t-53.5 -22h-344v-405q0 -24 -9 -45t-24.5 -36.5t-36 -24.5t-43.5 -9t-43.5 9t-36 24.5t-24.5 36.5t-9 45v405h-334q-31 0 -52 22t-21 54q0 31 21 52.5t52 21.5h310l-74 118h-236q-32 0 -52.5 21.5t-20.5 52.5q0 32 20.5 54t52.5 22h142l-260 416 q-16 27 -15.5 55z" />
<glyph unicode="&#xa6;" horiz-adv-x="399" d="M92 0v582q0 22 8.5 41.5t22.5 34.5t34 23.5t42 8.5t41.5 -8.5t34.5 -23.5t23.5 -34.5t8.5 -41.5v-582q0 -22 -8.5 -42t-23.5 -35t-34.5 -23.5t-41.5 -8.5t-42 8.5t-34 23.5t-22.5 35t-8.5 42zM92 1034v582q0 22 8.5 41.5t22.5 34.5t34 23.5t42 8.5t41.5 -8.5t34.5 -23.5 t23.5 -34.5t8.5 -41.5v-582q0 -22 -8.5 -41.5t-23.5 -34.5t-34.5 -23.5t-41.5 -8.5t-42 8.5t-34 23.5t-22.5 34.5t-8.5 41.5z" />
<glyph unicode="&#xa7;" horiz-adv-x="1102" d="M61 178q0 24 9.5 43.5t25 34t34.5 22t38 7.5q25 0 47 -14.5t35 -45.5q17 -43 41.5 -81t61.5 -66t89 -44t123 -16q65 0 114.5 15.5t82.5 41t50 58t17 66.5q0 51 -32 82.5t-83.5 52t-118 34.5t-136 30t-136 38.5t-118 61t-83.5 97t-32 146.5q5 96 54 164.5t139 106.5 q-42 19 -77 44.5t-61 60.5t-40.5 80t-14.5 103q4 75 35.5 133.5t87.5 99t135.5 62t179.5 21.5q47 0 100 -7t105 -21.5t99.5 -37t84 -53.5t58.5 -71.5t22 -90.5q0 -23 -10 -41.5t-26.5 -32t-37.5 -21t-42 -7.5q-26 0 -49 13t-35 42q-16 39 -36.5 67.5t-51 47t-74.5 28 t-107 9.5q-62 0 -107 -11t-74 -30t-42.5 -44.5t-13.5 -54.5q0 -48 32 -79t85 -52t120 -36.5t137.5 -33t137.5 -42t120 -63t85 -95.5t32 -141q0 -51 -13 -94.5t-36.5 -79t-55.5 -64t-71 -49.5q38 -20 70 -45t55.5 -58t37 -74.5t13.5 -94.5q0 -94 -42 -161.5t-109.5 -111 t-152.5 -64t-171 -20.5q-100 0 -176 19t-132 49.5t-93.5 68.5t-60.5 75.5t-32.5 70.5t-9.5 53zM291 741q0 -34 16 -58.5t44 -43.5t67 -33t84 -26q67 -10 126.5 1t104 36.5t70.5 62t26 78.5q0 47 -26.5 77t-71 50t-102.5 33t-121 26q-57 -3 -98 -24.5t-67.5 -52t-39 -64.5 t-12.5 -62z" />
<glyph unicode="&#xa8;" horiz-adv-x="715" d="M80 1460q0 23 8.5 42.5t23.5 34.5t34.5 23.5t41.5 8.5t41.5 -8.5t34 -23.5t23 -34.5t8.5 -42.5q0 -21 -8.5 -40.5t-23 -34t-34 -23t-41.5 -8.5t-41.5 8.5t-34.5 23t-23.5 34t-8.5 40.5zM418 1460q0 23 8.5 42.5t23.5 34.5t34.5 23.5t41.5 8.5t41.5 -8.5t34 -23.5 t23 -34.5t8.5 -42.5q0 -21 -8.5 -40.5t-23 -34t-34 -23t-41.5 -8.5t-41.5 8.5t-34.5 23t-23.5 34t-8.5 40.5z" />
<glyph unicode="&#xa9;" horiz-adv-x="1841" d="M113 809q0 111 29 214t81.5 192.5t126 163.5t163.5 126.5t193 81.5t214 29t214.5 -29t193.5 -81.5t164 -126.5t126.5 -163.5t81.5 -192.5t29 -214q0 -112 -29 -215.5t-81.5 -193t-126.5 -163.5t-164 -126.5t-193 -81.5t-215 -29q-111 0 -214 29t-193 81.5t-163.5 126.5 t-126 163.5t-81.5 193t-29 215.5zM211 809q0 -98 25.5 -188.5t71.5 -169t110.5 -143.5t143 -111t169 -71.5t187.5 -25.5q98 0 188 25.5t168.5 71.5t143 111t110.5 143.5t71 169t25 188.5q0 97 -25 187.5t-71 169t-110.5 143t-143 110.5t-168.5 71.5t-188 25.5 q-97 0 -187.5 -25.5t-169 -71.5t-143 -110.5t-110.5 -143t-71.5 -169t-25.5 -187.5zM477 807q0 98 27.5 189t82.5 160.5t137.5 111t193.5 41.5q57 0 108 -15t94.5 -39.5t78.5 -55.5t59.5 -63.5t37.5 -63.5t13 -56q0 -17 -7 -31t-18.5 -24t-25.5 -15.5t-29 -5.5 q-23 0 -42.5 13t-27.5 36q-11 32 -31 64.5t-50 58.5t-69.5 42.5t-90.5 16.5q-60 0 -112.5 -26t-92 -73.5t-62 -114.5t-22.5 -150q0 -82 22.5 -149t62 -114.5t92 -73.5t112.5 -26q52 0 92.5 16t70.5 42t49 58.5t29 66.5q6 26 26.5 37.5t43.5 11.5q15 0 29 -5t25.5 -14.5 t18.5 -23t7 -31.5q0 -19 -9.5 -48t-29.5 -61.5t-51.5 -65.5t-75 -60t-99.5 -43.5t-126 -16.5q-111 0 -193.5 42t-137.5 111.5t-82.5 159.5t-27.5 187z" />
<glyph unicode="&#xaa;" horiz-adv-x="840" d="M41 1006q0 69 28 116.5t74.5 78.5t107 47.5t126.5 23.5q55 8 93.5 16.5t62.5 21t34.5 29t10.5 39.5q0 31 -14.5 50t-37 29.5t-50.5 14t-54 3.5q-74 0 -116.5 -23t-57.5 -63q-22 -52 -68 -52q-31 0 -55.5 17.5t-24.5 48.5q0 45 27.5 84t72.5 67.5t103 45t119 16.5 q69 0 128.5 -15t103.5 -44.5t69 -73.5t25 -103v-526q0 -37 -25 -61.5t-59 -24.5q-35 0 -59.5 23t-26.5 57q-56 -47 -121.5 -63.5t-134.5 -16.5q-48 0 -97.5 14.5t-90.5 44.5t-67 74.5t-26 104.5zM203 1006q0 -28 14 -46.5t36.5 -29.5t50 -15t54.5 -4q38 0 77 9.5t71 29.5 t52 50.5t20 72.5v94l-33 -8q-23 -6 -57.5 -10.5t-72.5 -10t-76 -14.5t-68 -24t-49 -37.5t-19 -56.5z" />
<glyph unicode="&#xab;" horiz-adv-x="911" d="M51.5 654.5q1.5 38.5 32.5 70.5l229 227q29 29 66.5 28.5t64.5 -26.5q14 -13 21 -29.5t7 -34.5t-7 -35.5t-21 -31.5l-170 -168l170 -170q14 -15 21 -32.5t7 -35.5t-7 -35t-21 -30q-27 -26 -64.5 -26t-66.5 28l-229 230q-34 32 -32.5 70.5zM440.5 654.5 q1.5 38.5 32.5 70.5l229 227q28 29 65.5 28.5t63.5 -26.5q14 -13 21 -29.5t7 -34.5t-7 -35.5t-21 -31.5l-167 -168l167 -170q14 -15 21 -32.5t7 -35.5t-7 -35t-21 -30q-26 -26 -63.5 -26t-65.5 28l-229 230q-34 32 -32.5 70.5z" />
<glyph unicode="&#xad;" horiz-adv-x="817" d="M51 723q0 40 28.5 69t72.5 29h516q21 0 38.5 -8t31 -21.5t21 -31t7.5 -37.5q0 -19 -7.5 -36.5t-21 -30.5t-31 -21t-38.5 -8h-516q-22 0 -40.5 8t-32 21t-21 30.5t-7.5 36.5z" />
<glyph unicode="&#xae;" horiz-adv-x="1303" d="M72 1067q0 120 45.5 225t124.5 183.5t184 124t225 45.5t225.5 -45.5t184.5 -124t124.5 -183.5t45.5 -225t-45.5 -225.5t-124.5 -184t-184.5 -124.5t-225.5 -46t-225 46t-184 124.5t-124.5 184t-45.5 225.5zM166 1067q0 -100 38 -188.5t104 -154.5t154.5 -104t188.5 -38 t188 38t154 104t104 154.5t38 188.5t-38 188t-104 153.5t-154 103.5t-188 38t-188.5 -38t-154.5 -103.5t-104 -153.5t-38 -188zM395 801v526q0 31 21.5 51.5t50.5 20.5h272q39 0 74 -15t61 -41.5t41 -61.5t15 -75q0 -21 -6 -42.5t-18.5 -41t-32.5 -35.5t-48 -24 q31 -16 47 -36.5t21 -43.5q6 -38 10 -72q4 -29 7 -59t3 -49q0 -23 -15.5 -41.5t-41.5 -18.5q-29 0 -41 19.5t-16.5 49t-6 64t-10.5 64.5q-9 32 -33 54t-69 22h-172v-215q0 -23 -17 -40.5t-38 -17.5q-23 0 -40.5 17.5t-17.5 40.5zM508 1118h219q19 0 35.5 7t28.5 19t19 28 t7 34q0 38 -26 65t-64 27h-219v-180z" />
<glyph unicode="&#xaf;" horiz-adv-x="813" d="M82 1458q0 18 7 33.5t18.5 27t26.5 18.5t32 7h481q17 0 32 -7t26.5 -18.5t18.5 -27t7 -33.5t-7 -33t-18.5 -26.5t-26.5 -18t-32 -6.5h-481q-17 0 -32 6.5t-26.5 18t-18.5 26.5t-7 33z" />
<glyph unicode="&#xb0;" horiz-adv-x="786" d="M82 1231q0 65 24.5 121.5t66.5 98.5t99 66.5t121 24.5q65 0 121.5 -24.5t99 -66.5t67 -98.5t24.5 -121.5q0 -64 -24.5 -121t-67 -99t-99 -66.5t-121.5 -24.5q-64 0 -121 24.5t-99 66.5t-66.5 99t-24.5 121zM215 1231q0 -38 14 -70.5t38 -56.5t56.5 -37.5t69.5 -13.5 q38 0 71 13.5t57 37.5t38 56.5t14 70.5t-14 70.5t-38 57t-57 38.5t-71 14q-37 0 -69.5 -14t-56.5 -38.5t-38 -57t-14 -70.5z" />
<glyph unicode="&#xb1;" horiz-adv-x="958" d="M51 106q0 38 27 65.5t69 27.5h666q20 0 37 -7.5t30 -20t20 -29.5t7 -36q0 -18 -7 -35t-20 -29.5t-30 -20t-37 -7.5h-666q-21 0 -38.5 7.5t-30 20t-20 29.5t-7.5 35zM51 688q0 38 27.5 65t68.5 27h238v238q0 21 7.5 38.5t20 30t29.5 20t35 7.5q19 0 36 -7.5t30 -20 t20.5 -30t7.5 -38.5v-238h242q20 0 37 -7t30 -19.5t20 -29.5t7 -36q0 -18 -7 -35t-20 -29.5t-30 -20t-37 -7.5h-242v-246q0 -19 -7.5 -36t-20.5 -29.5t-30 -19.5t-36 -7q-18 0 -35 7t-29.5 19.5t-20 29.5t-7.5 36v246h-238q-21 0 -38.5 7.5t-30 20t-20 29.5t-7.5 35z" />
<glyph unicode="&#xb2;" horiz-adv-x="694" d="M51 848q0 53 31.5 97.5t78.5 82.5t102 71.5t102 65.5t78.5 64t31.5 67q0 29 -11 51t-29 36.5t-41.5 22t-49.5 7.5q-24 0 -48.5 -7t-43.5 -20t-31 -32.5t-12 -44.5q0 -42 -23 -62t-49 -20q-29 0 -52.5 20t-23.5 62q0 54 25 99t65 77t91 49.5t102 17.5q62 0 113 -18.5 t88 -52t57.5 -80.5t20.5 -105q0 -53 -27 -97t-68 -81t-90 -68t-93.5 -57.5t-77.5 -50t-42 -45.5h326q29 0 49.5 -19.5t20.5 -50.5q0 -13 -5.5 -25t-15 -22t-22 -16t-27.5 -6h-416q-38 0 -61 26.5t-23 63.5z" />
<glyph unicode="&#xb3;" horiz-adv-x="707" d="M51 969q0 37 22.5 55t47.5 18q26 0 48 -16t24 -45q6 -56 48.5 -80t108.5 -24q26 0 51 7t44 20.5t30.5 34t11.5 48.5q0 69 -42.5 96t-127.5 27q-29 0 -44 20.5t-15 43.5q0 24 15 44.5t44 20.5q85 0 118.5 22.5t33.5 67.5q0 18 -10 34.5t-27 29t-39 19.5t-47 7 q-53 0 -89.5 -21.5t-51.5 -80.5q-8 -25 -26 -39t-40 -14q-32 0 -52.5 19.5t-20.5 57.5q0 22 14 57.5t46.5 69.5t86 59t133.5 25q62 0 111 -16.5t83.5 -46t53 -70.5t18.5 -90q0 -37 -15 -78.5t-58 -72.5q19 -11 36.5 -27.5t30.5 -39.5t21 -54t8 -70q0 -61 -24 -107 t-63.5 -76.5t-91 -45.5t-106.5 -15q-75 0 -131 19t-93.5 50.5t-56 72.5t-18.5 84z" />
<glyph unicode="&#xb4;" horiz-adv-x="571" d="M92 1352q0 37 25 61l186 191q17 18 30 28t23.5 15t20.5 6.5t20 1.5q12 0 26.5 -6t27 -17.5t20.5 -27.5t8 -37q0 -31 -13 -52t-26 -32l-204 -185q-13 -12 -30 -18t-34 -6q-12 0 -26 4.5t-26 13.5t-20 24t-8 36z" />
<glyph unicode="&#xb6;" horiz-adv-x="1210" d="M31 1245q0 80 30 148t82.5 117.5t124 77.5t154.5 28h577q20 0 38 -7.5t31.5 -21t21.5 -32t8 -39.5v-1852q0 -42 -29 -70t-70 -28q-19 0 -36.5 7.5t-30.5 21t-21 31t-8 38.5v1778h-188v-1778q0 -42 -29 -70t-70 -28q-19 0 -36.5 7.5t-30.5 21t-21 31t-8 38.5v1210h-98 q-83 0 -154.5 28t-124 77.5t-82.5 117.5t-30 148zM217 1245q0 -43 14.5 -79t41.5 -62t65 -40.5t84 -14.5h98v393h-98q-46 0 -84 -14.5t-65 -41t-41.5 -62.5t-14.5 -79z" />
<glyph unicode="&#xb7;" horiz-adv-x="438" d="M72 834q0 30 11.5 57t31.5 47t46.5 31.5t57.5 11.5t58 -11.5t47 -31.5t31.5 -47t11.5 -57q0 -31 -11.5 -58t-31.5 -47t-47 -31.5t-58 -11.5t-57.5 11.5t-46.5 31.5t-31.5 47t-11.5 58z" />
<glyph unicode="&#xb8;" horiz-adv-x="659" d="M82 -455q0 16 12 30.5t35 12.5q15 0 30 -4t30.5 -9t32.5 -9t38 -4q27 0 51 6t41.5 18t28 31t10.5 45q0 38 -27.5 60t-82.5 22q-19 0 -39 -2t-47 -10q-16 -5 -25 3.5t0 28.5l117 234h110l-61 -145q43 0 86.5 -10.5t78 -33.5t56 -59.5t21.5 -87.5q0 -46 -17 -85t-51 -67 t-83 -43.5t-114 -15.5q-25 0 -64.5 4t-76.5 14.5t-63.5 28.5t-26.5 47z" />
<glyph unicode="&#xb9;" horiz-adv-x="434" d="M41 1346q0 18 4.5 28.5t13 17.5t19 12t22.5 11q37 18 54 40t28.5 42t24.5 33.5t41 13.5q37 0 55.5 -24.5t18.5 -53.5v-630q0 -32 -23 -55t-55 -23q-29 0 -51.5 23t-22.5 55v450h-66q-27 0 -45 17t-18 43z" />
<glyph unicode="&#xba;" horiz-adv-x="901" d="M51 1186q0 102 30 182t83.5 135t127 84t159.5 29t159 -29t126.5 -84t83.5 -135t30 -182t-30 -182t-83.5 -134.5t-126.5 -83t-159 -28.5t-159.5 28.5t-127 83t-83.5 134.5t-30 182zM215 1186q0 -75 18 -129.5t49.5 -89.5t75 -51.5t93.5 -16.5t93 16.5t74.5 51.5t49.5 89.5 t18 129.5q0 76 -18 130.5t-49.5 90t-74.5 52t-93 16.5t-93.5 -16.5t-75 -52t-49.5 -90t-18 -130.5z" />
<glyph unicode="&#xbb;" horiz-adv-x="911" d="M52 417q0 18 7 35.5t21 32.5l168 170l-168 168q-14 14 -21 31.5t-7 35.5t7 34.5t21 29.5q13 13 29.5 20t34 7t34.5 -7t31 -22l229 -227q31 -32 32.5 -70.5t-32.5 -70.5l-229 -230q-14 -14 -31 -21t-34.5 -7t-34 6.5t-29.5 19.5q-14 13 -21 30t-7 35zM439 417q0 18 7 35.5 t21 32.5l170 170l-170 168q-14 14 -21 31.5t-7 35.5t7 34.5t21 29.5q28 26 65 26.5t66 -28.5l229 -227q31 -32 32.5 -70.5t-32.5 -70.5l-229 -230q-29 -28 -66 -28t-65 26q-14 13 -21 30t-7 35z" />
<glyph unicode="&#xbc;" horiz-adv-x="1059" d="M41 1346q0 18 4.5 28.5t13 17.5t19 12t22.5 11q37 18 54 40t28.5 42t24.5 33.5t41 13.5q37 0 55.5 -24.5t18.5 -53.5v-628q0 -32 -23 -55t-55 -23q-29 0 -51.5 23t-22.5 55v448h-66q-27 0 -45 17t-18 43zM53 74q0 22 13 47l745 1378q12 26 33 35.5t41 9.5q10 0 23.5 -3.5 t26 -12.5t21.5 -24.5t9 -39.5q0 -11 -2 -22t-7 -21l-749 -1376q-13 -22 -30 -33.5t-42 -11.5q-37 0 -59.5 21t-22.5 53zM471 270q0 19 4.5 32t13.5 26l316 413q17 22 35 31.5t37 9.5q31 0 53 -21t22 -59v-387h27q29 0 49.5 -20t20.5 -49q0 -28 -20.5 -48t-49.5 -20h-27v-100 q0 -32 -20.5 -55t-54.5 -23q-15 0 -28.5 6t-24 16.5t-17 25t-6.5 30.5v100h-234q-42 0 -69 26t-27 66zM651 315h150v197z" />
<glyph unicode="&#xbd;" horiz-adv-x="1278" d="M41 1346q0 18 4.5 28.5t13 17.5t19 12t22.5 11q37 18 54 40t28.5 42t24.5 33.5t41 13.5q37 0 55.5 -24.5t18.5 -53.5v-628q0 -32 -23 -55t-55 -23q-29 0 -51.5 23t-22.5 55v448h-66q-27 0 -45 17t-18 43zM53 74q0 22 13 47l745 1378q12 26 33 35.5t41 9.5q10 0 23.5 -3.5 t26 -12.5t21.5 -24.5t9 -39.5q0 -11 -2 -22t-7 -21l-749 -1376q-13 -22 -30 -33.5t-42 -11.5q-37 0 -59.5 21t-22.5 53zM635 90q0 53 31.5 97.5t78.5 82.5t102 72t102 66t78.5 64t31.5 67q0 29 -11 50.5t-29.5 36t-42 22t-48.5 7.5t-49 -7t-43 -20t-31 -32.5t-12 -44.5 q0 -41 -23 -61.5t-49 -20.5q-29 0 -52.5 20t-23.5 62q0 54 25 99t65 77.5t91 50t102 17.5q62 0 113 -18.5t87.5 -52t57 -81t20.5 -104.5q0 -53 -27 -97t-68 -81t-90 -68t-93 -58t-77 -50.5t-42 -45.5h326q29 0 49 -19t20 -50q0 -26 -20 -48t-49 -22h-416q-38 0 -61 26.5 t-23 63.5z" />
<glyph unicode="&#xbe;" horiz-adv-x="1317" d="M51 969q0 37 22.5 55t47.5 18q26 0 47 -16t25 -45q5 -56 48 -80t109 -24q26 0 51 7t44 20.5t30.5 34t11.5 48.5q0 69 -42.5 96t-127.5 27q-29 0 -44 20.5t-15 43.5q0 24 15 44.5t44 20.5q85 0 118.5 22.5t33.5 67.5q0 18 -10 34.5t-27 29t-39 19.5t-47 7 q-53 0 -89.5 -21.5t-51.5 -80.5q-8 -25 -27 -39t-39 -14q-32 0 -52.5 19.5t-20.5 57.5q0 22 14 57.5t46.5 69.5t86 59t133.5 25q62 0 111 -16.5t83.5 -46t53 -70.5t18.5 -90q0 -37 -15 -78.5t-58 -72.5q19 -11 36.5 -27.5t30.5 -39.5t21 -54t8 -70q0 -61 -24 -107 t-63.5 -76.5t-91 -45.5t-106.5 -15q-75 0 -131 19t-93.5 50.5t-56 72.5t-18.5 84zM311 74q0 22 13 47l745 1378q12 26 33 35.5t41 9.5q10 0 23.5 -3.5t26 -12.5t21.5 -24.5t9 -39.5q0 -11 -2 -22t-7 -21l-749 -1376q-25 -45 -72 -45q-37 0 -59.5 21t-22.5 53zM729 270 q0 19 4.5 32t14.5 26l315 413q17 22 35 31.5t37 9.5q31 0 53 -21t22 -59v-387h27q29 0 49.5 -20t20.5 -49q0 -28 -20.5 -48t-49.5 -20h-27v-100q0 -32 -20.5 -55t-54.5 -23q-15 0 -28.5 6t-24 16.5t-17 25t-6.5 30.5v100h-234q-42 0 -69 26t-27 66zM909 315h150v197z" />
<glyph unicode="&#xbf;" horiz-adv-x="1137" d="M82 -20q0 99 31.5 171t79 127.5t102.5 100t102.5 90t79 97t31.5 120.5q0 21 6.5 42t18.5 37.5t29.5 27t39.5 10.5q23 0 40.5 -10.5t29.5 -27t18 -37.5t6 -42q0 -94 -30 -162t-75 -120.5t-97.5 -96t-97.5 -89.5t-75 -100t-30 -128q0 -54 21.5 -99.5t58.5 -78.5t86.5 -51.5 t105.5 -18.5q70 0 125.5 19t94 55t59 87.5t20.5 116.5q0 24 10 40.5t25.5 26.5t34.5 14.5t37 4.5q40 0 68 -31t28 -85q0 -31 -11 -75.5t-35.5 -92.5t-63.5 -95.5t-95 -85.5t-129.5 -61.5t-167.5 -23.5q-95 0 -182 28t-153.5 82t-106 133t-39.5 181zM455 1053q0 31 11.5 57.5 t31.5 46.5t46.5 31.5t57.5 11.5t58 -11.5t47 -31.5t31.5 -46.5t11.5 -57.5t-11.5 -58t-31.5 -47t-47 -31.5t-58 -11.5t-57.5 11.5t-46.5 31.5t-31.5 47t-11.5 58z" />
<glyph unicode="&#xc0;" horiz-adv-x="1319" d="M13 96q-6 30 7 66l484 1366q18 52 58 83t97 31t97.5 -31t58.5 -83l483 -1366q13 -36 7 -66t-24 -51t-44.5 -33t-54.5 -12q-34 0 -64.5 19t-44.5 61l-135 401h-557l-135 -401q-14 -42 -44.5 -61t-64.5 -19q-28 0 -55 12t-45 33t-24 51zM330 2007q0 21 8 37t20.5 27.5 t27 17.5t26.5 6q11 0 20.5 -1.5t20 -6.5t23.5 -15t30 -28l186 -191q25 -24 25 -61q0 -21 -8 -35.5t-20 -24t-26 -14t-26 -4.5q-17 0 -34 6t-30 19l-204 184q-13 11 -26 32t-13 52zM455 698h407l-203 602z" />
<glyph unicode="&#xc1;" horiz-adv-x="1298" d="M3 96q-6 30 7 66l484 1366q18 52 58 83t97 31t97 -31t59 -83l483 -1366q13 -36 7 -66t-24 -51t-44.5 -33t-55.5 -12q-34 0 -64 19t-44 61l-135 401h-557l-135 -401q-14 -42 -44.5 -61t-64.5 -19q-28 0 -55 12t-45 33t-24 51zM444 698h408l-203 602zM584 1792q0 37 24 61 l187 191q17 18 29.5 28t23.5 15t20.5 6.5t20.5 1.5q12 0 26.5 -6t27 -17.5t20.5 -27.5t8 -37q0 -31 -13.5 -52t-25.5 -32l-205 -184q-12 -13 -29 -19t-34 -6q-12 0 -26 4.5t-26 14t-20 24t-8 35.5z" />
<glyph unicode="&#xc2;" horiz-adv-x="1298" d="M3 96q-6 30 7 66l484 1366q18 52 58 83t97 31t97 -31t59 -83l483 -1366q13 -36 7 -66t-24 -51t-44.5 -33t-55.5 -12q-34 0 -64 19t-44 61l-135 401h-557l-135 -401q-14 -42 -44.5 -61t-64.5 -19q-28 0 -55 12t-45 33t-24 51zM324 1792q0 40 24 61l225 226q14 14 28.5 23 t33.5 9q18 0 32.5 -9t28.5 -23l226 -226q12 -11 18 -25.5t6 -27.5q0 -10 -4.5 -25t-14 -28.5t-24.5 -23t-37 -9.5q-39 0 -63 25l-168 170l-168 -170q-12 -13 -29.5 -19t-34.5 -6q-12 0 -26 4.5t-25.5 14t-19.5 24t-8 35.5zM444 698h408l-203 602z" />
<glyph unicode="&#xc3;" horiz-adv-x="1319" d="M13 96q-6 30 7 66l484 1366q18 52 58 83t97 31t97.5 -31t58.5 -83l483 -1366q13 -36 7 -66t-24 -51t-44.5 -33t-54.5 -12q-34 0 -64.5 19t-44.5 61l-135 401h-557l-135 -401q-14 -42 -44.5 -61t-64.5 -19q-28 0 -55 12t-45 33t-24 51zM328 1882q0 28 14 51t37 39.5 t51.5 25.5t58.5 9q48 0 77 -9t52 -20.5t47.5 -20.5t61.5 -9q21 0 34 8.5t25 19t26 19t38 8.5q20 0 37.5 -7t31 -20t21.5 -30t8 -37q0 -29 -14 -52t-37 -38.5t-52.5 -24t-60.5 -8.5q-36 0 -70.5 9t-64.5 19.5t-55 19.5t-43 9q-20 0 -32 -8.5t-24 -19t-26.5 -19t-40.5 -8.5 q-20 0 -38 7.5t-32 20.5t-22 30t-8 36zM455 698h407l-203 602z" />
<glyph unicode="&#xc4;" horiz-adv-x="1319" d="M13 96q-6 30 7 66l484 1366q18 52 58 83t97 31t97.5 -31t58.5 -83l483 -1366q13 -36 7 -66t-24 -51t-44.5 -33t-54.5 -12q-34 0 -64.5 19t-44.5 61l-135 401h-557l-135 -401q-14 -42 -44.5 -61t-64.5 -19q-28 0 -55 12t-45 33t-24 51zM369 1901q0 22 8.5 41.5t23.5 34.5 t34.5 23.5t41.5 8.5t41.5 -8.5t34 -23.5t23 -34.5t8.5 -41.5t-8.5 -41.5t-23 -34t-34 -23t-41.5 -8.5t-41.5 8.5t-34.5 23t-23.5 34t-8.5 41.5zM455 698h407l-203 602zM707 1901q0 22 8.5 41.5t23.5 34.5t34.5 23.5t41.5 8.5q21 0 40.5 -8.5t34.5 -23.5t23.5 -34.5 t8.5 -41.5t-8.5 -41.5t-23.5 -34t-34.5 -23t-40.5 -8.5q-22 0 -41.5 8.5t-34.5 23t-23.5 34t-8.5 41.5z" />
<glyph unicode="&#xc5;" horiz-adv-x="1319" d="M13 96q-6 30 7 66l484 1366q18 52 58 83t97 31t97.5 -31t58.5 -83l483 -1366q13 -36 7 -66t-24 -51t-44.5 -33t-54.5 -12q-34 0 -64.5 19t-44.5 61l-135 401h-557l-135 -401q-14 -42 -44.5 -61t-64.5 -19q-28 0 -55 12t-45 33t-24 51zM416 1921q0 48 18 90.5t49.5 73.5 t73.5 49t90 18q49 0 92 -18t74.5 -49t49.5 -73.5t18 -90.5t-18 -90.5t-49.5 -74t-74.5 -50t-92 -18.5q-48 0 -90 18.5t-73.5 50t-49.5 74t-18 90.5zM455 698h407l-203 602zM539 1921q0 -22 8.5 -42t23.5 -35t34.5 -23.5t41.5 -8.5q23 0 42.5 8.5t34.5 23.5t23.5 35t8.5 42 t-8.5 42t-23.5 35t-34.5 23.5t-42.5 8.5q-22 0 -41.5 -8.5t-34.5 -23.5t-23.5 -35t-8.5 -42z" />
<glyph unicode="&#xc6;" horiz-adv-x="2241" d="M-8.5 108q-3.5 32 14.5 68l682 1346q23 46 63.5 70t94.5 24h1235q22 0 41.5 -8t34.5 -22.5t23.5 -34.5t8.5 -44t-8.5 -43.5t-23.5 -34t-34.5 -22.5t-41.5 -8h-860v-443h753q23 0 42.5 -8t34.5 -22.5t23.5 -34t8.5 -43.5t-8.5 -44t-23.5 -34.5t-34.5 -22.5t-42.5 -8h-753 v-522h860q22 0 41.5 -8t34.5 -22.5t23.5 -34t8.5 -43.5t-8.5 -44t-23.5 -34.5t-34.5 -22.5t-41.5 -8h-940q-30 0 -59 11t-52 32t-37 51t-14 68v323h-553l-201 -409q-18 -38 -48.5 -57t-59.5 -19q-31 0 -59 14t-45.5 38t-21 56zM532 702h447v697h-105z" />
<glyph unicode="&#xc7;" horiz-adv-x="1511" d="M72 809q0 109 20.5 213t61 197t101.5 171t142.5 134.5t184 88.5t225.5 32q90 0 169 -21t146 -55.5t121 -80t95 -94.5t67.5 -98t38.5 -92q10 -37 3.5 -67t-23.5 -51t-42.5 -32.5t-54.5 -11.5q-34 0 -65 19t-43 61q-16 52 -50 106t-86 98.5t-121 72.5t-155 28 q-105 0 -195.5 -42.5t-157 -122t-104 -194.5t-37.5 -259t37.5 -259.5t104 -195.5t157 -123t195.5 -43q86 0 155 28.5t121 73t86 98.5t50 106q12 42 43 60.5t65 18.5q29 0 54.5 -11.5t42.5 -32.5t23.5 -50.5t-3.5 -66.5q-17 -60 -63.5 -132t-120 -136.5t-172 -111.5 t-220.5 -57l-51 -122q43 0 86.5 -10.5t78 -33.5t56 -59.5t21.5 -87.5q0 -46 -17 -85t-50.5 -67t-82.5 -43.5t-114 -15.5q-17 0 -41 1.5t-49.5 5.5t-51 11t-45.5 17.5t-32.5 25t-12.5 33.5q0 16 12 30.5t35 12.5q15 0 30 -4t30.5 -9t32.5 -9t38 -4q27 0 51 6t41.5 18t28 31 t10.5 45q0 38 -27 60t-83 22q-19 0 -38.5 -2t-47.5 -10q-16 -5 -25 3.5t0 28.5l105 209q-115 7 -210 42.5t-171 93t-133 135t-94.5 168t-56.5 191.5t-19 206z" />
<glyph unicode="&#xc8;" horiz-adv-x="1354" d="M102 162q0 -38 14 -68t37 -51t52 -32t59 -11h940q23 0 42.5 8t34.5 22.5t23.5 34.5t8.5 44t-8.5 43.5t-23.5 34t-34.5 22.5t-42.5 8h-860v522h754q22 0 41.5 8t34.5 22.5t23.5 34.5t8.5 44t-8.5 43.5t-23.5 34t-34.5 22.5t-41.5 8h-754v443h860q23 0 42.5 8t34.5 22.5 t23.5 34t8.5 43.5t-8.5 44t-23.5 34.5t-34.5 22.5t-42.5 8h-940q-30 0 -59 -11t-52 -32t-37 -51t-14 -68v-1292zM426 2007q0 21 8 37t20.5 27.5t27 17.5t26.5 6q11 0 20.5 -1.5t20.5 -6.5t23.5 -15t29.5 -28l186 -191q25 -24 25 -61q0 -21 -8 -35.5t-20 -24t-26 -14 t-26 -4.5q-17 0 -34 6t-29 19l-205 184q-12 11 -25.5 32t-13.5 52z" />
<glyph unicode="&#xc9;" horiz-adv-x="1374" d="M113 162v1292q0 38 14 68t37 51t51.5 32t58.5 11h940q23 0 42.5 -8t34.5 -22.5t23.5 -34.5t8.5 -44t-8.5 -43.5t-23.5 -34t-34.5 -22.5t-42.5 -8h-860v-443h754q22 0 42 -8t35 -22.5t23.5 -34t8.5 -43.5t-8.5 -44t-23.5 -34.5t-35 -22.5t-42 -8h-754v-522h860 q23 0 42.5 -8t34.5 -22.5t23.5 -34t8.5 -43.5t-8.5 -44t-23.5 -34.5t-34.5 -22.5t-42.5 -8h-940q-30 0 -58.5 11t-51.5 32t-37 51t-14 68zM662 1792q0 37 24 61l186 191q17 18 30 28t24 15t20.5 6.5t20.5 1.5q12 0 26.5 -6t26.5 -17.5t20.5 -27.5t8.5 -37q0 -31 -13.5 -52 t-25.5 -32l-205 -184q-13 -13 -30 -19t-34 -6q-12 0 -26 4.5t-25.5 14t-19.5 24t-8 35.5z" />
<glyph unicode="&#xca;" horiz-adv-x="1354" d="M102 162v1292q0 38 14 68t37 51t52 32t59 11h940q23 0 42.5 -8t34.5 -22.5t23.5 -34.5t8.5 -44t-8.5 -43.5t-23.5 -34t-34.5 -22.5t-42.5 -8h-860v-443h754q22 0 41.5 -8t34.5 -22.5t23.5 -34t8.5 -43.5t-8.5 -44t-23.5 -34.5t-34.5 -22.5t-41.5 -8h-754v-522h860 q23 0 42.5 -8t34.5 -22.5t23.5 -34t8.5 -43.5t-8.5 -44t-23.5 -34.5t-34.5 -22.5t-42.5 -8h-940q-30 0 -59 11t-52 32t-37 51t-14 68zM397 1792q0 39 25 61l225 226q14 14 28.5 23t33.5 9q18 0 32.5 -9t28.5 -23l225 -226q13 -11 19 -25.5t6 -27.5q0 -10 -4.5 -25t-14 -28.5 t-25 -23t-36.5 -9.5q-39 0 -63 25l-168 170l-168 -170q-13 -13 -30 -19t-34 -6q-12 0 -26 4.5t-26 14t-20 24t-8 35.5z" />
<glyph unicode="&#xcb;" horiz-adv-x="1354" d="M102 162v1292q0 38 14 68t37 51t52 32t59 11h940q23 0 42.5 -8t34.5 -22.5t23.5 -34.5t8.5 -44t-8.5 -43.5t-23.5 -34t-34.5 -22.5t-42.5 -8h-860v-443h754q22 0 41.5 -8t34.5 -22.5t23.5 -34t8.5 -43.5t-8.5 -44t-23.5 -34.5t-34.5 -22.5t-41.5 -8h-754v-522h860 q23 0 42.5 -8t34.5 -22.5t23.5 -34t8.5 -43.5t-8.5 -44t-23.5 -34.5t-34.5 -22.5t-42.5 -8h-940q-30 0 -59 11t-52 32t-37 51t-14 68zM434 1901q0 22 8.5 41.5t23.5 34.5t35 23.5t42 8.5q21 0 40.5 -8.5t34 -23.5t23 -34.5t8.5 -41.5t-8.5 -41.5t-23 -34t-34 -23t-40.5 -8.5 q-22 0 -42 8.5t-35 23t-23.5 34t-8.5 41.5zM772 1901q0 22 8.5 41.5t23.5 34.5t35 23.5t42 8.5q21 0 40.5 -8.5t34 -23.5t23 -34.5t8.5 -41.5t-8.5 -41.5t-23 -34t-34 -23t-40.5 -8.5q-22 0 -42 8.5t-35 23t-23.5 34t-8.5 41.5z" />
<glyph unicode="&#xcc;" horiz-adv-x="446" d="M-88 2007q0 21 8 37t20.5 27.5t27 17.5t26.5 6q11 0 20.5 -1.5t20.5 -6.5t23.5 -15t29.5 -28l186 -191q25 -24 25 -61q0 -21 -8 -35.5t-20 -24t-26 -14t-26 -4.5q-17 0 -34 6t-29 19l-205 184q-13 11 -26 32t-13 52zM102 123q0 -26 10 -48.5t26.5 -39t38.5 -26t46 -9.5 q25 0 47 9.5t38.5 26t26 39t9.5 48.5v1370q0 26 -9.5 48.5t-26 39t-38.5 26t-47 9.5q-24 0 -46 -9.5t-38.5 -26t-26.5 -39t-10 -48.5v-1370z" />
<glyph unicode="&#xcd;" horiz-adv-x="446" d="M102 123v1370q0 26 10 48.5t26.5 39t38.5 26t46 9.5q25 0 47 -9.5t38.5 -26t26 -39t9.5 -48.5v-1370q0 -26 -9.5 -48.5t-26 -39t-38.5 -26t-47 -9.5q-24 0 -46 9.5t-38.5 26t-26.5 39t-10 48.5zM147 1792q0 36 25 61l186 191q17 18 30 28t23.5 15t20.5 6.5t21 1.5 q12 0 26.5 -6t26.5 -17.5t20.5 -27.5t8.5 -37q0 -31 -13.5 -52t-25.5 -32l-205 -184q-13 -13 -30 -19t-34 -6q-12 0 -26 4.5t-26 14t-20 24t-8 35.5z" />
<glyph unicode="&#xce;" horiz-adv-x="446" d="M-88 1792q0 40 25 61l225 226q14 14 28.5 23t32.5 9q19 0 33.5 -9t28.5 -23l225 -226q12 -11 18.5 -25.5t6.5 -27.5q0 -10 -4.5 -25t-14 -28.5t-25 -23t-36.5 -9.5q-39 0 -64 25l-168 170l-168 -170q-12 -13 -29 -19t-34 -6q-12 0 -26 4.5t-26 14t-20 24t-8 35.5z M104 123v1370q0 26 10 48.5t26.5 39t38.5 26t46 9.5q25 0 47 -9.5t38.5 -26t26 -39t9.5 -48.5v-1370q0 -26 -9.5 -48.5t-26 -39t-38.5 -26t-47 -9.5q-24 0 -46 9.5t-38.5 26t-26.5 39t-10 48.5z" />
<glyph unicode="&#xcf;" horiz-adv-x="446" d="M-53 1901q0 22 8.5 41.5t23.5 34.5t34.5 23.5t41.5 8.5t41.5 -8.5t34 -23.5t23 -34.5t8.5 -41.5t-8.5 -41.5t-23 -34t-34 -23t-41.5 -8.5t-41.5 8.5t-34.5 23t-23.5 34t-8.5 41.5zM102 123v1370q0 26 10 48.5t26.5 39t38.5 26t46 9.5q25 0 47 -9.5t38.5 -26t26 -39 t9.5 -48.5v-1370q0 -26 -9.5 -48.5t-26 -39t-38.5 -26t-47 -9.5q-24 0 -46 9.5t-38.5 26t-26.5 39t-10 48.5zM285 1901q0 22 8.5 41.5t23.5 34.5t34.5 23.5t41.5 8.5t41.5 -8.5t34 -23.5t23 -34.5t8.5 -41.5t-8.5 -41.5t-23 -34t-34 -23t-41.5 -8.5t-41.5 8.5t-34.5 23 t-23.5 34t-8.5 41.5z" />
<glyph unicode="&#xd0;" horiz-adv-x="1505" d="M-98 834q0 21 8 39.5t22 32.5t33 22t41 8h107v518q0 38 14 68t37 51t51.5 32t58.5 11h445q82 0 167.5 -17.5t164.5 -56.5t149 -101.5t122 -152t82 -208.5t30 -271t-30 -271t-82 -209t-122 -152.5t-149 -102t-164 -57t-168 -17.5h-445q-30 0 -58.5 11t-51.5 32t-37 51 t-14 68v569h-107q-22 0 -41 8t-33 22.5t-22 33t-8 39.5zM354 217h365q120 0 209 41.5t148 118.5t88.5 186.5t29.5 245.5t-29.5 245t-88.5 185.5t-148 118t-209 41.5h-365v-463h355q22 0 41 -8t33 -22t22 -32.5t8 -39.5t-8 -39.5t-22 -33t-33 -22.5t-41 -8h-355v-514z" />
<glyph unicode="&#xd1;" horiz-adv-x="1489" d="M113 123v1378q0 25 9.5 46t25.5 36.5t38 24t47 8.5q29 0 52 -6t44 -19.5t41 -35.5t42 -54l723 -1073v1065q0 26 9.5 48.5t26 39t38.5 26t46 9.5q25 0 47 -9.5t38.5 -26t26 -39t9.5 -48.5v-1378q0 -25 -9.5 -46t-25.5 -36.5t-38 -24t-48 -8.5q-28 0 -51 6t-44 19.5 t-41 35.5t-42 54l-723 1075v-1067q0 -26 -9.5 -48.5t-26 -39t-38.5 -26t-47 -9.5q-24 0 -46 9.5t-38.5 26t-26 39t-9.5 48.5zM442 1882q0 28 14 51t37 39.5t52 25.5t59 9q48 0 77 -9t52 -20.5t47 -20.5t62 -9q21 0 34 8.5t25 19t26 19t38 8.5q20 0 37.5 -7t31 -20t21.5 -30 t8 -37q0 -29 -14 -52t-37 -38.5t-52.5 -24t-60.5 -8.5q-36 0 -70.5 9t-64.5 19.5t-55 19.5t-43 9q-20 0 -32.5 -8.5t-24 -19t-26.5 -19t-40 -8.5q-20 0 -38.5 7.5t-32.5 20.5t-22 30t-8 36z" />
<glyph unicode="&#xd2;" horiz-adv-x="1712" d="M61 809q0 -113 25 -219t73 -199t117.5 -170t158 -132.5t194.5 -86.5t227 -31t227 31t194.5 86.5t158 132.5t117.5 170t73 199t25 219q0 112 -25 217.5t-73 198.5t-117.5 170t-158 132.5t-194.5 86.5t-227 31t-227 -31t-194.5 -86.5t-158 -132.5t-117.5 -170t-73 -198.5 t-25 -217.5zM303 809q0 141 43 255.5t117.5 195t175.5 124t217 43.5t217 -43.5t175.5 -124t117.5 -195t43 -255.5t-43 -256t-117.5 -196t-175.5 -125t-217 -44t-217 44t-175.5 125t-117.5 196t-43 256zM543 2007q0 21 8 37t20.5 27.5t27 17.5t26.5 6q11 0 20.5 -1.5t20 -6.5 t23.5 -15t30 -28l186 -191q25 -24 25 -61q0 -21 -8 -35.5t-20 -24t-26 -14t-26 -4.5q-17 0 -34 6t-30 19l-204 184q-13 11 -26 32t-13 52z" />
<glyph unicode="&#xd3;" horiz-adv-x="1712" d="M61 809q0 112 25 217.5t73 198.5t117.5 170t158 132.5t194.5 86.5t227 31t227 -31t194.5 -86.5t158 -132.5t117.5 -170t73 -198.5t25 -217.5q0 -113 -25 -219t-73 -199t-117.5 -170t-158 -132.5t-194.5 -86.5t-227 -31t-227 31t-194.5 86.5t-158 132.5t-117.5 170 t-73 199t-25 219zM303 809q0 -141 43 -256t117.5 -196t175.5 -125t217 -44t217 44t175.5 125t117.5 196t43 256t-43 255.5t-117.5 195t-175.5 124t-217 43.5t-217 -43.5t-175.5 -124t-117.5 -195t-43 -255.5zM791 1792q0 37 24 61l186 191q17 18 30 28t24 15t20.5 6.5 t20.5 1.5q12 0 26.5 -6t26.5 -17.5t20.5 -27.5t8.5 -37q0 -31 -13.5 -52t-25.5 -32l-205 -184q-12 -13 -29.5 -19t-34.5 -6q-12 0 -26 4.5t-25.5 14t-19.5 24t-8 35.5z" />
<glyph unicode="&#xd4;" horiz-adv-x="1712" d="M61 809q0 112 25 217.5t73 198.5t117.5 170t158 132.5t194.5 86.5t227 31t227 -31t194.5 -86.5t158 -132.5t117.5 -170t73 -198.5t25 -217.5q0 -113 -25 -219t-73 -199t-117.5 -170t-158 -132.5t-194.5 -86.5t-227 -31t-227 31t-194.5 86.5t-158 132.5t-117.5 170 t-73 199t-25 219zM303 809q0 -141 43 -256t117.5 -196t175.5 -125t217 -44t217 44t175.5 125t117.5 196t43 256t-43 255.5t-117.5 195t-175.5 124t-217 43.5t-217 -43.5t-175.5 -124t-117.5 -195t-43 -255.5zM551 1792q0 40 24 61l226 226q14 14 28.5 23t32.5 9 q19 0 33.5 -9t28.5 -23l225 -226q12 -11 18.5 -25.5t6.5 -27.5q0 -10 -4.5 -25t-14 -28.5t-25 -23t-36.5 -9.5q-39 0 -64 25l-168 170l-168 -170q-12 -13 -29 -19t-34 -6q-12 0 -26 4.5t-26 14t-20 24t-8 35.5z" />
<glyph unicode="&#xd5;" horiz-adv-x="1733" d="M72 809q0 112 25 217.5t73 198.5t117 170t157.5 132.5t194.5 86.5t227 31t227.5 -31t194.5 -86.5t157.5 -132.5t117.5 -170t73 -198.5t25 -217.5q0 -113 -25 -219t-73 -199t-117.5 -170t-157.5 -132.5t-194 -86.5t-228 -31q-121 0 -227 31t-194.5 86.5t-157.5 132.5 t-117 170t-73 199t-25 219zM313 809q0 -141 43 -256t117.5 -196t175.5 -125t217 -44t217 44t175.5 125t117.5 196t43 256t-43 255.5t-117.5 195t-175.5 124t-217 43.5t-217 -43.5t-175.5 -124t-117.5 -195t-43 -255.5zM545 1882q0 28 14 51t37 39.5t52 25.5t59 9 q48 0 76.5 -9t52 -20.5t47.5 -20.5t61 -9q21 0 34 8.5t25 19t26 19t38 8.5q20 0 37.5 -7t31 -20t21.5 -30t8 -37q0 -29 -14 -52t-37 -38.5t-52.5 -24t-60.5 -8.5q-36 0 -70.5 9t-64.5 19.5t-55 19.5t-43 9q-20 0 -32 -8.5t-24 -19t-26.5 -19t-40.5 -8.5q-20 0 -38 7.5 t-32 20.5t-22 30t-8 36z" />
<glyph unicode="&#xd6;" horiz-adv-x="1733" d="M72 809q0 112 25 217.5t73 198.5t117 170t157.5 132.5t194.5 86.5t227 31t227.5 -31t194.5 -86.5t157.5 -132.5t117.5 -170t73 -198.5t25 -217.5q0 -113 -25 -219t-73 -199t-117.5 -170t-157.5 -132.5t-194 -86.5t-228 -31q-121 0 -227 31t-194.5 86.5t-157.5 132.5 t-117 170t-73 199t-25 219zM313 809q0 -141 43 -256t117.5 -196t175.5 -125t217 -44t217 44t175.5 125t117.5 196t43 256t-43 255.5t-117.5 195t-175.5 124t-217 43.5t-217 -43.5t-175.5 -124t-117.5 -195t-43 -255.5zM584 1901q0 22 8.5 41.5t23.5 34.5t34.5 23.5t41.5 8.5 t41.5 -8.5t34 -23.5t23 -34.5t8.5 -41.5t-8.5 -41.5t-23 -34t-34 -23t-41.5 -8.5t-41.5 8.5t-34.5 23t-23.5 34t-8.5 41.5zM922 1901q0 22 8.5 41.5t23.5 34.5t34.5 23.5t41.5 8.5q21 0 40.5 -8.5t34.5 -23.5t23.5 -34.5t8.5 -41.5t-8.5 -41.5t-23.5 -34t-34.5 -23 t-40.5 -8.5q-22 0 -41.5 8.5t-34.5 23t-23.5 34t-8.5 41.5z" />
<glyph unicode="&#xd7;" horiz-adv-x="766" d="M53 448q0 18 6.5 35t20.5 31l172 172l-168 168q-29 31 -28.5 69.5t26.5 63.5q14 14 31.5 21t35.5 7.5t35.5 -6.5t32.5 -22l168 -168l166 166q15 15 32.5 22t35.5 7t35 -7t30 -20q14 -13 21 -30t6.5 -35t-7.5 -35.5t-22 -32.5l-166 -168l170 -170q29 -28 28.5 -66.5 t-28.5 -66.5q-12 -13 -28.5 -20t-34.5 -7t-35.5 7t-32.5 22l-170 170l-172 -172q-15 -14 -32.5 -21t-35.5 -7t-35 7t-30 21q-13 13 -20 30t-7 35z" />
<glyph unicode="&#xd8;" horiz-adv-x="1733" d="M72 809q0 112 25 217.5t73 198.5t117 170t157.5 132.5t194.5 86.5t227 31q87 0 164.5 -16.5t147.5 -45.5l79 141q12 20 28.5 32.5t35.5 18t39.5 3.5t38.5 -11q18 -10 30.5 -26.5t17.5 -35.5t2.5 -39.5t-13.5 -39.5l-82 -145q73 -58 130 -132.5t96.5 -160.5t60 -182 t20.5 -197q0 -113 -25 -219t-73 -199t-117.5 -170t-157.5 -132.5t-194 -86.5t-228 -31q-89 0 -169.5 17.5t-151.5 46.5l-66 -117q-10 -20 -26.5 -33t-35.5 -18.5t-39 -3t-38 13.5q-18 9 -30.5 25t-18 35t-3.5 39.5t13 39.5l70 125q-72 58 -127.5 132t-93.5 159.5t-58 181 t-20 195.5zM313 809q0 -149 46 -265t126 -198l584 1043q-48 18 -98.5 28t-104.5 10q-116 0 -217 -43.5t-175.5 -124t-117.5 -195t-43 -255.5zM653 229q50 -20 103 -30.5t110 -10.5q116 0 217 44t175.5 125t117.5 196t43 256q0 150 -48 268.5t-132 200.5z" />
<glyph unicode="&#xd9;" horiz-adv-x="1499" d="M102 539q0 -158 54 -266.5t144 -175t207 -95.5t243 -29t242.5 29t206.5 95.5t144 175t54 266.5v954q0 26 -10 48.5t-26.5 39t-38.5 26t-46 9.5q-25 0 -47 -9.5t-38.5 -26t-26 -39t-9.5 -48.5v-946q0 -97 -34 -163t-90.5 -106.5t-129.5 -58.5t-151 -18t-151.5 18 t-130 58.5t-90.5 106.5t-34 163v946q0 26 -9.5 48.5t-26 39t-38.5 26t-47 9.5q-24 0 -46 -9.5t-38.5 -26t-26.5 -39t-10 -48.5v-954zM436 2007q0 21 8 37t20.5 27.5t27 17.5t26.5 6q11 0 20.5 -1.5t20.5 -6.5t23.5 -15t29.5 -28l187 -191q24 -24 24 -61q0 -21 -8 -35.5 t-20 -24t-26 -14t-26 -4.5q-17 0 -34 6t-29 19l-205 184q-12 11 -25.5 32t-13.5 52z" />
<glyph unicode="&#xda;" horiz-adv-x="1499" d="M102 539v954q0 26 10 48.5t26.5 39t38.5 26t46 9.5q25 0 47 -9.5t38.5 -26t26 -39t9.5 -48.5v-946q0 -97 34 -163t90.5 -106.5t130 -58.5t151.5 -18t151 18t129.5 58.5t90.5 106.5t34 163v946q0 26 9.5 48.5t26 39t38.5 26t47 9.5q24 0 46 -9.5t38.5 -26t26.5 -39 t10 -48.5v-954q0 -158 -54 -266.5t-144 -175t-206.5 -95.5t-242.5 -29t-243 29t-207 95.5t-144 175t-54 266.5zM700 1792q0 36 25 61l186 191q17 18 30 28t23.5 15t20.5 6.5t21 1.5q12 0 26 -6t26.5 -17.5t20.5 -27.5t8 -37q0 -31 -13 -52t-25 -32l-205 -184 q-13 -13 -30 -19t-34 -6q-12 0 -26 4.5t-26 14t-20 24t-8 35.5z" />
<glyph unicode="&#xdb;" horiz-adv-x="1499" d="M102 539v954q0 26 10 48.5t26.5 39t38.5 26t46 9.5q25 0 47 -9.5t38.5 -26t26 -39t9.5 -48.5v-946q0 -97 34 -163t90.5 -106.5t130 -58.5t151.5 -18t151 18t129.5 58.5t90.5 106.5t34 163v946q0 26 9.5 48.5t26 39t38.5 26t47 9.5q24 0 46 -9.5t38.5 -26t26.5 -39 t10 -48.5v-954q0 -158 -54 -266.5t-144 -175t-206.5 -95.5t-242.5 -29t-243 29t-207 95.5t-144 175t-54 266.5zM442 1792q0 39 25 61l225 226q14 14 28.5 23t33.5 9q18 0 32.5 -9t28.5 -23l225 -226q13 -11 19 -25.5t6 -27.5q0 -10 -4.5 -25t-14 -28.5t-25 -23t-36.5 -9.5 q-39 0 -63 25l-168 170l-168 -170q-13 -13 -30 -19t-34 -6q-12 0 -26 4.5t-26 14t-20 24t-8 35.5z" />
<glyph unicode="&#xdc;" horiz-adv-x="1520" d="M113 539v954q0 26 9.5 48.5t26 39t38.5 26t46 9.5q25 0 47 -9.5t38.5 -26t26 -39t9.5 -48.5v-946q0 -97 34 -163t90.5 -106.5t130 -58.5t151.5 -18t151.5 18t129.5 58.5t90 106.5t34 163v946q0 26 10 48.5t26.5 39t38.5 26t46 9.5q25 0 47 -9.5t38.5 -26t26 -39 t9.5 -48.5v-954q0 -105 -24.5 -188t-68.5 -146t-104.5 -107t-132.5 -72t-152.5 -40.5t-164.5 -12.5t-164.5 12.5t-152.5 40.5t-132.5 72t-104.5 107t-68.5 146t-24.5 188zM483 1901q0 22 8.5 41.5t23.5 34.5t35 23.5t42 8.5q21 0 40.5 -8.5t34 -23.5t23 -34.5t8.5 -41.5 t-8.5 -41.5t-23 -34t-34 -23t-40.5 -8.5q-22 0 -42 8.5t-35 23t-23.5 34t-8.5 41.5zM821 1901q0 22 8.5 41.5t23.5 34.5t35 23.5t42 8.5q21 0 40.5 -8.5t34 -23.5t23 -34.5t8.5 -41.5t-8.5 -41.5t-23 -34t-34 -23t-40.5 -8.5q-22 0 -42 8.5t-35 23t-23.5 34t-8.5 41.5z" />
<glyph unicode="&#xdd;" horiz-adv-x="1278" d="M11.5 1505q0.5 30 14.5 54.5t39 40.5t56 16q28 0 54.5 -14t43.5 -41l418 -678l422 678q17 27 44 41t56 14q32 0 56.5 -16t38 -41t13.5 -55t-18 -58l-495 -789v-534q0 -26 -10 -48.5t-26.5 -39t-38.5 -26t-46 -9.5q-25 0 -47 9.5t-38.5 26t-26 39t-9.5 48.5v551l-483 772 q-18 29 -17.5 59zM596 1792q0 37 25 61l186 191q17 18 29.5 28t23.5 15t20.5 6.5t20.5 1.5q12 0 26.5 -6t27 -17.5t20.5 -27.5t8 -37q0 -31 -13 -52t-26 -32l-205 -184q-12 -13 -29 -19t-34 -6q-12 0 -26 4.5t-26 14t-20 24t-8 35.5z" />
<glyph unicode="&#xde;" horiz-adv-x="1386" d="M113 123v1370q0 26 9.5 48.5t26 39t38.5 26t46 9.5q25 0 47 -9.5t38.5 -26t26 -39t9.5 -48.5v-164h482q104 0 193 -35t155 -96.5t103.5 -146.5t37.5 -185t-37.5 -184.5t-103.5 -146.5t-155 -97t-193 -35h-482v-280q0 -26 -9.5 -48.5t-26 -39t-38.5 -26t-47 -9.5 q-24 0 -46 9.5t-38.5 26t-26 39t-9.5 48.5zM354 621h482q57 0 104.5 18t81 50.5t52 77.5t18.5 99t-18 99t-51.5 78t-81 51t-105.5 18h-482v-491z" />
<glyph unicode="&#xdf;" horiz-adv-x="1221" d="M92 109v1052q0 81 20 162.5t69 146.5t130.5 105.5t204.5 40.5q94 0 162 -18.5t115 -49t75.5 -69t44 -77.5t19.5 -75t2 -63q-4 -52 -25.5 -95t-52 -79.5t-65 -67.5t-64 -58.5t-49 -53t-19.5 -50.5q0 -34 21 -59t55.5 -46t78.5 -40.5t90 -41.5t91 -49.5t80 -65t57.5 -87 t24.5 -115.5q3 -103 -30 -173.5t-88 -114t-126 -63t-143 -19.5q-86 0 -148 20t-104.5 51t-68 69.5t-39 75.5t-17.5 69.5t-4 50.5q0 24 9 43t23 33t33 21.5t38 8.5q32 2 57.5 -9.5t38.5 -49.5q10 -29 15.5 -57.5t12 -54t16.5 -46.5t28.5 -35t49 -20t76.5 -2q36 3 63.5 20 t46 43t28.5 58.5t10 66.5q0 52 -20.5 87.5t-54.5 60.5t-77 43t-87.5 36.5t-87.5 40.5t-77 54.5t-54.5 79.5t-20.5 114q0 50 18.5 88t46.5 70t62 59.5t64 56t53 60t30 70.5q7 42 -7 75t-43.5 56t-71.5 35t-91 12q-48 0 -82 -16t-57.5 -41.5t-37 -56.5t-21 -62t-9.5 -58.5 t-2 -44.5v-1052q0 -22 -8.5 -42t-23.5 -35t-34.5 -23.5t-41.5 -8.5t-42 8.5t-34 23.5t-22.5 35t-8.5 42z" />
<glyph unicode="&#xe0;" horiz-adv-x="1149" d="M51 330q0 97 39 163t104 108.5t150.5 66t179.5 34.5q92 11 151.5 24t93.5 32.5t47 46.5t13 65q0 48 -22.5 78.5t-58 47t-77.5 22.5t-81 6q-55 0 -97 -9.5t-74 -26.5t-55 -42t-38 -57q-11 -34 -36 -49t-52 -15q-20 0 -39.5 7t-33.5 20t-21 32t-3 42q9 45 39 93.5t84 88.5 t134.5 66t191.5 26q97 0 180.5 -20.5t145 -61.5t96.5 -102.5t35 -143.5v-761q0 -24 -8.5 -44.5t-23.5 -35t-35 -23t-42 -8.5t-42 8.5t-35 23t-23.5 35t-8.5 44.5v28q-39 -40 -84 -67t-93.5 -43t-101 -22.5t-106.5 -6.5q-67 0 -137 20.5t-127 61.5t-93 103t-36 145zM256 330 q0 -45 22.5 -74.5t57.5 -47t78 -24t84 -6.5q56 0 114.5 15t106.5 45.5t79 78t31 111.5v158l-65 -19q-39 -11 -92 -17.5t-109.5 -14.5t-111.5 -20t-98.5 -34.5t-70 -58.5t-26.5 -92zM293 1567q0 21 8 37t20.5 27.5t27 17.5t26.5 6q11 0 20.5 -1.5t20 -6.5t23.5 -15t30 -28 l186 -191q25 -24 25 -61q0 -21 -8 -36t-20 -24t-26 -13.5t-26 -4.5q-17 0 -34 6t-29 18l-205 185q-13 11 -26 32t-13 52z" />
<glyph unicode="&#xe1;" horiz-adv-x="1149" d="M51 330q0 97 39 163t104 108.5t150.5 66t179.5 34.5q92 11 151.5 24t93.5 32.5t47 46.5t13 65q0 48 -22.5 78.5t-58 47t-77.5 22.5t-81 6q-55 0 -97 -9.5t-74 -26.5t-55 -42t-38 -57q-11 -34 -36 -49t-52 -15q-20 0 -39.5 7t-33.5 20t-21 32t-3 42q9 45 39 93.5t84 88.5 t134.5 66t191.5 26q97 0 180.5 -20.5t145 -61.5t96.5 -102.5t35 -143.5v-761q0 -24 -8.5 -44.5t-23.5 -35t-35 -23t-42 -8.5t-42 8.5t-35 23t-23.5 35t-8.5 44.5v28q-39 -40 -84 -67t-93.5 -43t-101 -22.5t-106.5 -6.5q-67 0 -137 20.5t-127 61.5t-93 103t-36 145zM256 330 q0 -45 22.5 -74.5t57.5 -47t78 -24t84 -6.5q56 0 114.5 15t106.5 45.5t79 78t31 111.5v158l-65 -19q-39 -11 -92 -17.5t-109.5 -14.5t-111.5 -20t-98.5 -34.5t-70 -58.5t-26.5 -92zM514 1352q0 37 25 61l186 191q17 18 30 28t23.5 15t20.5 6.5t20 1.5q12 0 26.5 -6t27 -17.5 t20.5 -27.5t8 -37q0 -31 -13 -52t-26 -32l-205 -185q-12 -12 -29 -18t-34 -6q-12 0 -26 4.5t-26 13.5t-20 24t-8 36z" />
<glyph unicode="&#xe2;" horiz-adv-x="1149" d="M51 330q0 97 39 163t104 108.5t150.5 66t179.5 34.5q92 11 151.5 24t93.5 32.5t47 46.5t13 65q0 48 -22.5 78.5t-58 47t-77.5 22.5t-81 6q-55 0 -97 -9.5t-74 -26.5t-55 -42t-38 -57q-11 -34 -36 -49t-52 -15q-20 0 -39.5 7t-33.5 20t-21 32t-3 42q9 45 39 93.5t84 88.5 t134.5 66t191.5 26q97 0 180.5 -20.5t145 -61.5t96.5 -102.5t35 -143.5v-761q0 -24 -8.5 -44.5t-23.5 -35t-35 -23t-42 -8.5t-42 8.5t-35 23t-23.5 35t-8.5 44.5v28q-39 -40 -84 -67t-93.5 -43t-101 -22.5t-106.5 -6.5q-67 0 -137 20.5t-127 61.5t-93 103t-36 145zM256 330 q0 -45 22.5 -74.5t57.5 -47t78 -24t84 -6.5q56 0 114.5 15t106.5 45.5t79 78t31 111.5v158l-65 -19q-39 -11 -92 -17.5t-109.5 -14.5t-111.5 -20t-98.5 -34.5t-70 -58.5t-26.5 -92zM270 1352q0 18 6.5 34t18.5 27l225 225q14 14 28.5 23.5t33.5 9.5q18 0 32.5 -9.5 t28.5 -23.5l225 -225q13 -11 19 -26t6 -27q0 -11 -4.5 -25.5t-14 -28t-25 -23t-36.5 -9.5q-39 0 -63 24l-168 170l-168 -170q-13 -12 -30 -18t-34 -6q-12 0 -26 4.5t-26 13.5t-20 24t-8 36z" />
<glyph unicode="&#xe3;" horiz-adv-x="1149" d="M51 330q0 97 39 163t104 108.5t150.5 66t179.5 34.5q92 11 151.5 24t93.5 32.5t47 46.5t13 65q0 48 -22.5 78.5t-58 47t-77.5 22.5t-81 6q-55 0 -97 -9.5t-74 -26.5t-55 -42t-38 -57q-11 -34 -36 -49t-52 -15q-20 0 -39.5 7t-33.5 20t-21 32t-3 42q9 45 39 93.5t84 88.5 t134.5 66t191.5 26q97 0 180.5 -20.5t145 -61.5t96.5 -102.5t35 -143.5v-761q0 -24 -8.5 -44.5t-23.5 -35t-35 -23t-42 -8.5t-42 8.5t-35 23t-23.5 35t-8.5 44.5v28q-39 -40 -84 -67t-93.5 -43t-101 -22.5t-106.5 -6.5q-67 0 -137 20.5t-127 61.5t-93 103t-36 145zM256 330 q0 -45 22.5 -74.5t57.5 -47t78 -24t84 -6.5q56 0 114.5 15t106.5 45.5t79 78t31 111.5v158l-65 -19q-39 -11 -92 -17.5t-109.5 -14.5t-111.5 -20t-98.5 -34.5t-70 -58.5t-26.5 -92zM260 1442q0 28 14 51t37 39.5t52 25.5t59 9q48 0 76.5 -9.5t52 -20.5t47.5 -20.5t61 -9.5 q22 0 35 9t24.5 19.5t25.5 19t38 8.5q41 0 70 -27t29 -68q0 -29 -14 -51.5t-37 -38.5t-52.5 -24t-60.5 -8q-36 0 -70.5 9t-65 19.5t-55.5 19.5t-43 9q-20 0 -32 -8.5t-24 -19t-26.5 -19t-40.5 -8.5q-20 0 -38 7.5t-32 20.5t-22 30t-8 36z" />
<glyph unicode="&#xe4;" horiz-adv-x="1149" d="M51 330q0 97 39 163t104 108.5t150.5 66t179.5 34.5q92 11 151.5 24t93.5 32.5t47 46.5t13 65q0 48 -22.5 78.5t-58 47t-77.5 22.5t-81 6q-55 0 -97 -9.5t-74 -26.5t-55 -42t-38 -57q-11 -34 -36 -49t-52 -15q-20 0 -39.5 7t-33.5 20t-21 32t-3 42q9 45 39 93.5t84 88.5 t134.5 66t191.5 26q97 0 180.5 -20.5t145 -61.5t96.5 -102.5t35 -143.5v-761q0 -24 -8.5 -44.5t-23.5 -35t-35 -23t-42 -8.5t-42 8.5t-35 23t-23.5 35t-8.5 44.5v28q-39 -40 -84 -67t-93.5 -43t-101 -22.5t-106.5 -6.5q-67 0 -137 20.5t-127 61.5t-93 103t-36 145zM256 330 q0 -45 22.5 -74.5t57.5 -47t78 -24t84 -6.5q56 0 114.5 15t106.5 45.5t79 78t31 111.5v158l-65 -19q-39 -11 -92 -17.5t-109.5 -14.5t-111.5 -20t-98.5 -34.5t-70 -58.5t-26.5 -92zM291 1460q0 23 8.5 42.5t23.5 34.5t34.5 23.5t41.5 8.5t41.5 -8.5t34 -23.5t23 -34.5 t8.5 -42.5q0 -21 -8.5 -40.5t-23 -34t-34 -23t-41.5 -8.5t-41.5 8.5t-34.5 23t-23.5 34t-8.5 40.5zM629 1460q0 23 8.5 42.5t23.5 34.5t34.5 23.5t41.5 8.5t41.5 -8.5t34 -23.5t23 -34.5t8.5 -42.5q0 -21 -8.5 -40.5t-23 -34t-34 -23t-41.5 -8.5t-41.5 8.5t-34.5 23 t-23.5 34t-8.5 40.5z" />
<glyph unicode="&#xe5;" horiz-adv-x="1149" d="M51 330q0 97 39 163t104 108.5t150.5 66t179.5 34.5q92 11 151.5 24t93.5 32.5t47 46.5t13 65q0 48 -22.5 78.5t-58 47t-77.5 22.5t-81 6q-55 0 -97 -9.5t-74 -26.5t-55 -42t-38 -57q-11 -34 -36 -49t-52 -15q-20 0 -39.5 7t-33.5 20t-21 32t-3 42q9 45 39 93.5t84 88.5 t134.5 66t191.5 26q97 0 180.5 -20.5t145 -61.5t96.5 -102.5t35 -143.5v-761q0 -24 -8.5 -44.5t-23.5 -35t-35 -23t-42 -8.5t-42 8.5t-35 23t-23.5 35t-8.5 44.5v28q-39 -40 -84 -67t-93.5 -43t-101 -22.5t-106.5 -6.5q-67 0 -137 20.5t-127 61.5t-93 103t-36 145zM256 330 q0 -45 22.5 -74.5t57.5 -47t78 -24t84 -6.5q56 0 114.5 15t106.5 45.5t79 78t31 111.5v158l-65 -19q-39 -11 -92 -17.5t-109.5 -14.5t-111.5 -20t-98.5 -34.5t-70 -58.5t-26.5 -92zM348 1481q0 48 18.5 90.5t50 73.5t73.5 49t90 18q49 0 91.5 -18t74 -49t49.5 -73.5 t18 -90.5t-18 -91t-49.5 -74.5t-74 -50t-91.5 -18.5q-48 0 -90 18.5t-73.5 50t-50 74.5t-18.5 91zM471 1481q0 -22 8.5 -42t23.5 -35t35 -23.5t42 -8.5t41.5 8.5t34.5 23.5t23.5 35t8.5 42t-8.5 41.5t-23.5 34.5t-34.5 23.5t-41.5 8.5t-42 -8.5t-35 -23.5t-23.5 -34.5 t-8.5 -41.5z" />
<glyph unicode="&#xe6;" horiz-adv-x="1962" d="M51 330q0 97 39 163t104 108.5t150.5 66t179.5 34.5q92 11 151.5 24t93.5 32.5t47 46.5t13 65q0 48 -22.5 78.5t-58 47t-77.5 22.5t-81 6q-55 0 -97 -9.5t-74 -26.5t-55 -42t-38 -57q-11 -34 -36 -49t-52 -15q-20 0 -39.5 7t-33.5 20t-21 32t-3 42q9 45 39 93.5t84 88.5 t134.5 66t191.5 26q68 0 130.5 -10.5t116.5 -30.5t96.5 -50.5t70.5 -70.5q72 78 173.5 120t229.5 42q76 0 142 -15.5t120.5 -44t98.5 -67.5t75 -86q22 -32 37.5 -71.5t17.5 -81.5q4 -41 -15.5 -76t-67.5 -58l-715 -331q15 -34 43 -70.5t69 -67.5t93.5 -51t115.5 -20 q61 0 106.5 11.5t80 34t60 54.5t46.5 74q14 26 38.5 35.5t47.5 9.5q19 0 36.5 -6.5t30.5 -19t21 -30t8 -38.5q0 -16 -10.5 -44.5t-34 -61.5t-60.5 -67.5t-90 -62.5t-122.5 -45.5t-157.5 -17.5q-142 0 -259 56t-195 155q-30 -27 -75.5 -63.5t-109 -69t-147.5 -55.5t-191 -23 q-70 0 -140 22.5t-126 66.5t-91.5 108t-35.5 147zM256 330q0 -45 22.5 -77.5t57.5 -53t78 -30t84 -9.5q56 0 114.5 17.5t106.5 52t79 84.5t31 114v158l-65 -19q-39 -11 -92 -17.5t-109.5 -14.5t-111.5 -20t-98.5 -34.5t-70 -58.5t-26.5 -92zM1042 608q0 -17 1.5 -36.5 t5.5 -36.5l641 305q-36 93 -112 140.5t-175 47.5q-84 0 -151 -36t-113.5 -95t-71.5 -134.5t-25 -154.5z" />
<glyph unicode="&#xe7;" horiz-adv-x="1141" d="M61 592q0 137 41.5 249t115 191.5t175.5 123.5t223 44q83 0 150 -16.5t119.5 -43.5t91 -60.5t64 -68.5t37.5 -67.5t12 -56.5q0 -23 -8.5 -41.5t-23 -31t-33 -19.5t-38.5 -7q-28 0 -52.5 15t-35.5 49q-10 32 -33.5 63t-59.5 55t-83.5 39t-106.5 15q-60 0 -124 -23.5 t-116.5 -75t-86 -134t-33.5 -199.5t33.5 -199t86 -133.5t116.5 -74.5t124 -23q59 0 106.5 15t83.5 39t59.5 55t33.5 63q11 34 35.5 48.5t52.5 14.5q20 0 38.5 -6.5t33 -19.5t23 -31t8.5 -41q0 -22 -10.5 -52.5t-33 -63t-56 -65t-79.5 -59.5t-104.5 -46t-130.5 -25l-58 -135 q43 0 86.5 -10.5t78 -33.5t56 -59.5t21.5 -87.5q0 -46 -17 -85t-50.5 -67t-82.5 -43.5t-114 -15.5q-17 0 -40.5 1.5t-49.5 5.5t-51 11t-45 17.5t-32.5 25t-12.5 33.5q0 16 12 30.5t35 12.5q15 0 29.5 -4t30 -9t33 -9t38.5 -4q27 0 50.5 6t41.5 18t28.5 31t10.5 45 q0 38 -27.5 60t-83.5 22q-18 0 -38 -2t-48 -10q-15 -5 -24.5 3.5t0.5 28.5l110 224q-111 9 -203 56t-158.5 125.5t-103.5 185.5t-37 237z" />
<glyph unicode="&#xe8;" horiz-adv-x="1182" d="M61 578q0 -130 44 -239t122 -187.5t184 -122t230 -43.5q88 0 157.5 17.5t122 45.5t90 62.5t61 67.5t34 61.5t10.5 44.5q0 21 -8 38.5t-21 30t-30.5 19t-36.5 6.5q-23 0 -47.5 -9.5t-38.5 -35.5q-21 -42 -46.5 -74t-60 -54.5t-80 -34t-106.5 -11.5q-63 0 -115.5 20 t-93.5 51t-69.5 67.5t-43.5 70.5l715 331q48 23 67.5 58t16.5 76q-2 42 -17.5 81.5t-37.5 71.5q-31 47 -75 86t-99 67.5t-120.5 44t-141.5 15.5q-133 0 -238 -46.5t-178 -129t-111.5 -196.5t-38.5 -250zM262 608q0 79 24.5 154.5t71 134.5t113.5 95t152 36q98 0 174.5 -48 t111.5 -140l-641 -305q-3 17 -4.5 36.5t-1.5 36.5zM324 1567q0 21 8 37t20.5 27.5t27 17.5t26.5 6q11 0 20.5 -1.5t20 -6.5t23.5 -15t30 -28l186 -191q25 -25 25 -61q0 -21 -8 -36t-20 -24t-26 -13.5t-26 -4.5q-17 0 -34 6t-30 18l-205 185q-12 11 -25 32t-13 52z" />
<glyph unicode="&#xe9;" horiz-adv-x="1182" d="M61 578q0 136 38.5 250t111.5 196.5t178 129t238 46.5q76 0 141.5 -15.5t120.5 -44t99 -67.5t75 -86q22 -32 37.5 -71.5t17.5 -81.5q3 -41 -16.5 -76t-67.5 -58l-715 -331q15 -34 43.5 -70.5t69.5 -67.5t93.5 -51t115.5 -20q61 0 106.5 11.5t80 34t60 54.5t46.5 74 q14 26 38.5 35.5t47.5 9.5q19 0 36.5 -6.5t30.5 -19t21 -30t8 -38.5q0 -16 -10.5 -44.5t-34 -61.5t-61 -67.5t-90 -62.5t-122 -45.5t-157.5 -17.5q-124 0 -230 43.5t-184 122t-122 187.5t-44 239zM262 608q0 -17 1.5 -36.5t4.5 -36.5l641 305q-35 92 -111.5 140t-174.5 48 q-85 0 -152 -36t-113.5 -95t-71 -134.5t-24.5 -154.5zM561 1352q0 37 25 61l186 191q17 18 30 28t23.5 15t20.5 6.5t20 1.5q12 0 26.5 -6t27 -17.5t20.5 -27.5t8 -37q0 -31 -13 -52t-26 -32l-204 -185q-13 -12 -30 -18t-34 -6q-12 0 -26 4.5t-26 13.5t-20 24t-8 36z" />
<glyph unicode="&#xea;" horiz-adv-x="1182" d="M61 578q0 136 38.5 250t111.5 196.5t178 129t238 46.5q76 0 141.5 -15.5t120.5 -44t99 -67.5t75 -86q22 -32 37.5 -71.5t17.5 -81.5q3 -41 -16.5 -76t-67.5 -58l-715 -331q15 -34 43.5 -70.5t69.5 -67.5t93.5 -51t115.5 -20q61 0 106.5 11.5t80 34t60 54.5t46.5 74 q14 26 38.5 35.5t47.5 9.5q19 0 36.5 -6.5t30.5 -19t21 -30t8 -38.5q0 -16 -10.5 -44.5t-34 -61.5t-61 -67.5t-90 -62.5t-122 -45.5t-157.5 -17.5q-124 0 -230 43.5t-184 122t-122 187.5t-44 239zM262 608q0 -17 1.5 -36.5t4.5 -36.5l641 305q-35 92 -111.5 140t-174.5 48 q-85 0 -152 -36t-113.5 -95t-71 -134.5t-24.5 -154.5zM315 1352q0 18 6.5 34t18.5 27l225 225q14 14 28.5 23.5t33.5 9.5q18 0 32.5 -9.5t28.5 -23.5l225 -225q13 -11 19 -26t6 -27q0 -11 -4.5 -25.5t-14 -28t-25 -23t-36.5 -9.5q-39 0 -63 24l-168 170l-168 -170 q-13 -12 -30 -18t-34 -6q-12 0 -26 4.5t-26 13.5t-20 24t-8 36z" />
<glyph unicode="&#xeb;" horiz-adv-x="1182" d="M61 578q0 136 38.5 250t111.5 196.5t178 129t238 46.5q76 0 141.5 -15.5t120.5 -44t99 -67.5t75 -86q22 -32 37.5 -71.5t17.5 -81.5q3 -41 -16.5 -76t-67.5 -58l-715 -331q15 -34 43.5 -70.5t69.5 -67.5t93.5 -51t115.5 -20q61 0 106.5 11.5t80 34t60 54.5t46.5 74 q14 26 38.5 35.5t47.5 9.5q19 0 36.5 -6.5t30.5 -19t21 -30t8 -38.5q0 -16 -10.5 -44.5t-34 -61.5t-61 -67.5t-90 -62.5t-122 -45.5t-157.5 -17.5q-124 0 -230 43.5t-184 122t-122 187.5t-44 239zM262 608q0 -17 1.5 -36.5t4.5 -36.5l641 305q-35 92 -111.5 140t-174.5 48 q-85 0 -152 -36t-113.5 -95t-71 -134.5t-24.5 -154.5zM350 1460q0 23 8.5 42.5t23.5 34.5t35 23.5t42 8.5q21 0 40.5 -8.5t34 -23.5t23 -34.5t8.5 -42.5q0 -21 -8.5 -40.5t-23 -34t-34 -23t-40.5 -8.5q-22 0 -42 8.5t-35 23t-23.5 34t-8.5 40.5zM688 1460q0 23 8.5 42.5 t23.5 34.5t35 23.5t42 8.5q21 0 40.5 -8.5t34 -23.5t23 -34.5t8.5 -42.5q0 -21 -8.5 -40.5t-23 -34t-34 -23t-40.5 -8.5q-22 0 -42 8.5t-35 23t-23.5 34t-8.5 40.5z" />
<glyph unicode="&#xec;" horiz-adv-x="422" d="M-115 1567q0 21 8 37t20.5 27.5t27 17.5t26.5 6q11 0 20.5 -1.5t20.5 -6.5t23.5 -15t29.5 -28l187 -191q24 -24 24 -61q0 -21 -8 -36t-19.5 -24t-25.5 -13.5t-26 -4.5q-17 0 -34.5 6t-29.5 18l-205 185q-12 11 -25.5 32t-13.5 52zM102 111q0 -24 8.5 -44.5t23.5 -35 t35 -23t42 -8.5t41.5 8.5t34.5 23t23.5 35t8.5 44.5v964q0 24 -8.5 44.5t-23.5 35t-34.5 23t-41.5 8.5t-42 -8.5t-35 -23t-23.5 -35t-8.5 -44.5v-964z" />
<glyph unicode="&#xed;" horiz-adv-x="422" d="M102 111v964q0 24 8.5 44.5t23.5 35t35 23t42 8.5t41.5 -8.5t34.5 -23t23.5 -35t8.5 -44.5v-964q0 -24 -8.5 -44.5t-23.5 -35t-34.5 -23t-41.5 -8.5t-42 8.5t-35 23t-23.5 35t-8.5 44.5zM147 1352q0 36 25 61l186 191q17 18 30 28t23.5 15t20.5 6.5t21 1.5q12 0 26.5 -6 t26.5 -17.5t20.5 -27.5t8.5 -37q0 -31 -13.5 -52t-25.5 -32l-205 -185q-13 -12 -30 -18t-34 -6q-12 0 -26 4.5t-26 13.5t-20 24t-8 36z" />
<glyph unicode="&#xee;" horiz-adv-x="422" d="M-100 1352q0 18 6 34t18 27l226 225q14 14 28 23.5t33 9.5t33 -9.5t28 -23.5l226 -225q12 -11 18 -26t6 -27q0 -11 -4.5 -25.5t-14 -28t-24.5 -23t-37 -9.5q-39 0 -63 24l-168 170l-168 -170q-12 -12 -29 -18t-34 -6q-12 0 -26 4.5t-26 13.5t-20 24t-8 36zM102 111v964 q0 24 8.5 44.5t23.5 35t35 23t42 8.5t41.5 -8.5t34.5 -23t23.5 -35t8.5 -44.5v-964q0 -24 -8.5 -44.5t-23.5 -35t-34.5 -23t-41.5 -8.5t-42 8.5t-35 23t-23.5 35t-8.5 44.5z" />
<glyph unicode="&#xef;" horiz-adv-x="422" d="M-66 1460q0 23 8.5 42.5t23.5 34.5t35 23.5t42 8.5q21 0 40.5 -8.5t34.5 -23.5t23.5 -34.5t8.5 -42.5q0 -21 -8.5 -40.5t-23.5 -34t-34.5 -23t-40.5 -8.5q-22 0 -42 8.5t-35 23t-23.5 34t-8.5 40.5zM102 111v964q0 24 8.5 44.5t23.5 35t35 23t42 8.5t41.5 -8.5t34.5 -23 t23.5 -35t8.5 -44.5v-964q0 -24 -8.5 -44.5t-23.5 -35t-34.5 -23t-41.5 -8.5t-42 8.5t-35 23t-23.5 35t-8.5 44.5zM272 1460q0 23 8.5 42.5t23.5 34.5t35 23.5t42 8.5q21 0 40.5 -8.5t34 -23.5t23 -34.5t8.5 -42.5q0 -21 -8.5 -40.5t-23 -34t-34 -23t-40.5 -8.5 q-22 0 -42 8.5t-35 23t-23.5 34t-8.5 40.5z" />
<glyph unicode="&#xf0;" horiz-adv-x="1126" d="M51 547q0 132 38.5 234.5t106.5 172t161.5 106t203.5 36.5q68 0 127 -10.5t115 -36.5q-22 60 -56.5 124t-74.5 121l-111 -77q-19 -14 -39.5 -15.5t-38 6.5t-30 24t-15.5 38q-3 21 5.5 41t27.5 32l98 70l-24 19q-31 17 -54.5 43.5t-23.5 58.5q0 21 8.5 38.5t23 30t32.5 20 t36 7.5q13 0 25.5 -3t23.5 -11q29 -22 57 -45t54 -47l135 94q21 14 47 14q29 0 48 -16t26 -38.5t0 -47t-31 -41.5l-121 -84q64 -88 110 -188.5t76 -210t44 -225.5t14 -234q0 -130 -39 -232t-107.5 -172t-162.5 -106.5t-205 -36.5q-110 0 -203.5 36.5t-161.5 106.5 t-106.5 172t-38.5 232zM254 547q0 -95 23.5 -165t65 -115.5t97.5 -68t121 -22.5t121 22.5t98 68t66 115.5t24 165q0 98 -24 169t-66 117t-98 67.5t-121 21.5t-121 -21.5t-97.5 -67.5t-65 -117t-23.5 -169z" />
<glyph unicode="&#xf1;" d="M102 111v964q0 24 8.5 44.5t23.5 35t35 23t42 8.5t41.5 -8.5t34.5 -23t23.5 -35t8.5 -44.5v-35q29 35 67 62t80.5 46t88 28.5t90.5 9.5q100 0 177.5 -25t131 -70.5t81.5 -109t28 -141.5v-729q0 -24 -8.5 -44.5t-23.5 -35t-34.5 -23t-42.5 -8.5q-22 0 -41.5 8.5t-34.5 23 t-23.5 35t-8.5 44.5v720q0 33 -12 65t-40 57.5t-73 41t-111 15.5q-54 0 -106 -19t-93 -57t-66.5 -93.5t-25.5 -129.5v-600q0 -24 -8.5 -44.5t-23.5 -35t-34.5 -23t-41.5 -8.5t-42 8.5t-35 23t-23.5 35t-8.5 44.5zM272 1442q0 28 14 51t37 39.5t52 25.5t59 9q48 0 77 -9.5 t52 -20.5t47 -20.5t62 -9.5q21 0 34 9t25 19.5t26 19t38 8.5q40 0 69 -27t29 -68q0 -29 -14 -51.5t-37 -38.5t-52.5 -24t-60.5 -8q-36 0 -70.5 9t-64.5 19.5t-55 19.5t-43 9q-20 0 -32.5 -8.5t-24 -19t-26.5 -19t-40 -8.5q-20 0 -38.5 7.5t-32.5 20.5t-22 30t-8 36z" />
<glyph unicode="&#xf2;" horiz-adv-x="1253" d="M61 592q0 -144 43 -257t118.5 -190.5t179.5 -118t225 -40.5t224.5 40.5t179 118t118.5 190.5t43 257q0 145 -43 258t-118.5 191t-179 118.5t-224.5 40.5t-225 -40.5t-179.5 -118.5t-118.5 -191t-43 -258zM268 592q0 113 27.5 194.5t76 134.5t114 78t141.5 25t141.5 -25 t113.5 -78t75.5 -134.5t27.5 -194.5q0 -112 -27.5 -193.5t-75.5 -134t-113.5 -77.5t-141.5 -25t-141.5 25t-114 77.5t-76 134t-27.5 193.5zM358 1567q0 21 8.5 37t20.5 27.5t26.5 17.5t26.5 6q11 0 20.5 -1.5t20.5 -6.5t24 -15t30 -28l186 -191q24 -24 24 -61q0 -21 -8 -36 t-19.5 -24t-25.5 -13.5t-26 -4.5q-17 0 -34.5 6t-29.5 18l-205 185q-12 11 -25.5 32t-13.5 52z" />
<glyph unicode="&#xf3;" horiz-adv-x="1253" d="M61 592q0 145 43 258t118.5 191t179.5 118.5t225 40.5t224.5 -40.5t179 -118.5t118.5 -191t43 -258q0 -144 -43 -257t-118.5 -190.5t-179 -118t-224.5 -40.5t-225 40.5t-179.5 118t-118.5 190.5t-43 257zM268 592q0 -112 27.5 -193.5t76 -134t114 -77.5t141.5 -25 t141.5 25t113.5 77.5t75.5 134t27.5 193.5q0 113 -27.5 194.5t-75.5 134.5t-113.5 78t-141.5 25t-141.5 -25t-114 -78t-76 -134.5t-27.5 -194.5zM586 1352q0 37 24 61l187 191q17 18 29.5 28t23.5 15t20.5 6.5t20.5 1.5q12 0 26.5 -6t27 -17.5t20.5 -27.5t8 -37 q0 -31 -13.5 -52t-25.5 -32l-205 -185q-12 -12 -29 -18t-34 -6q-12 0 -26 4.5t-26 13.5t-20 24t-8 36z" />
<glyph unicode="&#xf4;" horiz-adv-x="1253" d="M61 592q0 145 43 258t118.5 191t179.5 118.5t225 40.5t224.5 -40.5t179 -118.5t118.5 -191t43 -258q0 -144 -43 -257t-118.5 -190.5t-179 -118t-224.5 -40.5t-225 40.5t-179.5 118t-118.5 190.5t-43 257zM268 592q0 -112 27.5 -193.5t76 -134t114 -77.5t141.5 -25 t141.5 25t113.5 77.5t75.5 134t27.5 193.5q0 113 -27.5 194.5t-75.5 134.5t-113.5 78t-141.5 25t-141.5 -25t-114 -78t-76 -134.5t-27.5 -194.5zM315 1352q0 18 6.5 34t18.5 27l225 225q14 14 28.5 23.5t33.5 9.5q18 0 32.5 -9.5t28.5 -23.5l225 -225q13 -11 19 -26t6 -27 q0 -11 -4.5 -25.5t-14 -28t-25 -23t-36.5 -9.5q-39 0 -63 24l-168 170l-168 -170q-13 -12 -30 -18t-34 -6q-12 0 -26 4.5t-26 13.5t-20 24t-8 36z" />
<glyph unicode="&#xf5;" horiz-adv-x="1253" d="M61 592q0 145 43 258t118.5 191t179.5 118.5t225 40.5t224.5 -40.5t179 -118.5t118.5 -191t43 -258q0 -144 -43 -257t-118.5 -190.5t-179 -118t-224.5 -40.5t-225 40.5t-179.5 118t-118.5 190.5t-43 257zM268 592q0 -112 27.5 -193.5t76 -134t114 -77.5t141.5 -25 t141.5 25t113.5 77.5t75.5 134t27.5 193.5q0 113 -27.5 194.5t-75.5 134.5t-113.5 78t-141.5 25t-141.5 -25t-114 -78t-76 -134.5t-27.5 -194.5zM317 1442q0 28 14 51t37 39.5t52 25.5t59 9q48 0 77 -9.5t52 -20.5t47 -20.5t62 -9.5q21 0 34 9t25 19.5t26 19t38 8.5 q40 0 69 -27t29 -68q0 -29 -14 -51.5t-37 -38.5t-52.5 -24t-60.5 -8q-36 0 -70.5 9t-64.5 19.5t-55 19.5t-43 9q-20 0 -32.5 -8.5t-24 -19t-26.5 -19t-40 -8.5q-20 0 -38 7.5t-32 20.5t-22.5 30t-8.5 36z" />
<glyph unicode="&#xf6;" horiz-adv-x="1253" d="M61 592q0 145 43 258t118.5 191t179.5 118.5t225 40.5t224.5 -40.5t179 -118.5t118.5 -191t43 -258q0 -144 -43 -257t-118.5 -190.5t-179 -118t-224.5 -40.5t-225 40.5t-179.5 118t-118.5 190.5t-43 257zM268 592q0 -112 27.5 -193.5t76 -134t114 -77.5t141.5 -25 t141.5 25t113.5 77.5t75.5 134t27.5 193.5q0 113 -27.5 194.5t-75.5 134.5t-113.5 78t-141.5 25t-141.5 -25t-114 -78t-76 -134.5t-27.5 -194.5zM350 1460q0 23 8.5 42.5t23.5 34.5t35 23.5t42 8.5q21 0 40.5 -8.5t34 -23.5t23 -34.5t8.5 -42.5q0 -21 -8.5 -40.5t-23 -34 t-34 -23t-40.5 -8.5q-22 0 -42 8.5t-35 23t-23.5 34t-8.5 40.5zM688 1460q0 23 8.5 42.5t23.5 34.5t35 23.5t42 8.5q21 0 40.5 -8.5t34 -23.5t23 -34.5t8.5 -42.5q0 -21 -8.5 -40.5t-23 -34t-34 -23t-40.5 -8.5q-22 0 -42 8.5t-35 23t-23.5 34t-8.5 40.5z" />
<glyph unicode="&#xf7;" horiz-adv-x="958" d="M51 686q0 19 7.5 36t20 30t30 20.5t38.5 7.5h666q20 0 37 -7.5t30 -20.5t20 -30t7 -36q0 -18 -7 -35t-20 -29.5t-30 -20t-37 -7.5h-666q-21 0 -38.5 7.5t-30 20t-20 29.5t-7.5 35zM387 418q0 19 7 36t19.5 30t29.5 20.5t36 7.5t36 -7.5t30 -20.5t20.5 -30t7.5 -36 t-7.5 -36t-20.5 -29.5t-30 -19.5t-36 -7t-36 7t-29.5 19.5t-19.5 29.5t-7 36zM387 954q0 20 7 37t19.5 30t29.5 20.5t36 7.5t36 -7.5t30 -20.5t20.5 -30t7.5 -37q0 -19 -7.5 -36t-20.5 -29.5t-30 -19.5t-36 -7t-36 7t-29.5 19.5t-19.5 29.5t-7 36z" />
<glyph unicode="&#xf8;" horiz-adv-x="1253" d="M61 592q0 145 43 258t118.5 191t179.5 118.5t225 40.5q123 0 227 -43l51 94q19 31 51.5 40t61.5 -7q31 -17 40 -49.5t-9 -63.5l-56 -96q93 -78 146 -199.5t53 -283.5q0 -144 -43 -257t-118.5 -190.5t-179 -118t-224.5 -40.5q-60 0 -115 10t-106 29l-54 -95 q-17 -32 -49.5 -40.5t-60.5 8.5q-15 7 -25 19.5t-14.5 27.5t-2.5 31.5t11 31.5l53 96q-94 78 -148.5 200.5t-54.5 287.5zM268 592q0 -106 24.5 -184t67.5 -132l404 723q-31 13 -65.5 19t-71.5 6q-76 0 -141.5 -25t-114 -78t-76 -134.5t-27.5 -194.5zM494 184q64 -22 133 -22 q76 0 141.5 25t113.5 77.5t75.5 134t27.5 193.5q0 103 -24 179.5t-64 129.5z" />
<glyph unicode="&#xf9;" d="M102 346v729q0 24 8.5 44.5t23.5 35t35 23t42 8.5t41.5 -8.5t34.5 -23t23.5 -35t8.5 -44.5v-721q0 -32 12 -64t40 -57.5t73 -41t111 -15.5q54 0 106 19t93 57t66.5 94t25.5 129v600q0 24 8.5 44.5t23.5 35t34.5 23t41.5 8.5q23 0 42.5 -8.5t34.5 -23t23.5 -35t8.5 -44.5 v-964q0 -24 -8.5 -44.5t-23.5 -35t-34.5 -23t-42.5 -8.5q-22 0 -41.5 8.5t-34.5 23t-23.5 35t-8.5 44.5v34q-29 -34 -67 -61t-80.5 -46t-88 -28.5t-90.5 -9.5q-100 0 -177.5 25t-131 70.5t-81.5 109t-28 141.5zM276 1567q0 21 8.5 37t20.5 27.5t26.5 17.5t26.5 6 q11 0 21 -1.5t20.5 -6.5t23.5 -15t30 -28l186 -191q25 -25 25 -61q0 -21 -8 -36t-20 -24t-26 -13.5t-26 -4.5q-17 0 -34 6t-30 18l-205 185q-12 11 -25.5 32t-13.5 52z" />
<glyph unicode="&#xfa;" d="M102 346v729q0 24 8.5 44.5t23.5 35t35 23t42 8.5t41.5 -8.5t34.5 -23t23.5 -35t8.5 -44.5v-721q0 -32 12 -64t40 -57.5t73 -41t111 -15.5q54 0 106 19t93 57t66.5 94t25.5 129v600q0 24 8.5 44.5t23.5 35t34.5 23t41.5 8.5q23 0 42.5 -8.5t34.5 -23t23.5 -35t8.5 -44.5 v-964q0 -24 -8.5 -44.5t-23.5 -35t-34.5 -23t-42.5 -8.5q-22 0 -41.5 8.5t-34.5 23t-23.5 35t-8.5 44.5v34q-29 -34 -67 -61t-80.5 -46t-88 -28.5t-90.5 -9.5q-100 0 -177.5 25t-131 70.5t-81.5 109t-28 141.5zM526 1352q0 36 25 61l186 191q17 18 30 28t23.5 15t20.5 6.5 t20 1.5q12 0 26.5 -6t27 -17.5t20.5 -27.5t8 -37q0 -31 -13 -52t-26 -32l-204 -185q-13 -12 -30 -18t-34 -6q-12 0 -26 4.5t-26 13.5t-20 24t-8 36z" />
<glyph unicode="&#xfb;" d="M102 346v729q0 24 8.5 44.5t23.5 35t35 23t42 8.5t41.5 -8.5t34.5 -23t23.5 -35t8.5 -44.5v-721q0 -32 12 -64t40 -57.5t73 -41t111 -15.5q54 0 106 19t93 57t66.5 94t25.5 129v600q0 24 8.5 44.5t23.5 35t34.5 23t41.5 8.5q23 0 42.5 -8.5t34.5 -23t23.5 -35t8.5 -44.5 v-964q0 -24 -8.5 -44.5t-23.5 -35t-34.5 -23t-42.5 -8.5q-22 0 -41.5 8.5t-34.5 23t-23.5 35t-8.5 44.5v34q-29 -34 -67 -61t-80.5 -46t-88 -28.5t-90.5 -9.5q-100 0 -177.5 25t-131 70.5t-81.5 109t-28 141.5zM266 1352q0 18 6 34t19 27l225 225q14 14 28.5 23.5t33.5 9.5 q18 0 32.5 -9.5t28.5 -23.5l225 -225q13 -11 19 -26t6 -27q0 -11 -4.5 -25.5t-14 -28t-25 -23t-36.5 -9.5q-38 0 -64 24l-167 170l-168 -170q-13 -12 -30 -18t-34 -6q-12 0 -26 4.5t-26 13.5t-20 24t-8 36z" />
<glyph unicode="&#xfc;" d="M102 346v729q0 24 8.5 44.5t23.5 35t35 23t42 8.5t41.5 -8.5t34.5 -23t23.5 -35t8.5 -44.5v-721q0 -32 12 -64t40 -57.5t73 -41t111 -15.5q54 0 106 19t93 57t66.5 94t25.5 129v600q0 24 8.5 44.5t23.5 35t34.5 23t41.5 8.5q23 0 42.5 -8.5t34.5 -23t23.5 -35t8.5 -44.5 v-964q0 -24 -8.5 -44.5t-23.5 -35t-34.5 -23t-42.5 -8.5q-22 0 -41.5 8.5t-34.5 23t-23.5 35t-8.5 44.5v34q-29 -34 -67 -61t-80.5 -46t-88 -28.5t-90.5 -9.5q-100 0 -177.5 25t-131 70.5t-81.5 109t-28 141.5zM299 1460q0 23 8.5 42.5t23.5 34.5t35 23.5t42 8.5 q21 0 40.5 -8.5t34 -23.5t23 -34.5t8.5 -42.5q0 -21 -8.5 -40.5t-23 -34t-34 -23t-40.5 -8.5q-22 0 -42 8.5t-35 23t-23.5 34t-8.5 40.5zM637 1460q0 23 8.5 42.5t23.5 34.5t34.5 23.5t41.5 8.5t41.5 -8.5t34 -23.5t23 -34.5t8.5 -42.5q0 -21 -8.5 -40.5t-23 -34t-34 -23 t-41.5 -8.5t-41.5 8.5t-34.5 23t-23.5 34t-8.5 40.5z" />
<glyph unicode="&#xfd;" horiz-adv-x="983" d="M-10 1084q-1 25 9 46.5t32 37t57 18.5q34 3 61.5 -13t47.5 -61l295 -809l290 799q14 37 38 60.5t73 23.5q29 0 50.5 -11.5t34 -31.5t14.5 -47.5t-9 -59.5l-301 -803l-162 -415q-16 -42 -37 -85t-55.5 -78.5t-86 -58t-128.5 -22.5h-78q-20 0 -36.5 8t-28.5 22t-18.5 32 t-6.5 38q0 42 28 68.5t68 26.5h43q20 0 41 1.5t41 11.5t38.5 31.5t33.5 61.5l57 150l-395 1011q-9 23 -10 48zM403 1352q0 36 25 61l186 191q17 18 30 28t23.5 15t20.5 6.5t21 1.5q12 0 26.5 -6t26.5 -17.5t20.5 -27.5t8.5 -37q0 -31 -13.5 -52t-25.5 -32l-205 -185 q-13 -12 -30 -18t-34 -6q-12 0 -26 4.5t-26 13.5t-20 24t-8 36z" />
<glyph unicode="&#xfe;" horiz-adv-x="1214" d="M102 -319v1824q0 24 8.5 44.5t23.5 35t35 23t42 8.5t41.5 -8.5t34.5 -23t23.5 -35t8.5 -44.5v-446q63 68 151 97.5t194 29.5q101 0 189.5 -43.5t155.5 -121.5t105.5 -187t38.5 -240q0 -132 -35 -241.5t-99 -187.5t-154.5 -121.5t-200.5 -43.5q-107 0 -194.5 39.5 t-150.5 112.5v-471q0 -24 -8.5 -44.5t-23.5 -35t-34.5 -23t-41.5 -8.5t-42 8.5t-35 23t-23.5 35t-8.5 44.5zM305 594q0 -81 21.5 -156.5t63 -133.5t101.5 -93t138 -35t138 35t101 93t62.5 133.5t21.5 156.5t-21.5 156t-62.5 132.5t-101 92.5t-138 35t-138 -35t-101.5 -92.5 t-63 -132.5t-21.5 -156z" />
<glyph unicode="&#xff;" horiz-adv-x="983" d="M-10 1084q-1 25 9 46.5t32 37t57 18.5q34 3 61.5 -13t47.5 -61l295 -809l290 799q14 37 38 60.5t73 23.5q29 0 50.5 -11.5t34 -31.5t14.5 -47.5t-9 -59.5l-301 -803l-162 -415q-16 -42 -37 -85t-55.5 -78.5t-86 -58t-128.5 -22.5h-78q-20 0 -36.5 8t-28.5 22t-18.5 32 t-6.5 38q0 42 28 68.5t68 26.5h43q20 0 41 1.5t41 11.5t38.5 31.5t33.5 61.5l57 150l-395 1011q-9 23 -10 48zM211 1460q0 23 8.5 42.5t23.5 34.5t34.5 23.5t41.5 8.5t41.5 -8.5t34 -23.5t23 -34.5t8.5 -42.5q0 -21 -8.5 -40.5t-23 -34t-34 -23t-41.5 -8.5t-41.5 8.5 t-34.5 23t-23.5 34t-8.5 40.5zM549 1460q0 23 8.5 42.5t23.5 34.5t34.5 23.5t41.5 8.5t41.5 -8.5t34 -23.5t23 -34.5t8.5 -42.5q0 -21 -8.5 -40.5t-23 -34t-34 -23t-41.5 -8.5t-41.5 8.5t-34.5 23t-23.5 34t-8.5 40.5z" />
<glyph unicode="&#x152;" horiz-adv-x="2681" d="M72 809q0 112 25 217.5t73 198.5t117 170t157.5 132.5t194.5 86.5t227 31q172 0 311 -60t242 -164v33q0 38 14 68t37 51t52 32t59 11h940q22 0 42 -8t35 -22.5t23.5 -34.5t8.5 -44t-8.5 -43.5t-23.5 -34t-35 -22.5t-42 -8h-860v-443h754q22 0 41.5 -8t34.5 -22.5 t23.5 -34t8.5 -43.5t-8.5 -44t-23.5 -34.5t-34.5 -22.5t-41.5 -8h-754v-522h860q22 0 42 -8t35 -22.5t23.5 -34t8.5 -43.5t-8.5 -44t-23.5 -34.5t-35 -22.5t-42 -8h-940q-30 0 -59 11t-52 32t-37 51t-14 68v31q-103 -104 -242 -163t-311 -59q-121 0 -227 31t-194.5 86.5 t-157.5 132.5t-117 170t-73 199t-25 219zM313 809q0 -141 43 -256t117.5 -196t175.5 -125t217 -44q113 0 212 42t173 119t119 186.5t49 244.5v56q-4 135 -49 244t-119 186.5t-173 119t-212 41.5q-116 0 -217 -43.5t-175.5 -124t-117.5 -195t-43 -255.5z" />
<glyph unicode="&#x153;" horiz-adv-x="2107" d="M61 592q0 145 43 258t118.5 191t179.5 118.5t225 40.5q148 0 268.5 -60.5t196.5 -174.5q71 109 188 172t272 63q76 0 142 -15.5t121 -44t99 -67.5t75 -86q21 -32 37 -71.5t18 -81.5q3 -41 -16.5 -76t-67.5 -58l-715 -331q15 -34 43.5 -70.5t69.5 -67.5t93.5 -51 t115.5 -20q61 0 106.5 11.5t80 34t60 54.5t46.5 74q14 26 38.5 35.5t47.5 9.5q19 0 36.5 -6.5t30.5 -19t21 -30t8 -38.5q0 -16 -10.5 -44.5t-34 -61.5t-61 -67.5t-90 -62.5t-122 -45.5t-157.5 -17.5q-152 0 -274 63t-199 174q-76 -115 -197 -176t-270 -61q-121 0 -225 40.5 t-179.5 118t-118.5 190.5t-43 257zM268 592q0 -112 27.5 -193.5t76 -134t114 -77.5t141.5 -25t141.5 25t113.5 77.5t75.5 134t27.5 193.5q0 113 -27.5 194.5t-75.5 134.5t-113.5 78t-141.5 25t-141.5 -25t-114 -78t-76 -134.5t-27.5 -194.5zM1188 588q0 -29 6 -53l641 305 q-18 46 -46.5 81t-65.5 59t-81.5 36t-93.5 12q-83 0 -149 -35t-112.5 -92.5t-71.5 -131t-27 -151.5v-30z" />
<glyph unicode="&#x178;" horiz-adv-x="1278" d="M11.5 1505q0.5 30 14.5 54.5t39 40.5t56 16q28 0 54.5 -14t43.5 -41l418 -678l422 678q17 27 44 41t56 14q32 0 56.5 -16t38 -41t13.5 -55t-18 -58l-495 -789v-534q0 -26 -10 -48.5t-26.5 -39t-38.5 -26t-46 -9.5q-25 0 -47 9.5t-38.5 26t-26 39t-9.5 48.5v551l-483 772 q-18 29 -17.5 59zM358 1901q0 22 8.5 41.5t23.5 34.5t35 23.5t42 8.5q21 0 40.5 -8.5t34 -23.5t23 -34.5t8.5 -41.5t-8.5 -41.5t-23 -34t-34 -23t-40.5 -8.5q-22 0 -42 8.5t-35 23t-23.5 34t-8.5 41.5zM696 1901q0 22 8.5 41.5t23.5 34.5t35 23.5t42 8.5q21 0 40.5 -8.5 t34 -23.5t23 -34.5t8.5 -41.5t-8.5 -41.5t-23 -34t-34 -23t-40.5 -8.5q-22 0 -42 8.5t-35 23t-23.5 34t-8.5 41.5z" />
<glyph unicode="&#x2c6;" horiz-adv-x="786" d="M82 1352q0 18 6 34t18 27l226 225q14 14 28.5 23.5t32.5 9.5q19 0 33.5 -9.5t28.5 -23.5l225 -225q12 -11 18.5 -26t6.5 -27q0 -11 -4.5 -25.5t-14 -28t-25 -23t-36.5 -9.5q-38 0 -64 24l-168 170l-168 -170q-12 -12 -29 -18t-34 -6q-12 0 -26 4.5t-26 13.5t-20 24t-8 36 z" />
<glyph unicode="&#x2dc;" horiz-adv-x="784" d="M82 1442q0 28 14 51t37 39.5t52 25.5t59 9q48 0 76.5 -9.5t52 -20.5t47.5 -20.5t61 -9.5q22 0 35 9t24.5 19.5t25.5 19t38 8.5q40 0 69 -27t29 -68q0 -29 -14 -51.5t-37 -38.5t-52 -24t-60 -8q-36 0 -70.5 9t-65 19.5t-55.5 19.5t-43 9q-20 0 -32 -8.5t-24 -19t-26.5 -19 t-40.5 -8.5q-20 0 -38 7.5t-32 20.5t-22 30t-8 36z" />
<glyph unicode="&#x2000;" horiz-adv-x="1076" />
<glyph unicode="&#x2001;" horiz-adv-x="2152" />
<glyph unicode="&#x2002;" horiz-adv-x="1076" />
<glyph unicode="&#x2003;" horiz-adv-x="2152" />
<glyph unicode="&#x2004;" horiz-adv-x="717" />
<glyph unicode="&#x2005;" horiz-adv-x="538" />
<glyph unicode="&#x2006;" horiz-adv-x="358" />
<glyph unicode="&#x2007;" horiz-adv-x="358" />
<glyph unicode="&#x2008;" horiz-adv-x="269" />
<glyph unicode="&#x2009;" horiz-adv-x="430" />
<glyph unicode="&#x200a;" horiz-adv-x="119" />
<glyph unicode="&#x2010;" horiz-adv-x="817" d="M51 723q0 40 28.5 69t72.5 29h516q21 0 38.5 -8t31 -21.5t21 -31t7.5 -37.5q0 -19 -7.5 -36.5t-21 -30.5t-31 -21t-38.5 -8h-516q-22 0 -40.5 8t-32 21t-21 30.5t-7.5 36.5z" />
<glyph unicode="&#x2011;" horiz-adv-x="817" d="M51 723q0 40 28.5 69t72.5 29h516q21 0 38.5 -8t31 -21.5t21 -31t7.5 -37.5q0 -19 -7.5 -36.5t-21 -30.5t-31 -21t-38.5 -8h-516q-22 0 -40.5 8t-32 21t-21 30.5t-7.5 36.5z" />
<glyph unicode="&#x2012;" horiz-adv-x="817" d="M51 723q0 40 28.5 69t72.5 29h516q21 0 38.5 -8t31 -21.5t21 -31t7.5 -37.5q0 -19 -7.5 -36.5t-21 -30.5t-31 -21t-38.5 -8h-516q-22 0 -40.5 8t-32 21t-21 30.5t-7.5 36.5z" />
<glyph unicode="&#x2013;" horiz-adv-x="1229" d="M61 723q0 19 7.5 36t20 30t30 20.5t37.5 7.5h919q19 0 36 -7.5t29.5 -20.5t19.5 -30t7 -36q0 -18 -7 -34t-19.5 -28.5t-29.5 -20t-36 -7.5h-919q-20 0 -37.5 7.5t-30 20t-20 28.5t-7.5 34z" />
<glyph unicode="&#x2014;" horiz-adv-x="1993" d="M61 723q0 19 7.5 36t20 30t30 20.5t37.5 7.5h1683q19 0 36 -7.5t29.5 -20.5t19.5 -30t7 -36q0 -18 -7 -34t-19.5 -28.5t-29.5 -20t-36 -7.5h-1683q-20 0 -37.5 7.5t-30 20t-20 28.5t-7.5 34z" />
<glyph unicode="&#x201a;" horiz-adv-x="444" d="M33 -27q-2 17 2.5 31t13.5 27l158 213q20 24 41 38.5t55 14.5q21 0 40 -7.5t34 -21t24.5 -32t10.5 -39.5q3 -29 -8.5 -53.5t-34.5 -43.5l-207 -170q-9 -8 -23 -14t-26 -8q-32 -3 -54.5 15t-25.5 50z" />
<glyph unicode="&#x201c;" horiz-adv-x="834" d="M43 1327q-3 29 8.5 53.5t34.5 42.5l207 170q9 8 23 14.5t26 8.5q32 3 54.5 -15.5t25.5 -50.5t-16 -57l-158 -213q-20 -25 -41 -39t-55 -14q-21 0 -40 7.5t-34 21t-24 32t-11 39.5zM412 1327q-3 29 8.5 53.5t34.5 42.5l207 170q9 8 22.5 14.5t26.5 8.5q32 3 54 -15.5 t26 -50.5q3 -31 -17 -57l-158 -213q-20 -25 -41 -39t-55 -14q-21 0 -39.5 7.5t-33.5 21t-24 32t-11 39.5z" />
<glyph unicode="&#x201d;" horiz-adv-x="834" d="M43 1292q-2 17 2.5 31t13.5 27l158 213q20 24 41 38.5t55 14.5q21 0 40 -7.5t34 -21t24.5 -32t10.5 -39.5q3 -29 -8.5 -53.5t-34.5 -43.5l-207 -170q-9 -8 -23 -14t-26 -8q-32 -3 -54.5 15t-25.5 50zM412 1292q-2 17 2.5 31t13.5 27l158 213q20 24 41 38.5t55 14.5 q42 0 73.5 -28.5t35.5 -71.5q3 -29 -8.5 -53.5t-34.5 -43.5l-207 -170q-10 -8 -23.5 -14t-25.5 -8q-32 -3 -54.5 15t-25.5 50z" />
<glyph unicode="&#x201e;" horiz-adv-x="813" d="M33 -27q-2 17 2.5 31t13.5 27l158 213q20 24 41 38.5t55 14.5q21 0 40 -7.5t34 -21t24.5 -32t10.5 -39.5q3 -29 -8.5 -53.5t-34.5 -43.5l-207 -170q-9 -8 -23 -14t-26 -8q-32 -3 -54.5 15t-25.5 50zM401 -27q-2 17 3 31t14 27l157 213q20 24 41.5 38.5t55.5 14.5 q21 0 39.5 -7.5t33.5 -21t24.5 -32t10.5 -39.5q3 -29 -8.5 -53.5t-34.5 -43.5l-207 -170q-9 -8 -22.5 -14t-26.5 -8q-32 -3 -54 15t-26 50z" />
<glyph unicode="&#x2022;" horiz-adv-x="551" d="M92 807q0 38 14 71.5t38.5 58.5t58 39.5t71.5 14.5q39 0 72.5 -14.5t58.5 -39.5t39.5 -58.5t14.5 -71.5t-14.5 -71.5t-39.5 -58t-58.5 -38.5t-72.5 -14q-38 0 -71.5 14t-58 38.5t-38.5 58t-14 71.5z" />
<glyph unicode="&#x2026;" horiz-adv-x="1280" d="M72 147q0 31 12 58t32 47.5t47 32.5t58 12q30 0 57 -12t47 -32.5t32 -47.5t12 -58q0 -30 -12 -56.5t-32 -46.5t-47 -32t-57 -12q-31 0 -58 12t-47 32t-32 46.5t-12 56.5zM492 147q0 31 12 58t32 47.5t47 32.5t58 12q30 0 56.5 -12t47 -32.5t32 -47.5t11.5 -58 q0 -30 -11.5 -56.5t-32 -46.5t-47 -32t-56.5 -12q-31 0 -58 12t-47 32t-32 46.5t-12 56.5zM911 147q0 31 12 58t32.5 47.5t47.5 32.5t58 12q30 0 56.5 -12t47 -32.5t32 -47.5t11.5 -58q0 -30 -11.5 -56.5t-32 -46.5t-47 -32t-56.5 -12q-31 0 -58 12t-47.5 32t-32.5 46.5 t-12 56.5z" />
<glyph unicode="&#x202f;" horiz-adv-x="430" />
<glyph unicode="&#x2039;" horiz-adv-x="524" d="M51.5 654.5q1.5 38.5 32.5 70.5l229 227q29 29 66.5 28.5t64.5 -26.5q14 -13 21 -29.5t7 -34.5t-7 -35.5t-21 -31.5l-170 -168l170 -170q14 -15 21 -32.5t7 -35.5t-7 -35t-21 -30q-27 -26 -64.5 -26t-66.5 28l-229 230q-34 32 -32.5 70.5z" />
<glyph unicode="&#x203a;" horiz-adv-x="522" d="M52 417q0 18 7 35.5t21 32.5l168 170l-168 168q-14 14 -21 31.5t-7 35.5t7 34.5t21 29.5q13 13 29.5 20t34 7t34.5 -7t31 -22l229 -227q31 -32 32.5 -70.5t-32.5 -70.5l-229 -230q-14 -14 -31 -21t-34.5 -7t-34 6.5t-29.5 19.5q-14 13 -21 30t-7 35z" />
<glyph unicode="&#x205f;" horiz-adv-x="538" />
<glyph unicode="&#x20ac;" horiz-adv-x="1260" d="M10 596q0 31 21.5 52.5t52.5 21.5h80q-2 23 -2 47v49v22h-78q-32 0 -53 21.5t-21 52.5q0 32 21 54t53 22h86q32 286 175.5 432t387.5 146q81 0 146 -18t115.5 -48.5t87 -70t60 -82.5t35 -86t11.5 -81q0 -25 -8 -43t-21.5 -29t-31.5 -16.5t-37 -5.5q-36 0 -66 17.5 t-39 54.5q-8 35 -21 74t-40 73t-72.5 56t-118.5 22q-149 0 -240.5 -101t-117.5 -294h456q32 0 54 -22t22 -54q0 -31 -22 -52.5t-54 -21.5h-466v-22v-49t2 -47h364q32 0 54 -21.5t22 -52.5q0 -32 -22 -54t-54 -22h-344q35 -164 122.5 -252t223.5 -88q73 0 119 23t73 57.5 t40.5 74.5t21.5 75q9 37 39 54t66 17q19 0 36.5 -5t30.5 -16.5t21 -30t8 -44.5q0 -56 -26 -123t-81 -125.5t-141 -97.5t-207 -39q-230 0 -369 132.5t-184 387.5h-96q-31 0 -52.5 22t-21.5 54z" />
<glyph unicode="&#x2122;" horiz-adv-x="1341" d="M41 1565q0 20 15.5 35.5t35.5 15.5h400q21 0 36 -15.5t15 -35.5q0 -22 -15 -35.5t-36 -13.5h-144v-500q0 -22 -16 -38.5t-39 -16.5t-40 16.5t-17 38.5v500h-144q-20 0 -35.5 13.5t-15.5 35.5zM635 1016v536q0 28 21 49t49 21q30 0 49 -21t30 -49l162 -424 q42 109 83 211.5t81 210.5v2q11 28 30.5 49t51.5 21q28 0 48 -21t20 -49v-536q0 -20 -15 -34.5t-37 -14.5q-20 0 -35.5 14.5t-15.5 34.5v373q-37 -93 -70.5 -185t-70.5 -186q-9 -19 -28 -35t-42 -16t-39.5 14t-27.5 37l-142 371v-373q0 -20 -14.5 -34.5t-34.5 -14.5 q-22 0 -37.5 14.5t-15.5 34.5z" />
<glyph unicode="&#x25fc;" horiz-adv-x="1185" d="M0 0v1185h1185v-1185h-1185z" />
<glyph unicode="&#xfb01;" horiz-adv-x="965" d="M-20 1065q0 43 29 68.5t77 25.5h64v227q0 47 16 88.5t48.5 73t81 50t112.5 18.5h49q48 0 77 -25.5t29 -68.5q0 -44 -29 -69.5t-77 -25.5h-41q-8 0 -16.5 -2t-16 -7.5t-12 -16t-4.5 -27.5v-215h88q48 0 77 -25.5t29 -68.5t-29 -68.5t-77 -25.5h-88v-860q0 -24 -8.5 -44.5 t-23.5 -35t-35 -23t-42 -8.5t-41.5 8.5t-34.5 23t-23.5 35t-8.5 44.5v860h-64q-48 0 -77 25.5t-29 68.5zM631 1495q0 26 9.5 48t26.5 39t39.5 26.5t47.5 9.5t47.5 -9.5t39 -26.5t26.5 -39t10 -48q0 -25 -10 -47.5t-26.5 -39.5t-39 -26.5t-47.5 -9.5t-47.5 9.5t-39.5 26.5 t-26.5 39.5t-9.5 47.5zM645 111v964q0 24 8.5 44.5t23.5 35t35 23t42 8.5t41.5 -8.5t34.5 -23t23.5 -35t8.5 -44.5v-964q0 -24 -8.5 -44.5t-23.5 -35t-34.5 -23t-41.5 -8.5t-42 8.5t-35 23t-23.5 35t-8.5 44.5z" />
<glyph unicode="&#xfb02;" horiz-adv-x="965" d="M-20 1065q0 43 29 68.5t77 25.5h64v227q0 47 16 88.5t48.5 73t81 50t112.5 18.5h49q48 0 77 -25.5t29 -68.5q0 -44 -29 -69.5t-77 -25.5h-41q-8 0 -16.5 -2t-16 -7.5t-12 -16t-4.5 -27.5v-215h88q48 0 77 -25.5t29 -68.5t-29 -68.5t-77 -25.5h-88v-860q0 -24 -8.5 -44.5 t-23.5 -35t-35 -23t-42 -8.5t-41.5 8.5t-34.5 23t-23.5 35t-8.5 44.5v860h-64q-48 0 -77 25.5t-29 68.5zM645 111v1394q0 24 8.5 44.5t23.5 35t35 23t42 8.5t41.5 -8.5t34.5 -23t23.5 -35t8.5 -44.5v-1394q0 -24 -8.5 -44.5t-23.5 -35t-34.5 -23t-41.5 -8.5t-42 8.5t-35 23 t-23.5 35t-8.5 44.5z" />
</font>
</defs>
</svg>
